  0
SECTION
  2
HEADER
  9
$ANGBASE
  50
0.0
  9
$ANGDIR
  70
1
  9
$MEASUREMENT
  70
0
  0
ENDSEC
  0
SECTION
  2
TABLES
  0
TABLE
  2
LTYPE
  70
4
  0
LTYPE
  5
40F
  2
CONTINUOUS
  70
0
  3
Solid line
  72
65
  73
0
  40
0.0
  0
LTYPE
  5
410
  2
DASHDOT
 70
0
  3
Dash Dot ____ _ ____ _
 72
65
 73
4
 40
2.0
 49
1.25
 49
-0.25
 49
0.25
 49
-0.25
  0
LTYPE
  5
411
  2
DASHED
 70
0
  3
Dashed __ __ __ __ __
 72
65
 73
2
 40
0.75
 49
0.5
 49
-0.25
  0
LTYPE
  5
43B
  2
DOTTED
 70
0
  3
Dotted .  .  .  .
 72
65
 73
2
 40
0.2
 49
0.0
 49
-0.2
  0
ENDTAB
  0
TABLE
  2
STYLE
  70
4
  0
STYLE
  2
KICAD
  70
0
  40
0
  41
1
  42
1
  50
0
  71
0
  3
isocp.shx
  0
STYLE
  2
KICADB
  70
0
  40
0
  41
1
  42
1
  50
0
  71
0
  3
isocp.shx
  0
STYLE
  2
KICADI
  70
0
  40
0
  41
1
  42
1
  50
15
  71
0
  3
isocp.shx
  0
STYLE
  2
KICADBI
  70
0
  40
0
  41
1
  42
1
  50
15
  71
0
  3
isocp.shx
  0
ENDTAB
  0
TABLE
  2
LAYER
  70
1
  0
LAYER
  2
BLACK
  70
0
  62
7
  6
CONTINUOUS
  0
ENDTAB
  0
ENDSEC
  0
SECTION
  2
ENTITIES
0
LINE
8
BLACK
6
CONTINUOUS
10
8.53109
20
-4.53223
11
8.52517
21
-4.53286
0
LINE
8
BLACK
6
CONTINUOUS
10
8.52517
20
-4.53286
11
8.51952
21
-4.5346
0
LINE
8
BLACK
6
CONTINUOUS
10
8.51952
20
-4.5346
11
8.51433
21
-4.53741
0
LINE
8
BLACK
6
CONTINUOUS
10
8.51433
20
-4.53741
11
8.50978
21
-4.54118
0
LINE
8
BLACK
6
CONTINUOUS
10
8.50978
20
-4.54118
11
8.50604
21
-4.54575
0
LINE
8
BLACK
6
CONTINUOUS
10
8.50604
20
-4.54575
11
8.50327
21
-4.55097
0
LINE
8
BLACK
6
CONTINUOUS
10
8.50327
20
-4.55097
11
8.50157
21
-4.55662
0
LINE
8
BLACK
6
CONTINUOUS
10
8.50157
20
-4.55662
11
8.50098
21
-4.56255
0
LINE
8
BLACK
6
CONTINUOUS
10
8.50098
20
-4.56255
11
8.50098
21
-4.65625
0
LINE
8
BLACK
6
CONTINUOUS
10
8.50098
20
-4.65625
11
8.50098
21
-4.65641
0
LINE
8
BLACK
6
CONTINUOUS
10
8.50098
20
-4.65641
11
8.50161
21
-4.66233
0
LINE
8
BLACK
6
CONTINUOUS
10
8.50161
20
-4.66233
11
8.50335
21
-4.66798
0
LINE
8
BLACK
6
CONTINUOUS
10
8.50335
20
-4.66798
11
8.50616
21
-4.67317
0
LINE
8
BLACK
6
CONTINUOUS
10
8.50616
20
-4.67317
11
8.50993
21
-4.67772
0
LINE
8
BLACK
6
CONTINUOUS
10
8.50993
20
-4.67772
11
8.5145
21
-4.68146
0
LINE
8
BLACK
6
CONTINUOUS
10
8.5145
20
-4.68146
11
8.51972
21
-4.68423
0
LINE
8
BLACK
6
CONTINUOUS
10
8.51972
20
-4.68423
11
8.52537
21
-4.68593
0
LINE
8
BLACK
6
CONTINUOUS
10
8.52537
20
-4.68593
11
8.5313
21
-4.68652
0
LINE
8
BLACK
6
CONTINUOUS
10
8.5313
20
-4.68652
11
9.1563
21
-4.68652
0
LINE
8
BLACK
6
CONTINUOUS
10
9.1563
20
-4.68652
11
9.15635
21
-4.68652
0
LINE
8
BLACK
6
CONTINUOUS
10
9.15635
20
-4.68652
11
9.15635
21
-4.68652
0
LINE
8
BLACK
6
CONTINUOUS
10
9.15635
20
-4.68652
11
9.18063
21
-4.6889
0
LINE
8
BLACK
6
CONTINUOUS
10
9.18063
20
-4.6889
11
9.18064
21
-4.6889
0
LINE
8
BLACK
6
CONTINUOUS
10
9.18064
20
-4.6889
11
9.18073
21
-4.68892
0
LINE
8
BLACK
6
CONTINUOUS
10
9.18073
20
-4.68892
11
9.18081
21
-4.68894
0
LINE
8
BLACK
6
CONTINUOUS
10
9.18081
20
-4.68894
11
9.20417
21
-4.69599
0
LINE
8
BLACK
6
CONTINUOUS
10
9.20417
20
-4.69599
11
9.20418
21
-4.69599
0
LINE
8
BLACK
6
CONTINUOUS
10
9.20418
20
-4.69599
11
9.20426
21
-4.69603
0
LINE
8
BLACK
6
CONTINUOUS
10
9.20426
20
-4.69603
11
9.20435
21
-4.69606
0
LINE
8
BLACK
6
CONTINUOUS
10
9.20435
20
-4.69606
11
9.22589
21
-4.70752
0
LINE
8
BLACK
6
CONTINUOUS
10
9.22589
20
-4.70752
11
9.2259
21
-4.70752
0
LINE
8
BLACK
6
CONTINUOUS
10
9.2259
20
-4.70752
11
9.22597
21
-4.70757
0
LINE
8
BLACK
6
CONTINUOUS
10
9.22597
20
-4.70757
11
9.22605
21
-4.70762
0
LINE
8
BLACK
6
CONTINUOUS
10
9.22605
20
-4.70762
11
9.24495
21
-4.72304
0
LINE
8
BLACK
6
CONTINUOUS
10
9.24495
20
-4.72304
11
9.24496
21
-4.72305
0
LINE
8
BLACK
6
CONTINUOUS
10
9.24496
20
-4.72305
11
9.24502
21
-4.72311
0
LINE
8
BLACK
6
CONTINUOUS
10
9.24502
20
-4.72311
11
9.24509
21
-4.72318
0
LINE
8
BLACK
6
CONTINUOUS
10
9.24509
20
-4.72318
11
9.26064
21
-4.74197
0
LINE
8
BLACK
6
CONTINUOUS
10
9.26064
20
-4.74197
11
9.26065
21
-4.74198
0
LINE
8
BLACK
6
CONTINUOUS
10
9.26065
20
-4.74198
11
9.2607
21
-4.74206
0
LINE
8
BLACK
6
CONTINUOUS
10
9.2607
20
-4.74206
11
9.26075
21
-4.74213
0
LINE
8
BLACK
6
CONTINUOUS
10
9.26075
20
-4.74213
11
9.27235
21
-4.76359
0
LINE
8
BLACK
6
CONTINUOUS
10
9.27235
20
-4.76359
11
9.27236
21
-4.7636
0
LINE
8
BLACK
6
CONTINUOUS
10
9.27236
20
-4.7636
11
9.27239
21
-4.76369
0
LINE
8
BLACK
6
CONTINUOUS
10
9.27239
20
-4.76369
11
9.27242
21
-4.76377
0
LINE
8
BLACK
6
CONTINUOUS
10
9.27242
20
-4.76377
11
9.27964
21
-4.78707
0
LINE
8
BLACK
6
CONTINUOUS
10
9.27964
20
-4.78707
11
9.27964
21
-4.78709
0
LINE
8
BLACK
6
CONTINUOUS
10
9.27964
20
-4.78709
11
9.27966
21
-4.78718
0
LINE
8
BLACK
6
CONTINUOUS
10
9.27966
20
-4.78718
11
9.27968
21
-4.78726
0
LINE
8
BLACK
6
CONTINUOUS
10
9.27968
20
-4.78726
11
9.28223
21
-4.81152
0
LINE
8
BLACK
6
CONTINUOUS
10
9.28223
20
-4.81152
11
9.28223
21
-4.81154
0
LINE
8
BLACK
6
CONTINUOUS
10
9.28223
20
-4.81154
11
9.28223
21
-4.81158
0
LINE
8
BLACK
6
CONTINUOUS
10
9.28223
20
-4.81158
11
9.28223
21
-4.81162
0
LINE
8
BLACK
6
CONTINUOUS
10
9.28223
20
-4.81162
11
9.28223
21
-4.81245
0
LINE
8
BLACK
6
CONTINUOUS
10
9.28223
20
-4.81245
11
9.28223
21
-4.81245
0
LINE
8
BLACK
6
CONTINUOUS
10
9.28223
20
-4.81245
11
9.28223
21
-6.56255
0
LINE
8
BLACK
6
CONTINUOUS
10
9.28223
20
-6.56255
11
9.28223
21
-6.5626
0
LINE
8
BLACK
6
CONTINUOUS
10
9.28223
20
-6.5626
11
9.28223
21
-6.5626
0
LINE
8
BLACK
6
CONTINUOUS
10
9.28223
20
-6.5626
11
9.27985
21
-6.58688
0
LINE
8
BLACK
6
CONTINUOUS
10
9.27985
20
-6.58688
11
9.27985
21
-6.58689
0
LINE
8
BLACK
6
CONTINUOUS
10
9.27985
20
-6.58689
11
9.27983
21
-6.58698
0
LINE
8
BLACK
6
CONTINUOUS
10
9.27983
20
-6.58698
11
9.27981
21
-6.58706
0
LINE
8
BLACK
6
CONTINUOUS
10
9.27981
20
-6.58706
11
9.27276
21
-6.61042
0
LINE
8
BLACK
6
CONTINUOUS
10
9.27276
20
-6.61042
11
9.27276
21
-6.61043
0
LINE
8
BLACK
6
CONTINUOUS
10
9.27276
20
-6.61043
11
9.27272
21
-6.61051
0
LINE
8
BLACK
6
CONTINUOUS
10
9.27272
20
-6.61051
11
9.27269
21
-6.6106
0
LINE
8
BLACK
6
CONTINUOUS
10
9.27269
20
-6.6106
11
9.26123
21
-6.63214
0
LINE
8
BLACK
6
CONTINUOUS
10
9.26123
20
-6.63214
11
9.26123
21
-6.63215
0
LINE
8
BLACK
6
CONTINUOUS
10
9.26123
20
-6.63215
11
9.26118
21
-6.63222
0
LINE
8
BLACK
6
CONTINUOUS
10
9.26118
20
-6.63222
11
9.26113
21
-6.6323
0
LINE
8
BLACK
6
CONTINUOUS
10
9.26113
20
-6.6323
11
9.24571
21
-6.6512
0
LINE
8
BLACK
6
CONTINUOUS
10
9.24571
20
-6.6512
11
9.2457
21
-6.65121
0
LINE
8
BLACK
6
CONTINUOUS
10
9.2457
20
-6.65121
11
9.24564
21
-6.65127
0
LINE
8
BLACK
6
CONTINUOUS
10
9.24564
20
-6.65127
11
9.24557
21
-6.65134
0
LINE
8
BLACK
6
CONTINUOUS
10
9.24557
20
-6.65134
11
9.22678
21
-6.66689
0
LINE
8
BLACK
6
CONTINUOUS
10
9.22678
20
-6.66689
11
9.22677
21
-6.6669
0
LINE
8
BLACK
6
CONTINUOUS
10
9.22677
20
-6.6669
11
9.22669
21
-6.66695
0
LINE
8
BLACK
6
CONTINUOUS
10
9.22669
20
-6.66695
11
9.22662
21
-6.667
0
LINE
8
BLACK
6
CONTINUOUS
10
9.22662
20
-6.667
11
9.20516
21
-6.6786
0
LINE
8
BLACK
6
CONTINUOUS
10
9.20516
20
-6.6786
11
9.20515
21
-6.67861
0
LINE
8
BLACK
6
CONTINUOUS
10
9.20515
20
-6.67861
11
9.20506
21
-6.67864
0
LINE
8
BLACK
6
CONTINUOUS
10
9.20506
20
-6.67864
11
9.20498
21
-6.67867
0
LINE
8
BLACK
6
CONTINUOUS
10
9.20498
20
-6.67867
11
9.18168
21
-6.68589
0
LINE
8
BLACK
6
CONTINUOUS
10
9.18168
20
-6.68589
11
9.18166
21
-6.68589
0
LINE
8
BLACK
6
CONTINUOUS
10
9.18166
20
-6.68589
11
9.18158
21
-6.68591
0
LINE
8
BLACK
6
CONTINUOUS
10
9.18158
20
-6.68591
11
9.18149
21
-6.68593
0
LINE
8
BLACK
6
CONTINUOUS
10
9.18149
20
-6.68593
11
9.15723
21
-6.68848
0
LINE
8
BLACK
6
CONTINUOUS
10
9.15723
20
-6.68848
11
9.15721
21
-6.68848
0
LINE
8
BLACK
6
CONTINUOUS
10
9.15721
20
-6.68848
11
9.15717
21
-6.68848
0
LINE
8
BLACK
6
CONTINUOUS
10
9.15717
20
-6.68848
11
9.15713
21
-6.68848
0
LINE
8
BLACK
6
CONTINUOUS
10
9.15713
20
-6.68848
11
9.1563
21
-6.68848
0
LINE
8
BLACK
6
CONTINUOUS
10
9.1563
20
-6.68848
11
9.1563
21
-6.68848
0
LINE
8
BLACK
6
CONTINUOUS
10
9.1563
20
-6.68848
11
5.74995
21
-6.68848
0
LINE
8
BLACK
6
CONTINUOUS
10
5.74995
20
-6.68848
11
5.7499
21
-6.68848
0
LINE
8
BLACK
6
CONTINUOUS
10
5.7499
20
-6.68848
11
5.7499
21
-6.68848
0
LINE
8
BLACK
6
CONTINUOUS
10
5.7499
20
-6.68848
11
5.72562
21
-6.6861
0
LINE
8
BLACK
6
CONTINUOUS
10
5.72562
20
-6.6861
11
5.72561
21
-6.6861
0
LINE
8
BLACK
6
CONTINUOUS
10
5.72561
20
-6.6861
11
5.72552
21
-6.68608
0
LINE
8
BLACK
6
CONTINUOUS
10
5.72552
20
-6.68608
11
5.72544
21
-6.68606
0
LINE
8
BLACK
6
CONTINUOUS
10
5.72544
20
-6.68606
11
5.70208
21
-6.67901
0
LINE
8
BLACK
6
CONTINUOUS
10
5.70208
20
-6.67901
11
5.70207
21
-6.67901
0
LINE
8
BLACK
6
CONTINUOUS
10
5.70207
20
-6.67901
11
5.70199
21
-6.67897
0
LINE
8
BLACK
6
CONTINUOUS
10
5.70199
20
-6.67897
11
5.7019
21
-6.67894
0
LINE
8
BLACK
6
CONTINUOUS
10
5.7019
20
-6.67894
11
5.68036
21
-6.66748
0
LINE
8
BLACK
6
CONTINUOUS
10
5.68036
20
-6.66748
11
5.68035
21
-6.66748
0
LINE
8
BLACK
6
CONTINUOUS
10
5.68035
20
-6.66748
11
5.68028
21
-6.66743
0
LINE
8
BLACK
6
CONTINUOUS
10
5.68028
20
-6.66743
11
5.6802
21
-6.66738
0
LINE
8
BLACK
6
CONTINUOUS
10
5.6802
20
-6.66738
11
5.6613
21
-6.65196
0
LINE
8
BLACK
6
CONTINUOUS
10
5.6613
20
-6.65196
11
5.66129
21
-6.65195
0
LINE
8
BLACK
6
CONTINUOUS
10
5.66129
20
-6.65195
11
5.66123
21
-6.65189
0
LINE
8
BLACK
6
CONTINUOUS
10
5.66123
20
-6.65189
11
5.66116
21
-6.65182
0
LINE
8
BLACK
6
CONTINUOUS
10
5.66116
20
-6.65182
11
5.64561
21
-6.63303
0
LINE
8
BLACK
6
CONTINUOUS
10
5.64561
20
-6.63303
11
5.6456
21
-6.63302
0
LINE
8
BLACK
6
CONTINUOUS
10
5.6456
20
-6.63302
11
5.64555
21
-6.63294
0
LINE
8
BLACK
6
CONTINUOUS
10
5.64555
20
-6.63294
11
5.6455
21
-6.63287
0
LINE
8
BLACK
6
CONTINUOUS
10
5.6455
20
-6.63287
11
5.6339
21
-6.61141
0
LINE
8
BLACK
6
CONTINUOUS
10
5.6339
20
-6.61141
11
5.63389
21
-6.6114
0
LINE
8
BLACK
6
CONTINUOUS
10
5.63389
20
-6.6114
11
5.63386
21
-6.61131
0
LINE
8
BLACK
6
CONTINUOUS
10
5.63386
20
-6.61131
11
5.63383
21
-6.61123
0
LINE
8
BLACK
6
CONTINUOUS
10
5.63383
20
-6.61123
11
5.62661
21
-6.58793
0
LINE
8
BLACK
6
CONTINUOUS
10
5.62661
20
-6.58793
11
5.62661
21
-6.58791
0
LINE
8
BLACK
6
CONTINUOUS
10
5.62661
20
-6.58791
11
5.62659
21
-6.58783
0
LINE
8
BLACK
6
CONTINUOUS
10
5.62659
20
-6.58783
11
5.62657
21
-6.58774
0
LINE
8
BLACK
6
CONTINUOUS
10
5.62657
20
-6.58774
11
5.62402
21
-6.56348
0
LINE
8
BLACK
6
CONTINUOUS
10
5.62402
20
-6.56348
11
5.62402
21
-6.56346
0
LINE
8
BLACK
6
CONTINUOUS
10
5.62402
20
-6.56346
11
5.62402
21
-6.56342
0
LINE
8
BLACK
6
CONTINUOUS
10
5.62402
20
-6.56342
11
5.62402
21
-6.56338
0
LINE
8
BLACK
6
CONTINUOUS
10
5.62402
20
-6.56338
11
5.62402
21
-6.56255
0
LINE
8
BLACK
6
CONTINUOUS
10
5.62402
20
-6.56255
11
5.62402
21
-6.56255
0
LINE
8
BLACK
6
CONTINUOUS
10
5.62402
20
-6.56255
11
5.62402
21
-6.56251
0
LINE
8
BLACK
6
CONTINUOUS
10
5.62402
20
-6.56251
11
5.62402
21
-6.5625
0
LINE
8
BLACK
6
CONTINUOUS
10
5.62402
20
-6.5625
11
5.62402
21
-6.56249
0
LINE
8
BLACK
6
CONTINUOUS
10
5.62402
20
-6.56249
11
5.62402
21
-4.81245
0
LINE
8
BLACK
6
CONTINUOUS
10
5.62402
20
-4.81245
11
5.62402
21
-4.8124
0
LINE
8
BLACK
6
CONTINUOUS
10
5.62402
20
-4.8124
11
5.62402
21
-4.8124
0
LINE
8
BLACK
6
CONTINUOUS
10
5.62402
20
-4.8124
11
5.6264
21
-4.78812
0
LINE
8
BLACK
6
CONTINUOUS
10
5.6264
20
-4.78812
11
5.6264
21
-4.78811
0
LINE
8
BLACK
6
CONTINUOUS
10
5.6264
20
-4.78811
11
5.62642
21
-4.78802
0
LINE
8
BLACK
6
CONTINUOUS
10
5.62642
20
-4.78802
11
5.62644
21
-4.78794
0
LINE
8
BLACK
6
CONTINUOUS
10
5.62644
20
-4.78794
11
5.63349
21
-4.76458
0
LINE
8
BLACK
6
CONTINUOUS
10
5.63349
20
-4.76458
11
5.63349
21
-4.76457
0
LINE
8
BLACK
6
CONTINUOUS
10
5.63349
20
-4.76457
11
5.63353
21
-4.76449
0
LINE
8
BLACK
6
CONTINUOUS
10
5.63353
20
-4.76449
11
5.63356
21
-4.7644
0
LINE
8
BLACK
6
CONTINUOUS
10
5.63356
20
-4.7644
11
5.64502
21
-4.74286
0
LINE
8
BLACK
6
CONTINUOUS
10
5.64502
20
-4.74286
11
5.64502
21
-4.74285
0
LINE
8
BLACK
6
CONTINUOUS
10
5.64502
20
-4.74285
11
5.64507
21
-4.74278
0
LINE
8
BLACK
6
CONTINUOUS
10
5.64507
20
-4.74278
11
5.64512
21
-4.7427
0
LINE
8
BLACK
6
CONTINUOUS
10
5.64512
20
-4.7427
11
5.66054
21
-4.7238
0
LINE
8
BLACK
6
CONTINUOUS
10
5.66054
20
-4.7238
11
5.66055
21
-4.72379
0
LINE
8
BLACK
6
CONTINUOUS
10
5.66055
20
-4.72379
11
5.66061
21
-4.72373
0
LINE
8
BLACK
6
CONTINUOUS
10
5.66061
20
-4.72373
11
5.66068
21
-4.72366
0
LINE
8
BLACK
6
CONTINUOUS
10
5.66068
20
-4.72366
11
5.67947
21
-4.70811
0
LINE
8
BLACK
6
CONTINUOUS
10
5.67947
20
-4.70811
11
5.67948
21
-4.7081
0
LINE
8
BLACK
6
CONTINUOUS
10
5.67948
20
-4.7081
11
5.67956
21
-4.70805
0
LINE
8
BLACK
6
CONTINUOUS
10
5.67956
20
-4.70805
11
5.67963
21
-4.708
0
LINE
8
BLACK
6
CONTINUOUS
10
5.67963
20
-4.708
11
5.70109
21
-4.6964
0
LINE
8
BLACK
6
CONTINUOUS
10
5.70109
20
-4.6964
11
5.7011
21
-4.69639
0
LINE
8
BLACK
6
CONTINUOUS
10
5.7011
20
-4.69639
11
5.70119
21
-4.69636
0
LINE
8
BLACK
6
CONTINUOUS
10
5.70119
20
-4.69636
11
5.70127
21
-4.69633
0
LINE
8
BLACK
6
CONTINUOUS
10
5.70127
20
-4.69633
11
5.72457
21
-4.68911
0
LINE
8
BLACK
6
CONTINUOUS
10
5.72457
20
-4.68911
11
5.72457
21
-4.68911
0
LINE
8
BLACK
6
CONTINUOUS
10
5.72457
20
-4.68911
11
5.72459
21
-4.68911
0
LINE
8
BLACK
6
CONTINUOUS
10
5.72459
20
-4.68911
11
5.72468
21
-4.68909
0
LINE
8
BLACK
6
CONTINUOUS
10
5.72468
20
-4.68909
11
5.72476
21
-4.68907
0
LINE
8
BLACK
6
CONTINUOUS
10
5.72476
20
-4.68907
11
5.74902
21
-4.68652
0
LINE
8
BLACK
6
CONTINUOUS
10
5.74902
20
-4.68652
11
5.74904
21
-4.68652
0
LINE
8
BLACK
6
CONTINUOUS
10
5.74904
20
-4.68652
11
5.74908
21
-4.68652
0
LINE
8
BLACK
6
CONTINUOUS
10
5.74908
20
-4.68652
11
5.74912
21
-4.68652
0
LINE
8
BLACK
6
CONTINUOUS
10
5.74912
20
-4.68652
11
5.74995
21
-4.68652
0
LINE
8
BLACK
6
CONTINUOUS
10
5.74995
20
-4.68652
11
5.74995
21
-4.68652
0
LINE
8
BLACK
6
CONTINUOUS
10
5.74995
20
-4.68652
11
6.375
21
-4.68652
0
LINE
8
BLACK
6
CONTINUOUS
10
6.375
20
-4.68652
11
6.37516
21
-4.68652
0
LINE
8
BLACK
6
CONTINUOUS
10
6.37516
20
-4.68652
11
6.38108
21
-4.68589
0
LINE
8
BLACK
6
CONTINUOUS
10
6.38108
20
-4.68589
11
6.38673
21
-4.68415
0
LINE
8
BLACK
6
CONTINUOUS
10
6.38673
20
-4.68415
11
6.39192
21
-4.68134
0
LINE
8
BLACK
6
CONTINUOUS
10
6.39192
20
-4.68134
11
6.39647
21
-4.67757
0
LINE
8
BLACK
6
CONTINUOUS
10
6.39647
20
-4.67757
11
6.40021
21
-4.673
0
LINE
8
BLACK
6
CONTINUOUS
10
6.40021
20
-4.673
11
6.40298
21
-4.66778
0
LINE
8
BLACK
6
CONTINUOUS
10
6.40298
20
-4.66778
11
6.40468
21
-4.66213
0
LINE
8
BLACK
6
CONTINUOUS
10
6.40468
20
-4.66213
11
6.40527
21
-4.6562
0
LINE
8
BLACK
6
CONTINUOUS
10
6.40527
20
-4.6562
11
6.40527
21
-4.5625
0
LINE
8
BLACK
6
CONTINUOUS
10
6.40527
20
-4.5625
11
6.40527
21
-4.56234
0
LINE
8
BLACK
6
CONTINUOUS
10
6.40527
20
-4.56234
11
6.40464
21
-4.55642
0
LINE
8
BLACK
6
CONTINUOUS
10
6.40464
20
-4.55642
11
6.4029
21
-4.55077
0
LINE
8
BLACK
6
CONTINUOUS
10
6.4029
20
-4.55077
11
6.40009
21
-4.54558
0
LINE
8
BLACK
6
CONTINUOUS
10
6.40009
20
-4.54558
11
6.39632
21
-4.54103
0
LINE
8
BLACK
6
CONTINUOUS
10
6.39632
20
-4.54103
11
6.39175
21
-4.53729
0
LINE
8
BLACK
6
CONTINUOUS
10
6.39175
20
-4.53729
11
6.38653
21
-4.53452
0
LINE
8
BLACK
6
CONTINUOUS
10
6.38653
20
-4.53452
11
6.38088
21
-4.53282
0
LINE
8
BLACK
6
CONTINUOUS
10
6.38088
20
-4.53282
11
6.37495
21
-4.53223
0
LINE
8
BLACK
6
CONTINUOUS
10
6.37495
20
-4.53223
11
5.74995
21
-4.53223
0
LINE
8
BLACK
6
CONTINUOUS
10
5.74995
20
-4.53223
11
5.7499
21
-4.53223
0
LINE
8
BLACK
6
CONTINUOUS
10
5.7499
20
-4.53223
11
5.7499
21
-4.53223
0
LINE
8
BLACK
6
CONTINUOUS
10
5.7499
20
-4.53223
11
5.72562
21
-4.52985
0
LINE
8
BLACK
6
CONTINUOUS
10
5.72562
20
-4.52985
11
5.72561
21
-4.52985
0
LINE
8
BLACK
6
CONTINUOUS
10
5.72561
20
-4.52985
11
5.72552
21
-4.52983
0
LINE
8
BLACK
6
CONTINUOUS
10
5.72552
20
-4.52983
11
5.72544
21
-4.52981
0
LINE
8
BLACK
6
CONTINUOUS
10
5.72544
20
-4.52981
11
5.70208
21
-4.52276
0
LINE
8
BLACK
6
CONTINUOUS
10
5.70208
20
-4.52276
11
5.70207
21
-4.52276
0
LINE
8
BLACK
6
CONTINUOUS
10
5.70207
20
-4.52276
11
5.70199
21
-4.52272
0
LINE
8
BLACK
6
CONTINUOUS
10
5.70199
20
-4.52272
11
5.7019
21
-4.52269
0
LINE
8
BLACK
6
CONTINUOUS
10
5.7019
20
-4.52269
11
5.68036
21
-4.51123
0
LINE
8
BLACK
6
CONTINUOUS
10
5.68036
20
-4.51123
11
5.68035
21
-4.51123
0
LINE
8
BLACK
6
CONTINUOUS
10
5.68035
20
-4.51123
11
5.68028
21
-4.51118
0
LINE
8
BLACK
6
CONTINUOUS
10
5.68028
20
-4.51118
11
5.6802
21
-4.51113
0
LINE
8
BLACK
6
CONTINUOUS
10
5.6802
20
-4.51113
11
5.6613
21
-4.49571
0
LINE
8
BLACK
6
CONTINUOUS
10
5.6613
20
-4.49571
11
5.66129
21
-4.4957
0
LINE
8
BLACK
6
CONTINUOUS
10
5.66129
20
-4.4957
11
5.66123
21
-4.49564
0
LINE
8
BLACK
6
CONTINUOUS
10
5.66123
20
-4.49564
11
5.66116
21
-4.49557
0
LINE
8
BLACK
6
CONTINUOUS
10
5.66116
20
-4.49557
11
5.64561
21
-4.47678
0
LINE
8
BLACK
6
CONTINUOUS
10
5.64561
20
-4.47678
11
5.6456
21
-4.47677
0
LINE
8
BLACK
6
CONTINUOUS
10
5.6456
20
-4.47677
11
5.64555
21
-4.47669
0
LINE
8
BLACK
6
CONTINUOUS
10
5.64555
20
-4.47669
11
5.6455
21
-4.47662
0
LINE
8
BLACK
6
CONTINUOUS
10
5.6455
20
-4.47662
11
5.6339
21
-4.45516
0
LINE
8
BLACK
6
CONTINUOUS
10
5.6339
20
-4.45516
11
5.63389
21
-4.45515
0
LINE
8
BLACK
6
CONTINUOUS
10
5.63389
20
-4.45515
11
5.63386
21
-4.45506
0
LINE
8
BLACK
6
CONTINUOUS
10
5.63386
20
-4.45506
11
5.63383
21
-4.45498
0
LINE
8
BLACK
6
CONTINUOUS
10
5.63383
20
-4.45498
11
5.62661
21
-4.43168
0
LINE
8
BLACK
6
CONTINUOUS
10
5.62661
20
-4.43168
11
5.62661
21
-4.43166
0
LINE
8
BLACK
6
CONTINUOUS
10
5.62661
20
-4.43166
11
5.62659
21
-4.43158
0
LINE
8
BLACK
6
CONTINUOUS
10
5.62659
20
-4.43158
11
5.62657
21
-4.43149
0
LINE
8
BLACK
6
CONTINUOUS
10
5.62657
20
-4.43149
11
5.62402
21
-4.40723
0
LINE
8
BLACK
6
CONTINUOUS
10
5.62402
20
-4.40723
11
5.62402
21
-4.40721
0
LINE
8
BLACK
6
CONTINUOUS
10
5.62402
20
-4.40721
11
5.62402
21
-4.40717
0
LINE
8
BLACK
6
CONTINUOUS
10
5.62402
20
-4.40717
11
5.62402
21
-4.40713
0
LINE
8
BLACK
6
CONTINUOUS
10
5.62402
20
-4.40713
11
5.62402
21
-4.4063
0
LINE
8
BLACK
6
CONTINUOUS
10
5.62402
20
-4.4063
11
5.62402
21
-4.4063
0
LINE
8
BLACK
6
CONTINUOUS
10
5.62402
20
-4.4063
11
5.62402
21
-4.40626
0
LINE
8
BLACK
6
CONTINUOUS
10
5.62402
20
-4.40626
11
5.62402
21
-4.40625
0
LINE
8
BLACK
6
CONTINUOUS
10
5.62402
20
-4.40625
11
5.62402
21
-4.40624
0
LINE
8
BLACK
6
CONTINUOUS
10
5.62402
20
-4.40624
11
5.62402
21
-2.6562
0
LINE
8
BLACK
6
CONTINUOUS
10
5.62402
20
-2.6562
11
5.62402
21
-2.65615
0
LINE
8
BLACK
6
CONTINUOUS
10
5.62402
20
-2.65615
11
5.62402
21
-2.65615
0
LINE
8
BLACK
6
CONTINUOUS
10
5.62402
20
-2.65615
11
5.6264
21
-2.63187
0
LINE
8
BLACK
6
CONTINUOUS
10
5.6264
20
-2.63187
11
5.6264
21
-2.63186
0
LINE
8
BLACK
6
CONTINUOUS
10
5.6264
20
-2.63186
11
5.62642
21
-2.63177
0
LINE
8
BLACK
6
CONTINUOUS
10
5.62642
20
-2.63177
11
5.62644
21
-2.63169
0
LINE
8
BLACK
6
CONTINUOUS
10
5.62644
20
-2.63169
11
5.63349
21
-2.60833
0
LINE
8
BLACK
6
CONTINUOUS
10
5.63349
20
-2.60833
11
5.63349
21
-2.60832
0
LINE
8
BLACK
6
CONTINUOUS
10
5.63349
20
-2.60832
11
5.63353
21
-2.60824
0
LINE
8
BLACK
6
CONTINUOUS
10
5.63353
20
-2.60824
11
5.63356
21
-2.60815
0
LINE
8
BLACK
6
CONTINUOUS
10
5.63356
20
-2.60815
11
5.64502
21
-2.58661
0
LINE
8
BLACK
6
CONTINUOUS
10
5.64502
20
-2.58661
11
5.64502
21
-2.5866
0
LINE
8
BLACK
6
CONTINUOUS
10
5.64502
20
-2.5866
11
5.64507
21
-2.58653
0
LINE
8
BLACK
6
CONTINUOUS
10
5.64507
20
-2.58653
11
5.64512
21
-2.58645
0
LINE
8
BLACK
6
CONTINUOUS
10
5.64512
20
-2.58645
11
5.66054
21
-2.56755
0
LINE
8
BLACK
6
CONTINUOUS
10
5.66054
20
-2.56755
11
5.66055
21
-2.56754
0
LINE
8
BLACK
6
CONTINUOUS
10
5.66055
20
-2.56754
11
5.66061
21
-2.56748
0
LINE
8
BLACK
6
CONTINUOUS
10
5.66061
20
-2.56748
11
5.66068
21
-2.56741
0
LINE
8
BLACK
6
CONTINUOUS
10
5.66068
20
-2.56741
11
5.67947
21
-2.55186
0
LINE
8
BLACK
6
CONTINUOUS
10
5.67947
20
-2.55186
11
5.67948
21
-2.55185
0
LINE
8
BLACK
6
CONTINUOUS
10
5.67948
20
-2.55185
11
5.67956
21
-2.5518
0
LINE
8
BLACK
6
CONTINUOUS
10
5.67956
20
-2.5518
11
5.67963
21
-2.55175
0
LINE
8
BLACK
6
CONTINUOUS
10
5.67963
20
-2.55175
11
5.70109
21
-2.54015
0
LINE
8
BLACK
6
CONTINUOUS
10
5.70109
20
-2.54015
11
5.7011
21
-2.54014
0
LINE
8
BLACK
6
CONTINUOUS
10
5.7011
20
-2.54014
11
5.70119
21
-2.54011
0
LINE
8
BLACK
6
CONTINUOUS
10
5.70119
20
-2.54011
11
5.70127
21
-2.54008
0
LINE
8
BLACK
6
CONTINUOUS
10
5.70127
20
-2.54008
11
5.72457
21
-2.53286
0
LINE
8
BLACK
6
CONTINUOUS
10
5.72457
20
-2.53286
11
5.72457
21
-2.53286
0
LINE
8
BLACK
6
CONTINUOUS
10
5.72457
20
-2.53286
11
5.72459
21
-2.53286
0
LINE
8
BLACK
6
CONTINUOUS
10
5.72459
20
-2.53286
11
5.72468
21
-2.53284
0
LINE
8
BLACK
6
CONTINUOUS
10
5.72468
20
-2.53284
11
5.72476
21
-2.53282
0
LINE
8
BLACK
6
CONTINUOUS
10
5.72476
20
-2.53282
11
5.74902
21
-2.53027
0
LINE
8
BLACK
6
CONTINUOUS
10
5.74902
20
-2.53027
11
5.74904
21
-2.53027
0
LINE
8
BLACK
6
CONTINUOUS
10
5.74904
20
-2.53027
11
5.74908
21
-2.53027
0
LINE
8
BLACK
6
CONTINUOUS
10
5.74908
20
-2.53027
11
5.74912
21
-2.53027
0
LINE
8
BLACK
6
CONTINUOUS
10
5.74912
20
-2.53027
11
5.74995
21
-2.53027
0
LINE
8
BLACK
6
CONTINUOUS
10
5.74995
20
-2.53027
11
5.74995
21
-2.53027
0
LINE
8
BLACK
6
CONTINUOUS
10
5.74995
20
-2.53027
11
9.1563
21
-2.53027
0
LINE
8
BLACK
6
CONTINUOUS
10
9.1563
20
-2.53027
11
9.15635
21
-2.53027
0
LINE
8
BLACK
6
CONTINUOUS
10
9.15635
20
-2.53027
11
9.15635
21
-2.53027
0
LINE
8
BLACK
6
CONTINUOUS
10
9.15635
20
-2.53027
11
9.18063
21
-2.53265
0
LINE
8
BLACK
6
CONTINUOUS
10
9.18063
20
-2.53265
11
9.18064
21
-2.53265
0
LINE
8
BLACK
6
CONTINUOUS
10
9.18064
20
-2.53265
11
9.18073
21
-2.53267
0
LINE
8
BLACK
6
CONTINUOUS
10
9.18073
20
-2.53267
11
9.18081
21
-2.53269
0
LINE
8
BLACK
6
CONTINUOUS
10
9.18081
20
-2.53269
11
9.20417
21
-2.53974
0
LINE
8
BLACK
6
CONTINUOUS
10
9.20417
20
-2.53974
11
9.20418
21
-2.53974
0
LINE
8
BLACK
6
CONTINUOUS
10
9.20418
20
-2.53974
11
9.20426
21
-2.53978
0
LINE
8
BLACK
6
CONTINUOUS
10
9.20426
20
-2.53978
11
9.20435
21
-2.53981
0
LINE
8
BLACK
6
CONTINUOUS
10
9.20435
20
-2.53981
11
9.22589
21
-2.55127
0
LINE
8
BLACK
6
CONTINUOUS
10
9.22589
20
-2.55127
11
9.2259
21
-2.55127
0
LINE
8
BLACK
6
CONTINUOUS
10
9.2259
20
-2.55127
11
9.22597
21
-2.55132
0
LINE
8
BLACK
6
CONTINUOUS
10
9.22597
20
-2.55132
11
9.22605
21
-2.55137
0
LINE
8
BLACK
6
CONTINUOUS
10
9.22605
20
-2.55137
11
9.24495
21
-2.56679
0
LINE
8
BLACK
6
CONTINUOUS
10
9.24495
20
-2.56679
11
9.24496
21
-2.5668
0
LINE
8
BLACK
6
CONTINUOUS
10
9.24496
20
-2.5668
11
9.24502
21
-2.56686
0
LINE
8
BLACK
6
CONTINUOUS
10
9.24502
20
-2.56686
11
9.24509
21
-2.56693
0
LINE
8
BLACK
6
CONTINUOUS
10
9.24509
20
-2.56693
11
9.26064
21
-2.58572
0
LINE
8
BLACK
6
CONTINUOUS
10
9.26064
20
-2.58572
11
9.26065
21
-2.58573
0
LINE
8
BLACK
6
CONTINUOUS
10
9.26065
20
-2.58573
11
9.2607
21
-2.58581
0
LINE
8
BLACK
6
CONTINUOUS
10
9.2607
20
-2.58581
11
9.26075
21
-2.58588
0
LINE
8
BLACK
6
CONTINUOUS
10
9.26075
20
-2.58588
11
9.27235
21
-2.60734
0
LINE
8
BLACK
6
CONTINUOUS
10
9.27235
20
-2.60734
11
9.27236
21
-2.60735
0
LINE
8
BLACK
6
CONTINUOUS
10
9.27236
20
-2.60735
11
9.27239
21
-2.60744
0
LINE
8
BLACK
6
CONTINUOUS
10
9.27239
20
-2.60744
11
9.27242
21
-2.60752
0
LINE
8
BLACK
6
CONTINUOUS
10
9.27242
20
-2.60752
11
9.27964
21
-2.63082
0
LINE
8
BLACK
6
CONTINUOUS
10
9.27964
20
-2.63082
11
9.27964
21
-2.63084
0
LINE
8
BLACK
6
CONTINUOUS
10
9.27964
20
-2.63084
11
9.27966
21
-2.63093
0
LINE
8
BLACK
6
CONTINUOUS
10
9.27966
20
-2.63093
11
9.27968
21
-2.63101
0
LINE
8
BLACK
6
CONTINUOUS
10
9.27968
20
-2.63101
11
9.28223
21
-2.65527
0
LINE
8
BLACK
6
CONTINUOUS
10
9.28223
20
-2.65527
11
9.28223
21
-2.65529
0
LINE
8
BLACK
6
CONTINUOUS
10
9.28223
20
-2.65529
11
9.28223
21
-2.65533
0
LINE
8
BLACK
6
CONTINUOUS
10
9.28223
20
-2.65533
11
9.28223
21
-2.65537
0
LINE
8
BLACK
6
CONTINUOUS
10
9.28223
20
-2.65537
11
9.28223
21
-2.6562
0
LINE
8
BLACK
6
CONTINUOUS
10
9.28223
20
-2.6562
11
9.28223
21
-2.6562
0
LINE
8
BLACK
6
CONTINUOUS
10
9.28223
20
-2.6562
11
9.28223
21
-4.4063
0
LINE
8
BLACK
6
CONTINUOUS
10
9.28223
20
-4.4063
11
9.28223
21
-4.40635
0
LINE
8
BLACK
6
CONTINUOUS
10
9.28223
20
-4.40635
11
9.28223
21
-4.40635
0
LINE
8
BLACK
6
CONTINUOUS
10
9.28223
20
-4.40635
11
9.27985
21
-4.43063
0
LINE
8
BLACK
6
CONTINUOUS
10
9.27985
20
-4.43063
11
9.27985
21
-4.43064
0
LINE
8
BLACK
6
CONTINUOUS
10
9.27985
20
-4.43064
11
9.27983
21
-4.43073
0
LINE
8
BLACK
6
CONTINUOUS
10
9.27983
20
-4.43073
11
9.27981
21
-4.43081
0
LINE
8
BLACK
6
CONTINUOUS
10
9.27981
20
-4.43081
11
9.27276
21
-4.45417
0
LINE
8
BLACK
6
CONTINUOUS
10
9.27276
20
-4.45417
11
9.27276
21
-4.45418
0
LINE
8
BLACK
6
CONTINUOUS
10
9.27276
20
-4.45418
11
9.27272
21
-4.45426
0
LINE
8
BLACK
6
CONTINUOUS
10
9.27272
20
-4.45426
11
9.27269
21
-4.45435
0
LINE
8
BLACK
6
CONTINUOUS
10
9.27269
20
-4.45435
11
9.26123
21
-4.47589
0
LINE
8
BLACK
6
CONTINUOUS
10
9.26123
20
-4.47589
11
9.26123
21
-4.4759
0
LINE
8
BLACK
6
CONTINUOUS
10
9.26123
20
-4.4759
11
9.26118
21
-4.47597
0
LINE
8
BLACK
6
CONTINUOUS
10
9.26118
20
-4.47597
11
9.26113
21
-4.47605
0
LINE
8
BLACK
6
CONTINUOUS
10
9.26113
20
-4.47605
11
9.24571
21
-4.49495
0
LINE
8
BLACK
6
CONTINUOUS
10
9.24571
20
-4.49495
11
9.2457
21
-4.49496
0
LINE
8
BLACK
6
CONTINUOUS
10
9.2457
20
-4.49496
11
9.24564
21
-4.49502
0
LINE
8
BLACK
6
CONTINUOUS
10
9.24564
20
-4.49502
11
9.24557
21
-4.49509
0
LINE
8
BLACK
6
CONTINUOUS
10
9.24557
20
-4.49509
11
9.22678
21
-4.51064
0
LINE
8
BLACK
6
CONTINUOUS
10
9.22678
20
-4.51064
11
9.22677
21
-4.51065
0
LINE
8
BLACK
6
CONTINUOUS
10
9.22677
20
-4.51065
11
9.22669
21
-4.5107
0
LINE
8
BLACK
6
CONTINUOUS
10
9.22669
20
-4.5107
11
9.22662
21
-4.51075
0
LINE
8
BLACK
6
CONTINUOUS
10
9.22662
20
-4.51075
11
9.20516
21
-4.52235
0
LINE
8
BLACK
6
CONTINUOUS
10
9.20516
20
-4.52235
11
9.20515
21
-4.52236
0
LINE
8
BLACK
6
CONTINUOUS
10
9.20515
20
-4.52236
11
9.20506
21
-4.52239
0
LINE
8
BLACK
6
CONTINUOUS
10
9.20506
20
-4.52239
11
9.20498
21
-4.52242
0
LINE
8
BLACK
6
CONTINUOUS
10
9.20498
20
-4.52242
11
9.18168
21
-4.52964
0
LINE
8
BLACK
6
CONTINUOUS
10
9.18168
20
-4.52964
11
9.18166
21
-4.52964
0
LINE
8
BLACK
6
CONTINUOUS
10
9.18166
20
-4.52964
11
9.18158
21
-4.52966
0
LINE
8
BLACK
6
CONTINUOUS
10
9.18158
20
-4.52966
11
9.18149
21
-4.52968
0
LINE
8
BLACK
6
CONTINUOUS
10
9.18149
20
-4.52968
11
9.15723
21
-4.53223
0
LINE
8
BLACK
6
CONTINUOUS
10
9.15723
20
-4.53223
11
9.15721
21
-4.53223
0
LINE
8
BLACK
6
CONTINUOUS
10
9.15721
20
-4.53223
11
9.15717
21
-4.53223
0
LINE
8
BLACK
6
CONTINUOUS
10
9.15717
20
-4.53223
11
9.15713
21
-4.53223
0
LINE
8
BLACK
6
CONTINUOUS
10
9.15713
20
-4.53223
11
9.1563
21
-4.53223
0
LINE
8
BLACK
6
CONTINUOUS
10
9.1563
20
-4.53223
11
9.1563
21
-4.53223
0
LINE
8
BLACK
6
CONTINUOUS
10
9.1563
20
-4.53223
11
8.53125
21
-4.53223
0
LINE
8
BLACK
6
CONTINUOUS
10
8.53125
20
-4.53223
11
8.53109
21
-4.53223
0
LINE
8
BLACK
6
CONTINUOUS
10
6.38118
20
-4.53087
11
6.38127
21
-4.53089
0
LINE
8
BLACK
6
CONTINUOUS
10
6.38127
20
-4.53089
11
6.38135
21
-4.5309
0
LINE
8
BLACK
6
CONTINUOUS
10
6.38135
20
-4.5309
11
6.38719
21
-4.53267
0
LINE
8
BLACK
6
CONTINUOUS
10
6.38719
20
-4.53267
11
6.38721
21
-4.53267
0
LINE
8
BLACK
6
CONTINUOUS
10
6.38721
20
-4.53267
11
6.38729
21
-4.53271
0
LINE
8
BLACK
6
CONTINUOUS
10
6.38729
20
-4.53271
11
6.38737
21
-4.53274
0
LINE
8
BLACK
6
CONTINUOUS
10
6.38737
20
-4.53274
11
6.39276
21
-4.5356
0
LINE
8
BLACK
6
CONTINUOUS
10
6.39276
20
-4.5356
11
6.39277
21
-4.53561
0
LINE
8
BLACK
6
CONTINUOUS
10
6.39277
20
-4.53561
11
6.39284
21
-4.53566
0
LINE
8
BLACK
6
CONTINUOUS
10
6.39284
20
-4.53566
11
6.39292
21
-4.53571
0
LINE
8
BLACK
6
CONTINUOUS
10
6.39292
20
-4.53571
11
6.39764
21
-4.53956
0
LINE
8
BLACK
6
CONTINUOUS
10
6.39764
20
-4.53956
11
6.39765
21
-4.53957
0
LINE
8
BLACK
6
CONTINUOUS
10
6.39765
20
-4.53957
11
6.39771
21
-4.53964
0
LINE
8
BLACK
6
CONTINUOUS
10
6.39771
20
-4.53964
11
6.39778
21
-4.5397
0
LINE
8
BLACK
6
CONTINUOUS
10
6.39778
20
-4.5397
11
6.40167
21
-4.5444
0
LINE
8
BLACK
6
CONTINUOUS
10
6.40167
20
-4.5444
11
6.40167
21
-4.54441
0
LINE
8
BLACK
6
CONTINUOUS
10
6.40167
20
-4.54441
11
6.40172
21
-4.54448
0
LINE
8
BLACK
6
CONTINUOUS
10
6.40172
20
-4.54448
11
6.40177
21
-4.54456
0
LINE
8
BLACK
6
CONTINUOUS
10
6.40177
20
-4.54456
11
6.40467
21
-4.54992
0
LINE
8
BLACK
6
CONTINUOUS
10
6.40467
20
-4.54992
11
6.40467
21
-4.54992
0
LINE
8
BLACK
6
CONTINUOUS
10
6.40467
20
-4.54992
11
6.40467
21
-4.54992
0
LINE
8
BLACK
6
CONTINUOUS
10
6.40467
20
-4.54992
11
6.40468
21
-4.54993
0
LINE
8
BLACK
6
CONTINUOUS
10
6.40468
20
-4.54993
11
6.40471
21
-4.55002
0
LINE
8
BLACK
6
CONTINUOUS
10
6.40471
20
-4.55002
11
6.40475
21
-4.5501
0
LINE
8
BLACK
6
CONTINUOUS
10
6.40475
20
-4.5501
11
6.40655
21
-4.55593
0
LINE
8
BLACK
6
CONTINUOUS
10
6.40655
20
-4.55593
11
6.40656
21
-4.55594
0
LINE
8
BLACK
6
CONTINUOUS
10
6.40656
20
-4.55594
11
6.40657
21
-4.55603
0
LINE
8
BLACK
6
CONTINUOUS
10
6.40657
20
-4.55603
11
6.40659
21
-4.55611
0
LINE
8
BLACK
6
CONTINUOUS
10
6.40659
20
-4.55611
11
6.40723
21
-4.56218
0
LINE
8
BLACK
6
CONTINUOUS
10
6.40723
20
-4.56218
11
6.40723
21
-4.56219
0
LINE
8
BLACK
6
CONTINUOUS
10
6.40723
20
-4.56219
11
6.40723
21
-4.56224
0
LINE
8
BLACK
6
CONTINUOUS
10
6.40723
20
-4.56224
11
6.40723
21
-4.56228
0
LINE
8
BLACK
6
CONTINUOUS
10
6.40723
20
-4.56228
11
6.40723
21
-4.56245
0
LINE
8
BLACK
6
CONTINUOUS
10
6.40723
20
-4.56245
11
6.40723
21
-4.56245
0
LINE
8
BLACK
6
CONTINUOUS
10
6.40723
20
-4.56245
11
6.40723
21
-4.6563
0
LINE
8
BLACK
6
CONTINUOUS
10
6.40723
20
-4.6563
11
6.40723
21
-4.65635
0
LINE
8
BLACK
6
CONTINUOUS
10
6.40723
20
-4.65635
11
6.40723
21
-4.65635
0
LINE
8
BLACK
6
CONTINUOUS
10
6.40723
20
-4.65635
11
6.40663
21
-4.66242
0
LINE
8
BLACK
6
CONTINUOUS
10
6.40663
20
-4.66242
11
6.40663
21
-4.66243
0
LINE
8
BLACK
6
CONTINUOUS
10
6.40663
20
-4.66243
11
6.40661
21
-4.66252
0
LINE
8
BLACK
6
CONTINUOUS
10
6.40661
20
-4.66252
11
6.4066
21
-4.6626
0
LINE
8
BLACK
6
CONTINUOUS
10
6.4066
20
-4.6626
11
6.40483
21
-4.66844
0
LINE
8
BLACK
6
CONTINUOUS
10
6.40483
20
-4.66844
11
6.40483
21
-4.66846
0
LINE
8
BLACK
6
CONTINUOUS
10
6.40483
20
-4.66846
11
6.4048
21
-4.66854
0
LINE
8
BLACK
6
CONTINUOUS
10
6.4048
20
-4.66854
11
6.40476
21
-4.66862
0
LINE
8
BLACK
6
CONTINUOUS
10
6.40476
20
-4.66862
11
6.4019
21
-4.67401
0
LINE
8
BLACK
6
CONTINUOUS
10
6.4019
20
-4.67401
11
6.40189
21
-4.67402
0
LINE
8
BLACK
6
CONTINUOUS
10
6.40189
20
-4.67402
11
6.40184
21
-4.67409
0
LINE
8
BLACK
6
CONTINUOUS
10
6.40184
20
-4.67409
11
6.40179
21
-4.67417
0
LINE
8
BLACK
6
CONTINUOUS
10
6.40179
20
-4.67417
11
6.39794
21
-4.67889
0
LINE
8
BLACK
6
CONTINUOUS
10
6.39794
20
-4.67889
11
6.39793
21
-4.6789
0
LINE
8
BLACK
6
CONTINUOUS
10
6.39793
20
-4.6789
11
6.39786
21
-4.67896
0
LINE
8
BLACK
6
CONTINUOUS
10
6.39786
20
-4.67896
11
6.3978
21
-4.67903
0
LINE
8
BLACK
6
CONTINUOUS
10
6.3978
20
-4.67903
11
6.3931
21
-4.68292
0
LINE
8
BLACK
6
CONTINUOUS
10
6.3931
20
-4.68292
11
6.39309
21
-4.68292
0
LINE
8
BLACK
6
CONTINUOUS
10
6.39309
20
-4.68292
11
6.39302
21
-4.68297
0
LINE
8
BLACK
6
CONTINUOUS
10
6.39302
20
-4.68297
11
6.39294
21
-4.68302
0
LINE
8
BLACK
6
CONTINUOUS
10
6.39294
20
-4.68302
11
6.38758
21
-4.68592
0
LINE
8
BLACK
6
CONTINUOUS
10
6.38758
20
-4.68592
11
6.38757
21
-4.68593
0
LINE
8
BLACK
6
CONTINUOUS
10
6.38757
20
-4.68593
11
6.38748
21
-4.68596
0
LINE
8
BLACK
6
CONTINUOUS
10
6.38748
20
-4.68596
11
6.3874
21
-4.686
0
LINE
8
BLACK
6
CONTINUOUS
10
6.3874
20
-4.686
11
6.38157
21
-4.6878
0
LINE
8
BLACK
6
CONTINUOUS
10
6.38157
20
-4.6878
11
6.38156
21
-4.68781
0
LINE
8
BLACK
6
CONTINUOUS
10
6.38156
20
-4.68781
11
6.38147
21
-4.68782
0
LINE
8
BLACK
6
CONTINUOUS
10
6.38147
20
-4.68782
11
6.38139
21
-4.68784
0
LINE
8
BLACK
6
CONTINUOUS
10
6.38139
20
-4.68784
11
6.37532
21
-4.68848
0
LINE
8
BLACK
6
CONTINUOUS
10
6.37532
20
-4.68848
11
6.37531
21
-4.68848
0
LINE
8
BLACK
6
CONTINUOUS
10
6.37531
20
-4.68848
11
6.37526
21
-4.68848
0
LINE
8
BLACK
6
CONTINUOUS
10
6.37526
20
-4.68848
11
6.37522
21
-4.68848
0
LINE
8
BLACK
6
CONTINUOUS
10
6.37522
20
-4.68848
11
6.37505
21
-4.68848
0
LINE
8
BLACK
6
CONTINUOUS
10
6.37505
20
-4.68848
11
6.37505
21
-4.68848
0
LINE
8
BLACK
6
CONTINUOUS
10
6.37505
20
-4.68848
11
5.75
21
-4.68848
0
LINE
8
BLACK
6
CONTINUOUS
10
5.75
20
-4.68848
11
5.74918
21
-4.68849
0
LINE
8
BLACK
6
CONTINUOUS
10
5.74918
20
-4.68849
11
5.72506
21
-4.69102
0
LINE
8
BLACK
6
CONTINUOUS
10
5.72506
20
-4.69102
11
5.70194
21
-4.69818
0
LINE
8
BLACK
6
CONTINUOUS
10
5.70194
20
-4.69818
11
5.68065
21
-4.70969
0
LINE
8
BLACK
6
CONTINUOUS
10
5.68065
20
-4.70969
11
5.66201
21
-4.72512
0
LINE
8
BLACK
6
CONTINUOUS
10
5.66201
20
-4.72512
11
5.64671
21
-4.74387
0
LINE
8
BLACK
6
CONTINUOUS
10
5.64671
20
-4.74387
11
5.63535
21
-4.76524
0
LINE
8
BLACK
6
CONTINUOUS
10
5.63535
20
-4.76524
11
5.62835
21
-4.78841
0
LINE
8
BLACK
6
CONTINUOUS
10
5.62835
20
-4.78841
11
5.62598
21
-4.81255
0
LINE
8
BLACK
6
CONTINUOUS
10
5.62598
20
-4.81255
11
5.62598
21
-6.5625
0
LINE
8
BLACK
6
CONTINUOUS
10
5.62598
20
-6.5625
11
5.62599
21
-6.56332
0
LINE
8
BLACK
6
CONTINUOUS
10
5.62599
20
-6.56332
11
5.62852
21
-6.58744
0
LINE
8
BLACK
6
CONTINUOUS
10
5.62852
20
-6.58744
11
5.63568
21
-6.61056
0
LINE
8
BLACK
6
CONTINUOUS
10
5.63568
20
-6.61056
11
5.64719
21
-6.63185
0
LINE
8
BLACK
6
CONTINUOUS
10
5.64719
20
-6.63185
11
5.66262
21
-6.65049
0
LINE
8
BLACK
6
CONTINUOUS
10
5.66262
20
-6.65049
11
5.68137
21
-6.66579
0
LINE
8
BLACK
6
CONTINUOUS
10
5.68137
20
-6.66579
11
5.70274
21
-6.67715
0
LINE
8
BLACK
6
CONTINUOUS
10
5.70274
20
-6.67715
11
5.72591
21
-6.68415
0
LINE
8
BLACK
6
CONTINUOUS
10
5.72591
20
-6.68415
11
5.75005
21
-6.68652
0
LINE
8
BLACK
6
CONTINUOUS
10
5.75005
20
-6.68652
11
9.15625
21
-6.68652
0
LINE
8
BLACK
6
CONTINUOUS
10
9.15625
20
-6.68652
11
9.15707
21
-6.68651
0
LINE
8
BLACK
6
CONTINUOUS
10
9.15707
20
-6.68651
11
9.18119
21
-6.68398
0
LINE
8
BLACK
6
CONTINUOUS
10
9.18119
20
-6.68398
11
9.20431
21
-6.67682
0
LINE
8
BLACK
6
CONTINUOUS
10
9.20431
20
-6.67682
11
9.2256
21
-6.66531
0
LINE
8
BLACK
6
CONTINUOUS
10
9.2256
20
-6.66531
11
9.24424
21
-6.64988
0
LINE
8
BLACK
6
CONTINUOUS
10
9.24424
20
-6.64988
11
9.25954
21
-6.63113
0
LINE
8
BLACK
6
CONTINUOUS
10
9.25954
20
-6.63113
11
9.2709
21
-6.60976
0
LINE
8
BLACK
6
CONTINUOUS
10
9.2709
20
-6.60976
11
9.2779
21
-6.58659
0
LINE
8
BLACK
6
CONTINUOUS
10
9.2779
20
-6.58659
11
9.28027
21
-6.56245
0
LINE
8
BLACK
6
CONTINUOUS
10
9.28027
20
-6.56245
11
9.28027
21
-4.8125
0
LINE
8
BLACK
6
CONTINUOUS
10
9.28027
20
-4.8125
11
9.28027
21
-4.8125
0
LINE
8
BLACK
6
CONTINUOUS
10
9.28027
20
-4.8125
11
9.28026
21
-4.81168
0
LINE
8
BLACK
6
CONTINUOUS
10
9.28026
20
-4.81168
11
9.27773
21
-4.78756
0
LINE
8
BLACK
6
CONTINUOUS
10
9.27773
20
-4.78756
11
9.27057
21
-4.76444
0
LINE
8
BLACK
6
CONTINUOUS
10
9.27057
20
-4.76444
11
9.25906
21
-4.74315
0
LINE
8
BLACK
6
CONTINUOUS
10
9.25906
20
-4.74315
11
9.24363
21
-4.72451
0
LINE
8
BLACK
6
CONTINUOUS
10
9.24363
20
-4.72451
11
9.22488
21
-4.70921
0
LINE
8
BLACK
6
CONTINUOUS
10
9.22488
20
-4.70921
11
9.20351
21
-4.69785
0
LINE
8
BLACK
6
CONTINUOUS
10
9.20351
20
-4.69785
11
9.18034
21
-4.69085
0
LINE
8
BLACK
6
CONTINUOUS
10
9.18034
20
-4.69085
11
9.1562
21
-4.68848
0
LINE
8
BLACK
6
CONTINUOUS
10
9.1562
20
-4.68848
11
8.5312
21
-4.68848
0
LINE
8
BLACK
6
CONTINUOUS
10
8.5312
20
-4.68848
11
8.53115
21
-4.68848
0
LINE
8
BLACK
6
CONTINUOUS
10
8.53115
20
-4.68848
11
8.53115
21
-4.68848
0
LINE
8
BLACK
6
CONTINUOUS
10
8.53115
20
-4.68848
11
8.52508
21
-4.68788
0
LINE
8
BLACK
6
CONTINUOUS
10
8.52508
20
-4.68788
11
8.52507
21
-4.68788
0
LINE
8
BLACK
6
CONTINUOUS
10
8.52507
20
-4.68788
11
8.52498
21
-4.68786
0
LINE
8
BLACK
6
CONTINUOUS
10
8.52498
20
-4.68786
11
8.5249
21
-4.68785
0
LINE
8
BLACK
6
CONTINUOUS
10
8.5249
20
-4.68785
11
8.51906
21
-4.68608
0
LINE
8
BLACK
6
CONTINUOUS
10
8.51906
20
-4.68608
11
8.51904
21
-4.68608
0
LINE
8
BLACK
6
CONTINUOUS
10
8.51904
20
-4.68608
11
8.51896
21
-4.68605
0
LINE
8
BLACK
6
CONTINUOUS
10
8.51896
20
-4.68605
11
8.51888
21
-4.68601
0
LINE
8
BLACK
6
CONTINUOUS
10
8.51888
20
-4.68601
11
8.51349
21
-4.68315
0
LINE
8
BLACK
6
CONTINUOUS
10
8.51349
20
-4.68315
11
8.51348
21
-4.68314
0
LINE
8
BLACK
6
CONTINUOUS
10
8.51348
20
-4.68314
11
8.51341
21
-4.68309
0
LINE
8
BLACK
6
CONTINUOUS
10
8.51341
20
-4.68309
11
8.51333
21
-4.68304
0
LINE
8
BLACK
6
CONTINUOUS
10
8.51333
20
-4.68304
11
8.50861
21
-4.67919
0
LINE
8
BLACK
6
CONTINUOUS
10
8.50861
20
-4.67919
11
8.5086
21
-4.67918
0
LINE
8
BLACK
6
CONTINUOUS
10
8.5086
20
-4.67918
11
8.50854
21
-4.67911
0
LINE
8
BLACK
6
CONTINUOUS
10
8.50854
20
-4.67911
11
8.50847
21
-4.67905
0
LINE
8
BLACK
6
CONTINUOUS
10
8.50847
20
-4.67905
11
8.50458
21
-4.67435
0
LINE
8
BLACK
6
CONTINUOUS
10
8.50458
20
-4.67435
11
8.50458
21
-4.67434
0
LINE
8
BLACK
6
CONTINUOUS
10
8.50458
20
-4.67434
11
8.50453
21
-4.67427
0
LINE
8
BLACK
6
CONTINUOUS
10
8.50453
20
-4.67427
11
8.50448
21
-4.67419
0
LINE
8
BLACK
6
CONTINUOUS
10
8.50448
20
-4.67419
11
8.50158
21
-4.66883
0
LINE
8
BLACK
6
CONTINUOUS
10
8.50158
20
-4.66883
11
8.50157
21
-4.66882
0
LINE
8
BLACK
6
CONTINUOUS
10
8.50157
20
-4.66882
11
8.50154
21
-4.66873
0
LINE
8
BLACK
6
CONTINUOUS
10
8.50154
20
-4.66873
11
8.5015
21
-4.66865
0
LINE
8
BLACK
6
CONTINUOUS
10
8.5015
20
-4.66865
11
8.4997
21
-4.66282
0
LINE
8
BLACK
6
CONTINUOUS
10
8.4997
20
-4.66282
11
8.49969
21
-4.66281
0
LINE
8
BLACK
6
CONTINUOUS
10
8.49969
20
-4.66281
11
8.49968
21
-4.66272
0
LINE
8
BLACK
6
CONTINUOUS
10
8.49968
20
-4.66272
11
8.49966
21
-4.66264
0
LINE
8
BLACK
6
CONTINUOUS
10
8.49966
20
-4.66264
11
8.49902
21
-4.65657
0
LINE
8
BLACK
6
CONTINUOUS
10
8.49902
20
-4.65657
11
8.49902
21
-4.65656
0
LINE
8
BLACK
6
CONTINUOUS
10
8.49902
20
-4.65656
11
8.49902
21
-4.65651
0
LINE
8
BLACK
6
CONTINUOUS
10
8.49902
20
-4.65651
11
8.49902
21
-4.65647
0
LINE
8
BLACK
6
CONTINUOUS
10
8.49902
20
-4.65647
11
8.49902
21
-4.6563
0
LINE
8
BLACK
6
CONTINUOUS
10
8.49902
20
-4.6563
11
8.49902
21
-4.6563
0
LINE
8
BLACK
6
CONTINUOUS
10
8.49902
20
-4.6563
11
8.49902
21
-4.65626
0
LINE
8
BLACK
6
CONTINUOUS
10
8.49902
20
-4.65626
11
8.49902
21
-4.65625
0
LINE
8
BLACK
6
CONTINUOUS
10
8.49902
20
-4.65625
11
8.49902
21
-4.65624
0
LINE
8
BLACK
6
CONTINUOUS
10
8.49902
20
-4.65624
11
8.49902
21
-4.56245
0
LINE
8
BLACK
6
CONTINUOUS
10
8.49902
20
-4.56245
11
8.49902
21
-4.5624
0
LINE
8
BLACK
6
CONTINUOUS
10
8.49902
20
-4.5624
11
8.49902
21
-4.5624
0
LINE
8
BLACK
6
CONTINUOUS
10
8.49902
20
-4.5624
11
8.49962
21
-4.55633
0
LINE
8
BLACK
6
CONTINUOUS
10
8.49962
20
-4.55633
11
8.49962
21
-4.55632
0
LINE
8
BLACK
6
CONTINUOUS
10
8.49962
20
-4.55632
11
8.49964
21
-4.55623
0
LINE
8
BLACK
6
CONTINUOUS
10
8.49964
20
-4.55623
11
8.49965
21
-4.55615
0
LINE
8
BLACK
6
CONTINUOUS
10
8.49965
20
-4.55615
11
8.50142
21
-4.55031
0
LINE
8
BLACK
6
CONTINUOUS
10
8.50142
20
-4.55031
11
8.50142
21
-4.55029
0
LINE
8
BLACK
6
CONTINUOUS
10
8.50142
20
-4.55029
11
8.50146
21
-4.55021
0
LINE
8
BLACK
6
CONTINUOUS
10
8.50146
20
-4.55021
11
8.50149
21
-4.55013
0
LINE
8
BLACK
6
CONTINUOUS
10
8.50149
20
-4.55013
11
8.50435
21
-4.54474
0
LINE
8
BLACK
6
CONTINUOUS
10
8.50435
20
-4.54474
11
8.50436
21
-4.54473
0
LINE
8
BLACK
6
CONTINUOUS
10
8.50436
20
-4.54473
11
8.50441
21
-4.54466
0
LINE
8
BLACK
6
CONTINUOUS
10
8.50441
20
-4.54466
11
8.50446
21
-4.54458
0
LINE
8
BLACK
6
CONTINUOUS
10
8.50446
20
-4.54458
11
8.50831
21
-4.53986
0
LINE
8
BLACK
6
CONTINUOUS
10
8.50831
20
-4.53986
11
8.50832
21
-4.53985
0
LINE
8
BLACK
6
CONTINUOUS
10
8.50832
20
-4.53985
11
8.50839
21
-4.53979
0
LINE
8
BLACK
6
CONTINUOUS
10
8.50839
20
-4.53979
11
8.50845
21
-4.53972
0
LINE
8
BLACK
6
CONTINUOUS
10
8.50845
20
-4.53972
11
8.51315
21
-4.53583
0
LINE
8
BLACK
6
CONTINUOUS
10
8.51315
20
-4.53583
11
8.51316
21
-4.53583
0
LINE
8
BLACK
6
CONTINUOUS
10
8.51316
20
-4.53583
11
8.51323
21
-4.53578
0
LINE
8
BLACK
6
CONTINUOUS
10
8.51323
20
-4.53578
11
8.51331
21
-4.53573
0
LINE
8
BLACK
6
CONTINUOUS
10
8.51331
20
-4.53573
11
8.51867
21
-4.53283
0
LINE
8
BLACK
6
CONTINUOUS
10
8.51867
20
-4.53283
11
8.51867
21
-4.53283
0
LINE
8
BLACK
6
CONTINUOUS
10
8.51867
20
-4.53283
11
8.51867
21
-4.53283
0
LINE
8
BLACK
6
CONTINUOUS
10
8.51867
20
-4.53283
11
8.51868
21
-4.53282
0
LINE
8
BLACK
6
CONTINUOUS
10
8.51868
20
-4.53282
11
8.51877
21
-4.53279
0
LINE
8
BLACK
6
CONTINUOUS
10
8.51877
20
-4.53279
11
8.51885
21
-4.53275
0
LINE
8
BLACK
6
CONTINUOUS
10
8.51885
20
-4.53275
11
8.52468
21
-4.53095
0
LINE
8
BLACK
6
CONTINUOUS
10
8.52468
20
-4.53095
11
8.52469
21
-4.53094
0
LINE
8
BLACK
6
CONTINUOUS
10
8.52469
20
-4.53094
11
8.52478
21
-4.53093
0
LINE
8
BLACK
6
CONTINUOUS
10
8.52478
20
-4.53093
11
8.52486
21
-4.53091
0
LINE
8
BLACK
6
CONTINUOUS
10
8.52486
20
-4.53091
11
8.53093
21
-4.53027
0
LINE
8
BLACK
6
CONTINUOUS
10
8.53093
20
-4.53027
11
8.53094
21
-4.53027
0
LINE
8
BLACK
6
CONTINUOUS
10
8.53094
20
-4.53027
11
8.53099
21
-4.53027
0
LINE
8
BLACK
6
CONTINUOUS
10
8.53099
20
-4.53027
11
8.53103
21
-4.53027
0
LINE
8
BLACK
6
CONTINUOUS
10
8.53103
20
-4.53027
11
8.5312
21
-4.53027
0
LINE
8
BLACK
6
CONTINUOUS
10
8.5312
20
-4.53027
11
8.5312
21
-4.53027
0
LINE
8
BLACK
6
CONTINUOUS
10
8.5312
20
-4.53027
11
9.15625
21
-4.53027
0
LINE
8
BLACK
6
CONTINUOUS
10
9.15625
20
-4.53027
11
9.15707
21
-4.53026
0
LINE
8
BLACK
6
CONTINUOUS
10
9.15707
20
-4.53026
11
9.18119
21
-4.52773
0
LINE
8
BLACK
6
CONTINUOUS
10
9.18119
20
-4.52773
11
9.20431
21
-4.52057
0
LINE
8
BLACK
6
CONTINUOUS
10
9.20431
20
-4.52057
11
9.2256
21
-4.50906
0
LINE
8
BLACK
6
CONTINUOUS
10
9.2256
20
-4.50906
11
9.24424
21
-4.49363
0
LINE
8
BLACK
6
CONTINUOUS
10
9.24424
20
-4.49363
11
9.25954
21
-4.47488
0
LINE
8
BLACK
6
CONTINUOUS
10
9.25954
20
-4.47488
11
9.2709
21
-4.45351
0
LINE
8
BLACK
6
CONTINUOUS
10
9.2709
20
-4.45351
11
9.2779
21
-4.43034
0
LINE
8
BLACK
6
CONTINUOUS
10
9.2779
20
-4.43034
11
9.28027
21
-4.4062
0
LINE
8
BLACK
6
CONTINUOUS
10
9.28027
20
-4.4062
11
9.28027
21
-2.65625
0
LINE
8
BLACK
6
CONTINUOUS
10
9.28027
20
-2.65625
11
9.28027
21
-2.65625
0
LINE
8
BLACK
6
CONTINUOUS
10
9.28027
20
-2.65625
11
9.28026
21
-2.65543
0
LINE
8
BLACK
6
CONTINUOUS
10
9.28026
20
-2.65543
11
9.27773
21
-2.63131
0
LINE
8
BLACK
6
CONTINUOUS
10
9.27773
20
-2.63131
11
9.27057
21
-2.60819
0
LINE
8
BLACK
6
CONTINUOUS
10
9.27057
20
-2.60819
11
9.25906
21
-2.5869
0
LINE
8
BLACK
6
CONTINUOUS
10
9.25906
20
-2.5869
11
9.24363
21
-2.56826
0
LINE
8
BLACK
6
CONTINUOUS
10
9.24363
20
-2.56826
11
9.22488
21
-2.55296
0
LINE
8
BLACK
6
CONTINUOUS
10
9.22488
20
-2.55296
11
9.20351
21
-2.5416
0
LINE
8
BLACK
6
CONTINUOUS
10
9.20351
20
-2.5416
11
9.18034
21
-2.5346
0
LINE
8
BLACK
6
CONTINUOUS
10
9.18034
20
-2.5346
11
9.1562
21
-2.53223
0
LINE
8
BLACK
6
CONTINUOUS
10
9.1562
20
-2.53223
11
5.75
21
-2.53223
0
LINE
8
BLACK
6
CONTINUOUS
10
5.75
20
-2.53223
11
5.74918
21
-2.53224
0
LINE
8
BLACK
6
CONTINUOUS
10
5.74918
20
-2.53224
11
5.72506
21
-2.53477
0
LINE
8
BLACK
6
CONTINUOUS
10
5.72506
20
-2.53477
11
5.70194
21
-2.54193
0
LINE
8
BLACK
6
CONTINUOUS
10
5.70194
20
-2.54193
11
5.68065
21
-2.55344
0
LINE
8
BLACK
6
CONTINUOUS
10
5.68065
20
-2.55344
11
5.66201
21
-2.56887
0
LINE
8
BLACK
6
CONTINUOUS
10
5.66201
20
-2.56887
11
5.64671
21
-2.58762
0
LINE
8
BLACK
6
CONTINUOUS
10
5.64671
20
-2.58762
11
5.63535
21
-2.60899
0
LINE
8
BLACK
6
CONTINUOUS
10
5.63535
20
-2.60899
11
5.62835
21
-2.63216
0
LINE
8
BLACK
6
CONTINUOUS
10
5.62835
20
-2.63216
11
5.62598
21
-2.6563
0
LINE
8
BLACK
6
CONTINUOUS
10
5.62598
20
-2.6563
11
5.62598
21
-4.40625
0
LINE
8
BLACK
6
CONTINUOUS
10
5.62598
20
-4.40625
11
5.62599
21
-4.40707
0
LINE
8
BLACK
6
CONTINUOUS
10
5.62599
20
-4.40707
11
5.62852
21
-4.43119
0
LINE
8
BLACK
6
CONTINUOUS
10
5.62852
20
-4.43119
11
5.63568
21
-4.45431
0
LINE
8
BLACK
6
CONTINUOUS
10
5.63568
20
-4.45431
11
5.64719
21
-4.4756
0
LINE
8
BLACK
6
CONTINUOUS
10
5.64719
20
-4.4756
11
5.66262
21
-4.49424
0
LINE
8
BLACK
6
CONTINUOUS
10
5.66262
20
-4.49424
11
5.68137
21
-4.50954
0
LINE
8
BLACK
6
CONTINUOUS
10
5.68137
20
-4.50954
11
5.70274
21
-4.5209
0
LINE
8
BLACK
6
CONTINUOUS
10
5.70274
20
-4.5209
11
5.72591
21
-4.5279
0
LINE
8
BLACK
6
CONTINUOUS
10
5.72591
20
-4.5279
11
5.75005
21
-4.53027
0
LINE
8
BLACK
6
CONTINUOUS
10
5.75005
20
-4.53027
11
6.37505
21
-4.53027
0
LINE
8
BLACK
6
CONTINUOUS
10
6.37505
20
-4.53027
11
6.3751
21
-4.53027
0
LINE
8
BLACK
6
CONTINUOUS
10
6.3751
20
-4.53027
11
6.3751
21
-4.53027
0
LINE
8
BLACK
6
CONTINUOUS
10
6.3751
20
-4.53027
11
6.38117
21
-4.53087
0
LINE
8
BLACK
6
CONTINUOUS
10
6.38117
20
-4.53087
11
6.38117
21
-4.53087
0
LINE
8
BLACK
6
CONTINUOUS
10
6.38117
20
-4.53087
11
6.38118
21
-4.53087
0
LINE
8
BLACK
6
CONTINUOUS
10
8.22493
20
-4.53087
11
8.22502
21
-4.53089
0
LINE
8
BLACK
6
CONTINUOUS
10
8.22502
20
-4.53089
11
8.2251
21
-4.5309
0
LINE
8
BLACK
6
CONTINUOUS
10
8.2251
20
-4.5309
11
8.23094
21
-4.53267
0
LINE
8
BLACK
6
CONTINUOUS
10
8.23094
20
-4.53267
11
8.23096
21
-4.53267
0
LINE
8
BLACK
6
CONTINUOUS
10
8.23096
20
-4.53267
11
8.23104
21
-4.53271
0
LINE
8
BLACK
6
CONTINUOUS
10
8.23104
20
-4.53271
11
8.23112
21
-4.53274
0
LINE
8
BLACK
6
CONTINUOUS
10
8.23112
20
-4.53274
11
8.23651
21
-4.5356
0
LINE
8
BLACK
6
CONTINUOUS
10
8.23651
20
-4.5356
11
8.23652
21
-4.53561
0
LINE
8
BLACK
6
CONTINUOUS
10
8.23652
20
-4.53561
11
8.23659
21
-4.53566
0
LINE
8
BLACK
6
CONTINUOUS
10
8.23659
20
-4.53566
11
8.23667
21
-4.53571
0
LINE
8
BLACK
6
CONTINUOUS
10
8.23667
20
-4.53571
11
8.24139
21
-4.53956
0
LINE
8
BLACK
6
CONTINUOUS
10
8.24139
20
-4.53956
11
8.2414
21
-4.53957
0
LINE
8
BLACK
6
CONTINUOUS
10
8.2414
20
-4.53957
11
8.24146
21
-4.53964
0
LINE
8
BLACK
6
CONTINUOUS
10
8.24146
20
-4.53964
11
8.24153
21
-4.5397
0
LINE
8
BLACK
6
CONTINUOUS
10
8.24153
20
-4.5397
11
8.24542
21
-4.5444
0
LINE
8
BLACK
6
CONTINUOUS
10
8.24542
20
-4.5444
11
8.24542
21
-4.54441
0
LINE
8
BLACK
6
CONTINUOUS
10
8.24542
20
-4.54441
11
8.24547
21
-4.54448
0
LINE
8
BLACK
6
CONTINUOUS
10
8.24547
20
-4.54448
11
8.24552
21
-4.54456
0
LINE
8
BLACK
6
CONTINUOUS
10
8.24552
20
-4.54456
11
8.24842
21
-4.54992
0
LINE
8
BLACK
6
CONTINUOUS
10
8.24842
20
-4.54992
11
8.24842
21
-4.54992
0
LINE
8
BLACK
6
CONTINUOUS
10
8.24842
20
-4.54992
11
8.24842
21
-4.54992
0
LINE
8
BLACK
6
CONTINUOUS
10
8.24842
20
-4.54992
11
8.24843
21
-4.54993
0
LINE
8
BLACK
6
CONTINUOUS
10
8.24843
20
-4.54993
11
8.24846
21
-4.55002
0
LINE
8
BLACK
6
CONTINUOUS
10
8.24846
20
-4.55002
11
8.2485
21
-4.5501
0
LINE
8
BLACK
6
CONTINUOUS
10
8.2485
20
-4.5501
11
8.2503
21
-4.55593
0
LINE
8
BLACK
6
CONTINUOUS
10
8.2503
20
-4.55593
11
8.25031
21
-4.55594
0
LINE
8
BLACK
6
CONTINUOUS
10
8.25031
20
-4.55594
11
8.25032
21
-4.55603
0
LINE
8
BLACK
6
CONTINUOUS
10
8.25032
20
-4.55603
11
8.25034
21
-4.55611
0
LINE
8
BLACK
6
CONTINUOUS
10
8.25034
20
-4.55611
11
8.25098
21
-4.56218
0
LINE
8
BLACK
6
CONTINUOUS
10
8.25098
20
-4.56218
11
8.25098
21
-4.56219
0
LINE
8
BLACK
6
CONTINUOUS
10
8.25098
20
-4.56219
11
8.25098
21
-4.56224
0
LINE
8
BLACK
6
CONTINUOUS
10
8.25098
20
-4.56224
11
8.25098
21
-4.56228
0
LINE
8
BLACK
6
CONTINUOUS
10
8.25098
20
-4.56228
11
8.25098
21
-4.56245
0
LINE
8
BLACK
6
CONTINUOUS
10
8.25098
20
-4.56245
11
8.25098
21
-4.56245
0
LINE
8
BLACK
6
CONTINUOUS
10
8.25098
20
-4.56245
11
8.25098
21
-4.6563
0
LINE
8
BLACK
6
CONTINUOUS
10
8.25098
20
-4.6563
11
8.25098
21
-4.65635
0
LINE
8
BLACK
6
CONTINUOUS
10
8.25098
20
-4.65635
11
8.25098
21
-4.65635
0
LINE
8
BLACK
6
CONTINUOUS
10
8.25098
20
-4.65635
11
8.25038
21
-4.66242
0
LINE
8
BLACK
6
CONTINUOUS
10
8.25038
20
-4.66242
11
8.25038
21
-4.66243
0
LINE
8
BLACK
6
CONTINUOUS
10
8.25038
20
-4.66243
11
8.25036
21
-4.66252
0
LINE
8
BLACK
6
CONTINUOUS
10
8.25036
20
-4.66252
11
8.25035
21
-4.6626
0
LINE
8
BLACK
6
CONTINUOUS
10
8.25035
20
-4.6626
11
8.24858
21
-4.66844
0
LINE
8
BLACK
6
CONTINUOUS
10
8.24858
20
-4.66844
11
8.24858
21
-4.66846
0
LINE
8
BLACK
6
CONTINUOUS
10
8.24858
20
-4.66846
11
8.24855
21
-4.66854
0
LINE
8
BLACK
6
CONTINUOUS
10
8.24855
20
-4.66854
11
8.24851
21
-4.66862
0
LINE
8
BLACK
6
CONTINUOUS
10
8.24851
20
-4.66862
11
8.24565
21
-4.67401
0
LINE
8
BLACK
6
CONTINUOUS
10
8.24565
20
-4.67401
11
8.24564
21
-4.67402
0
LINE
8
BLACK
6
CONTINUOUS
10
8.24564
20
-4.67402
11
8.24559
21
-4.67409
0
LINE
8
BLACK
6
CONTINUOUS
10
8.24559
20
-4.67409
11
8.24554
21
-4.67417
0
LINE
8
BLACK
6
CONTINUOUS
10
8.24554
20
-4.67417
11
8.24169
21
-4.67889
0
LINE
8
BLACK
6
CONTINUOUS
10
8.24169
20
-4.67889
11
8.24168
21
-4.6789
0
LINE
8
BLACK
6
CONTINUOUS
10
8.24168
20
-4.6789
11
8.24161
21
-4.67896
0
LINE
8
BLACK
6
CONTINUOUS
10
8.24161
20
-4.67896
11
8.24155
21
-4.67903
0
LINE
8
BLACK
6
CONTINUOUS
10
8.24155
20
-4.67903
11
8.23685
21
-4.68292
0
LINE
8
BLACK
6
CONTINUOUS
10
8.23685
20
-4.68292
11
8.23684
21
-4.68292
0
LINE
8
BLACK
6
CONTINUOUS
10
8.23684
20
-4.68292
11
8.23677
21
-4.68297
0
LINE
8
BLACK
6
CONTINUOUS
10
8.23677
20
-4.68297
11
8.23669
21
-4.68302
0
LINE
8
BLACK
6
CONTINUOUS
10
8.23669
20
-4.68302
11
8.23133
21
-4.68592
0
LINE
8
BLACK
6
CONTINUOUS
10
8.23133
20
-4.68592
11
8.23132
21
-4.68593
0
LINE
8
BLACK
6
CONTINUOUS
10
8.23132
20
-4.68593
11
8.23123
21
-4.68596
0
LINE
8
BLACK
6
CONTINUOUS
10
8.23123
20
-4.68596
11
8.23115
21
-4.686
0
LINE
8
BLACK
6
CONTINUOUS
10
8.23115
20
-4.686
11
8.22532
21
-4.6878
0
LINE
8
BLACK
6
CONTINUOUS
10
8.22532
20
-4.6878
11
8.22531
21
-4.68781
0
LINE
8
BLACK
6
CONTINUOUS
10
8.22531
20
-4.68781
11
8.22522
21
-4.68782
0
LINE
8
BLACK
6
CONTINUOUS
10
8.22522
20
-4.68782
11
8.22514
21
-4.68784
0
LINE
8
BLACK
6
CONTINUOUS
10
8.22514
20
-4.68784
11
8.21907
21
-4.68848
0
LINE
8
BLACK
6
CONTINUOUS
10
8.21907
20
-4.68848
11
8.21906
21
-4.68848
0
LINE
8
BLACK
6
CONTINUOUS
10
8.21906
20
-4.68848
11
8.21901
21
-4.68848
0
LINE
8
BLACK
6
CONTINUOUS
10
8.21901
20
-4.68848
11
8.21897
21
-4.68848
0
LINE
8
BLACK
6
CONTINUOUS
10
8.21897
20
-4.68848
11
8.2188
21
-4.68848
0
LINE
8
BLACK
6
CONTINUOUS
10
8.2188
20
-4.68848
11
8.2188
21
-4.68848
0
LINE
8
BLACK
6
CONTINUOUS
10
8.2188
20
-4.68848
11
6.68745
21
-4.68848
0
LINE
8
BLACK
6
CONTINUOUS
10
6.68745
20
-4.68848
11
6.6874
21
-4.68848
0
LINE
8
BLACK
6
CONTINUOUS
10
6.6874
20
-4.68848
11
6.6874
21
-4.68848
0
LINE
8
BLACK
6
CONTINUOUS
10
6.6874
20
-4.68848
11
6.68133
21
-4.68788
0
LINE
8
BLACK
6
CONTINUOUS
10
6.68133
20
-4.68788
11
6.68132
21
-4.68788
0
LINE
8
BLACK
6
CONTINUOUS
10
6.68132
20
-4.68788
11
6.68123
21
-4.68786
0
LINE
8
BLACK
6
CONTINUOUS
10
6.68123
20
-4.68786
11
6.68115
21
-4.68785
0
LINE
8
BLACK
6
CONTINUOUS
10
6.68115
20
-4.68785
11
6.67531
21
-4.68608
0
LINE
8
BLACK
6
CONTINUOUS
10
6.67531
20
-4.68608
11
6.67529
21
-4.68608
0
LINE
8
BLACK
6
CONTINUOUS
10
6.67529
20
-4.68608
11
6.67521
21
-4.68605
0
LINE
8
BLACK
6
CONTINUOUS
10
6.67521
20
-4.68605
11
6.67513
21
-4.68601
0
LINE
8
BLACK
6
CONTINUOUS
10
6.67513
20
-4.68601
11
6.66974
21
-4.68315
0
LINE
8
BLACK
6
CONTINUOUS
10
6.66974
20
-4.68315
11
6.66973
21
-4.68314
0
LINE
8
BLACK
6
CONTINUOUS
10
6.66973
20
-4.68314
11
6.66966
21
-4.68309
0
LINE
8
BLACK
6
CONTINUOUS
10
6.66966
20
-4.68309
11
6.66958
21
-4.68304
0
LINE
8
BLACK
6
CONTINUOUS
10
6.66958
20
-4.68304
11
6.66486
21
-4.67919
0
LINE
8
BLACK
6
CONTINUOUS
10
6.66486
20
-4.67919
11
6.66485
21
-4.67918
0
LINE
8
BLACK
6
CONTINUOUS
10
6.66485
20
-4.67918
11
6.66479
21
-4.67911
0
LINE
8
BLACK
6
CONTINUOUS
10
6.66479
20
-4.67911
11
6.66472
21
-4.67905
0
LINE
8
BLACK
6
CONTINUOUS
10
6.66472
20
-4.67905
11
6.66083
21
-4.67435
0
LINE
8
BLACK
6
CONTINUOUS
10
6.66083
20
-4.67435
11
6.66083
21
-4.67434
0
LINE
8
BLACK
6
CONTINUOUS
10
6.66083
20
-4.67434
11
6.66078
21
-4.67427
0
LINE
8
BLACK
6
CONTINUOUS
10
6.66078
20
-4.67427
11
6.66073
21
-4.67419
0
LINE
8
BLACK
6
CONTINUOUS
10
6.66073
20
-4.67419
11
6.65783
21
-4.66883
0
LINE
8
BLACK
6
CONTINUOUS
10
6.65783
20
-4.66883
11
6.65782
21
-4.66882
0
LINE
8
BLACK
6
CONTINUOUS
10
6.65782
20
-4.66882
11
6.65779
21
-4.66873
0
LINE
8
BLACK
6
CONTINUOUS
10
6.65779
20
-4.66873
11
6.65775
21
-4.66865
0
LINE
8
BLACK
6
CONTINUOUS
10
6.65775
20
-4.66865
11
6.65595
21
-4.66282
0
LINE
8
BLACK
6
CONTINUOUS
10
6.65595
20
-4.66282
11
6.65594
21
-4.66281
0
LINE
8
BLACK
6
CONTINUOUS
10
6.65594
20
-4.66281
11
6.65593
21
-4.66272
0
LINE
8
BLACK
6
CONTINUOUS
10
6.65593
20
-4.66272
11
6.65591
21
-4.66264
0
LINE
8
BLACK
6
CONTINUOUS
10
6.65591
20
-4.66264
11
6.65527
21
-4.65657
0
LINE
8
BLACK
6
CONTINUOUS
10
6.65527
20
-4.65657
11
6.65527
21
-4.65656
0
LINE
8
BLACK
6
CONTINUOUS
10
6.65527
20
-4.65656
11
6.65527
21
-4.65651
0
LINE
8
BLACK
6
CONTINUOUS
10
6.65527
20
-4.65651
11
6.65527
21
-4.65647
0
LINE
8
BLACK
6
CONTINUOUS
10
6.65527
20
-4.65647
11
6.65527
21
-4.6563
0
LINE
8
BLACK
6
CONTINUOUS
10
6.65527
20
-4.6563
11
6.65527
21
-4.6563
0
LINE
8
BLACK
6
CONTINUOUS
10
6.65527
20
-4.6563
11
6.65527
21
-4.65626
0
LINE
8
BLACK
6
CONTINUOUS
10
6.65527
20
-4.65626
11
6.65527
21
-4.65625
0
LINE
8
BLACK
6
CONTINUOUS
10
6.65527
20
-4.65625
11
6.65527
21
-4.65624
0
LINE
8
BLACK
6
CONTINUOUS
10
6.65527
20
-4.65624
11
6.65527
21
-4.56245
0
LINE
8
BLACK
6
CONTINUOUS
10
6.65527
20
-4.56245
11
6.65527
21
-4.5624
0
LINE
8
BLACK
6
CONTINUOUS
10
6.65527
20
-4.5624
11
6.65527
21
-4.5624
0
LINE
8
BLACK
6
CONTINUOUS
10
6.65527
20
-4.5624
11
6.65587
21
-4.55633
0
LINE
8
BLACK
6
CONTINUOUS
10
6.65587
20
-4.55633
11
6.65587
21
-4.55632
0
LINE
8
BLACK
6
CONTINUOUS
10
6.65587
20
-4.55632
11
6.65589
21
-4.55623
0
LINE
8
BLACK
6
CONTINUOUS
10
6.65589
20
-4.55623
11
6.6559
21
-4.55615
0
LINE
8
BLACK
6
CONTINUOUS
10
6.6559
20
-4.55615
11
6.65767
21
-4.55031
0
LINE
8
BLACK
6
CONTINUOUS
10
6.65767
20
-4.55031
11
6.65767
21
-4.55029
0
LINE
8
BLACK
6
CONTINUOUS
10
6.65767
20
-4.55029
11
6.65771
21
-4.55021
0
LINE
8
BLACK
6
CONTINUOUS
10
6.65771
20
-4.55021
11
6.65774
21
-4.55013
0
LINE
8
BLACK
6
CONTINUOUS
10
6.65774
20
-4.55013
11
6.6606
21
-4.54474
0
LINE
8
BLACK
6
CONTINUOUS
10
6.6606
20
-4.54474
11
6.66061
21
-4.54473
0
LINE
8
BLACK
6
CONTINUOUS
10
6.66061
20
-4.54473
11
6.66066
21
-4.54466
0
LINE
8
BLACK
6
CONTINUOUS
10
6.66066
20
-4.54466
11
6.66071
21
-4.54458
0
LINE
8
BLACK
6
CONTINUOUS
10
6.66071
20
-4.54458
11
6.66456
21
-4.53986
0
LINE
8
BLACK
6
CONTINUOUS
10
6.66456
20
-4.53986
11
6.66457
21
-4.53985
0
LINE
8
BLACK
6
CONTINUOUS
10
6.66457
20
-4.53985
11
6.66464
21
-4.53979
0
LINE
8
BLACK
6
CONTINUOUS
10
6.66464
20
-4.53979
11
6.6647
21
-4.53972
0
LINE
8
BLACK
6
CONTINUOUS
10
6.6647
20
-4.53972
11
6.6694
21
-4.53583
0
LINE
8
BLACK
6
CONTINUOUS
10
6.6694
20
-4.53583
11
6.66941
21
-4.53583
0
LINE
8
BLACK
6
CONTINUOUS
10
6.66941
20
-4.53583
11
6.66948
21
-4.53578
0
LINE
8
BLACK
6
CONTINUOUS
10
6.66948
20
-4.53578
11
6.66956
21
-4.53573
0
LINE
8
BLACK
6
CONTINUOUS
10
6.66956
20
-4.53573
11
6.67492
21
-4.53283
0
LINE
8
BLACK
6
CONTINUOUS
10
6.67492
20
-4.53283
11
6.67492
21
-4.53283
0
LINE
8
BLACK
6
CONTINUOUS
10
6.67492
20
-4.53283
11
6.67492
21
-4.53283
0
LINE
8
BLACK
6
CONTINUOUS
10
6.67492
20
-4.53283
11
6.67493
21
-4.53282
0
LINE
8
BLACK
6
CONTINUOUS
10
6.67493
20
-4.53282
11
6.67502
21
-4.53279
0
LINE
8
BLACK
6
CONTINUOUS
10
6.67502
20
-4.53279
11
6.6751
21
-4.53275
0
LINE
8
BLACK
6
CONTINUOUS
10
6.6751
20
-4.53275
11
6.68093
21
-4.53095
0
LINE
8
BLACK
6
CONTINUOUS
10
6.68093
20
-4.53095
11
6.68094
21
-4.53094
0
LINE
8
BLACK
6
CONTINUOUS
10
6.68094
20
-4.53094
11
6.68103
21
-4.53093
0
LINE
8
BLACK
6
CONTINUOUS
10
6.68103
20
-4.53093
11
6.68111
21
-4.53091
0
LINE
8
BLACK
6
CONTINUOUS
10
6.68111
20
-4.53091
11
6.68718
21
-4.53027
0
LINE
8
BLACK
6
CONTINUOUS
10
6.68718
20
-4.53027
11
6.68719
21
-4.53027
0
LINE
8
BLACK
6
CONTINUOUS
10
6.68719
20
-4.53027
11
6.68724
21
-4.53027
0
LINE
8
BLACK
6
CONTINUOUS
10
6.68724
20
-4.53027
11
6.68728
21
-4.53027
0
LINE
8
BLACK
6
CONTINUOUS
10
6.68728
20
-4.53027
11
6.68745
21
-4.53027
0
LINE
8
BLACK
6
CONTINUOUS
10
6.68745
20
-4.53027
11
6.68745
21
-4.53027
0
LINE
8
BLACK
6
CONTINUOUS
10
6.68745
20
-4.53027
11
8.2188
21
-4.53027
0
LINE
8
BLACK
6
CONTINUOUS
10
8.2188
20
-4.53027
11
8.21885
21
-4.53027
0
LINE
8
BLACK
6
CONTINUOUS
10
8.21885
20
-4.53027
11
8.21885
21
-4.53027
0
LINE
8
BLACK
6
CONTINUOUS
10
8.21885
20
-4.53027
11
8.22492
21
-4.53087
0
LINE
8
BLACK
6
CONTINUOUS
10
8.22492
20
-4.53087
11
8.22492
21
-4.53087
0
LINE
8
BLACK
6
CONTINUOUS
10
8.22492
20
-4.53087
11
8.22493
21
-4.53087
0
LINE
8
BLACK
6
CONTINUOUS
10
6.6875
20
-4.53223
11
6.68734
21
-4.53223
0
LINE
8
BLACK
6
CONTINUOUS
10
6.68734
20
-4.53223
11
6.68142
21
-4.53286
0
LINE
8
BLACK
6
CONTINUOUS
10
6.68142
20
-4.53286
11
6.67577
21
-4.5346
0
LINE
8
BLACK
6
CONTINUOUS
10
6.67577
20
-4.5346
11
6.67058
21
-4.53741
0
LINE
8
BLACK
6
CONTINUOUS
10
6.67058
20
-4.53741
11
6.66603
21
-4.54118
0
LINE
8
BLACK
6
CONTINUOUS
10
6.66603
20
-4.54118
11
6.66229
21
-4.54575
0
LINE
8
BLACK
6
CONTINUOUS
10
6.66229
20
-4.54575
11
6.65952
21
-4.55097
0
LINE
8
BLACK
6
CONTINUOUS
10
6.65952
20
-4.55097
11
6.65782
21
-4.55662
0
LINE
8
BLACK
6
CONTINUOUS
10
6.65782
20
-4.55662
11
6.65723
21
-4.56255
0
LINE
8
BLACK
6
CONTINUOUS
10
6.65723
20
-4.56255
11
6.65723
21
-4.65625
0
LINE
8
BLACK
6
CONTINUOUS
10
6.65723
20
-4.65625
11
6.65723
21
-4.65641
0
LINE
8
BLACK
6
CONTINUOUS
10
6.65723
20
-4.65641
11
6.65786
21
-4.66233
0
LINE
8
BLACK
6
CONTINUOUS
10
6.65786
20
-4.66233
11
6.6596
21
-4.66798
0
LINE
8
BLACK
6
CONTINUOUS
10
6.6596
20
-4.66798
11
6.66241
21
-4.67317
0
LINE
8
BLACK
6
CONTINUOUS
10
6.66241
20
-4.67317
11
6.66618
21
-4.67772
0
LINE
8
BLACK
6
CONTINUOUS
10
6.66618
20
-4.67772
11
6.67075
21
-4.68146
0
LINE
8
BLACK
6
CONTINUOUS
10
6.67075
20
-4.68146
11
6.67597
21
-4.68423
0
LINE
8
BLACK
6
CONTINUOUS
10
6.67597
20
-4.68423
11
6.68162
21
-4.68593
0
LINE
8
BLACK
6
CONTINUOUS
10
6.68162
20
-4.68593
11
6.68755
21
-4.68652
0
LINE
8
BLACK
6
CONTINUOUS
10
6.68755
20
-4.68652
11
8.21875
21
-4.68652
0
LINE
8
BLACK
6
CONTINUOUS
10
8.21875
20
-4.68652
11
8.21891
21
-4.68652
0
LINE
8
BLACK
6
CONTINUOUS
10
8.21891
20
-4.68652
11
8.22483
21
-4.68589
0
LINE
8
BLACK
6
CONTINUOUS
10
8.22483
20
-4.68589
11
8.23048
21
-4.68415
0
LINE
8
BLACK
6
CONTINUOUS
10
8.23048
20
-4.68415
11
8.23567
21
-4.68134
0
LINE
8
BLACK
6
CONTINUOUS
10
8.23567
20
-4.68134
11
8.24022
21
-4.67757
0
LINE
8
BLACK
6
CONTINUOUS
10
8.24022
20
-4.67757
11
8.24396
21
-4.673
0
LINE
8
BLACK
6
CONTINUOUS
10
8.24396
20
-4.673
11
8.24673
21
-4.66778
0
LINE
8
BLACK
6
CONTINUOUS
10
8.24673
20
-4.66778
11
8.24843
21
-4.66213
0
LINE
8
BLACK
6
CONTINUOUS
10
8.24843
20
-4.66213
11
8.24902
21
-4.6562
0
LINE
8
BLACK
6
CONTINUOUS
10
8.24902
20
-4.6562
11
8.24902
21
-4.5625
0
LINE
8
BLACK
6
CONTINUOUS
10
8.24902
20
-4.5625
11
8.24902
21
-4.56234
0
LINE
8
BLACK
6
CONTINUOUS
10
8.24902
20
-4.56234
11
8.24839
21
-4.55642
0
LINE
8
BLACK
6
CONTINUOUS
10
8.24839
20
-4.55642
11
8.24665
21
-4.55077
0
LINE
8
BLACK
6
CONTINUOUS
10
8.24665
20
-4.55077
11
8.24384
21
-4.54558
0
LINE
8
BLACK
6
CONTINUOUS
10
8.24384
20
-4.54558
11
8.24007
21
-4.54103
0
LINE
8
BLACK
6
CONTINUOUS
10
8.24007
20
-4.54103
11
8.2355
21
-4.53729
0
LINE
8
BLACK
6
CONTINUOUS
10
8.2355
20
-4.53729
11
8.23028
21
-4.53452
0
LINE
8
BLACK
6
CONTINUOUS
10
8.23028
20
-4.53452
11
8.22463
21
-4.53282
0
LINE
8
BLACK
6
CONTINUOUS
10
8.22463
20
-4.53282
11
8.2187
21
-4.53223
0
LINE
8
BLACK
6
CONTINUOUS
10
8.2187
20
-4.53223
11
6.6875
21
-4.53223
  0
ENDSEC
  0
EOF
