  0
SECTION
  2
HEADER
  9
$ACADVER
  1
AC1009
  9
$EXTMIN
 10
0.0
 20
0.0
 30
0.0
  9
$EXTMAX
 10
1000.0
 20
1000.0
 30
0.0
  9
$FILLMODE
 70
 0
  9
$SPLFRAME
 70
 1
  0
ENDSEC
  0
SECTION
  2
TABLES
  0
TABLE
  2
LAYER
 70
1
  0
LAYER
  2
0
 70
     0
 62
     7
  6
CONTINUOUS
  0
ENDTAB
  0
ENDSEC
  0
SECTION
  2
ENTITIES
  0
POLYLINE
  8
0
 62
     7
 66
     1
 10
0
 20
0
 30
0.0
 70
     1
 40
2.0625
 41
2.0625
  0
VERTEX
  8
0
 10
0.0954861
 20
0.381944
 30
0.0
 40
0.0286458
 41
0.0286458
  0
VERTEX
  8
0
 10
0.362847
 20
0.381944
 30
0.0
 40
0.0286458
 41
0.0286458
  0
VERTEX
  8
0
 10
0.369575
 20
0.381944
 30
0.0
 40
0.0286458
 41
0.0286458
  0
VERTEX
  8
0
 10
0.389865
 20
0.370822
 30
0.0
 40
0.0286458
 41
0.0286458
  0
VERTEX
  8
0
 10
0.401042
 20
0.350532
 30
0.0
 40
0.0286458
 41
0.0286458
  0
VERTEX
  8
0
 10
0.401042
 20
0.34375
 30
0.0
 40
0.0286458
 41
0.0286458
  0
VERTEX
  8
0
 10
0.401042
 20
0.114583
 30
0.0
 40
0.0286458
 41
0.0286458
  0
VERTEX
  8
0
 10
0.401042
 20
0.107856
 30
0.0
 40
0.0286458
 41
0.0286458
  0
VERTEX
  8
0
 10
0.389865
 20
0.0875651
 30
0.0
 40
0.0286458
 41
0.0286458
  0
VERTEX
  8
0
 10
0.369575
 20
0.0763889
 30
0.0
 40
0.0286458
 41
0.0286458
  0
VERTEX
  8
0
 10
0.362847
 20
0.0763889
 30
0.0
 40
0.0286458
 41
0.0286458
  0
VERTEX
  8
0
 10
0.0954861
 20
0.0763889
 30
0.0
 40
0.0286458
 41
0.0286458
  0
VERTEX
  8
0
 10
0.0887044
 20
0.0763889
 30
0.0
 40
0.0286458
 41
0.0286458
  0
VERTEX
  8
0
 10
0.0684136
 20
0.0875651
 30
0.0
 40
0.0286458
 41
0.0286458
  0
VERTEX
  8
0
 10
0.0572917
 20
0.107856
 30
0.0
 40
0.0286458
 41
0.0286458
  0
VERTEX
  8
0
 10
0.0572917
 20
0.114583
 30
0.0
 40
0.0286458
 41
0.0286458
  0
VERTEX
  8
0
 10
0.0572917
 20
0.34375
 30
0.0
 40
0.0286458
 41
0.0286458
  0
VERTEX
  8
0
 10
0.0572917
 20
0.350532
 30
0.0
 40
0.0286458
 41
0.0286458
  0
VERTEX
  8
0
 10
0.0684136
 20
0.370822
 30
0.0
 40
0.0286458
 41
0.0286458
  0
VERTEX
  8
0
 10
0.0887044
 20
0.381944
 30
0.0
 40
0.0286458
 41
0.0286458
  0
VERTEX
  8
0
 10
0.0954861
 20
0.381944
 30
0.0
 40
0.0286458
 41
0.0286458
  0
SEQEND
 8
0
  0
POLYLINE
  8
0
 62
     7
 66
     1
 10
0
 20
0
 30
0.0
 40
2.0625
 41
2.0625
  0
VERTEX
  8
0
 10
0.133681
 20
0.305556
 30
0.0
 40
0.0286458
 41
0.0286458
  0
VERTEX
  8
0
 10
0.133681
 20
0.305339
 30
0.0
 40
0.0286458
 41
0.0286458
  0
SEQEND
 8
0
  0
POLYLINE
  8
0
 62
     7
 66
     1
 10
0
 20
0
 30
0.0
 40
2.0625
 41
2.0625
  0
VERTEX
  8
0
 10
0.229167
 20
0.305556
 30
0.0
 40
0.0286458
 41
0.0286458
  0
VERTEX
  8
0
 10
0.229167
 20
0.305339
 30
0.0
 40
0.0286458
 41
0.0286458
  0
SEQEND
 8
0
  0
POLYLINE
  8
0
 62
     7
 66
     1
 10
0
 20
0
 30
0.0
 40
2.0625
 41
2.0625
  0
VERTEX
  8
0
 10
0.324653
 20
0.305556
 30
0.0
 40
0.0286458
 41
0.0286458
  0
VERTEX
  8
0
 10
0.324653
 20
0.305339
 30
0.0
 40
0.0286458
 41
0.0286458
  0
SEQEND
 8
0
  0
POLYLINE
  8
0
 62
     7
 66
     1
 10
0
 20
0
 30
0.0
 40
2.0625
 41
2.0625
  0
VERTEX
  8
0
 10
0.133681
 20
0.229167
 30
0.0
 40
0.0286458
 41
0.0286458
  0
VERTEX
  8
0
 10
0.133681
 20
0.22895
 30
0.0
 40
0.0286458
 41
0.0286458
  0
SEQEND
 8
0
  0
POLYLINE
  8
0
 62
     7
 66
     1
 10
0
 20
0
 30
0.0
 40
2.0625
 41
2.0625
  0
VERTEX
  8
0
 10
0.229167
 20
0.229167
 30
0.0
 40
0.0286458
 41
0.0286458
  0
VERTEX
  8
0
 10
0.229167
 20
0.22895
 30
0.0
 40
0.0286458
 41
0.0286458
  0
SEQEND
 8
0
  0
POLYLINE
  8
0
 62
     7
 66
     1
 10
0
 20
0
 30
0.0
 40
2.0625
 41
2.0625
  0
VERTEX
  8
0
 10
0.324653
 20
0.229167
 30
0.0
 40
0.0286458
 41
0.0286458
  0
VERTEX
  8
0
 10
0.324653
 20
0.22895
 30
0.0
 40
0.0286458
 41
0.0286458
  0
SEQEND
 8
0
  0
POLYLINE
  8
0
 62
     7
 66
     1
 10
0
 20
0
 30
0.0
 40
2.0625
 41
2.0625
  0
VERTEX
  8
0
 10
0.133681
 20
0.152778
 30
0.0
 40
0.0286458
 41
0.0286458
  0
VERTEX
  8
0
 10
0.324653
 20
0.152778
 30
0.0
 40
0.0286458
 41
0.0286458
  0
SEQEND
 8
0
  0
ENDSEC
  0
EOF
