G04 #@! TF.GenerationSoftware,KiCad,Pcbnew,(5.1.4)-1*
G04 #@! TF.CreationDate,2020-07-31T11:22:47-07:00*
G04 #@! TF.ProjectId,basic_macropad,62617369-635f-46d6-9163-726f7061642e,rev?*
G04 #@! TF.SameCoordinates,Original*
G04 #@! TF.FileFunction,Copper,L2,Bot*
G04 #@! TF.FilePolarity,Positive*
%FSLAX46Y46*%
G04 Gerber Fmt 4.6, Leading zero omitted, Abs format (unit mm)*
G04 Created by KiCad (PCBNEW (5.1.4)-1) date 2020-07-31 11:22:47*
%MOMM*%
%LPD*%
G04 APERTURE LIST*
%ADD10C,4.400000*%
%ADD11R,2.550000X2.500000*%
%ADD12R,2.000000X2.000000*%
%ADD13C,2.000000*%
%ADD14C,3.200000*%
%ADD15R,0.700000X1.000000*%
%ADD16R,0.700000X0.600000*%
%ADD17R,0.600000X1.450000*%
%ADD18R,0.300000X1.450000*%
%ADD19O,1.000000X2.100000*%
%ADD20O,1.000000X1.600000*%
%ADD21C,0.020000*%
%ADD22C,0.975000*%
%ADD23C,1.250000*%
%ADD24R,1.500000X1.000000*%
%ADD25R,1.200000X0.900000*%
%ADD26R,1.400000X1.200000*%
%ADD27R,0.550000X1.500000*%
%ADD28R,1.500000X0.550000*%
%ADD29R,1.100000X1.800000*%
%ADD30C,0.600000*%
%ADD31C,0.381000*%
%ADD32C,0.254000*%
G04 APERTURE END LIST*
D10*
X232568750Y-166687500D03*
X146050000Y-122237500D03*
X146050000Y-166687500D03*
X232568750Y-122237500D03*
X232568750Y-111918750D03*
X146050000Y-111918750D03*
X232568750Y-67468750D03*
X146050000Y-67468750D03*
D11*
X226028250Y-94234000D03*
X213101250Y-96774000D03*
X206978250Y-94234000D03*
X194051250Y-96774000D03*
X187928250Y-94234000D03*
X175001250Y-96774000D03*
X206978250Y-75184000D03*
X194051250Y-77724000D03*
X187928250Y-75184000D03*
X175001250Y-77724000D03*
D12*
X217678000Y-87757000D03*
D13*
X220178000Y-87757000D03*
X222678000Y-87757000D03*
D14*
X214578000Y-80257000D03*
X225778000Y-80257000D03*
D13*
X217678000Y-73257000D03*
X222678000Y-73257000D03*
D15*
X159972250Y-74148250D03*
D16*
X157972250Y-73948250D03*
X159972250Y-75848250D03*
X157972250Y-75848250D03*
D17*
X162260750Y-70941000D03*
X155810750Y-70941000D03*
X161485750Y-70941000D03*
X156585750Y-70941000D03*
D18*
X157285750Y-70941000D03*
X160785750Y-70941000D03*
X157785750Y-70941000D03*
X160285750Y-70941000D03*
X158285750Y-70941000D03*
X159785750Y-70941000D03*
X159285750Y-70941000D03*
X158785750Y-70941000D03*
D19*
X154715750Y-70026000D03*
X163355750Y-70026000D03*
D20*
X154715750Y-65846000D03*
X163355750Y-65846000D03*
D21*
G36*
X161039892Y-79349924D02*
G01*
X161063553Y-79353434D01*
X161086757Y-79359246D01*
X161109279Y-79367304D01*
X161130903Y-79377532D01*
X161151420Y-79389829D01*
X161170633Y-79404079D01*
X161188357Y-79420143D01*
X161204421Y-79437867D01*
X161218671Y-79457080D01*
X161230968Y-79477597D01*
X161241196Y-79499221D01*
X161249254Y-79521743D01*
X161255066Y-79544947D01*
X161258576Y-79568608D01*
X161259750Y-79592500D01*
X161259750Y-80080000D01*
X161258576Y-80103892D01*
X161255066Y-80127553D01*
X161249254Y-80150757D01*
X161241196Y-80173279D01*
X161230968Y-80194903D01*
X161218671Y-80215420D01*
X161204421Y-80234633D01*
X161188357Y-80252357D01*
X161170633Y-80268421D01*
X161151420Y-80282671D01*
X161130903Y-80294968D01*
X161109279Y-80305196D01*
X161086757Y-80313254D01*
X161063553Y-80319066D01*
X161039892Y-80322576D01*
X161016000Y-80323750D01*
X160103500Y-80323750D01*
X160079608Y-80322576D01*
X160055947Y-80319066D01*
X160032743Y-80313254D01*
X160010221Y-80305196D01*
X159988597Y-80294968D01*
X159968080Y-80282671D01*
X159948867Y-80268421D01*
X159931143Y-80252357D01*
X159915079Y-80234633D01*
X159900829Y-80215420D01*
X159888532Y-80194903D01*
X159878304Y-80173279D01*
X159870246Y-80150757D01*
X159864434Y-80127553D01*
X159860924Y-80103892D01*
X159859750Y-80080000D01*
X159859750Y-79592500D01*
X159860924Y-79568608D01*
X159864434Y-79544947D01*
X159870246Y-79521743D01*
X159878304Y-79499221D01*
X159888532Y-79477597D01*
X159900829Y-79457080D01*
X159915079Y-79437867D01*
X159931143Y-79420143D01*
X159948867Y-79404079D01*
X159968080Y-79389829D01*
X159988597Y-79377532D01*
X160010221Y-79367304D01*
X160032743Y-79359246D01*
X160055947Y-79353434D01*
X160079608Y-79349924D01*
X160103500Y-79348750D01*
X161016000Y-79348750D01*
X161039892Y-79349924D01*
X161039892Y-79349924D01*
G37*
D22*
X160559750Y-79836250D03*
D21*
G36*
X161039892Y-77474924D02*
G01*
X161063553Y-77478434D01*
X161086757Y-77484246D01*
X161109279Y-77492304D01*
X161130903Y-77502532D01*
X161151420Y-77514829D01*
X161170633Y-77529079D01*
X161188357Y-77545143D01*
X161204421Y-77562867D01*
X161218671Y-77582080D01*
X161230968Y-77602597D01*
X161241196Y-77624221D01*
X161249254Y-77646743D01*
X161255066Y-77669947D01*
X161258576Y-77693608D01*
X161259750Y-77717500D01*
X161259750Y-78205000D01*
X161258576Y-78228892D01*
X161255066Y-78252553D01*
X161249254Y-78275757D01*
X161241196Y-78298279D01*
X161230968Y-78319903D01*
X161218671Y-78340420D01*
X161204421Y-78359633D01*
X161188357Y-78377357D01*
X161170633Y-78393421D01*
X161151420Y-78407671D01*
X161130903Y-78419968D01*
X161109279Y-78430196D01*
X161086757Y-78438254D01*
X161063553Y-78444066D01*
X161039892Y-78447576D01*
X161016000Y-78448750D01*
X160103500Y-78448750D01*
X160079608Y-78447576D01*
X160055947Y-78444066D01*
X160032743Y-78438254D01*
X160010221Y-78430196D01*
X159988597Y-78419968D01*
X159968080Y-78407671D01*
X159948867Y-78393421D01*
X159931143Y-78377357D01*
X159915079Y-78359633D01*
X159900829Y-78340420D01*
X159888532Y-78319903D01*
X159878304Y-78298279D01*
X159870246Y-78275757D01*
X159864434Y-78252553D01*
X159860924Y-78228892D01*
X159859750Y-78205000D01*
X159859750Y-77717500D01*
X159860924Y-77693608D01*
X159864434Y-77669947D01*
X159870246Y-77646743D01*
X159878304Y-77624221D01*
X159888532Y-77602597D01*
X159900829Y-77582080D01*
X159915079Y-77562867D01*
X159931143Y-77545143D01*
X159948867Y-77529079D01*
X159968080Y-77514829D01*
X159988597Y-77502532D01*
X160010221Y-77492304D01*
X160032743Y-77484246D01*
X160055947Y-77478434D01*
X160079608Y-77474924D01*
X160103500Y-77473750D01*
X161016000Y-77473750D01*
X161039892Y-77474924D01*
X161039892Y-77474924D01*
G37*
D22*
X160559750Y-77961250D03*
D21*
G36*
X157864892Y-79324924D02*
G01*
X157888553Y-79328434D01*
X157911757Y-79334246D01*
X157934279Y-79342304D01*
X157955903Y-79352532D01*
X157976420Y-79364829D01*
X157995633Y-79379079D01*
X158013357Y-79395143D01*
X158029421Y-79412867D01*
X158043671Y-79432080D01*
X158055968Y-79452597D01*
X158066196Y-79474221D01*
X158074254Y-79496743D01*
X158080066Y-79519947D01*
X158083576Y-79543608D01*
X158084750Y-79567500D01*
X158084750Y-80055000D01*
X158083576Y-80078892D01*
X158080066Y-80102553D01*
X158074254Y-80125757D01*
X158066196Y-80148279D01*
X158055968Y-80169903D01*
X158043671Y-80190420D01*
X158029421Y-80209633D01*
X158013357Y-80227357D01*
X157995633Y-80243421D01*
X157976420Y-80257671D01*
X157955903Y-80269968D01*
X157934279Y-80280196D01*
X157911757Y-80288254D01*
X157888553Y-80294066D01*
X157864892Y-80297576D01*
X157841000Y-80298750D01*
X156928500Y-80298750D01*
X156904608Y-80297576D01*
X156880947Y-80294066D01*
X156857743Y-80288254D01*
X156835221Y-80280196D01*
X156813597Y-80269968D01*
X156793080Y-80257671D01*
X156773867Y-80243421D01*
X156756143Y-80227357D01*
X156740079Y-80209633D01*
X156725829Y-80190420D01*
X156713532Y-80169903D01*
X156703304Y-80148279D01*
X156695246Y-80125757D01*
X156689434Y-80102553D01*
X156685924Y-80078892D01*
X156684750Y-80055000D01*
X156684750Y-79567500D01*
X156685924Y-79543608D01*
X156689434Y-79519947D01*
X156695246Y-79496743D01*
X156703304Y-79474221D01*
X156713532Y-79452597D01*
X156725829Y-79432080D01*
X156740079Y-79412867D01*
X156756143Y-79395143D01*
X156773867Y-79379079D01*
X156793080Y-79364829D01*
X156813597Y-79352532D01*
X156835221Y-79342304D01*
X156857743Y-79334246D01*
X156880947Y-79328434D01*
X156904608Y-79324924D01*
X156928500Y-79323750D01*
X157841000Y-79323750D01*
X157864892Y-79324924D01*
X157864892Y-79324924D01*
G37*
D22*
X157384750Y-79811250D03*
D21*
G36*
X157864892Y-77449924D02*
G01*
X157888553Y-77453434D01*
X157911757Y-77459246D01*
X157934279Y-77467304D01*
X157955903Y-77477532D01*
X157976420Y-77489829D01*
X157995633Y-77504079D01*
X158013357Y-77520143D01*
X158029421Y-77537867D01*
X158043671Y-77557080D01*
X158055968Y-77577597D01*
X158066196Y-77599221D01*
X158074254Y-77621743D01*
X158080066Y-77644947D01*
X158083576Y-77668608D01*
X158084750Y-77692500D01*
X158084750Y-78180000D01*
X158083576Y-78203892D01*
X158080066Y-78227553D01*
X158074254Y-78250757D01*
X158066196Y-78273279D01*
X158055968Y-78294903D01*
X158043671Y-78315420D01*
X158029421Y-78334633D01*
X158013357Y-78352357D01*
X157995633Y-78368421D01*
X157976420Y-78382671D01*
X157955903Y-78394968D01*
X157934279Y-78405196D01*
X157911757Y-78413254D01*
X157888553Y-78419066D01*
X157864892Y-78422576D01*
X157841000Y-78423750D01*
X156928500Y-78423750D01*
X156904608Y-78422576D01*
X156880947Y-78419066D01*
X156857743Y-78413254D01*
X156835221Y-78405196D01*
X156813597Y-78394968D01*
X156793080Y-78382671D01*
X156773867Y-78368421D01*
X156756143Y-78352357D01*
X156740079Y-78334633D01*
X156725829Y-78315420D01*
X156713532Y-78294903D01*
X156703304Y-78273279D01*
X156695246Y-78250757D01*
X156689434Y-78227553D01*
X156685924Y-78203892D01*
X156684750Y-78180000D01*
X156684750Y-77692500D01*
X156685924Y-77668608D01*
X156689434Y-77644947D01*
X156695246Y-77621743D01*
X156703304Y-77599221D01*
X156713532Y-77577597D01*
X156725829Y-77557080D01*
X156740079Y-77537867D01*
X156756143Y-77520143D01*
X156773867Y-77504079D01*
X156793080Y-77489829D01*
X156813597Y-77477532D01*
X156835221Y-77467304D01*
X156857743Y-77459246D01*
X156880947Y-77453434D01*
X156904608Y-77449924D01*
X156928500Y-77448750D01*
X157841000Y-77448750D01*
X157864892Y-77449924D01*
X157864892Y-77449924D01*
G37*
D22*
X157384750Y-77936250D03*
D21*
G36*
X154912142Y-77032174D02*
G01*
X154935803Y-77035684D01*
X154959007Y-77041496D01*
X154981529Y-77049554D01*
X155003153Y-77059782D01*
X155023670Y-77072079D01*
X155042883Y-77086329D01*
X155060607Y-77102393D01*
X155076671Y-77120117D01*
X155090921Y-77139330D01*
X155103218Y-77159847D01*
X155113446Y-77181471D01*
X155121504Y-77203993D01*
X155127316Y-77227197D01*
X155130826Y-77250858D01*
X155132000Y-77274750D01*
X155132000Y-77762250D01*
X155130826Y-77786142D01*
X155127316Y-77809803D01*
X155121504Y-77833007D01*
X155113446Y-77855529D01*
X155103218Y-77877153D01*
X155090921Y-77897670D01*
X155076671Y-77916883D01*
X155060607Y-77934607D01*
X155042883Y-77950671D01*
X155023670Y-77964921D01*
X155003153Y-77977218D01*
X154981529Y-77987446D01*
X154959007Y-77995504D01*
X154935803Y-78001316D01*
X154912142Y-78004826D01*
X154888250Y-78006000D01*
X153975750Y-78006000D01*
X153951858Y-78004826D01*
X153928197Y-78001316D01*
X153904993Y-77995504D01*
X153882471Y-77987446D01*
X153860847Y-77977218D01*
X153840330Y-77964921D01*
X153821117Y-77950671D01*
X153803393Y-77934607D01*
X153787329Y-77916883D01*
X153773079Y-77897670D01*
X153760782Y-77877153D01*
X153750554Y-77855529D01*
X153742496Y-77833007D01*
X153736684Y-77809803D01*
X153733174Y-77786142D01*
X153732000Y-77762250D01*
X153732000Y-77274750D01*
X153733174Y-77250858D01*
X153736684Y-77227197D01*
X153742496Y-77203993D01*
X153750554Y-77181471D01*
X153760782Y-77159847D01*
X153773079Y-77139330D01*
X153787329Y-77120117D01*
X153803393Y-77102393D01*
X153821117Y-77086329D01*
X153840330Y-77072079D01*
X153860847Y-77059782D01*
X153882471Y-77049554D01*
X153904993Y-77041496D01*
X153928197Y-77035684D01*
X153951858Y-77032174D01*
X153975750Y-77031000D01*
X154888250Y-77031000D01*
X154912142Y-77032174D01*
X154912142Y-77032174D01*
G37*
D22*
X154432000Y-77518500D03*
D21*
G36*
X154912142Y-75157174D02*
G01*
X154935803Y-75160684D01*
X154959007Y-75166496D01*
X154981529Y-75174554D01*
X155003153Y-75184782D01*
X155023670Y-75197079D01*
X155042883Y-75211329D01*
X155060607Y-75227393D01*
X155076671Y-75245117D01*
X155090921Y-75264330D01*
X155103218Y-75284847D01*
X155113446Y-75306471D01*
X155121504Y-75328993D01*
X155127316Y-75352197D01*
X155130826Y-75375858D01*
X155132000Y-75399750D01*
X155132000Y-75887250D01*
X155130826Y-75911142D01*
X155127316Y-75934803D01*
X155121504Y-75958007D01*
X155113446Y-75980529D01*
X155103218Y-76002153D01*
X155090921Y-76022670D01*
X155076671Y-76041883D01*
X155060607Y-76059607D01*
X155042883Y-76075671D01*
X155023670Y-76089921D01*
X155003153Y-76102218D01*
X154981529Y-76112446D01*
X154959007Y-76120504D01*
X154935803Y-76126316D01*
X154912142Y-76129826D01*
X154888250Y-76131000D01*
X153975750Y-76131000D01*
X153951858Y-76129826D01*
X153928197Y-76126316D01*
X153904993Y-76120504D01*
X153882471Y-76112446D01*
X153860847Y-76102218D01*
X153840330Y-76089921D01*
X153821117Y-76075671D01*
X153803393Y-76059607D01*
X153787329Y-76041883D01*
X153773079Y-76022670D01*
X153760782Y-76002153D01*
X153750554Y-75980529D01*
X153742496Y-75958007D01*
X153736684Y-75934803D01*
X153733174Y-75911142D01*
X153732000Y-75887250D01*
X153732000Y-75399750D01*
X153733174Y-75375858D01*
X153736684Y-75352197D01*
X153742496Y-75328993D01*
X153750554Y-75306471D01*
X153760782Y-75284847D01*
X153773079Y-75264330D01*
X153787329Y-75245117D01*
X153803393Y-75227393D01*
X153821117Y-75211329D01*
X153840330Y-75197079D01*
X153860847Y-75184782D01*
X153882471Y-75174554D01*
X153904993Y-75166496D01*
X153928197Y-75160684D01*
X153951858Y-75157174D01*
X153975750Y-75156000D01*
X154888250Y-75156000D01*
X154912142Y-75157174D01*
X154912142Y-75157174D01*
G37*
D22*
X154432000Y-75643500D03*
D21*
G36*
X163929142Y-77032174D02*
G01*
X163952803Y-77035684D01*
X163976007Y-77041496D01*
X163998529Y-77049554D01*
X164020153Y-77059782D01*
X164040670Y-77072079D01*
X164059883Y-77086329D01*
X164077607Y-77102393D01*
X164093671Y-77120117D01*
X164107921Y-77139330D01*
X164120218Y-77159847D01*
X164130446Y-77181471D01*
X164138504Y-77203993D01*
X164144316Y-77227197D01*
X164147826Y-77250858D01*
X164149000Y-77274750D01*
X164149000Y-77762250D01*
X164147826Y-77786142D01*
X164144316Y-77809803D01*
X164138504Y-77833007D01*
X164130446Y-77855529D01*
X164120218Y-77877153D01*
X164107921Y-77897670D01*
X164093671Y-77916883D01*
X164077607Y-77934607D01*
X164059883Y-77950671D01*
X164040670Y-77964921D01*
X164020153Y-77977218D01*
X163998529Y-77987446D01*
X163976007Y-77995504D01*
X163952803Y-78001316D01*
X163929142Y-78004826D01*
X163905250Y-78006000D01*
X162992750Y-78006000D01*
X162968858Y-78004826D01*
X162945197Y-78001316D01*
X162921993Y-77995504D01*
X162899471Y-77987446D01*
X162877847Y-77977218D01*
X162857330Y-77964921D01*
X162838117Y-77950671D01*
X162820393Y-77934607D01*
X162804329Y-77916883D01*
X162790079Y-77897670D01*
X162777782Y-77877153D01*
X162767554Y-77855529D01*
X162759496Y-77833007D01*
X162753684Y-77809803D01*
X162750174Y-77786142D01*
X162749000Y-77762250D01*
X162749000Y-77274750D01*
X162750174Y-77250858D01*
X162753684Y-77227197D01*
X162759496Y-77203993D01*
X162767554Y-77181471D01*
X162777782Y-77159847D01*
X162790079Y-77139330D01*
X162804329Y-77120117D01*
X162820393Y-77102393D01*
X162838117Y-77086329D01*
X162857330Y-77072079D01*
X162877847Y-77059782D01*
X162899471Y-77049554D01*
X162921993Y-77041496D01*
X162945197Y-77035684D01*
X162968858Y-77032174D01*
X162992750Y-77031000D01*
X163905250Y-77031000D01*
X163929142Y-77032174D01*
X163929142Y-77032174D01*
G37*
D22*
X163449000Y-77518500D03*
D21*
G36*
X163929142Y-75157174D02*
G01*
X163952803Y-75160684D01*
X163976007Y-75166496D01*
X163998529Y-75174554D01*
X164020153Y-75184782D01*
X164040670Y-75197079D01*
X164059883Y-75211329D01*
X164077607Y-75227393D01*
X164093671Y-75245117D01*
X164107921Y-75264330D01*
X164120218Y-75284847D01*
X164130446Y-75306471D01*
X164138504Y-75328993D01*
X164144316Y-75352197D01*
X164147826Y-75375858D01*
X164149000Y-75399750D01*
X164149000Y-75887250D01*
X164147826Y-75911142D01*
X164144316Y-75934803D01*
X164138504Y-75958007D01*
X164130446Y-75980529D01*
X164120218Y-76002153D01*
X164107921Y-76022670D01*
X164093671Y-76041883D01*
X164077607Y-76059607D01*
X164059883Y-76075671D01*
X164040670Y-76089921D01*
X164020153Y-76102218D01*
X163998529Y-76112446D01*
X163976007Y-76120504D01*
X163952803Y-76126316D01*
X163929142Y-76129826D01*
X163905250Y-76131000D01*
X162992750Y-76131000D01*
X162968858Y-76129826D01*
X162945197Y-76126316D01*
X162921993Y-76120504D01*
X162899471Y-76112446D01*
X162877847Y-76102218D01*
X162857330Y-76089921D01*
X162838117Y-76075671D01*
X162820393Y-76059607D01*
X162804329Y-76041883D01*
X162790079Y-76022670D01*
X162777782Y-76002153D01*
X162767554Y-75980529D01*
X162759496Y-75958007D01*
X162753684Y-75934803D01*
X162750174Y-75911142D01*
X162749000Y-75887250D01*
X162749000Y-75399750D01*
X162750174Y-75375858D01*
X162753684Y-75352197D01*
X162759496Y-75328993D01*
X162767554Y-75306471D01*
X162777782Y-75284847D01*
X162790079Y-75264330D01*
X162804329Y-75245117D01*
X162820393Y-75227393D01*
X162838117Y-75211329D01*
X162857330Y-75197079D01*
X162877847Y-75184782D01*
X162899471Y-75174554D01*
X162921993Y-75166496D01*
X162945197Y-75160684D01*
X162968858Y-75157174D01*
X162992750Y-75156000D01*
X163905250Y-75156000D01*
X163929142Y-75157174D01*
X163929142Y-75157174D01*
G37*
D22*
X163449000Y-75643500D03*
D21*
G36*
X149874504Y-76557454D02*
G01*
X149898773Y-76561054D01*
X149922571Y-76567015D01*
X149945671Y-76575280D01*
X149967849Y-76585770D01*
X149988893Y-76598383D01*
X150008598Y-76612997D01*
X150026777Y-76629473D01*
X150043253Y-76647652D01*
X150057867Y-76667357D01*
X150070480Y-76688401D01*
X150080970Y-76710579D01*
X150089235Y-76733679D01*
X150095196Y-76757477D01*
X150098796Y-76781746D01*
X150100000Y-76806250D01*
X150100000Y-77556250D01*
X150098796Y-77580754D01*
X150095196Y-77605023D01*
X150089235Y-77628821D01*
X150080970Y-77651921D01*
X150070480Y-77674099D01*
X150057867Y-77695143D01*
X150043253Y-77714848D01*
X150026777Y-77733027D01*
X150008598Y-77749503D01*
X149988893Y-77764117D01*
X149967849Y-77776730D01*
X149945671Y-77787220D01*
X149922571Y-77795485D01*
X149898773Y-77801446D01*
X149874504Y-77805046D01*
X149850000Y-77806250D01*
X148600000Y-77806250D01*
X148575496Y-77805046D01*
X148551227Y-77801446D01*
X148527429Y-77795485D01*
X148504329Y-77787220D01*
X148482151Y-77776730D01*
X148461107Y-77764117D01*
X148441402Y-77749503D01*
X148423223Y-77733027D01*
X148406747Y-77714848D01*
X148392133Y-77695143D01*
X148379520Y-77674099D01*
X148369030Y-77651921D01*
X148360765Y-77628821D01*
X148354804Y-77605023D01*
X148351204Y-77580754D01*
X148350000Y-77556250D01*
X148350000Y-76806250D01*
X148351204Y-76781746D01*
X148354804Y-76757477D01*
X148360765Y-76733679D01*
X148369030Y-76710579D01*
X148379520Y-76688401D01*
X148392133Y-76667357D01*
X148406747Y-76647652D01*
X148423223Y-76629473D01*
X148441402Y-76612997D01*
X148461107Y-76598383D01*
X148482151Y-76585770D01*
X148504329Y-76575280D01*
X148527429Y-76567015D01*
X148551227Y-76561054D01*
X148575496Y-76557454D01*
X148600000Y-76556250D01*
X149850000Y-76556250D01*
X149874504Y-76557454D01*
X149874504Y-76557454D01*
G37*
D23*
X149225000Y-77181250D03*
D21*
G36*
X149874504Y-79357454D02*
G01*
X149898773Y-79361054D01*
X149922571Y-79367015D01*
X149945671Y-79375280D01*
X149967849Y-79385770D01*
X149988893Y-79398383D01*
X150008598Y-79412997D01*
X150026777Y-79429473D01*
X150043253Y-79447652D01*
X150057867Y-79467357D01*
X150070480Y-79488401D01*
X150080970Y-79510579D01*
X150089235Y-79533679D01*
X150095196Y-79557477D01*
X150098796Y-79581746D01*
X150100000Y-79606250D01*
X150100000Y-80356250D01*
X150098796Y-80380754D01*
X150095196Y-80405023D01*
X150089235Y-80428821D01*
X150080970Y-80451921D01*
X150070480Y-80474099D01*
X150057867Y-80495143D01*
X150043253Y-80514848D01*
X150026777Y-80533027D01*
X150008598Y-80549503D01*
X149988893Y-80564117D01*
X149967849Y-80576730D01*
X149945671Y-80587220D01*
X149922571Y-80595485D01*
X149898773Y-80601446D01*
X149874504Y-80605046D01*
X149850000Y-80606250D01*
X148600000Y-80606250D01*
X148575496Y-80605046D01*
X148551227Y-80601446D01*
X148527429Y-80595485D01*
X148504329Y-80587220D01*
X148482151Y-80576730D01*
X148461107Y-80564117D01*
X148441402Y-80549503D01*
X148423223Y-80533027D01*
X148406747Y-80514848D01*
X148392133Y-80495143D01*
X148379520Y-80474099D01*
X148369030Y-80451921D01*
X148360765Y-80428821D01*
X148354804Y-80405023D01*
X148351204Y-80380754D01*
X148350000Y-80356250D01*
X148350000Y-79606250D01*
X148351204Y-79581746D01*
X148354804Y-79557477D01*
X148360765Y-79533679D01*
X148369030Y-79510579D01*
X148379520Y-79488401D01*
X148392133Y-79467357D01*
X148406747Y-79447652D01*
X148423223Y-79429473D01*
X148441402Y-79412997D01*
X148461107Y-79398383D01*
X148482151Y-79385770D01*
X148504329Y-79375280D01*
X148527429Y-79367015D01*
X148551227Y-79361054D01*
X148575496Y-79357454D01*
X148600000Y-79356250D01*
X149850000Y-79356250D01*
X149874504Y-79357454D01*
X149874504Y-79357454D01*
G37*
D23*
X149225000Y-79981250D03*
D24*
X207237500Y-86506250D03*
X207237500Y-89706250D03*
X202337500Y-86506250D03*
X202337500Y-89706250D03*
X171381250Y-89738000D03*
X171381250Y-86538000D03*
X176281250Y-89738000D03*
X176281250Y-86538000D03*
D25*
X227806250Y-97568750D03*
X227806250Y-100868750D03*
X226218750Y-73756250D03*
X226218750Y-77056250D03*
D26*
X161183500Y-86272000D03*
X158983500Y-86272000D03*
X158983500Y-87972000D03*
X161183500Y-87972000D03*
D27*
X155480250Y-106569750D03*
X156280250Y-106569750D03*
X157080250Y-106569750D03*
X157880250Y-106569750D03*
X158680250Y-106569750D03*
X159480250Y-106569750D03*
X160280250Y-106569750D03*
X161080250Y-106569750D03*
X161880250Y-106569750D03*
X162680250Y-106569750D03*
X163480250Y-106569750D03*
D28*
X165180250Y-104869750D03*
X165180250Y-104069750D03*
X165180250Y-103269750D03*
X165180250Y-102469750D03*
X165180250Y-101669750D03*
X165180250Y-100869750D03*
X165180250Y-100069750D03*
X165180250Y-99269750D03*
X165180250Y-98469750D03*
X165180250Y-97669750D03*
X165180250Y-96869750D03*
D27*
X163480250Y-95169750D03*
X162680250Y-95169750D03*
X161880250Y-95169750D03*
X161080250Y-95169750D03*
X160280250Y-95169750D03*
X159480250Y-95169750D03*
X158680250Y-95169750D03*
X157880250Y-95169750D03*
X157080250Y-95169750D03*
X156280250Y-95169750D03*
X155480250Y-95169750D03*
D28*
X153780250Y-96869750D03*
X153780250Y-97669750D03*
X153780250Y-98469750D03*
X153780250Y-99269750D03*
X153780250Y-100069750D03*
X153780250Y-100869750D03*
X153780250Y-101669750D03*
X153780250Y-102469750D03*
X153780250Y-103269750D03*
X153780250Y-104069750D03*
X153780250Y-104869750D03*
D29*
X168012500Y-73743750D03*
X171712500Y-67543750D03*
X171712500Y-73743750D03*
X168012500Y-67543750D03*
D21*
G36*
X176692642Y-68426174D02*
G01*
X176716303Y-68429684D01*
X176739507Y-68435496D01*
X176762029Y-68443554D01*
X176783653Y-68453782D01*
X176804170Y-68466079D01*
X176823383Y-68480329D01*
X176841107Y-68496393D01*
X176857171Y-68514117D01*
X176871421Y-68533330D01*
X176883718Y-68553847D01*
X176893946Y-68575471D01*
X176902004Y-68597993D01*
X176907816Y-68621197D01*
X176911326Y-68644858D01*
X176912500Y-68668750D01*
X176912500Y-69156250D01*
X176911326Y-69180142D01*
X176907816Y-69203803D01*
X176902004Y-69227007D01*
X176893946Y-69249529D01*
X176883718Y-69271153D01*
X176871421Y-69291670D01*
X176857171Y-69310883D01*
X176841107Y-69328607D01*
X176823383Y-69344671D01*
X176804170Y-69358921D01*
X176783653Y-69371218D01*
X176762029Y-69381446D01*
X176739507Y-69389504D01*
X176716303Y-69395316D01*
X176692642Y-69398826D01*
X176668750Y-69400000D01*
X175756250Y-69400000D01*
X175732358Y-69398826D01*
X175708697Y-69395316D01*
X175685493Y-69389504D01*
X175662971Y-69381446D01*
X175641347Y-69371218D01*
X175620830Y-69358921D01*
X175601617Y-69344671D01*
X175583893Y-69328607D01*
X175567829Y-69310883D01*
X175553579Y-69291670D01*
X175541282Y-69271153D01*
X175531054Y-69249529D01*
X175522996Y-69227007D01*
X175517184Y-69203803D01*
X175513674Y-69180142D01*
X175512500Y-69156250D01*
X175512500Y-68668750D01*
X175513674Y-68644858D01*
X175517184Y-68621197D01*
X175522996Y-68597993D01*
X175531054Y-68575471D01*
X175541282Y-68553847D01*
X175553579Y-68533330D01*
X175567829Y-68514117D01*
X175583893Y-68496393D01*
X175601617Y-68480329D01*
X175620830Y-68466079D01*
X175641347Y-68453782D01*
X175662971Y-68443554D01*
X175685493Y-68435496D01*
X175708697Y-68429684D01*
X175732358Y-68426174D01*
X175756250Y-68425000D01*
X176668750Y-68425000D01*
X176692642Y-68426174D01*
X176692642Y-68426174D01*
G37*
D22*
X176212500Y-68912500D03*
D21*
G36*
X176692642Y-70301174D02*
G01*
X176716303Y-70304684D01*
X176739507Y-70310496D01*
X176762029Y-70318554D01*
X176783653Y-70328782D01*
X176804170Y-70341079D01*
X176823383Y-70355329D01*
X176841107Y-70371393D01*
X176857171Y-70389117D01*
X176871421Y-70408330D01*
X176883718Y-70428847D01*
X176893946Y-70450471D01*
X176902004Y-70472993D01*
X176907816Y-70496197D01*
X176911326Y-70519858D01*
X176912500Y-70543750D01*
X176912500Y-71031250D01*
X176911326Y-71055142D01*
X176907816Y-71078803D01*
X176902004Y-71102007D01*
X176893946Y-71124529D01*
X176883718Y-71146153D01*
X176871421Y-71166670D01*
X176857171Y-71185883D01*
X176841107Y-71203607D01*
X176823383Y-71219671D01*
X176804170Y-71233921D01*
X176783653Y-71246218D01*
X176762029Y-71256446D01*
X176739507Y-71264504D01*
X176716303Y-71270316D01*
X176692642Y-71273826D01*
X176668750Y-71275000D01*
X175756250Y-71275000D01*
X175732358Y-71273826D01*
X175708697Y-71270316D01*
X175685493Y-71264504D01*
X175662971Y-71256446D01*
X175641347Y-71246218D01*
X175620830Y-71233921D01*
X175601617Y-71219671D01*
X175583893Y-71203607D01*
X175567829Y-71185883D01*
X175553579Y-71166670D01*
X175541282Y-71146153D01*
X175531054Y-71124529D01*
X175522996Y-71102007D01*
X175517184Y-71078803D01*
X175513674Y-71055142D01*
X175512500Y-71031250D01*
X175512500Y-70543750D01*
X175513674Y-70519858D01*
X175517184Y-70496197D01*
X175522996Y-70472993D01*
X175531054Y-70450471D01*
X175541282Y-70428847D01*
X175553579Y-70408330D01*
X175567829Y-70389117D01*
X175583893Y-70371393D01*
X175601617Y-70355329D01*
X175620830Y-70341079D01*
X175641347Y-70328782D01*
X175662971Y-70318554D01*
X175685493Y-70310496D01*
X175708697Y-70304684D01*
X175732358Y-70301174D01*
X175756250Y-70300000D01*
X176668750Y-70300000D01*
X176692642Y-70301174D01*
X176692642Y-70301174D01*
G37*
D22*
X176212500Y-70787500D03*
D21*
G36*
X169548892Y-106526174D02*
G01*
X169572553Y-106529684D01*
X169595757Y-106535496D01*
X169618279Y-106543554D01*
X169639903Y-106553782D01*
X169660420Y-106566079D01*
X169679633Y-106580329D01*
X169697357Y-106596393D01*
X169713421Y-106614117D01*
X169727671Y-106633330D01*
X169739968Y-106653847D01*
X169750196Y-106675471D01*
X169758254Y-106697993D01*
X169764066Y-106721197D01*
X169767576Y-106744858D01*
X169768750Y-106768750D01*
X169768750Y-107256250D01*
X169767576Y-107280142D01*
X169764066Y-107303803D01*
X169758254Y-107327007D01*
X169750196Y-107349529D01*
X169739968Y-107371153D01*
X169727671Y-107391670D01*
X169713421Y-107410883D01*
X169697357Y-107428607D01*
X169679633Y-107444671D01*
X169660420Y-107458921D01*
X169639903Y-107471218D01*
X169618279Y-107481446D01*
X169595757Y-107489504D01*
X169572553Y-107495316D01*
X169548892Y-107498826D01*
X169525000Y-107500000D01*
X168612500Y-107500000D01*
X168588608Y-107498826D01*
X168564947Y-107495316D01*
X168541743Y-107489504D01*
X168519221Y-107481446D01*
X168497597Y-107471218D01*
X168477080Y-107458921D01*
X168457867Y-107444671D01*
X168440143Y-107428607D01*
X168424079Y-107410883D01*
X168409829Y-107391670D01*
X168397532Y-107371153D01*
X168387304Y-107349529D01*
X168379246Y-107327007D01*
X168373434Y-107303803D01*
X168369924Y-107280142D01*
X168368750Y-107256250D01*
X168368750Y-106768750D01*
X168369924Y-106744858D01*
X168373434Y-106721197D01*
X168379246Y-106697993D01*
X168387304Y-106675471D01*
X168397532Y-106653847D01*
X168409829Y-106633330D01*
X168424079Y-106614117D01*
X168440143Y-106596393D01*
X168457867Y-106580329D01*
X168477080Y-106566079D01*
X168497597Y-106553782D01*
X168519221Y-106543554D01*
X168541743Y-106535496D01*
X168564947Y-106529684D01*
X168588608Y-106526174D01*
X168612500Y-106525000D01*
X169525000Y-106525000D01*
X169548892Y-106526174D01*
X169548892Y-106526174D01*
G37*
D22*
X169068750Y-107012500D03*
D21*
G36*
X169548892Y-108401174D02*
G01*
X169572553Y-108404684D01*
X169595757Y-108410496D01*
X169618279Y-108418554D01*
X169639903Y-108428782D01*
X169660420Y-108441079D01*
X169679633Y-108455329D01*
X169697357Y-108471393D01*
X169713421Y-108489117D01*
X169727671Y-108508330D01*
X169739968Y-108528847D01*
X169750196Y-108550471D01*
X169758254Y-108572993D01*
X169764066Y-108596197D01*
X169767576Y-108619858D01*
X169768750Y-108643750D01*
X169768750Y-109131250D01*
X169767576Y-109155142D01*
X169764066Y-109178803D01*
X169758254Y-109202007D01*
X169750196Y-109224529D01*
X169739968Y-109246153D01*
X169727671Y-109266670D01*
X169713421Y-109285883D01*
X169697357Y-109303607D01*
X169679633Y-109319671D01*
X169660420Y-109333921D01*
X169639903Y-109346218D01*
X169618279Y-109356446D01*
X169595757Y-109364504D01*
X169572553Y-109370316D01*
X169548892Y-109373826D01*
X169525000Y-109375000D01*
X168612500Y-109375000D01*
X168588608Y-109373826D01*
X168564947Y-109370316D01*
X168541743Y-109364504D01*
X168519221Y-109356446D01*
X168497597Y-109346218D01*
X168477080Y-109333921D01*
X168457867Y-109319671D01*
X168440143Y-109303607D01*
X168424079Y-109285883D01*
X168409829Y-109266670D01*
X168397532Y-109246153D01*
X168387304Y-109224529D01*
X168379246Y-109202007D01*
X168373434Y-109178803D01*
X168369924Y-109155142D01*
X168368750Y-109131250D01*
X168368750Y-108643750D01*
X168369924Y-108619858D01*
X168373434Y-108596197D01*
X168379246Y-108572993D01*
X168387304Y-108550471D01*
X168397532Y-108528847D01*
X168409829Y-108508330D01*
X168424079Y-108489117D01*
X168440143Y-108471393D01*
X168457867Y-108455329D01*
X168477080Y-108441079D01*
X168497597Y-108428782D01*
X168519221Y-108418554D01*
X168541743Y-108410496D01*
X168564947Y-108404684D01*
X168588608Y-108401174D01*
X168612500Y-108400000D01*
X169525000Y-108400000D01*
X169548892Y-108401174D01*
X169548892Y-108401174D01*
G37*
D22*
X169068750Y-108887500D03*
D25*
X208756250Y-97568750D03*
X208756250Y-100868750D03*
X189706250Y-97568750D03*
X189706250Y-100868750D03*
X208756250Y-78518750D03*
X208756250Y-81818750D03*
X189706250Y-78518750D03*
X189706250Y-81818750D03*
D21*
G36*
X146530142Y-96494924D02*
G01*
X146553803Y-96498434D01*
X146577007Y-96504246D01*
X146599529Y-96512304D01*
X146621153Y-96522532D01*
X146641670Y-96534829D01*
X146660883Y-96549079D01*
X146678607Y-96565143D01*
X146694671Y-96582867D01*
X146708921Y-96602080D01*
X146721218Y-96622597D01*
X146731446Y-96644221D01*
X146739504Y-96666743D01*
X146745316Y-96689947D01*
X146748826Y-96713608D01*
X146750000Y-96737500D01*
X146750000Y-97225000D01*
X146748826Y-97248892D01*
X146745316Y-97272553D01*
X146739504Y-97295757D01*
X146731446Y-97318279D01*
X146721218Y-97339903D01*
X146708921Y-97360420D01*
X146694671Y-97379633D01*
X146678607Y-97397357D01*
X146660883Y-97413421D01*
X146641670Y-97427671D01*
X146621153Y-97439968D01*
X146599529Y-97450196D01*
X146577007Y-97458254D01*
X146553803Y-97464066D01*
X146530142Y-97467576D01*
X146506250Y-97468750D01*
X145593750Y-97468750D01*
X145569858Y-97467576D01*
X145546197Y-97464066D01*
X145522993Y-97458254D01*
X145500471Y-97450196D01*
X145478847Y-97439968D01*
X145458330Y-97427671D01*
X145439117Y-97413421D01*
X145421393Y-97397357D01*
X145405329Y-97379633D01*
X145391079Y-97360420D01*
X145378782Y-97339903D01*
X145368554Y-97318279D01*
X145360496Y-97295757D01*
X145354684Y-97272553D01*
X145351174Y-97248892D01*
X145350000Y-97225000D01*
X145350000Y-96737500D01*
X145351174Y-96713608D01*
X145354684Y-96689947D01*
X145360496Y-96666743D01*
X145368554Y-96644221D01*
X145378782Y-96622597D01*
X145391079Y-96602080D01*
X145405329Y-96582867D01*
X145421393Y-96565143D01*
X145439117Y-96549079D01*
X145458330Y-96534829D01*
X145478847Y-96522532D01*
X145500471Y-96512304D01*
X145522993Y-96504246D01*
X145546197Y-96498434D01*
X145569858Y-96494924D01*
X145593750Y-96493750D01*
X146506250Y-96493750D01*
X146530142Y-96494924D01*
X146530142Y-96494924D01*
G37*
D22*
X146050000Y-96981250D03*
D21*
G36*
X146530142Y-94619924D02*
G01*
X146553803Y-94623434D01*
X146577007Y-94629246D01*
X146599529Y-94637304D01*
X146621153Y-94647532D01*
X146641670Y-94659829D01*
X146660883Y-94674079D01*
X146678607Y-94690143D01*
X146694671Y-94707867D01*
X146708921Y-94727080D01*
X146721218Y-94747597D01*
X146731446Y-94769221D01*
X146739504Y-94791743D01*
X146745316Y-94814947D01*
X146748826Y-94838608D01*
X146750000Y-94862500D01*
X146750000Y-95350000D01*
X146748826Y-95373892D01*
X146745316Y-95397553D01*
X146739504Y-95420757D01*
X146731446Y-95443279D01*
X146721218Y-95464903D01*
X146708921Y-95485420D01*
X146694671Y-95504633D01*
X146678607Y-95522357D01*
X146660883Y-95538421D01*
X146641670Y-95552671D01*
X146621153Y-95564968D01*
X146599529Y-95575196D01*
X146577007Y-95583254D01*
X146553803Y-95589066D01*
X146530142Y-95592576D01*
X146506250Y-95593750D01*
X145593750Y-95593750D01*
X145569858Y-95592576D01*
X145546197Y-95589066D01*
X145522993Y-95583254D01*
X145500471Y-95575196D01*
X145478847Y-95564968D01*
X145458330Y-95552671D01*
X145439117Y-95538421D01*
X145421393Y-95522357D01*
X145405329Y-95504633D01*
X145391079Y-95485420D01*
X145378782Y-95464903D01*
X145368554Y-95443279D01*
X145360496Y-95420757D01*
X145354684Y-95397553D01*
X145351174Y-95373892D01*
X145350000Y-95350000D01*
X145350000Y-94862500D01*
X145351174Y-94838608D01*
X145354684Y-94814947D01*
X145360496Y-94791743D01*
X145368554Y-94769221D01*
X145378782Y-94747597D01*
X145391079Y-94727080D01*
X145405329Y-94707867D01*
X145421393Y-94690143D01*
X145439117Y-94674079D01*
X145458330Y-94659829D01*
X145478847Y-94647532D01*
X145500471Y-94637304D01*
X145522993Y-94629246D01*
X145546197Y-94623434D01*
X145569858Y-94619924D01*
X145593750Y-94618750D01*
X146506250Y-94618750D01*
X146530142Y-94619924D01*
X146530142Y-94619924D01*
G37*
D22*
X146050000Y-95106250D03*
D21*
G36*
X156340892Y-87668424D02*
G01*
X156364553Y-87671934D01*
X156387757Y-87677746D01*
X156410279Y-87685804D01*
X156431903Y-87696032D01*
X156452420Y-87708329D01*
X156471633Y-87722579D01*
X156489357Y-87738643D01*
X156505421Y-87756367D01*
X156519671Y-87775580D01*
X156531968Y-87796097D01*
X156542196Y-87817721D01*
X156550254Y-87840243D01*
X156556066Y-87863447D01*
X156559576Y-87887108D01*
X156560750Y-87911000D01*
X156560750Y-88398500D01*
X156559576Y-88422392D01*
X156556066Y-88446053D01*
X156550254Y-88469257D01*
X156542196Y-88491779D01*
X156531968Y-88513403D01*
X156519671Y-88533920D01*
X156505421Y-88553133D01*
X156489357Y-88570857D01*
X156471633Y-88586921D01*
X156452420Y-88601171D01*
X156431903Y-88613468D01*
X156410279Y-88623696D01*
X156387757Y-88631754D01*
X156364553Y-88637566D01*
X156340892Y-88641076D01*
X156317000Y-88642250D01*
X155404500Y-88642250D01*
X155380608Y-88641076D01*
X155356947Y-88637566D01*
X155333743Y-88631754D01*
X155311221Y-88623696D01*
X155289597Y-88613468D01*
X155269080Y-88601171D01*
X155249867Y-88586921D01*
X155232143Y-88570857D01*
X155216079Y-88553133D01*
X155201829Y-88533920D01*
X155189532Y-88513403D01*
X155179304Y-88491779D01*
X155171246Y-88469257D01*
X155165434Y-88446053D01*
X155161924Y-88422392D01*
X155160750Y-88398500D01*
X155160750Y-87911000D01*
X155161924Y-87887108D01*
X155165434Y-87863447D01*
X155171246Y-87840243D01*
X155179304Y-87817721D01*
X155189532Y-87796097D01*
X155201829Y-87775580D01*
X155216079Y-87756367D01*
X155232143Y-87738643D01*
X155249867Y-87722579D01*
X155269080Y-87708329D01*
X155289597Y-87696032D01*
X155311221Y-87685804D01*
X155333743Y-87677746D01*
X155356947Y-87671934D01*
X155380608Y-87668424D01*
X155404500Y-87667250D01*
X156317000Y-87667250D01*
X156340892Y-87668424D01*
X156340892Y-87668424D01*
G37*
D22*
X155860750Y-88154750D03*
D21*
G36*
X156340892Y-85793424D02*
G01*
X156364553Y-85796934D01*
X156387757Y-85802746D01*
X156410279Y-85810804D01*
X156431903Y-85821032D01*
X156452420Y-85833329D01*
X156471633Y-85847579D01*
X156489357Y-85863643D01*
X156505421Y-85881367D01*
X156519671Y-85900580D01*
X156531968Y-85921097D01*
X156542196Y-85942721D01*
X156550254Y-85965243D01*
X156556066Y-85988447D01*
X156559576Y-86012108D01*
X156560750Y-86036000D01*
X156560750Y-86523500D01*
X156559576Y-86547392D01*
X156556066Y-86571053D01*
X156550254Y-86594257D01*
X156542196Y-86616779D01*
X156531968Y-86638403D01*
X156519671Y-86658920D01*
X156505421Y-86678133D01*
X156489357Y-86695857D01*
X156471633Y-86711921D01*
X156452420Y-86726171D01*
X156431903Y-86738468D01*
X156410279Y-86748696D01*
X156387757Y-86756754D01*
X156364553Y-86762566D01*
X156340892Y-86766076D01*
X156317000Y-86767250D01*
X155404500Y-86767250D01*
X155380608Y-86766076D01*
X155356947Y-86762566D01*
X155333743Y-86756754D01*
X155311221Y-86748696D01*
X155289597Y-86738468D01*
X155269080Y-86726171D01*
X155249867Y-86711921D01*
X155232143Y-86695857D01*
X155216079Y-86678133D01*
X155201829Y-86658920D01*
X155189532Y-86638403D01*
X155179304Y-86616779D01*
X155171246Y-86594257D01*
X155165434Y-86571053D01*
X155161924Y-86547392D01*
X155160750Y-86523500D01*
X155160750Y-86036000D01*
X155161924Y-86012108D01*
X155165434Y-85988447D01*
X155171246Y-85965243D01*
X155179304Y-85942721D01*
X155189532Y-85921097D01*
X155201829Y-85900580D01*
X155216079Y-85881367D01*
X155232143Y-85863643D01*
X155249867Y-85847579D01*
X155269080Y-85833329D01*
X155289597Y-85821032D01*
X155311221Y-85810804D01*
X155333743Y-85802746D01*
X155356947Y-85796934D01*
X155380608Y-85793424D01*
X155404500Y-85792250D01*
X156317000Y-85792250D01*
X156340892Y-85793424D01*
X156340892Y-85793424D01*
G37*
D22*
X155860750Y-86279750D03*
D21*
G36*
X165008642Y-85793424D02*
G01*
X165032303Y-85796934D01*
X165055507Y-85802746D01*
X165078029Y-85810804D01*
X165099653Y-85821032D01*
X165120170Y-85833329D01*
X165139383Y-85847579D01*
X165157107Y-85863643D01*
X165173171Y-85881367D01*
X165187421Y-85900580D01*
X165199718Y-85921097D01*
X165209946Y-85942721D01*
X165218004Y-85965243D01*
X165223816Y-85988447D01*
X165227326Y-86012108D01*
X165228500Y-86036000D01*
X165228500Y-86523500D01*
X165227326Y-86547392D01*
X165223816Y-86571053D01*
X165218004Y-86594257D01*
X165209946Y-86616779D01*
X165199718Y-86638403D01*
X165187421Y-86658920D01*
X165173171Y-86678133D01*
X165157107Y-86695857D01*
X165139383Y-86711921D01*
X165120170Y-86726171D01*
X165099653Y-86738468D01*
X165078029Y-86748696D01*
X165055507Y-86756754D01*
X165032303Y-86762566D01*
X165008642Y-86766076D01*
X164984750Y-86767250D01*
X164072250Y-86767250D01*
X164048358Y-86766076D01*
X164024697Y-86762566D01*
X164001493Y-86756754D01*
X163978971Y-86748696D01*
X163957347Y-86738468D01*
X163936830Y-86726171D01*
X163917617Y-86711921D01*
X163899893Y-86695857D01*
X163883829Y-86678133D01*
X163869579Y-86658920D01*
X163857282Y-86638403D01*
X163847054Y-86616779D01*
X163838996Y-86594257D01*
X163833184Y-86571053D01*
X163829674Y-86547392D01*
X163828500Y-86523500D01*
X163828500Y-86036000D01*
X163829674Y-86012108D01*
X163833184Y-85988447D01*
X163838996Y-85965243D01*
X163847054Y-85942721D01*
X163857282Y-85921097D01*
X163869579Y-85900580D01*
X163883829Y-85881367D01*
X163899893Y-85863643D01*
X163917617Y-85847579D01*
X163936830Y-85833329D01*
X163957347Y-85821032D01*
X163978971Y-85810804D01*
X164001493Y-85802746D01*
X164024697Y-85796934D01*
X164048358Y-85793424D01*
X164072250Y-85792250D01*
X164984750Y-85792250D01*
X165008642Y-85793424D01*
X165008642Y-85793424D01*
G37*
D22*
X164528500Y-86279750D03*
D21*
G36*
X165008642Y-87668424D02*
G01*
X165032303Y-87671934D01*
X165055507Y-87677746D01*
X165078029Y-87685804D01*
X165099653Y-87696032D01*
X165120170Y-87708329D01*
X165139383Y-87722579D01*
X165157107Y-87738643D01*
X165173171Y-87756367D01*
X165187421Y-87775580D01*
X165199718Y-87796097D01*
X165209946Y-87817721D01*
X165218004Y-87840243D01*
X165223816Y-87863447D01*
X165227326Y-87887108D01*
X165228500Y-87911000D01*
X165228500Y-88398500D01*
X165227326Y-88422392D01*
X165223816Y-88446053D01*
X165218004Y-88469257D01*
X165209946Y-88491779D01*
X165199718Y-88513403D01*
X165187421Y-88533920D01*
X165173171Y-88553133D01*
X165157107Y-88570857D01*
X165139383Y-88586921D01*
X165120170Y-88601171D01*
X165099653Y-88613468D01*
X165078029Y-88623696D01*
X165055507Y-88631754D01*
X165032303Y-88637566D01*
X165008642Y-88641076D01*
X164984750Y-88642250D01*
X164072250Y-88642250D01*
X164048358Y-88641076D01*
X164024697Y-88637566D01*
X164001493Y-88631754D01*
X163978971Y-88623696D01*
X163957347Y-88613468D01*
X163936830Y-88601171D01*
X163917617Y-88586921D01*
X163899893Y-88570857D01*
X163883829Y-88553133D01*
X163869579Y-88533920D01*
X163857282Y-88513403D01*
X163847054Y-88491779D01*
X163838996Y-88469257D01*
X163833184Y-88446053D01*
X163829674Y-88422392D01*
X163828500Y-88398500D01*
X163828500Y-87911000D01*
X163829674Y-87887108D01*
X163833184Y-87863447D01*
X163838996Y-87840243D01*
X163847054Y-87817721D01*
X163857282Y-87796097D01*
X163869579Y-87775580D01*
X163883829Y-87756367D01*
X163899893Y-87738643D01*
X163917617Y-87722579D01*
X163936830Y-87708329D01*
X163957347Y-87696032D01*
X163978971Y-87685804D01*
X164001493Y-87677746D01*
X164024697Y-87671934D01*
X164048358Y-87668424D01*
X164072250Y-87667250D01*
X164984750Y-87667250D01*
X165008642Y-87668424D01*
X165008642Y-87668424D01*
G37*
D22*
X164528500Y-88154750D03*
D21*
G36*
X149705142Y-105734174D02*
G01*
X149728803Y-105737684D01*
X149752007Y-105743496D01*
X149774529Y-105751554D01*
X149796153Y-105761782D01*
X149816670Y-105774079D01*
X149835883Y-105788329D01*
X149853607Y-105804393D01*
X149869671Y-105822117D01*
X149883921Y-105841330D01*
X149896218Y-105861847D01*
X149906446Y-105883471D01*
X149914504Y-105905993D01*
X149920316Y-105929197D01*
X149923826Y-105952858D01*
X149925000Y-105976750D01*
X149925000Y-106464250D01*
X149923826Y-106488142D01*
X149920316Y-106511803D01*
X149914504Y-106535007D01*
X149906446Y-106557529D01*
X149896218Y-106579153D01*
X149883921Y-106599670D01*
X149869671Y-106618883D01*
X149853607Y-106636607D01*
X149835883Y-106652671D01*
X149816670Y-106666921D01*
X149796153Y-106679218D01*
X149774529Y-106689446D01*
X149752007Y-106697504D01*
X149728803Y-106703316D01*
X149705142Y-106706826D01*
X149681250Y-106708000D01*
X148768750Y-106708000D01*
X148744858Y-106706826D01*
X148721197Y-106703316D01*
X148697993Y-106697504D01*
X148675471Y-106689446D01*
X148653847Y-106679218D01*
X148633330Y-106666921D01*
X148614117Y-106652671D01*
X148596393Y-106636607D01*
X148580329Y-106618883D01*
X148566079Y-106599670D01*
X148553782Y-106579153D01*
X148543554Y-106557529D01*
X148535496Y-106535007D01*
X148529684Y-106511803D01*
X148526174Y-106488142D01*
X148525000Y-106464250D01*
X148525000Y-105976750D01*
X148526174Y-105952858D01*
X148529684Y-105929197D01*
X148535496Y-105905993D01*
X148543554Y-105883471D01*
X148553782Y-105861847D01*
X148566079Y-105841330D01*
X148580329Y-105822117D01*
X148596393Y-105804393D01*
X148614117Y-105788329D01*
X148633330Y-105774079D01*
X148653847Y-105761782D01*
X148675471Y-105751554D01*
X148697993Y-105743496D01*
X148721197Y-105737684D01*
X148744858Y-105734174D01*
X148768750Y-105733000D01*
X149681250Y-105733000D01*
X149705142Y-105734174D01*
X149705142Y-105734174D01*
G37*
D22*
X149225000Y-106220500D03*
D21*
G36*
X149705142Y-103859174D02*
G01*
X149728803Y-103862684D01*
X149752007Y-103868496D01*
X149774529Y-103876554D01*
X149796153Y-103886782D01*
X149816670Y-103899079D01*
X149835883Y-103913329D01*
X149853607Y-103929393D01*
X149869671Y-103947117D01*
X149883921Y-103966330D01*
X149896218Y-103986847D01*
X149906446Y-104008471D01*
X149914504Y-104030993D01*
X149920316Y-104054197D01*
X149923826Y-104077858D01*
X149925000Y-104101750D01*
X149925000Y-104589250D01*
X149923826Y-104613142D01*
X149920316Y-104636803D01*
X149914504Y-104660007D01*
X149906446Y-104682529D01*
X149896218Y-104704153D01*
X149883921Y-104724670D01*
X149869671Y-104743883D01*
X149853607Y-104761607D01*
X149835883Y-104777671D01*
X149816670Y-104791921D01*
X149796153Y-104804218D01*
X149774529Y-104814446D01*
X149752007Y-104822504D01*
X149728803Y-104828316D01*
X149705142Y-104831826D01*
X149681250Y-104833000D01*
X148768750Y-104833000D01*
X148744858Y-104831826D01*
X148721197Y-104828316D01*
X148697993Y-104822504D01*
X148675471Y-104814446D01*
X148653847Y-104804218D01*
X148633330Y-104791921D01*
X148614117Y-104777671D01*
X148596393Y-104761607D01*
X148580329Y-104743883D01*
X148566079Y-104724670D01*
X148553782Y-104704153D01*
X148543554Y-104682529D01*
X148535496Y-104660007D01*
X148529684Y-104636803D01*
X148526174Y-104613142D01*
X148525000Y-104589250D01*
X148525000Y-104101750D01*
X148526174Y-104077858D01*
X148529684Y-104054197D01*
X148535496Y-104030993D01*
X148543554Y-104008471D01*
X148553782Y-103986847D01*
X148566079Y-103966330D01*
X148580329Y-103947117D01*
X148596393Y-103929393D01*
X148614117Y-103913329D01*
X148633330Y-103899079D01*
X148653847Y-103886782D01*
X148675471Y-103876554D01*
X148697993Y-103868496D01*
X148721197Y-103862684D01*
X148744858Y-103859174D01*
X148768750Y-103858000D01*
X149681250Y-103858000D01*
X149705142Y-103859174D01*
X149705142Y-103859174D01*
G37*
D22*
X149225000Y-104345500D03*
D21*
G36*
X162398142Y-109632424D02*
G01*
X162421803Y-109635934D01*
X162445007Y-109641746D01*
X162467529Y-109649804D01*
X162489153Y-109660032D01*
X162509670Y-109672329D01*
X162528883Y-109686579D01*
X162546607Y-109702643D01*
X162562671Y-109720367D01*
X162576921Y-109739580D01*
X162589218Y-109760097D01*
X162599446Y-109781721D01*
X162607504Y-109804243D01*
X162613316Y-109827447D01*
X162616826Y-109851108D01*
X162618000Y-109875000D01*
X162618000Y-110787500D01*
X162616826Y-110811392D01*
X162613316Y-110835053D01*
X162607504Y-110858257D01*
X162599446Y-110880779D01*
X162589218Y-110902403D01*
X162576921Y-110922920D01*
X162562671Y-110942133D01*
X162546607Y-110959857D01*
X162528883Y-110975921D01*
X162509670Y-110990171D01*
X162489153Y-111002468D01*
X162467529Y-111012696D01*
X162445007Y-111020754D01*
X162421803Y-111026566D01*
X162398142Y-111030076D01*
X162374250Y-111031250D01*
X161886750Y-111031250D01*
X161862858Y-111030076D01*
X161839197Y-111026566D01*
X161815993Y-111020754D01*
X161793471Y-111012696D01*
X161771847Y-111002468D01*
X161751330Y-110990171D01*
X161732117Y-110975921D01*
X161714393Y-110959857D01*
X161698329Y-110942133D01*
X161684079Y-110922920D01*
X161671782Y-110902403D01*
X161661554Y-110880779D01*
X161653496Y-110858257D01*
X161647684Y-110835053D01*
X161644174Y-110811392D01*
X161643000Y-110787500D01*
X161643000Y-109875000D01*
X161644174Y-109851108D01*
X161647684Y-109827447D01*
X161653496Y-109804243D01*
X161661554Y-109781721D01*
X161671782Y-109760097D01*
X161684079Y-109739580D01*
X161698329Y-109720367D01*
X161714393Y-109702643D01*
X161732117Y-109686579D01*
X161751330Y-109672329D01*
X161771847Y-109660032D01*
X161793471Y-109649804D01*
X161815993Y-109641746D01*
X161839197Y-109635934D01*
X161862858Y-109632424D01*
X161886750Y-109631250D01*
X162374250Y-109631250D01*
X162398142Y-109632424D01*
X162398142Y-109632424D01*
G37*
D22*
X162130500Y-110331250D03*
D21*
G36*
X164273142Y-109632424D02*
G01*
X164296803Y-109635934D01*
X164320007Y-109641746D01*
X164342529Y-109649804D01*
X164364153Y-109660032D01*
X164384670Y-109672329D01*
X164403883Y-109686579D01*
X164421607Y-109702643D01*
X164437671Y-109720367D01*
X164451921Y-109739580D01*
X164464218Y-109760097D01*
X164474446Y-109781721D01*
X164482504Y-109804243D01*
X164488316Y-109827447D01*
X164491826Y-109851108D01*
X164493000Y-109875000D01*
X164493000Y-110787500D01*
X164491826Y-110811392D01*
X164488316Y-110835053D01*
X164482504Y-110858257D01*
X164474446Y-110880779D01*
X164464218Y-110902403D01*
X164451921Y-110922920D01*
X164437671Y-110942133D01*
X164421607Y-110959857D01*
X164403883Y-110975921D01*
X164384670Y-110990171D01*
X164364153Y-111002468D01*
X164342529Y-111012696D01*
X164320007Y-111020754D01*
X164296803Y-111026566D01*
X164273142Y-111030076D01*
X164249250Y-111031250D01*
X163761750Y-111031250D01*
X163737858Y-111030076D01*
X163714197Y-111026566D01*
X163690993Y-111020754D01*
X163668471Y-111012696D01*
X163646847Y-111002468D01*
X163626330Y-110990171D01*
X163607117Y-110975921D01*
X163589393Y-110959857D01*
X163573329Y-110942133D01*
X163559079Y-110922920D01*
X163546782Y-110902403D01*
X163536554Y-110880779D01*
X163528496Y-110858257D01*
X163522684Y-110835053D01*
X163519174Y-110811392D01*
X163518000Y-110787500D01*
X163518000Y-109875000D01*
X163519174Y-109851108D01*
X163522684Y-109827447D01*
X163528496Y-109804243D01*
X163536554Y-109781721D01*
X163546782Y-109760097D01*
X163559079Y-109739580D01*
X163573329Y-109720367D01*
X163589393Y-109702643D01*
X163607117Y-109686579D01*
X163626330Y-109672329D01*
X163646847Y-109660032D01*
X163668471Y-109649804D01*
X163690993Y-109641746D01*
X163714197Y-109635934D01*
X163737858Y-109632424D01*
X163761750Y-109631250D01*
X164249250Y-109631250D01*
X164273142Y-109632424D01*
X164273142Y-109632424D01*
G37*
D22*
X164005500Y-110331250D03*
D21*
G36*
X169485392Y-94683424D02*
G01*
X169509053Y-94686934D01*
X169532257Y-94692746D01*
X169554779Y-94700804D01*
X169576403Y-94711032D01*
X169596920Y-94723329D01*
X169616133Y-94737579D01*
X169633857Y-94753643D01*
X169649921Y-94771367D01*
X169664171Y-94790580D01*
X169676468Y-94811097D01*
X169686696Y-94832721D01*
X169694754Y-94855243D01*
X169700566Y-94878447D01*
X169704076Y-94902108D01*
X169705250Y-94926000D01*
X169705250Y-95413500D01*
X169704076Y-95437392D01*
X169700566Y-95461053D01*
X169694754Y-95484257D01*
X169686696Y-95506779D01*
X169676468Y-95528403D01*
X169664171Y-95548920D01*
X169649921Y-95568133D01*
X169633857Y-95585857D01*
X169616133Y-95601921D01*
X169596920Y-95616171D01*
X169576403Y-95628468D01*
X169554779Y-95638696D01*
X169532257Y-95646754D01*
X169509053Y-95652566D01*
X169485392Y-95656076D01*
X169461500Y-95657250D01*
X168549000Y-95657250D01*
X168525108Y-95656076D01*
X168501447Y-95652566D01*
X168478243Y-95646754D01*
X168455721Y-95638696D01*
X168434097Y-95628468D01*
X168413580Y-95616171D01*
X168394367Y-95601921D01*
X168376643Y-95585857D01*
X168360579Y-95568133D01*
X168346329Y-95548920D01*
X168334032Y-95528403D01*
X168323804Y-95506779D01*
X168315746Y-95484257D01*
X168309934Y-95461053D01*
X168306424Y-95437392D01*
X168305250Y-95413500D01*
X168305250Y-94926000D01*
X168306424Y-94902108D01*
X168309934Y-94878447D01*
X168315746Y-94855243D01*
X168323804Y-94832721D01*
X168334032Y-94811097D01*
X168346329Y-94790580D01*
X168360579Y-94771367D01*
X168376643Y-94753643D01*
X168394367Y-94737579D01*
X168413580Y-94723329D01*
X168434097Y-94711032D01*
X168455721Y-94700804D01*
X168478243Y-94692746D01*
X168501447Y-94686934D01*
X168525108Y-94683424D01*
X168549000Y-94682250D01*
X169461500Y-94682250D01*
X169485392Y-94683424D01*
X169485392Y-94683424D01*
G37*
D22*
X169005250Y-95169750D03*
D21*
G36*
X169485392Y-96558424D02*
G01*
X169509053Y-96561934D01*
X169532257Y-96567746D01*
X169554779Y-96575804D01*
X169576403Y-96586032D01*
X169596920Y-96598329D01*
X169616133Y-96612579D01*
X169633857Y-96628643D01*
X169649921Y-96646367D01*
X169664171Y-96665580D01*
X169676468Y-96686097D01*
X169686696Y-96707721D01*
X169694754Y-96730243D01*
X169700566Y-96753447D01*
X169704076Y-96777108D01*
X169705250Y-96801000D01*
X169705250Y-97288500D01*
X169704076Y-97312392D01*
X169700566Y-97336053D01*
X169694754Y-97359257D01*
X169686696Y-97381779D01*
X169676468Y-97403403D01*
X169664171Y-97423920D01*
X169649921Y-97443133D01*
X169633857Y-97460857D01*
X169616133Y-97476921D01*
X169596920Y-97491171D01*
X169576403Y-97503468D01*
X169554779Y-97513696D01*
X169532257Y-97521754D01*
X169509053Y-97527566D01*
X169485392Y-97531076D01*
X169461500Y-97532250D01*
X168549000Y-97532250D01*
X168525108Y-97531076D01*
X168501447Y-97527566D01*
X168478243Y-97521754D01*
X168455721Y-97513696D01*
X168434097Y-97503468D01*
X168413580Y-97491171D01*
X168394367Y-97476921D01*
X168376643Y-97460857D01*
X168360579Y-97443133D01*
X168346329Y-97423920D01*
X168334032Y-97403403D01*
X168323804Y-97381779D01*
X168315746Y-97359257D01*
X168309934Y-97336053D01*
X168306424Y-97312392D01*
X168305250Y-97288500D01*
X168305250Y-96801000D01*
X168306424Y-96777108D01*
X168309934Y-96753447D01*
X168315746Y-96730243D01*
X168323804Y-96707721D01*
X168334032Y-96686097D01*
X168346329Y-96665580D01*
X168360579Y-96646367D01*
X168376643Y-96628643D01*
X168394367Y-96612579D01*
X168413580Y-96598329D01*
X168434097Y-96586032D01*
X168455721Y-96575804D01*
X168478243Y-96567746D01*
X168501447Y-96561934D01*
X168525108Y-96558424D01*
X168549000Y-96557250D01*
X169461500Y-96557250D01*
X169485392Y-96558424D01*
X169485392Y-96558424D01*
G37*
D22*
X169005250Y-97044750D03*
D21*
G36*
X151864142Y-90778174D02*
G01*
X151887803Y-90781684D01*
X151911007Y-90787496D01*
X151933529Y-90795554D01*
X151955153Y-90805782D01*
X151975670Y-90818079D01*
X151994883Y-90832329D01*
X152012607Y-90848393D01*
X152028671Y-90866117D01*
X152042921Y-90885330D01*
X152055218Y-90905847D01*
X152065446Y-90927471D01*
X152073504Y-90949993D01*
X152079316Y-90973197D01*
X152082826Y-90996858D01*
X152084000Y-91020750D01*
X152084000Y-91508250D01*
X152082826Y-91532142D01*
X152079316Y-91555803D01*
X152073504Y-91579007D01*
X152065446Y-91601529D01*
X152055218Y-91623153D01*
X152042921Y-91643670D01*
X152028671Y-91662883D01*
X152012607Y-91680607D01*
X151994883Y-91696671D01*
X151975670Y-91710921D01*
X151955153Y-91723218D01*
X151933529Y-91733446D01*
X151911007Y-91741504D01*
X151887803Y-91747316D01*
X151864142Y-91750826D01*
X151840250Y-91752000D01*
X150927750Y-91752000D01*
X150903858Y-91750826D01*
X150880197Y-91747316D01*
X150856993Y-91741504D01*
X150834471Y-91733446D01*
X150812847Y-91723218D01*
X150792330Y-91710921D01*
X150773117Y-91696671D01*
X150755393Y-91680607D01*
X150739329Y-91662883D01*
X150725079Y-91643670D01*
X150712782Y-91623153D01*
X150702554Y-91601529D01*
X150694496Y-91579007D01*
X150688684Y-91555803D01*
X150685174Y-91532142D01*
X150684000Y-91508250D01*
X150684000Y-91020750D01*
X150685174Y-90996858D01*
X150688684Y-90973197D01*
X150694496Y-90949993D01*
X150702554Y-90927471D01*
X150712782Y-90905847D01*
X150725079Y-90885330D01*
X150739329Y-90866117D01*
X150755393Y-90848393D01*
X150773117Y-90832329D01*
X150792330Y-90818079D01*
X150812847Y-90805782D01*
X150834471Y-90795554D01*
X150856993Y-90787496D01*
X150880197Y-90781684D01*
X150903858Y-90778174D01*
X150927750Y-90777000D01*
X151840250Y-90777000D01*
X151864142Y-90778174D01*
X151864142Y-90778174D01*
G37*
D22*
X151384000Y-91264500D03*
D21*
G36*
X151864142Y-92653174D02*
G01*
X151887803Y-92656684D01*
X151911007Y-92662496D01*
X151933529Y-92670554D01*
X151955153Y-92680782D01*
X151975670Y-92693079D01*
X151994883Y-92707329D01*
X152012607Y-92723393D01*
X152028671Y-92741117D01*
X152042921Y-92760330D01*
X152055218Y-92780847D01*
X152065446Y-92802471D01*
X152073504Y-92824993D01*
X152079316Y-92848197D01*
X152082826Y-92871858D01*
X152084000Y-92895750D01*
X152084000Y-93383250D01*
X152082826Y-93407142D01*
X152079316Y-93430803D01*
X152073504Y-93454007D01*
X152065446Y-93476529D01*
X152055218Y-93498153D01*
X152042921Y-93518670D01*
X152028671Y-93537883D01*
X152012607Y-93555607D01*
X151994883Y-93571671D01*
X151975670Y-93585921D01*
X151955153Y-93598218D01*
X151933529Y-93608446D01*
X151911007Y-93616504D01*
X151887803Y-93622316D01*
X151864142Y-93625826D01*
X151840250Y-93627000D01*
X150927750Y-93627000D01*
X150903858Y-93625826D01*
X150880197Y-93622316D01*
X150856993Y-93616504D01*
X150834471Y-93608446D01*
X150812847Y-93598218D01*
X150792330Y-93585921D01*
X150773117Y-93571671D01*
X150755393Y-93555607D01*
X150739329Y-93537883D01*
X150725079Y-93518670D01*
X150712782Y-93498153D01*
X150702554Y-93476529D01*
X150694496Y-93454007D01*
X150688684Y-93430803D01*
X150685174Y-93407142D01*
X150684000Y-93383250D01*
X150684000Y-92895750D01*
X150685174Y-92871858D01*
X150688684Y-92848197D01*
X150694496Y-92824993D01*
X150702554Y-92802471D01*
X150712782Y-92780847D01*
X150725079Y-92760330D01*
X150739329Y-92741117D01*
X150755393Y-92723393D01*
X150773117Y-92707329D01*
X150792330Y-92693079D01*
X150812847Y-92680782D01*
X150834471Y-92670554D01*
X150856993Y-92662496D01*
X150880197Y-92656684D01*
X150903858Y-92653174D01*
X150927750Y-92652000D01*
X151840250Y-92652000D01*
X151864142Y-92653174D01*
X151864142Y-92653174D01*
G37*
D22*
X151384000Y-93139500D03*
D30*
X150495000Y-99060000D03*
X146050000Y-98679000D03*
X168529000Y-78359000D03*
X173482000Y-83312000D03*
X165893750Y-110331250D03*
X151352250Y-95662750D03*
X155480250Y-110330750D03*
X151352250Y-104235250D03*
X169068750Y-98393250D03*
X169068750Y-88677750D03*
X150495000Y-98171000D03*
X147443990Y-97917000D03*
X147443990Y-97917000D03*
X181991000Y-87503000D03*
X188087000Y-87503000D03*
X160909000Y-73025000D03*
X156845000Y-73025000D03*
X149225000Y-74041000D03*
X175001250Y-94238750D03*
X175006000Y-80264000D03*
X194051250Y-94238750D03*
X194056000Y-80264000D03*
X194056000Y-109093000D03*
X194056000Y-100330000D03*
X160528000Y-72263000D03*
X163449000Y-72263000D03*
X157694097Y-72194548D03*
X154432000Y-72263000D03*
X153987500Y-93662500D03*
X150812500Y-88900000D03*
X213101250Y-94238750D03*
X213128000Y-73257000D03*
X213106000Y-108458000D03*
X213106000Y-100457000D03*
X167481250Y-93662500D03*
X167481250Y-98425000D03*
D31*
X162440750Y-70941000D02*
X163355750Y-70026000D01*
X162260750Y-70941000D02*
X162440750Y-70941000D01*
X155630750Y-70941000D02*
X154715750Y-70026000D01*
X155810750Y-70941000D02*
X155630750Y-70941000D01*
X154715750Y-70026000D02*
X154715750Y-65846000D01*
X163355750Y-67027000D02*
X163355750Y-70026000D01*
X163355750Y-65846000D02*
X163355750Y-67027000D01*
X163355750Y-65846000D02*
X154715750Y-65846000D01*
X162260750Y-70941000D02*
X162260750Y-72752750D01*
X160865250Y-74148250D02*
X159972250Y-74148250D01*
X162260750Y-72752750D02*
X160865250Y-74148250D01*
X160880598Y-86272000D02*
X161183500Y-86272000D01*
X159180598Y-87972000D02*
X160880598Y-86272000D01*
X158983500Y-87972000D02*
X159180598Y-87972000D01*
X158975750Y-87964250D02*
X158983500Y-87972000D01*
X164520750Y-86272000D02*
X164528500Y-86279750D01*
X161183500Y-86272000D02*
X164520750Y-86272000D01*
X161183500Y-85291000D02*
X161183500Y-86272000D01*
X155860750Y-88154750D02*
X154766250Y-88154750D01*
X154463750Y-87852250D02*
X154463750Y-85312250D01*
X154766250Y-88154750D02*
X154463750Y-87852250D01*
X154463750Y-85312250D02*
X154844750Y-84931250D01*
X154844750Y-84931250D02*
X160823750Y-84931250D01*
X160823750Y-84931250D02*
X161183500Y-85291000D01*
X155860750Y-89947750D02*
X155860750Y-88154750D01*
X157880250Y-91967250D02*
X155860750Y-89947750D01*
X163192500Y-77518500D02*
X163449000Y-77518500D01*
X159972250Y-74148250D02*
X159972250Y-74298250D01*
X160703250Y-74148250D02*
X159972250Y-74148250D01*
X161544000Y-74989000D02*
X160703250Y-74148250D01*
X161544000Y-76581000D02*
X161544000Y-74989000D01*
X163449000Y-77518500D02*
X162481500Y-77518500D01*
X162481500Y-77518500D02*
X161544000Y-76581000D01*
X154715750Y-70576000D02*
X154715750Y-70026000D01*
X153035000Y-72256750D02*
X154715750Y-70576000D01*
X153035000Y-77216000D02*
X153035000Y-72256750D01*
X154432000Y-77518500D02*
X153337500Y-77518500D01*
X153337500Y-77518500D02*
X153035000Y-77216000D01*
X163355750Y-69476000D02*
X163355750Y-70026000D01*
X165288000Y-67543750D02*
X163355750Y-69476000D01*
X168012500Y-67543750D02*
X165288000Y-67543750D01*
X157880250Y-94038750D02*
X157880250Y-95169750D01*
X156258500Y-106591500D02*
X156280250Y-106569750D01*
X157880250Y-96300750D02*
X157880250Y-95169750D01*
X158449250Y-96869750D02*
X157880250Y-96300750D01*
X165180250Y-96869750D02*
X158449250Y-96869750D01*
X154977150Y-101669750D02*
X154911250Y-101669750D01*
X157880250Y-98766650D02*
X154977150Y-101669750D01*
X157880250Y-95169750D02*
X157880250Y-98766650D01*
X156280250Y-105438750D02*
X156280250Y-106569750D01*
X156280250Y-103038750D02*
X156280250Y-105438750D01*
X154911250Y-101669750D02*
X156280250Y-103038750D01*
X153780250Y-101669750D02*
X154911250Y-101669750D01*
X160280250Y-103038750D02*
X156280250Y-103038750D01*
X162680250Y-105438750D02*
X160280250Y-103038750D01*
X162680250Y-106569750D02*
X162680250Y-105438750D01*
X167305250Y-96869750D02*
X169005250Y-95169750D01*
X165180250Y-96869750D02*
X167305250Y-96869750D01*
X152852348Y-101669750D02*
X151462500Y-100279902D01*
X153780250Y-101669750D02*
X152852348Y-101669750D01*
X146050000Y-98679000D02*
X146050000Y-96981250D01*
X151462500Y-100279902D02*
X151460902Y-100279902D01*
X151460902Y-100279902D02*
X150495000Y-99314000D01*
X150495000Y-99314000D02*
X150495000Y-99060000D01*
X157880250Y-95169750D02*
X157880250Y-93999250D01*
X157880250Y-93999250D02*
X157880250Y-91967250D01*
X151384000Y-91264500D02*
X152351500Y-91264500D01*
X152351500Y-91264500D02*
X152781000Y-91694000D01*
X155575000Y-91694000D02*
X157880250Y-93999250D01*
X152781000Y-91694000D02*
X155575000Y-91694000D01*
X162130500Y-111131250D02*
X162759250Y-111760000D01*
X162130500Y-110331250D02*
X162130500Y-111131250D01*
X162759250Y-111760000D02*
X167640000Y-111760000D01*
X169068750Y-110331250D02*
X167640000Y-111760000D01*
X169068750Y-108887500D02*
X169068750Y-110331250D01*
X162130500Y-110331250D02*
X162130500Y-109522500D01*
X162680250Y-108972750D02*
X162680250Y-106569750D01*
X162130500Y-109522500D02*
X162680250Y-108972750D01*
X149270999Y-106281499D02*
X149225000Y-106235500D01*
X149295250Y-106165250D02*
X149225000Y-106235500D01*
X156280250Y-110560250D02*
X156280250Y-106569750D01*
X149225000Y-106220500D02*
X149225000Y-108204000D01*
X149225000Y-108204000D02*
X152042251Y-111021251D01*
X155811691Y-111021251D02*
X152042251Y-111021251D01*
X156272692Y-110560250D02*
X155811691Y-111021251D01*
X156280250Y-110560250D02*
X156272692Y-110560250D01*
X149225000Y-106220500D02*
X148384500Y-106220500D01*
X146050000Y-103886000D02*
X146050000Y-98679000D01*
X148384500Y-106220500D02*
X146050000Y-103886000D01*
X144733250Y-96981250D02*
X146050000Y-96981250D01*
X151335000Y-70026000D02*
X147320000Y-74041000D01*
X154715750Y-70026000D02*
X151335000Y-70026000D01*
X147320000Y-74041000D02*
X147320000Y-82677000D01*
X147320000Y-82677000D02*
X144399000Y-85598000D01*
X144399000Y-85598000D02*
X144399000Y-96647000D01*
X144399000Y-96647000D02*
X144733250Y-96981250D01*
X168529000Y-78359000D02*
X165735000Y-75565000D01*
X163355750Y-70576000D02*
X163355750Y-70026000D01*
X169005250Y-95169750D02*
X167178750Y-95169750D01*
X167178750Y-95169750D02*
X165481000Y-93472000D01*
X165481000Y-93472000D02*
X165481000Y-93091000D01*
X165735000Y-75565000D02*
X165735000Y-72955250D01*
X165735000Y-72955250D02*
X163355750Y-70576000D01*
X176281250Y-86111250D02*
X176281250Y-86538000D01*
X173482000Y-83312000D02*
X176281250Y-86111250D01*
X185750000Y-89706250D02*
X202337500Y-89706250D01*
X176281250Y-86538000D02*
X182581750Y-86538000D01*
X182581750Y-86538000D02*
X185750000Y-89706250D01*
X202587500Y-89706250D02*
X202337500Y-89706250D01*
X220178000Y-87757000D02*
X220178000Y-86342787D01*
X220178000Y-86342787D02*
X219052213Y-85217000D01*
X219052213Y-85217000D02*
X215900000Y-85217000D01*
X215900000Y-85217000D02*
X209677000Y-91440000D01*
X209677000Y-91440000D02*
X204321250Y-91440000D01*
X204321250Y-91440000D02*
X202587500Y-89706250D01*
X169005250Y-97044750D02*
X168205250Y-97044750D01*
X168941750Y-97108250D02*
X169005250Y-97044750D01*
X167580250Y-97669750D02*
X168205250Y-97044750D01*
X165180250Y-97669750D02*
X167580250Y-97669750D01*
X165893750Y-110331250D02*
X164005500Y-110331250D01*
X151352250Y-93171250D02*
X151384000Y-93139500D01*
X151352250Y-95662750D02*
X151352250Y-93171250D01*
X157080250Y-94241848D02*
X157080250Y-95169750D01*
X155421402Y-92583000D02*
X157080250Y-94241848D01*
X152781000Y-92583000D02*
X155421402Y-92583000D01*
X151384000Y-93139500D02*
X152224500Y-93139500D01*
X152224500Y-93139500D02*
X152781000Y-92583000D01*
X155480250Y-107917750D02*
X155480250Y-106569750D01*
X155480250Y-107917750D02*
X155480250Y-110330750D01*
X163480250Y-109006000D02*
X163480250Y-106569750D01*
X164005500Y-110331250D02*
X164005500Y-109531250D01*
X164005500Y-109531250D02*
X163480250Y-109006000D01*
X149225000Y-103378000D02*
X149225000Y-104345500D01*
X148134490Y-102287490D02*
X149225000Y-103378000D01*
X148134490Y-85228010D02*
X148134490Y-102287490D01*
X149225000Y-79981250D02*
X149225000Y-84137500D01*
X149225000Y-84137500D02*
X148134490Y-85228010D01*
X151242000Y-104345500D02*
X151352250Y-104235250D01*
X149225000Y-104345500D02*
X151242000Y-104345500D01*
X151517750Y-104069750D02*
X153780250Y-104069750D01*
X151352250Y-104235250D02*
X151517750Y-104069750D01*
X169068750Y-97108250D02*
X169005250Y-97044750D01*
X169068750Y-98393250D02*
X169068750Y-97108250D01*
X152019000Y-96329500D02*
X151352250Y-95662750D01*
X152019000Y-99236402D02*
X152019000Y-96329500D01*
X153780250Y-100069750D02*
X152852348Y-100069750D01*
X152852348Y-100069750D02*
X152019000Y-99236402D01*
X172974000Y-74041000D02*
X172974000Y-81026000D01*
X174625000Y-72390000D02*
X172974000Y-74041000D01*
X174625000Y-72375000D02*
X176212500Y-70787500D01*
X174625000Y-72390000D02*
X174625000Y-72375000D01*
X171381250Y-89738000D02*
X170129000Y-89738000D01*
X170129000Y-89738000D02*
X169068750Y-88677750D01*
X169068750Y-84931250D02*
X172974000Y-81026000D01*
X169068750Y-88677750D02*
X169068750Y-84931250D01*
X206448250Y-84836000D02*
X207237500Y-85625250D01*
X200152000Y-84836000D02*
X206448250Y-84836000D01*
X196342000Y-88646000D02*
X200152000Y-84836000D01*
X186182000Y-88646000D02*
X196342000Y-88646000D01*
X185067514Y-87531514D02*
X186182000Y-88646000D01*
X172974000Y-81026000D02*
X173853490Y-81905490D01*
X173853490Y-81905490D02*
X175504490Y-81905490D01*
X175504490Y-81905490D02*
X179101980Y-85502980D01*
X179101980Y-85502980D02*
X183010467Y-85502980D01*
X207237500Y-85625250D02*
X207237500Y-86506250D01*
X183010467Y-85502980D02*
X185039000Y-87531514D01*
X185039000Y-87531514D02*
X185067514Y-87531514D01*
D32*
X164345750Y-87972000D02*
X164528500Y-88154750D01*
X161183500Y-87972000D02*
X164345750Y-87972000D01*
X159480250Y-95169750D02*
X159480250Y-91344750D01*
X161183500Y-89641500D02*
X161183500Y-87972000D01*
X159480250Y-91344750D02*
X161183500Y-89641500D01*
X158975750Y-86279750D02*
X158983500Y-86272000D01*
X155860750Y-86279750D02*
X158975750Y-86279750D01*
X158680250Y-91370250D02*
X158680250Y-95169750D01*
X157353000Y-90043000D02*
X158680250Y-91370250D01*
X157353000Y-87630000D02*
X157353000Y-90043000D01*
X158983500Y-86272000D02*
X158711000Y-86272000D01*
X158711000Y-86272000D02*
X157353000Y-87630000D01*
X152966648Y-100869750D02*
X153780250Y-100869750D01*
X152784216Y-100869750D02*
X152966648Y-100869750D01*
X151130000Y-98171000D02*
X151384000Y-98425000D01*
X150495000Y-98171000D02*
X151130000Y-98171000D01*
X151384000Y-98425000D02*
X151384000Y-99471132D01*
X151384000Y-99471132D02*
X151607868Y-99695000D01*
X151607868Y-99695000D02*
X151609466Y-99695000D01*
X151609466Y-99695000D02*
X152784216Y-100869750D01*
X147443990Y-96500240D02*
X147447000Y-96497230D01*
X147443990Y-97917000D02*
X147443990Y-96500240D01*
X146050000Y-95106250D02*
X146922250Y-95106250D01*
X147443990Y-95627990D02*
X147443990Y-96500240D01*
X146922250Y-95106250D02*
X147443990Y-95627990D01*
X189556250Y-78518750D02*
X189706250Y-78518750D01*
X187928250Y-76890750D02*
X189556250Y-78518750D01*
X187928250Y-75184000D02*
X187928250Y-76890750D01*
X208756250Y-81818750D02*
X208025000Y-81818750D01*
X208025000Y-81818750D02*
X206500000Y-83343750D01*
X206500000Y-83343750D02*
X193675000Y-83343750D01*
X192150000Y-81818750D02*
X193675000Y-83343750D01*
X189706250Y-81818750D02*
X192150000Y-81818750D01*
X223425750Y-77056250D02*
X226218750Y-77056250D01*
X217138250Y-83343750D02*
X223425750Y-77056250D01*
X211012500Y-83343750D02*
X217138250Y-83343750D01*
X208756250Y-81818750D02*
X209487500Y-81818750D01*
X209487500Y-81818750D02*
X211012500Y-83343750D01*
X170478250Y-99269750D02*
X165180250Y-99269750D01*
X172085000Y-97663000D02*
X170478250Y-99269750D01*
X172085000Y-94615000D02*
X172085000Y-97663000D01*
X173609000Y-93091000D02*
X172085000Y-94615000D01*
X181991000Y-87503000D02*
X176403000Y-93091000D01*
X176403000Y-93091000D02*
X173609000Y-93091000D01*
X189706250Y-85883750D02*
X189706250Y-81818750D01*
X188087000Y-87503000D02*
X189706250Y-85883750D01*
X208606250Y-78518750D02*
X208756250Y-78518750D01*
X206978250Y-76890750D02*
X208606250Y-78518750D01*
X206978250Y-75184000D02*
X206978250Y-76890750D01*
X189556250Y-97568750D02*
X189706250Y-97568750D01*
X187928250Y-95940750D02*
X189556250Y-97568750D01*
X187928250Y-94234000D02*
X187928250Y-95940750D01*
X206978250Y-95738000D02*
X206978250Y-94234000D01*
X206978250Y-95940750D02*
X206978250Y-95738000D01*
X208606250Y-97568750D02*
X206978250Y-95940750D01*
X208756250Y-97568750D02*
X208606250Y-97568750D01*
D31*
X157972250Y-73948250D02*
X157972250Y-73453750D01*
X156585750Y-72067250D02*
X156585750Y-70941000D01*
X161485750Y-70941000D02*
X161485750Y-72706078D01*
X161485750Y-72706078D02*
X161481922Y-72706078D01*
X161481922Y-72706078D02*
X161163000Y-73025000D01*
X161163000Y-73025000D02*
X160909000Y-73025000D01*
X157480000Y-73025000D02*
X157511750Y-72993250D01*
X156845000Y-73025000D02*
X157480000Y-73025000D01*
X157972250Y-73453750D02*
X157511750Y-72993250D01*
X157511750Y-72993250D02*
X156585750Y-72067250D01*
X149225000Y-74041000D02*
X149225000Y-77181250D01*
D32*
X175001250Y-96774000D02*
X175001250Y-94238750D01*
X175006000Y-77728750D02*
X175001250Y-77724000D01*
X175006000Y-80264000D02*
X175006000Y-77728750D01*
X173472250Y-96774000D02*
X175001250Y-96774000D01*
X172847000Y-97399250D02*
X173472250Y-96774000D01*
X172847000Y-97917000D02*
X172847000Y-97399250D01*
X170694250Y-100069750D02*
X172847000Y-97917000D01*
X165180250Y-100069750D02*
X170694250Y-100069750D01*
X194051250Y-96774000D02*
X194051250Y-94238750D01*
X194056000Y-80264000D02*
X194056000Y-77728750D01*
X165180250Y-101669750D02*
X170376750Y-101669750D01*
X170376750Y-101669750D02*
X172974000Y-104267000D01*
X172974000Y-104267000D02*
X173101000Y-104394000D01*
X173101000Y-104394000D02*
X173101000Y-107950000D01*
X173101000Y-107950000D02*
X173101000Y-108077000D01*
X173101000Y-108077000D02*
X175133000Y-110109000D01*
X175133000Y-110109000D02*
X185801000Y-110109000D01*
X185801000Y-110109000D02*
X193040000Y-110109000D01*
X193040000Y-110109000D02*
X194056000Y-109093000D01*
X194056000Y-96778750D02*
X194051250Y-96774000D01*
X194056000Y-100330000D02*
X194056000Y-96778750D01*
X166926000Y-104869750D02*
X169068750Y-107012500D01*
X165180250Y-104869750D02*
X166926000Y-104869750D01*
X152776250Y-102469750D02*
X149733000Y-99426500D01*
X153780250Y-102469750D02*
X152776250Y-102469750D01*
X149733000Y-99426500D02*
X149733000Y-85859066D01*
X149733000Y-85859066D02*
X149927033Y-85665033D01*
X149927033Y-85665033D02*
X154175556Y-81416510D01*
X160137490Y-81416510D02*
X158740490Y-81416510D01*
X160559750Y-80994250D02*
X160137490Y-81416510D01*
X160559750Y-79836250D02*
X160559750Y-80994250D01*
X154175556Y-81416510D02*
X158740490Y-81416510D01*
X158740490Y-81416510D02*
X158867490Y-81416510D01*
X160785750Y-70941000D02*
X160785750Y-72005250D01*
X160785750Y-72005250D02*
X160528000Y-72263000D01*
X163449000Y-72263000D02*
X163449000Y-75643500D01*
X157384750Y-79811250D02*
X157384750Y-80740250D01*
X157384750Y-80740250D02*
X157162500Y-80962500D01*
X157162500Y-80962500D02*
X153987500Y-80962500D01*
X153987500Y-80962500D02*
X149225000Y-85725000D01*
X149225000Y-99718500D02*
X149225000Y-85725000D01*
X152776250Y-103269750D02*
X149225000Y-99718500D01*
X153780250Y-103269750D02*
X152776250Y-103269750D01*
X157785750Y-70941000D02*
X157785750Y-72102895D01*
X157785750Y-72102895D02*
X157694097Y-72194548D01*
X154432000Y-72263000D02*
X154432000Y-75643500D01*
X156280250Y-94356148D02*
X155586602Y-93662500D01*
X156280250Y-95169750D02*
X156280250Y-94356148D01*
X155586602Y-93662500D02*
X153987500Y-93662500D01*
X150812500Y-86296500D02*
X150812500Y-88900000D01*
X154178000Y-82931000D02*
X150812500Y-86296500D01*
X171712500Y-73743750D02*
X171712500Y-78223500D01*
X167005000Y-82931000D02*
X154178000Y-82931000D01*
X168736250Y-81106250D02*
X168783000Y-81153000D01*
X171712500Y-78223500D02*
X168783000Y-81153000D01*
X168783000Y-81153000D02*
X167005000Y-82931000D01*
X171712500Y-73412500D02*
X171712500Y-73743750D01*
X176212500Y-68912500D02*
X171712500Y-73412500D01*
X227656250Y-97568750D02*
X227806250Y-97568750D01*
X226028250Y-95940750D02*
X227656250Y-97568750D01*
X226028250Y-94234000D02*
X226028250Y-95940750D01*
X223177250Y-73756250D02*
X222678000Y-73257000D01*
X226218750Y-73756250D02*
X223177250Y-73756250D01*
X201441250Y-86506250D02*
X202337500Y-86506250D01*
X200371260Y-89188740D02*
X200787000Y-88773000D01*
X200787000Y-87160500D02*
X201441250Y-86506250D01*
X185964358Y-89188740D02*
X200371260Y-89188740D01*
X200787000Y-88773000D02*
X200787000Y-87160500D01*
X171381250Y-83888750D02*
X172847000Y-82423000D01*
X171381250Y-86538000D02*
X171381250Y-83888750D01*
X172847000Y-82423000D02*
X175260000Y-82423000D01*
X175260000Y-82423000D02*
X178857490Y-86020490D01*
X178857490Y-86020490D02*
X182796108Y-86020490D01*
X182796108Y-86020490D02*
X185964358Y-89188740D01*
X213101250Y-96774000D02*
X213101250Y-94238750D01*
X213128000Y-73257000D02*
X217678000Y-73257000D01*
X166184250Y-102469750D02*
X166203500Y-102489000D01*
X165180250Y-102469750D02*
X166184250Y-102469750D01*
X166203500Y-102489000D02*
X170180000Y-102489000D01*
X170180000Y-102489000D02*
X172085000Y-104394000D01*
X172085000Y-104394000D02*
X172085000Y-107823000D01*
X172085000Y-107823000D02*
X172085000Y-108204000D01*
X172085000Y-108204000D02*
X174879000Y-110998000D01*
X174879000Y-110998000D02*
X204343000Y-110998000D01*
X204343000Y-110998000D02*
X212217000Y-110998000D01*
X212217000Y-110998000D02*
X213106000Y-110109000D01*
X213106000Y-110109000D02*
X213106000Y-108458000D01*
X213106000Y-96778750D02*
X213101250Y-96774000D01*
X213106000Y-100457000D02*
X213106000Y-96778750D01*
X159285750Y-71920000D02*
X158752250Y-72453500D01*
X159285750Y-70941000D02*
X159285750Y-71920000D01*
X158285750Y-71987000D02*
X158285750Y-70941000D01*
X158752250Y-72453500D02*
X158285750Y-71987000D01*
X158752250Y-74514250D02*
X158750000Y-74516500D01*
X158752250Y-72453500D02*
X158752250Y-74514250D01*
X158750000Y-74516500D02*
X158750000Y-75120500D01*
X158022250Y-75848250D02*
X157972250Y-75848250D01*
X158750000Y-75120500D02*
X158022250Y-75848250D01*
X157384750Y-76435750D02*
X157972250Y-75848250D01*
X157384750Y-77936250D02*
X157384750Y-76435750D01*
X159762751Y-70963999D02*
X159785750Y-70941000D01*
X159204010Y-74729990D02*
X159204010Y-75130010D01*
X159206260Y-74727740D02*
X159204010Y-74729990D01*
X159206260Y-72641556D02*
X159206260Y-74727740D01*
X159922250Y-75848250D02*
X159972250Y-75848250D01*
X159204010Y-75130010D02*
X159922250Y-75848250D01*
X159785750Y-72062066D02*
X159785750Y-70941000D01*
X159206260Y-72641556D02*
X159785750Y-72062066D01*
X159785750Y-69962000D02*
X159610250Y-69786500D01*
X159785750Y-70941000D02*
X159785750Y-69962000D01*
X158785750Y-69962000D02*
X158785750Y-70941000D01*
X158785750Y-69941250D02*
X158785750Y-69962000D01*
X158940500Y-69786500D02*
X158785750Y-69941250D01*
X159610250Y-69786500D02*
X158940500Y-69786500D01*
X160559750Y-76435750D02*
X159972250Y-75848250D01*
X160559750Y-77961250D02*
X160559750Y-76435750D01*
X165225000Y-98425000D02*
X165180250Y-98469750D01*
X167481250Y-98425000D02*
X165225000Y-98425000D01*
X168306750Y-92837000D02*
X167481250Y-93662500D01*
X171958000Y-92837000D02*
X168306750Y-92837000D01*
X176281250Y-89738000D02*
X176281250Y-90926750D01*
X175577500Y-91630500D02*
X173164500Y-91630500D01*
X176281250Y-90926750D02*
X175577500Y-91630500D01*
X171958000Y-92837000D02*
X173164500Y-91630500D01*
X170071750Y-103269750D02*
X165180250Y-103269750D01*
X171450000Y-104648000D02*
X170071750Y-103269750D01*
X174752000Y-111760000D02*
X171450000Y-108458000D01*
X226060000Y-111760000D02*
X174752000Y-111760000D01*
X217678000Y-89408000D02*
X217932000Y-89662000D01*
X217678000Y-87757000D02*
X217678000Y-89408000D01*
X226187000Y-89662000D02*
X229489000Y-92964000D01*
X229489000Y-92964000D02*
X229489000Y-108331000D01*
X171450000Y-108458000D02*
X171450000Y-104648000D01*
X217932000Y-89662000D02*
X226187000Y-89662000D01*
X229489000Y-108331000D02*
X226060000Y-111760000D01*
X222706786Y-89199999D02*
X222678000Y-89171213D01*
X224490001Y-89199999D02*
X222706786Y-89199999D01*
X224497992Y-89207990D02*
X224490001Y-89199999D01*
X226375057Y-89207990D02*
X224497992Y-89207990D01*
X229943010Y-92775944D02*
X226375057Y-89207990D01*
X229943010Y-108519057D02*
X229943010Y-92775944D01*
X222678000Y-89171213D02*
X222678000Y-87757000D01*
X165180250Y-104069750D02*
X169982750Y-104069750D01*
X169982750Y-104069750D02*
X170815000Y-104902000D01*
X170815000Y-104902000D02*
X170815000Y-108712000D01*
X170815000Y-108712000D02*
X174317010Y-112214010D01*
X174317010Y-112214010D02*
X226248057Y-112214009D01*
X226248057Y-112214009D02*
X229943010Y-108519057D01*
X165180250Y-100869750D02*
X170592750Y-100869750D01*
X170592750Y-100869750D02*
X173101000Y-100869750D01*
X173101000Y-100869750D02*
X175418750Y-103187500D01*
X189706250Y-100868750D02*
X188975000Y-100868750D01*
X188975000Y-100868750D02*
X186656250Y-103187500D01*
X186656250Y-103187500D02*
X175418750Y-103187500D01*
X189706250Y-100868750D02*
X190437500Y-100868750D01*
X190437500Y-100868750D02*
X192756250Y-103187500D01*
X208756250Y-100868750D02*
X208025000Y-100868750D01*
X205706250Y-103187500D02*
X192756250Y-103187500D01*
X208025000Y-100868750D02*
X205706250Y-103187500D01*
X209487500Y-100868750D02*
X208756250Y-100868750D01*
X211806250Y-103187500D02*
X209487500Y-100868750D01*
X224756250Y-103187500D02*
X211806250Y-103187500D01*
X227806250Y-100868750D02*
X227075000Y-100868750D01*
X227075000Y-100868750D02*
X224756250Y-103187500D01*
G36*
X167513000Y-84380606D02*
G01*
X167513000Y-92276394D01*
X166190394Y-93599000D01*
X160242250Y-93599000D01*
X160242250Y-91660380D01*
X161695853Y-90206778D01*
X161724922Y-90182922D01*
X161820145Y-90066892D01*
X161890902Y-89934515D01*
X161934474Y-89790878D01*
X161945500Y-89678926D01*
X161945500Y-89678924D01*
X161949186Y-89641501D01*
X161945500Y-89604078D01*
X161945500Y-89203966D01*
X162007982Y-89197812D01*
X162127680Y-89161502D01*
X162237994Y-89102537D01*
X162334685Y-89023185D01*
X162414037Y-88926494D01*
X162473002Y-88816180D01*
X162497931Y-88734000D01*
X163256959Y-88734000D01*
X163257553Y-88735959D01*
X163339042Y-88888414D01*
X163448708Y-89022042D01*
X163582336Y-89131708D01*
X163734791Y-89213197D01*
X163900215Y-89263378D01*
X164072250Y-89280322D01*
X164984750Y-89280322D01*
X165156785Y-89263378D01*
X165322209Y-89213197D01*
X165474664Y-89131708D01*
X165608292Y-89022042D01*
X165717958Y-88888414D01*
X165799447Y-88735959D01*
X165849628Y-88570535D01*
X165866572Y-88398500D01*
X165866572Y-87911000D01*
X165849628Y-87738965D01*
X165799447Y-87573541D01*
X165717958Y-87421086D01*
X165608292Y-87287458D01*
X165601936Y-87282242D01*
X165679685Y-87218435D01*
X165759037Y-87121744D01*
X165818002Y-87011430D01*
X165854312Y-86891732D01*
X165866572Y-86767250D01*
X165863500Y-86565500D01*
X165704750Y-86406750D01*
X164655500Y-86406750D01*
X164655500Y-86426750D01*
X164401500Y-86426750D01*
X164401500Y-86406750D01*
X163352250Y-86406750D01*
X163193500Y-86565500D01*
X163190428Y-86767250D01*
X163202688Y-86891732D01*
X163238998Y-87011430D01*
X163297963Y-87121744D01*
X163370393Y-87210000D01*
X162497931Y-87210000D01*
X162473002Y-87127820D01*
X162469891Y-87122000D01*
X162473002Y-87116180D01*
X162509312Y-86996482D01*
X162521572Y-86872000D01*
X162518500Y-86557750D01*
X162359750Y-86399000D01*
X161310500Y-86399000D01*
X161310500Y-86419000D01*
X161056500Y-86419000D01*
X161056500Y-86399000D01*
X161036500Y-86399000D01*
X161036500Y-86145000D01*
X161056500Y-86145000D01*
X161056500Y-85195750D01*
X161310500Y-85195750D01*
X161310500Y-86145000D01*
X162359750Y-86145000D01*
X162518500Y-85986250D01*
X162520396Y-85792250D01*
X163190428Y-85792250D01*
X163193500Y-85994000D01*
X163352250Y-86152750D01*
X164401500Y-86152750D01*
X164401500Y-85316000D01*
X164655500Y-85316000D01*
X164655500Y-86152750D01*
X165704750Y-86152750D01*
X165863500Y-85994000D01*
X165866572Y-85792250D01*
X165854312Y-85667768D01*
X165818002Y-85548070D01*
X165759037Y-85437756D01*
X165679685Y-85341065D01*
X165582994Y-85261713D01*
X165472680Y-85202748D01*
X165352982Y-85166438D01*
X165228500Y-85154178D01*
X164814250Y-85157250D01*
X164655500Y-85316000D01*
X164401500Y-85316000D01*
X164242750Y-85157250D01*
X163828500Y-85154178D01*
X163704018Y-85166438D01*
X163584320Y-85202748D01*
X163474006Y-85261713D01*
X163377315Y-85341065D01*
X163297963Y-85437756D01*
X163238998Y-85548070D01*
X163202688Y-85667768D01*
X163190428Y-85792250D01*
X162520396Y-85792250D01*
X162521572Y-85672000D01*
X162509312Y-85547518D01*
X162473002Y-85427820D01*
X162414037Y-85317506D01*
X162334685Y-85220815D01*
X162237994Y-85141463D01*
X162127680Y-85082498D01*
X162007982Y-85046188D01*
X161883500Y-85033928D01*
X161469250Y-85037000D01*
X161310500Y-85195750D01*
X161056500Y-85195750D01*
X160897750Y-85037000D01*
X160483500Y-85033928D01*
X160359018Y-85046188D01*
X160239320Y-85082498D01*
X160129006Y-85141463D01*
X160083500Y-85178809D01*
X160037994Y-85141463D01*
X159927680Y-85082498D01*
X159807982Y-85046188D01*
X159683500Y-85033928D01*
X158283500Y-85033928D01*
X158159018Y-85046188D01*
X158039320Y-85082498D01*
X157929006Y-85141463D01*
X157832315Y-85220815D01*
X157752963Y-85317506D01*
X157693998Y-85427820D01*
X157666718Y-85517750D01*
X157026953Y-85517750D01*
X156940542Y-85412458D01*
X156806914Y-85302792D01*
X156654459Y-85221303D01*
X156489035Y-85171122D01*
X156317000Y-85154178D01*
X155404500Y-85154178D01*
X155232465Y-85171122D01*
X155067041Y-85221303D01*
X154914586Y-85302792D01*
X154780958Y-85412458D01*
X154671292Y-85546086D01*
X154589803Y-85698541D01*
X154539622Y-85863965D01*
X154522678Y-86036000D01*
X154522678Y-86523500D01*
X154539622Y-86695535D01*
X154589803Y-86860959D01*
X154671292Y-87013414D01*
X154780958Y-87147042D01*
X154787314Y-87152258D01*
X154709565Y-87216065D01*
X154630213Y-87312756D01*
X154571248Y-87423070D01*
X154534938Y-87542768D01*
X154522678Y-87667250D01*
X154525750Y-87869000D01*
X154684500Y-88027750D01*
X155733750Y-88027750D01*
X155733750Y-88007750D01*
X155987750Y-88007750D01*
X155987750Y-88027750D01*
X156007750Y-88027750D01*
X156007750Y-88281750D01*
X155987750Y-88281750D01*
X155987750Y-89118500D01*
X156146500Y-89277250D01*
X156560750Y-89280322D01*
X156591001Y-89277343D01*
X156591001Y-90005567D01*
X156587314Y-90043000D01*
X156602027Y-90192378D01*
X156645599Y-90336015D01*
X156716355Y-90468392D01*
X156769230Y-90532820D01*
X156811579Y-90584422D01*
X156840649Y-90608279D01*
X157918250Y-91685881D01*
X157918251Y-93599000D01*
X157604835Y-93599000D01*
X156033800Y-92027966D01*
X156007943Y-91996459D01*
X155882244Y-91893301D01*
X155738836Y-91816647D01*
X155583228Y-91769444D01*
X155461955Y-91757500D01*
X155461952Y-91757500D01*
X155421402Y-91753506D01*
X155380852Y-91757500D01*
X152821550Y-91757500D01*
X152781000Y-91753506D01*
X152740449Y-91757500D01*
X152740447Y-91757500D01*
X152721345Y-91759381D01*
X152722072Y-91752000D01*
X152719000Y-91550250D01*
X152654000Y-91485250D01*
X152654000Y-91043750D01*
X152719000Y-90978750D01*
X152722072Y-90777000D01*
X152709812Y-90652518D01*
X152673502Y-90532820D01*
X152654000Y-90496335D01*
X152654000Y-90297000D01*
X152651560Y-90272224D01*
X152644333Y-90248399D01*
X152632597Y-90226443D01*
X152616803Y-90207197D01*
X152597557Y-90191403D01*
X152575601Y-90179667D01*
X152551776Y-90172440D01*
X152527000Y-90170000D01*
X152270497Y-90170000D01*
X152208482Y-90151188D01*
X152084000Y-90138928D01*
X151669750Y-90142000D01*
X151641750Y-90170000D01*
X151638000Y-90170000D01*
X151638000Y-89347508D01*
X151641086Y-89342889D01*
X151711568Y-89172729D01*
X151747500Y-88992089D01*
X151747500Y-88807911D01*
X151714548Y-88642250D01*
X154522678Y-88642250D01*
X154534938Y-88766732D01*
X154571248Y-88886430D01*
X154630213Y-88996744D01*
X154709565Y-89093435D01*
X154806256Y-89172787D01*
X154916570Y-89231752D01*
X155036268Y-89268062D01*
X155160750Y-89280322D01*
X155575000Y-89277250D01*
X155733750Y-89118500D01*
X155733750Y-88281750D01*
X154684500Y-88281750D01*
X154525750Y-88440500D01*
X154522678Y-88642250D01*
X151714548Y-88642250D01*
X151711568Y-88627271D01*
X151641086Y-88457111D01*
X151638000Y-88452492D01*
X151638000Y-86666606D01*
X154484606Y-83820000D01*
X166952394Y-83820000D01*
X167513000Y-84380606D01*
X167513000Y-84380606D01*
G37*
X167513000Y-84380606D02*
X167513000Y-92276394D01*
X166190394Y-93599000D01*
X160242250Y-93599000D01*
X160242250Y-91660380D01*
X161695853Y-90206778D01*
X161724922Y-90182922D01*
X161820145Y-90066892D01*
X161890902Y-89934515D01*
X161934474Y-89790878D01*
X161945500Y-89678926D01*
X161945500Y-89678924D01*
X161949186Y-89641501D01*
X161945500Y-89604078D01*
X161945500Y-89203966D01*
X162007982Y-89197812D01*
X162127680Y-89161502D01*
X162237994Y-89102537D01*
X162334685Y-89023185D01*
X162414037Y-88926494D01*
X162473002Y-88816180D01*
X162497931Y-88734000D01*
X163256959Y-88734000D01*
X163257553Y-88735959D01*
X163339042Y-88888414D01*
X163448708Y-89022042D01*
X163582336Y-89131708D01*
X163734791Y-89213197D01*
X163900215Y-89263378D01*
X164072250Y-89280322D01*
X164984750Y-89280322D01*
X165156785Y-89263378D01*
X165322209Y-89213197D01*
X165474664Y-89131708D01*
X165608292Y-89022042D01*
X165717958Y-88888414D01*
X165799447Y-88735959D01*
X165849628Y-88570535D01*
X165866572Y-88398500D01*
X165866572Y-87911000D01*
X165849628Y-87738965D01*
X165799447Y-87573541D01*
X165717958Y-87421086D01*
X165608292Y-87287458D01*
X165601936Y-87282242D01*
X165679685Y-87218435D01*
X165759037Y-87121744D01*
X165818002Y-87011430D01*
X165854312Y-86891732D01*
X165866572Y-86767250D01*
X165863500Y-86565500D01*
X165704750Y-86406750D01*
X164655500Y-86406750D01*
X164655500Y-86426750D01*
X164401500Y-86426750D01*
X164401500Y-86406750D01*
X163352250Y-86406750D01*
X163193500Y-86565500D01*
X163190428Y-86767250D01*
X163202688Y-86891732D01*
X163238998Y-87011430D01*
X163297963Y-87121744D01*
X163370393Y-87210000D01*
X162497931Y-87210000D01*
X162473002Y-87127820D01*
X162469891Y-87122000D01*
X162473002Y-87116180D01*
X162509312Y-86996482D01*
X162521572Y-86872000D01*
X162518500Y-86557750D01*
X162359750Y-86399000D01*
X161310500Y-86399000D01*
X161310500Y-86419000D01*
X161056500Y-86419000D01*
X161056500Y-86399000D01*
X161036500Y-86399000D01*
X161036500Y-86145000D01*
X161056500Y-86145000D01*
X161056500Y-85195750D01*
X161310500Y-85195750D01*
X161310500Y-86145000D01*
X162359750Y-86145000D01*
X162518500Y-85986250D01*
X162520396Y-85792250D01*
X163190428Y-85792250D01*
X163193500Y-85994000D01*
X163352250Y-86152750D01*
X164401500Y-86152750D01*
X164401500Y-85316000D01*
X164655500Y-85316000D01*
X164655500Y-86152750D01*
X165704750Y-86152750D01*
X165863500Y-85994000D01*
X165866572Y-85792250D01*
X165854312Y-85667768D01*
X165818002Y-85548070D01*
X165759037Y-85437756D01*
X165679685Y-85341065D01*
X165582994Y-85261713D01*
X165472680Y-85202748D01*
X165352982Y-85166438D01*
X165228500Y-85154178D01*
X164814250Y-85157250D01*
X164655500Y-85316000D01*
X164401500Y-85316000D01*
X164242750Y-85157250D01*
X163828500Y-85154178D01*
X163704018Y-85166438D01*
X163584320Y-85202748D01*
X163474006Y-85261713D01*
X163377315Y-85341065D01*
X163297963Y-85437756D01*
X163238998Y-85548070D01*
X163202688Y-85667768D01*
X163190428Y-85792250D01*
X162520396Y-85792250D01*
X162521572Y-85672000D01*
X162509312Y-85547518D01*
X162473002Y-85427820D01*
X162414037Y-85317506D01*
X162334685Y-85220815D01*
X162237994Y-85141463D01*
X162127680Y-85082498D01*
X162007982Y-85046188D01*
X161883500Y-85033928D01*
X161469250Y-85037000D01*
X161310500Y-85195750D01*
X161056500Y-85195750D01*
X160897750Y-85037000D01*
X160483500Y-85033928D01*
X160359018Y-85046188D01*
X160239320Y-85082498D01*
X160129006Y-85141463D01*
X160083500Y-85178809D01*
X160037994Y-85141463D01*
X159927680Y-85082498D01*
X159807982Y-85046188D01*
X159683500Y-85033928D01*
X158283500Y-85033928D01*
X158159018Y-85046188D01*
X158039320Y-85082498D01*
X157929006Y-85141463D01*
X157832315Y-85220815D01*
X157752963Y-85317506D01*
X157693998Y-85427820D01*
X157666718Y-85517750D01*
X157026953Y-85517750D01*
X156940542Y-85412458D01*
X156806914Y-85302792D01*
X156654459Y-85221303D01*
X156489035Y-85171122D01*
X156317000Y-85154178D01*
X155404500Y-85154178D01*
X155232465Y-85171122D01*
X155067041Y-85221303D01*
X154914586Y-85302792D01*
X154780958Y-85412458D01*
X154671292Y-85546086D01*
X154589803Y-85698541D01*
X154539622Y-85863965D01*
X154522678Y-86036000D01*
X154522678Y-86523500D01*
X154539622Y-86695535D01*
X154589803Y-86860959D01*
X154671292Y-87013414D01*
X154780958Y-87147042D01*
X154787314Y-87152258D01*
X154709565Y-87216065D01*
X154630213Y-87312756D01*
X154571248Y-87423070D01*
X154534938Y-87542768D01*
X154522678Y-87667250D01*
X154525750Y-87869000D01*
X154684500Y-88027750D01*
X155733750Y-88027750D01*
X155733750Y-88007750D01*
X155987750Y-88007750D01*
X155987750Y-88027750D01*
X156007750Y-88027750D01*
X156007750Y-88281750D01*
X155987750Y-88281750D01*
X155987750Y-89118500D01*
X156146500Y-89277250D01*
X156560750Y-89280322D01*
X156591001Y-89277343D01*
X156591001Y-90005567D01*
X156587314Y-90043000D01*
X156602027Y-90192378D01*
X156645599Y-90336015D01*
X156716355Y-90468392D01*
X156769230Y-90532820D01*
X156811579Y-90584422D01*
X156840649Y-90608279D01*
X157918250Y-91685881D01*
X157918251Y-93599000D01*
X157604835Y-93599000D01*
X156033800Y-92027966D01*
X156007943Y-91996459D01*
X155882244Y-91893301D01*
X155738836Y-91816647D01*
X155583228Y-91769444D01*
X155461955Y-91757500D01*
X155461952Y-91757500D01*
X155421402Y-91753506D01*
X155380852Y-91757500D01*
X152821550Y-91757500D01*
X152781000Y-91753506D01*
X152740449Y-91757500D01*
X152740447Y-91757500D01*
X152721345Y-91759381D01*
X152722072Y-91752000D01*
X152719000Y-91550250D01*
X152654000Y-91485250D01*
X152654000Y-91043750D01*
X152719000Y-90978750D01*
X152722072Y-90777000D01*
X152709812Y-90652518D01*
X152673502Y-90532820D01*
X152654000Y-90496335D01*
X152654000Y-90297000D01*
X152651560Y-90272224D01*
X152644333Y-90248399D01*
X152632597Y-90226443D01*
X152616803Y-90207197D01*
X152597557Y-90191403D01*
X152575601Y-90179667D01*
X152551776Y-90172440D01*
X152527000Y-90170000D01*
X152270497Y-90170000D01*
X152208482Y-90151188D01*
X152084000Y-90138928D01*
X151669750Y-90142000D01*
X151641750Y-90170000D01*
X151638000Y-90170000D01*
X151638000Y-89347508D01*
X151641086Y-89342889D01*
X151711568Y-89172729D01*
X151747500Y-88992089D01*
X151747500Y-88807911D01*
X151714548Y-88642250D01*
X154522678Y-88642250D01*
X154534938Y-88766732D01*
X154571248Y-88886430D01*
X154630213Y-88996744D01*
X154709565Y-89093435D01*
X154806256Y-89172787D01*
X154916570Y-89231752D01*
X155036268Y-89268062D01*
X155160750Y-89280322D01*
X155575000Y-89277250D01*
X155733750Y-89118500D01*
X155733750Y-88281750D01*
X154684500Y-88281750D01*
X154525750Y-88440500D01*
X154522678Y-88642250D01*
X151714548Y-88642250D01*
X151711568Y-88627271D01*
X151641086Y-88457111D01*
X151638000Y-88452492D01*
X151638000Y-86666606D01*
X154484606Y-83820000D01*
X166952394Y-83820000D01*
X167513000Y-84380606D01*
G36*
X159110500Y-87845000D02*
G01*
X159130500Y-87845000D01*
X159130500Y-88099000D01*
X159110500Y-88099000D01*
X159110500Y-89048250D01*
X159269250Y-89207000D01*
X159683500Y-89210072D01*
X159807982Y-89197812D01*
X159927680Y-89161502D01*
X160037994Y-89102537D01*
X160083500Y-89065191D01*
X160129006Y-89102537D01*
X160239320Y-89161502D01*
X160359018Y-89197812D01*
X160421500Y-89203966D01*
X160421500Y-89325869D01*
X159067500Y-90679870D01*
X158115000Y-89727370D01*
X158115000Y-89184459D01*
X158159018Y-89197812D01*
X158283500Y-89210072D01*
X158697750Y-89207000D01*
X158856500Y-89048250D01*
X158856500Y-88099000D01*
X158836500Y-88099000D01*
X158836500Y-87845000D01*
X158856500Y-87845000D01*
X158856500Y-87825000D01*
X159110500Y-87825000D01*
X159110500Y-87845000D01*
X159110500Y-87845000D01*
G37*
X159110500Y-87845000D02*
X159130500Y-87845000D01*
X159130500Y-88099000D01*
X159110500Y-88099000D01*
X159110500Y-89048250D01*
X159269250Y-89207000D01*
X159683500Y-89210072D01*
X159807982Y-89197812D01*
X159927680Y-89161502D01*
X160037994Y-89102537D01*
X160083500Y-89065191D01*
X160129006Y-89102537D01*
X160239320Y-89161502D01*
X160359018Y-89197812D01*
X160421500Y-89203966D01*
X160421500Y-89325869D01*
X159067500Y-90679870D01*
X158115000Y-89727370D01*
X158115000Y-89184459D01*
X158159018Y-89197812D01*
X158283500Y-89210072D01*
X158697750Y-89207000D01*
X158856500Y-89048250D01*
X158856500Y-88099000D01*
X158836500Y-88099000D01*
X158836500Y-87845000D01*
X158856500Y-87845000D01*
X158856500Y-87825000D01*
X159110500Y-87825000D01*
X159110500Y-87845000D01*
G36*
X163312631Y-70173000D02*
G01*
X163228750Y-70173000D01*
X163228750Y-70153000D01*
X163208750Y-70153000D01*
X163208750Y-69899000D01*
X163228750Y-69899000D01*
X163228750Y-69879000D01*
X163306376Y-69879000D01*
X163312631Y-70173000D01*
X163312631Y-70173000D01*
G37*
X163312631Y-70173000D02*
X163228750Y-70173000D01*
X163228750Y-70153000D01*
X163208750Y-70153000D01*
X163208750Y-69899000D01*
X163228750Y-69899000D01*
X163228750Y-69879000D01*
X163306376Y-69879000D01*
X163312631Y-70173000D01*
G36*
X154842750Y-69899000D02*
G01*
X154862750Y-69899000D01*
X154862750Y-70153000D01*
X154842750Y-70153000D01*
X154842750Y-70173000D01*
X154824818Y-70173000D01*
X154830943Y-69879000D01*
X154842750Y-69879000D01*
X154842750Y-69899000D01*
X154842750Y-69899000D01*
G37*
X154842750Y-69899000D02*
X154862750Y-69899000D01*
X154862750Y-70153000D01*
X154842750Y-70153000D01*
X154842750Y-70173000D01*
X154824818Y-70173000D01*
X154830943Y-69879000D01*
X154842750Y-69879000D01*
X154842750Y-69899000D01*
G36*
X162355747Y-64994322D02*
G01*
X162267335Y-65200013D01*
X162220750Y-65419000D01*
X162220750Y-65719000D01*
X163217865Y-65719000D01*
X163223270Y-65973000D01*
X162220750Y-65973000D01*
X162220750Y-66273000D01*
X162267335Y-66491987D01*
X162355747Y-66697678D01*
X162482589Y-66882169D01*
X162642986Y-67038369D01*
X162830774Y-67160276D01*
X163053876Y-67240119D01*
X163228748Y-67113955D01*
X163228748Y-67281000D01*
X163251099Y-67281000D01*
X163273652Y-68341000D01*
X163228748Y-68341000D01*
X163228748Y-68508045D01*
X163053876Y-68381881D01*
X162830774Y-68461724D01*
X162642986Y-68583631D01*
X162498634Y-68724206D01*
X162380481Y-68645259D01*
X162205772Y-68572892D01*
X162020302Y-68536000D01*
X161831198Y-68536000D01*
X161645728Y-68572892D01*
X161471019Y-68645259D01*
X161313786Y-68750319D01*
X161180069Y-68884036D01*
X161075009Y-69041269D01*
X161002642Y-69215978D01*
X160965750Y-69401448D01*
X160965750Y-69580883D01*
X160935750Y-69577928D01*
X160635750Y-69577928D01*
X160535750Y-69587777D01*
X160444966Y-69578836D01*
X160422395Y-69536608D01*
X160327172Y-69420578D01*
X160298096Y-69396716D01*
X160175534Y-69274154D01*
X160151672Y-69245078D01*
X160035642Y-69149855D01*
X159903265Y-69079098D01*
X159759628Y-69035526D01*
X159647676Y-69024500D01*
X159647673Y-69024500D01*
X159610250Y-69020814D01*
X159572827Y-69024500D01*
X158977923Y-69024500D01*
X158940500Y-69020814D01*
X158903077Y-69024500D01*
X158903074Y-69024500D01*
X158791122Y-69035526D01*
X158647485Y-69079098D01*
X158515108Y-69149855D01*
X158399078Y-69245078D01*
X158375213Y-69274158D01*
X158273405Y-69375965D01*
X158244328Y-69399828D01*
X158188733Y-69467572D01*
X158149105Y-69515858D01*
X158138014Y-69536608D01*
X158114827Y-69579989D01*
X158035750Y-69587777D01*
X157935750Y-69577928D01*
X157635750Y-69577928D01*
X157535750Y-69587777D01*
X157435750Y-69577928D01*
X157135750Y-69577928D01*
X157105750Y-69580883D01*
X157105750Y-69401448D01*
X157068858Y-69215978D01*
X156996491Y-69041269D01*
X156891431Y-68884036D01*
X156757714Y-68750319D01*
X156600481Y-68645259D01*
X156425772Y-68572892D01*
X156240302Y-68536000D01*
X156051198Y-68536000D01*
X155865728Y-68572892D01*
X155691019Y-68645259D01*
X155572866Y-68724206D01*
X155428514Y-68583631D01*
X155240726Y-68461724D01*
X155017624Y-68381881D01*
X154859761Y-68495773D01*
X154887870Y-67146507D01*
X155017624Y-67240119D01*
X155240726Y-67160276D01*
X155428514Y-67038369D01*
X155588911Y-66882169D01*
X155715753Y-66697678D01*
X155804165Y-66491987D01*
X155850750Y-66273000D01*
X155850750Y-65973000D01*
X154912318Y-65973000D01*
X154917610Y-65719000D01*
X155850750Y-65719000D01*
X155850750Y-65419000D01*
X155804165Y-65200013D01*
X155715753Y-64994322D01*
X155687859Y-64953750D01*
X162383641Y-64953750D01*
X162355747Y-64994322D01*
X162355747Y-64994322D01*
G37*
X162355747Y-64994322D02*
X162267335Y-65200013D01*
X162220750Y-65419000D01*
X162220750Y-65719000D01*
X163217865Y-65719000D01*
X163223270Y-65973000D01*
X162220750Y-65973000D01*
X162220750Y-66273000D01*
X162267335Y-66491987D01*
X162355747Y-66697678D01*
X162482589Y-66882169D01*
X162642986Y-67038369D01*
X162830774Y-67160276D01*
X163053876Y-67240119D01*
X163228748Y-67113955D01*
X163228748Y-67281000D01*
X163251099Y-67281000D01*
X163273652Y-68341000D01*
X163228748Y-68341000D01*
X163228748Y-68508045D01*
X163053876Y-68381881D01*
X162830774Y-68461724D01*
X162642986Y-68583631D01*
X162498634Y-68724206D01*
X162380481Y-68645259D01*
X162205772Y-68572892D01*
X162020302Y-68536000D01*
X161831198Y-68536000D01*
X161645728Y-68572892D01*
X161471019Y-68645259D01*
X161313786Y-68750319D01*
X161180069Y-68884036D01*
X161075009Y-69041269D01*
X161002642Y-69215978D01*
X160965750Y-69401448D01*
X160965750Y-69580883D01*
X160935750Y-69577928D01*
X160635750Y-69577928D01*
X160535750Y-69587777D01*
X160444966Y-69578836D01*
X160422395Y-69536608D01*
X160327172Y-69420578D01*
X160298096Y-69396716D01*
X160175534Y-69274154D01*
X160151672Y-69245078D01*
X160035642Y-69149855D01*
X159903265Y-69079098D01*
X159759628Y-69035526D01*
X159647676Y-69024500D01*
X159647673Y-69024500D01*
X159610250Y-69020814D01*
X159572827Y-69024500D01*
X158977923Y-69024500D01*
X158940500Y-69020814D01*
X158903077Y-69024500D01*
X158903074Y-69024500D01*
X158791122Y-69035526D01*
X158647485Y-69079098D01*
X158515108Y-69149855D01*
X158399078Y-69245078D01*
X158375213Y-69274158D01*
X158273405Y-69375965D01*
X158244328Y-69399828D01*
X158188733Y-69467572D01*
X158149105Y-69515858D01*
X158138014Y-69536608D01*
X158114827Y-69579989D01*
X158035750Y-69587777D01*
X157935750Y-69577928D01*
X157635750Y-69577928D01*
X157535750Y-69587777D01*
X157435750Y-69577928D01*
X157135750Y-69577928D01*
X157105750Y-69580883D01*
X157105750Y-69401448D01*
X157068858Y-69215978D01*
X156996491Y-69041269D01*
X156891431Y-68884036D01*
X156757714Y-68750319D01*
X156600481Y-68645259D01*
X156425772Y-68572892D01*
X156240302Y-68536000D01*
X156051198Y-68536000D01*
X155865728Y-68572892D01*
X155691019Y-68645259D01*
X155572866Y-68724206D01*
X155428514Y-68583631D01*
X155240726Y-68461724D01*
X155017624Y-68381881D01*
X154859761Y-68495773D01*
X154887870Y-67146507D01*
X155017624Y-67240119D01*
X155240726Y-67160276D01*
X155428514Y-67038369D01*
X155588911Y-66882169D01*
X155715753Y-66697678D01*
X155804165Y-66491987D01*
X155850750Y-66273000D01*
X155850750Y-65973000D01*
X154912318Y-65973000D01*
X154917610Y-65719000D01*
X155850750Y-65719000D01*
X155850750Y-65419000D01*
X155804165Y-65200013D01*
X155715753Y-64994322D01*
X155687859Y-64953750D01*
X162383641Y-64953750D01*
X162355747Y-64994322D01*
G36*
X158050756Y-96450287D02*
G01*
X158073917Y-96462667D01*
X158166000Y-96554750D01*
X158279587Y-96545204D01*
X158280768Y-96545562D01*
X158405250Y-96557822D01*
X158955250Y-96557822D01*
X159079732Y-96545562D01*
X159080250Y-96545405D01*
X159080768Y-96545562D01*
X159205250Y-96557822D01*
X159755250Y-96557822D01*
X159879732Y-96545562D01*
X159880250Y-96545405D01*
X159880768Y-96545562D01*
X160005250Y-96557822D01*
X160555250Y-96557822D01*
X160679732Y-96545562D01*
X160680250Y-96545405D01*
X160680768Y-96545562D01*
X160805250Y-96557822D01*
X161355250Y-96557822D01*
X161479732Y-96545562D01*
X161480250Y-96545405D01*
X161480768Y-96545562D01*
X161605250Y-96557822D01*
X162155250Y-96557822D01*
X162279732Y-96545562D01*
X162280250Y-96545405D01*
X162280768Y-96545562D01*
X162405250Y-96557822D01*
X162955250Y-96557822D01*
X163079732Y-96545562D01*
X163080250Y-96545405D01*
X163080768Y-96545562D01*
X163205250Y-96557822D01*
X163755250Y-96557822D01*
X163797802Y-96553631D01*
X163795250Y-96584000D01*
X163954000Y-96742750D01*
X163957000Y-96742750D01*
X163957000Y-96970451D01*
X163899713Y-97040256D01*
X163887333Y-97063417D01*
X163795250Y-97155500D01*
X163804796Y-97269087D01*
X163804438Y-97270268D01*
X163792178Y-97394750D01*
X163792178Y-97944750D01*
X163804438Y-98069232D01*
X163804595Y-98069750D01*
X163804438Y-98070268D01*
X163792178Y-98194750D01*
X163792178Y-98744750D01*
X163804438Y-98869232D01*
X163804595Y-98869750D01*
X163804438Y-98870268D01*
X163792178Y-98994750D01*
X163792178Y-99544750D01*
X163804438Y-99669232D01*
X163804595Y-99669750D01*
X163804438Y-99670268D01*
X163792178Y-99794750D01*
X163792178Y-100344750D01*
X163804438Y-100469232D01*
X163804595Y-100469750D01*
X163804438Y-100470268D01*
X163792178Y-100594750D01*
X163792178Y-101144750D01*
X163804438Y-101269232D01*
X163804595Y-101269750D01*
X163804438Y-101270268D01*
X163792178Y-101394750D01*
X163792178Y-101944750D01*
X163804438Y-102069232D01*
X163804595Y-102069750D01*
X163804438Y-102070268D01*
X163792178Y-102194750D01*
X163792178Y-102744750D01*
X163804438Y-102869232D01*
X163804595Y-102869750D01*
X163804438Y-102870268D01*
X163792178Y-102994750D01*
X163792178Y-103544750D01*
X163804438Y-103669232D01*
X163804595Y-103669750D01*
X163804438Y-103670268D01*
X163792178Y-103794750D01*
X163792178Y-104344750D01*
X163804438Y-104469232D01*
X163804595Y-104469750D01*
X163804438Y-104470268D01*
X163792178Y-104594750D01*
X163792178Y-105144750D01*
X163796212Y-105185712D01*
X163755250Y-105181678D01*
X163205250Y-105181678D01*
X163080768Y-105193938D01*
X163079587Y-105194296D01*
X162966000Y-105184750D01*
X162873917Y-105276833D01*
X162862380Y-105283000D01*
X162498120Y-105283000D01*
X162486583Y-105276833D01*
X162394500Y-105184750D01*
X162280913Y-105194296D01*
X162279732Y-105193938D01*
X162155250Y-105181678D01*
X161605250Y-105181678D01*
X161480768Y-105193938D01*
X161480250Y-105194095D01*
X161479732Y-105193938D01*
X161355250Y-105181678D01*
X160805250Y-105181678D01*
X160680768Y-105193938D01*
X160680250Y-105194095D01*
X160679732Y-105193938D01*
X160555250Y-105181678D01*
X160005250Y-105181678D01*
X159880768Y-105193938D01*
X159880250Y-105194095D01*
X159879732Y-105193938D01*
X159755250Y-105181678D01*
X159205250Y-105181678D01*
X159080768Y-105193938D01*
X159080250Y-105194095D01*
X159079732Y-105193938D01*
X158955250Y-105181678D01*
X158405250Y-105181678D01*
X158280768Y-105193938D01*
X158280250Y-105194095D01*
X158279732Y-105193938D01*
X158155250Y-105181678D01*
X157605250Y-105181678D01*
X157480768Y-105193938D01*
X157480250Y-105194095D01*
X157479732Y-105193938D01*
X157355250Y-105181678D01*
X156805250Y-105181678D01*
X156680768Y-105193938D01*
X156679587Y-105194296D01*
X156566000Y-105184750D01*
X156473917Y-105276833D01*
X156462380Y-105283000D01*
X156098120Y-105283000D01*
X156086583Y-105276833D01*
X155994500Y-105184750D01*
X155880913Y-105194296D01*
X155879732Y-105193938D01*
X155755250Y-105181678D01*
X155205250Y-105181678D01*
X155164288Y-105185712D01*
X155168322Y-105144750D01*
X155168322Y-104594750D01*
X155156062Y-104470268D01*
X155155905Y-104469750D01*
X155156062Y-104469232D01*
X155168322Y-104344750D01*
X155168322Y-103794750D01*
X155156062Y-103670268D01*
X155155905Y-103669750D01*
X155156062Y-103669232D01*
X155168322Y-103544750D01*
X155168322Y-102994750D01*
X155156062Y-102870268D01*
X155155905Y-102869750D01*
X155156062Y-102869232D01*
X155168322Y-102744750D01*
X155168322Y-102194750D01*
X155156062Y-102070268D01*
X155155704Y-102069087D01*
X155165250Y-101955500D01*
X155073167Y-101863417D01*
X155067000Y-101851880D01*
X155067000Y-101487620D01*
X155073167Y-101476083D01*
X155165250Y-101384000D01*
X155155704Y-101270413D01*
X155156062Y-101269232D01*
X155168322Y-101144750D01*
X155168322Y-100594750D01*
X155156062Y-100470268D01*
X155155905Y-100469750D01*
X155156062Y-100469232D01*
X155168322Y-100344750D01*
X155168322Y-99794750D01*
X155156062Y-99670268D01*
X155155905Y-99669750D01*
X155156062Y-99669232D01*
X155168322Y-99544750D01*
X155168322Y-98994750D01*
X155156062Y-98870268D01*
X155155905Y-98869750D01*
X155156062Y-98869232D01*
X155168322Y-98744750D01*
X155168322Y-98194750D01*
X155156062Y-98070268D01*
X155155905Y-98069750D01*
X155156062Y-98069232D01*
X155168322Y-97944750D01*
X155168322Y-97394750D01*
X155156062Y-97270268D01*
X155155905Y-97269750D01*
X155156062Y-97269232D01*
X155168322Y-97144750D01*
X155168322Y-96594750D01*
X155164288Y-96553788D01*
X155205250Y-96557822D01*
X155755250Y-96557822D01*
X155879732Y-96545562D01*
X155880250Y-96545405D01*
X155880768Y-96545562D01*
X156005250Y-96557822D01*
X156555250Y-96557822D01*
X156679732Y-96545562D01*
X156680250Y-96545405D01*
X156680768Y-96545562D01*
X156805250Y-96557822D01*
X157355250Y-96557822D01*
X157479732Y-96545562D01*
X157480913Y-96545204D01*
X157594500Y-96554750D01*
X157686583Y-96462667D01*
X157709744Y-96450287D01*
X157779549Y-96393000D01*
X157980951Y-96393000D01*
X158050756Y-96450287D01*
X158050756Y-96450287D01*
G37*
X158050756Y-96450287D02*
X158073917Y-96462667D01*
X158166000Y-96554750D01*
X158279587Y-96545204D01*
X158280768Y-96545562D01*
X158405250Y-96557822D01*
X158955250Y-96557822D01*
X159079732Y-96545562D01*
X159080250Y-96545405D01*
X159080768Y-96545562D01*
X159205250Y-96557822D01*
X159755250Y-96557822D01*
X159879732Y-96545562D01*
X159880250Y-96545405D01*
X159880768Y-96545562D01*
X160005250Y-96557822D01*
X160555250Y-96557822D01*
X160679732Y-96545562D01*
X160680250Y-96545405D01*
X160680768Y-96545562D01*
X160805250Y-96557822D01*
X161355250Y-96557822D01*
X161479732Y-96545562D01*
X161480250Y-96545405D01*
X161480768Y-96545562D01*
X161605250Y-96557822D01*
X162155250Y-96557822D01*
X162279732Y-96545562D01*
X162280250Y-96545405D01*
X162280768Y-96545562D01*
X162405250Y-96557822D01*
X162955250Y-96557822D01*
X163079732Y-96545562D01*
X163080250Y-96545405D01*
X163080768Y-96545562D01*
X163205250Y-96557822D01*
X163755250Y-96557822D01*
X163797802Y-96553631D01*
X163795250Y-96584000D01*
X163954000Y-96742750D01*
X163957000Y-96742750D01*
X163957000Y-96970451D01*
X163899713Y-97040256D01*
X163887333Y-97063417D01*
X163795250Y-97155500D01*
X163804796Y-97269087D01*
X163804438Y-97270268D01*
X163792178Y-97394750D01*
X163792178Y-97944750D01*
X163804438Y-98069232D01*
X163804595Y-98069750D01*
X163804438Y-98070268D01*
X163792178Y-98194750D01*
X163792178Y-98744750D01*
X163804438Y-98869232D01*
X163804595Y-98869750D01*
X163804438Y-98870268D01*
X163792178Y-98994750D01*
X163792178Y-99544750D01*
X163804438Y-99669232D01*
X163804595Y-99669750D01*
X163804438Y-99670268D01*
X163792178Y-99794750D01*
X163792178Y-100344750D01*
X163804438Y-100469232D01*
X163804595Y-100469750D01*
X163804438Y-100470268D01*
X163792178Y-100594750D01*
X163792178Y-101144750D01*
X163804438Y-101269232D01*
X163804595Y-101269750D01*
X163804438Y-101270268D01*
X163792178Y-101394750D01*
X163792178Y-101944750D01*
X163804438Y-102069232D01*
X163804595Y-102069750D01*
X163804438Y-102070268D01*
X163792178Y-102194750D01*
X163792178Y-102744750D01*
X163804438Y-102869232D01*
X163804595Y-102869750D01*
X163804438Y-102870268D01*
X163792178Y-102994750D01*
X163792178Y-103544750D01*
X163804438Y-103669232D01*
X163804595Y-103669750D01*
X163804438Y-103670268D01*
X163792178Y-103794750D01*
X163792178Y-104344750D01*
X163804438Y-104469232D01*
X163804595Y-104469750D01*
X163804438Y-104470268D01*
X163792178Y-104594750D01*
X163792178Y-105144750D01*
X163796212Y-105185712D01*
X163755250Y-105181678D01*
X163205250Y-105181678D01*
X163080768Y-105193938D01*
X163079587Y-105194296D01*
X162966000Y-105184750D01*
X162873917Y-105276833D01*
X162862380Y-105283000D01*
X162498120Y-105283000D01*
X162486583Y-105276833D01*
X162394500Y-105184750D01*
X162280913Y-105194296D01*
X162279732Y-105193938D01*
X162155250Y-105181678D01*
X161605250Y-105181678D01*
X161480768Y-105193938D01*
X161480250Y-105194095D01*
X161479732Y-105193938D01*
X161355250Y-105181678D01*
X160805250Y-105181678D01*
X160680768Y-105193938D01*
X160680250Y-105194095D01*
X160679732Y-105193938D01*
X160555250Y-105181678D01*
X160005250Y-105181678D01*
X159880768Y-105193938D01*
X159880250Y-105194095D01*
X159879732Y-105193938D01*
X159755250Y-105181678D01*
X159205250Y-105181678D01*
X159080768Y-105193938D01*
X159080250Y-105194095D01*
X159079732Y-105193938D01*
X158955250Y-105181678D01*
X158405250Y-105181678D01*
X158280768Y-105193938D01*
X158280250Y-105194095D01*
X158279732Y-105193938D01*
X158155250Y-105181678D01*
X157605250Y-105181678D01*
X157480768Y-105193938D01*
X157480250Y-105194095D01*
X157479732Y-105193938D01*
X157355250Y-105181678D01*
X156805250Y-105181678D01*
X156680768Y-105193938D01*
X156679587Y-105194296D01*
X156566000Y-105184750D01*
X156473917Y-105276833D01*
X156462380Y-105283000D01*
X156098120Y-105283000D01*
X156086583Y-105276833D01*
X155994500Y-105184750D01*
X155880913Y-105194296D01*
X155879732Y-105193938D01*
X155755250Y-105181678D01*
X155205250Y-105181678D01*
X155164288Y-105185712D01*
X155168322Y-105144750D01*
X155168322Y-104594750D01*
X155156062Y-104470268D01*
X155155905Y-104469750D01*
X155156062Y-104469232D01*
X155168322Y-104344750D01*
X155168322Y-103794750D01*
X155156062Y-103670268D01*
X155155905Y-103669750D01*
X155156062Y-103669232D01*
X155168322Y-103544750D01*
X155168322Y-102994750D01*
X155156062Y-102870268D01*
X155155905Y-102869750D01*
X155156062Y-102869232D01*
X155168322Y-102744750D01*
X155168322Y-102194750D01*
X155156062Y-102070268D01*
X155155704Y-102069087D01*
X155165250Y-101955500D01*
X155073167Y-101863417D01*
X155067000Y-101851880D01*
X155067000Y-101487620D01*
X155073167Y-101476083D01*
X155165250Y-101384000D01*
X155155704Y-101270413D01*
X155156062Y-101269232D01*
X155168322Y-101144750D01*
X155168322Y-100594750D01*
X155156062Y-100470268D01*
X155155905Y-100469750D01*
X155156062Y-100469232D01*
X155168322Y-100344750D01*
X155168322Y-99794750D01*
X155156062Y-99670268D01*
X155155905Y-99669750D01*
X155156062Y-99669232D01*
X155168322Y-99544750D01*
X155168322Y-98994750D01*
X155156062Y-98870268D01*
X155155905Y-98869750D01*
X155156062Y-98869232D01*
X155168322Y-98744750D01*
X155168322Y-98194750D01*
X155156062Y-98070268D01*
X155155905Y-98069750D01*
X155156062Y-98069232D01*
X155168322Y-97944750D01*
X155168322Y-97394750D01*
X155156062Y-97270268D01*
X155155905Y-97269750D01*
X155156062Y-97269232D01*
X155168322Y-97144750D01*
X155168322Y-96594750D01*
X155164288Y-96553788D01*
X155205250Y-96557822D01*
X155755250Y-96557822D01*
X155879732Y-96545562D01*
X155880250Y-96545405D01*
X155880768Y-96545562D01*
X156005250Y-96557822D01*
X156555250Y-96557822D01*
X156679732Y-96545562D01*
X156680250Y-96545405D01*
X156680768Y-96545562D01*
X156805250Y-96557822D01*
X157355250Y-96557822D01*
X157479732Y-96545562D01*
X157480913Y-96545204D01*
X157594500Y-96554750D01*
X157686583Y-96462667D01*
X157709744Y-96450287D01*
X157779549Y-96393000D01*
X157980951Y-96393000D01*
X158050756Y-96450287D01*
M02*
