G04 #@! TF.GenerationSoftware,KiCad,Pcbnew,(5.1.4)-1*
G04 #@! TF.CreationDate,2020-07-31T11:22:47-07:00*
G04 #@! TF.ProjectId,basic_macropad,62617369-635f-46d6-9163-726f7061642e,rev?*
G04 #@! TF.SameCoordinates,Original*
G04 #@! TF.FileFunction,Legend,Top*
G04 #@! TF.FilePolarity,Positive*
%FSLAX46Y46*%
G04 Gerber Fmt 4.6, Leading zero omitted, Abs format (unit mm)*
G04 Created by KiCad (PCBNEW (5.1.4)-1) date 2020-07-31 11:22:47*
%MOMM*%
%LPD*%
G04 APERTURE LIST*
%ADD10C,0.150000*%
%ADD11C,0.010000*%
%ADD12C,0.120000*%
%ADD13C,4.502000*%
%ADD14C,0.889400*%
%ADD15C,1.852000*%
%ADD16C,3.102000*%
%ADD17C,4.089800*%
%ADD18R,2.102000X2.102000*%
%ADD19C,2.102000*%
%ADD20C,3.302000*%
%ADD21C,0.752000*%
%ADD22O,1.102000X2.202000*%
%ADD23O,1.102000X1.702000*%
G04 APERTURE END LIST*
D10*
X202185666Y-166790714D02*
X202185666Y-167790714D01*
X202185666Y-166838333D02*
X202280904Y-166790714D01*
X202471380Y-166790714D01*
X202566619Y-166838333D01*
X202614238Y-166885952D01*
X202661857Y-166981190D01*
X202661857Y-167266904D01*
X202614238Y-167362142D01*
X202566619Y-167409761D01*
X202471380Y-167457380D01*
X202280904Y-167457380D01*
X202185666Y-167409761D01*
X203090428Y-167457380D02*
X203090428Y-166790714D01*
X203090428Y-166981190D02*
X203138047Y-166885952D01*
X203185666Y-166838333D01*
X203280904Y-166790714D01*
X203376142Y-166790714D01*
X203852333Y-167457380D02*
X203757095Y-167409761D01*
X203709476Y-167362142D01*
X203661857Y-167266904D01*
X203661857Y-166981190D01*
X203709476Y-166885952D01*
X203757095Y-166838333D01*
X203852333Y-166790714D01*
X203995190Y-166790714D01*
X204090428Y-166838333D01*
X204138047Y-166885952D01*
X204185666Y-166981190D01*
X204185666Y-167266904D01*
X204138047Y-167362142D01*
X204090428Y-167409761D01*
X203995190Y-167457380D01*
X203852333Y-167457380D01*
X204471380Y-166790714D02*
X204852333Y-166790714D01*
X204614238Y-166457380D02*
X204614238Y-167314523D01*
X204661857Y-167409761D01*
X204757095Y-167457380D01*
X204852333Y-167457380D01*
X205328523Y-167457380D02*
X205233285Y-167409761D01*
X205185666Y-167362142D01*
X205138047Y-167266904D01*
X205138047Y-166981190D01*
X205185666Y-166885952D01*
X205233285Y-166838333D01*
X205328523Y-166790714D01*
X205471380Y-166790714D01*
X205566619Y-166838333D01*
X205614238Y-166885952D01*
X205661857Y-166981190D01*
X205661857Y-167266904D01*
X205614238Y-167362142D01*
X205566619Y-167409761D01*
X205471380Y-167457380D01*
X205328523Y-167457380D01*
X205947571Y-166790714D02*
X206328523Y-166790714D01*
X206090428Y-166457380D02*
X206090428Y-167314523D01*
X206138047Y-167409761D01*
X206233285Y-167457380D01*
X206328523Y-167457380D01*
X206566619Y-166790714D02*
X206804714Y-167457380D01*
X207042809Y-166790714D02*
X206804714Y-167457380D01*
X206709476Y-167695476D01*
X206661857Y-167743095D01*
X206566619Y-167790714D01*
X207423761Y-166790714D02*
X207423761Y-167790714D01*
X207423761Y-166838333D02*
X207519000Y-166790714D01*
X207709476Y-166790714D01*
X207804714Y-166838333D01*
X207852333Y-166885952D01*
X207899952Y-166981190D01*
X207899952Y-167266904D01*
X207852333Y-167362142D01*
X207804714Y-167409761D01*
X207709476Y-167457380D01*
X207519000Y-167457380D01*
X207423761Y-167409761D01*
X208709476Y-167409761D02*
X208614238Y-167457380D01*
X208423761Y-167457380D01*
X208328523Y-167409761D01*
X208280904Y-167314523D01*
X208280904Y-166933571D01*
X208328523Y-166838333D01*
X208423761Y-166790714D01*
X208614238Y-166790714D01*
X208709476Y-166838333D01*
X208757095Y-166933571D01*
X208757095Y-167028809D01*
X208280904Y-167124047D01*
X210376142Y-167457380D02*
X210376142Y-166457380D01*
X210376142Y-167409761D02*
X210280904Y-167457380D01*
X210090428Y-167457380D01*
X209995190Y-167409761D01*
X209947571Y-167362142D01*
X209899952Y-167266904D01*
X209899952Y-166981190D01*
X209947571Y-166885952D01*
X209995190Y-166838333D01*
X210090428Y-166790714D01*
X210280904Y-166790714D01*
X210376142Y-166838333D01*
X211233285Y-167409761D02*
X211138047Y-167457380D01*
X210947571Y-167457380D01*
X210852333Y-167409761D01*
X210804714Y-167314523D01*
X210804714Y-166933571D01*
X210852333Y-166838333D01*
X210947571Y-166790714D01*
X211138047Y-166790714D01*
X211233285Y-166838333D01*
X211280904Y-166933571D01*
X211280904Y-167028809D01*
X210804714Y-167124047D01*
X211661857Y-167409761D02*
X211757095Y-167457380D01*
X211947571Y-167457380D01*
X212042809Y-167409761D01*
X212090428Y-167314523D01*
X212090428Y-167266904D01*
X212042809Y-167171666D01*
X211947571Y-167124047D01*
X211804714Y-167124047D01*
X211709476Y-167076428D01*
X211661857Y-166981190D01*
X211661857Y-166933571D01*
X211709476Y-166838333D01*
X211804714Y-166790714D01*
X211947571Y-166790714D01*
X212042809Y-166838333D01*
X212519000Y-167457380D02*
X212519000Y-166790714D01*
X212519000Y-166457380D02*
X212471380Y-166505000D01*
X212519000Y-166552619D01*
X212566619Y-166505000D01*
X212519000Y-166457380D01*
X212519000Y-166552619D01*
X213423761Y-166790714D02*
X213423761Y-167600238D01*
X213376142Y-167695476D01*
X213328523Y-167743095D01*
X213233285Y-167790714D01*
X213090428Y-167790714D01*
X212995190Y-167743095D01*
X213423761Y-167409761D02*
X213328523Y-167457380D01*
X213138047Y-167457380D01*
X213042809Y-167409761D01*
X212995190Y-167362142D01*
X212947571Y-167266904D01*
X212947571Y-166981190D01*
X212995190Y-166885952D01*
X213042809Y-166838333D01*
X213138047Y-166790714D01*
X213328523Y-166790714D01*
X213423761Y-166838333D01*
X213899952Y-166790714D02*
X213899952Y-167457380D01*
X213899952Y-166885952D02*
X213947571Y-166838333D01*
X214042809Y-166790714D01*
X214185666Y-166790714D01*
X214280904Y-166838333D01*
X214328523Y-166933571D01*
X214328523Y-167457380D01*
X215185666Y-167409761D02*
X215090428Y-167457380D01*
X214899952Y-167457380D01*
X214804714Y-167409761D01*
X214757095Y-167314523D01*
X214757095Y-166933571D01*
X214804714Y-166838333D01*
X214899952Y-166790714D01*
X215090428Y-166790714D01*
X215185666Y-166838333D01*
X215233285Y-166933571D01*
X215233285Y-167028809D01*
X214757095Y-167124047D01*
X216090428Y-167457380D02*
X216090428Y-166457380D01*
X216090428Y-167409761D02*
X215995190Y-167457380D01*
X215804714Y-167457380D01*
X215709476Y-167409761D01*
X215661857Y-167362142D01*
X215614238Y-167266904D01*
X215614238Y-166981190D01*
X215661857Y-166885952D01*
X215709476Y-166838333D01*
X215804714Y-166790714D01*
X215995190Y-166790714D01*
X216090428Y-166838333D01*
X217328523Y-167457380D02*
X217328523Y-166457380D01*
X217328523Y-166838333D02*
X217423761Y-166790714D01*
X217614238Y-166790714D01*
X217709476Y-166838333D01*
X217757095Y-166885952D01*
X217804714Y-166981190D01*
X217804714Y-167266904D01*
X217757095Y-167362142D01*
X217709476Y-167409761D01*
X217614238Y-167457380D01*
X217423761Y-167457380D01*
X217328523Y-167409761D01*
X218138047Y-166790714D02*
X218376142Y-167457380D01*
X218614238Y-166790714D02*
X218376142Y-167457380D01*
X218280904Y-167695476D01*
X218233285Y-167743095D01*
X218138047Y-167790714D01*
X219614238Y-166790714D02*
X219995190Y-166790714D01*
X219757095Y-166457380D02*
X219757095Y-167314523D01*
X219804714Y-167409761D01*
X219899952Y-167457380D01*
X219995190Y-167457380D01*
X220328523Y-167457380D02*
X220328523Y-166790714D01*
X220328523Y-166981190D02*
X220376142Y-166885952D01*
X220423761Y-166838333D01*
X220519000Y-166790714D01*
X220614238Y-166790714D01*
X220947571Y-167457380D02*
X220947571Y-166790714D01*
X220947571Y-166457380D02*
X220899952Y-166505000D01*
X220947571Y-166552619D01*
X220995190Y-166505000D01*
X220947571Y-166457380D01*
X220947571Y-166552619D01*
X221376142Y-167409761D02*
X221471380Y-167457380D01*
X221661857Y-167457380D01*
X221757095Y-167409761D01*
X221804714Y-167314523D01*
X221804714Y-167266904D01*
X221757095Y-167171666D01*
X221661857Y-167124047D01*
X221519000Y-167124047D01*
X221423761Y-167076428D01*
X221376142Y-166981190D01*
X221376142Y-166933571D01*
X221423761Y-166838333D01*
X221519000Y-166790714D01*
X221661857Y-166790714D01*
X221757095Y-166838333D01*
X222090428Y-166790714D02*
X222471380Y-166790714D01*
X222233285Y-166457380D02*
X222233285Y-167314523D01*
X222280904Y-167409761D01*
X222376142Y-167457380D01*
X222471380Y-167457380D01*
X223233285Y-167457380D02*
X223233285Y-166933571D01*
X223185666Y-166838333D01*
X223090428Y-166790714D01*
X222899952Y-166790714D01*
X222804714Y-166838333D01*
X223233285Y-167409761D02*
X223138047Y-167457380D01*
X222899952Y-167457380D01*
X222804714Y-167409761D01*
X222757095Y-167314523D01*
X222757095Y-167219285D01*
X222804714Y-167124047D01*
X222899952Y-167076428D01*
X223138047Y-167076428D01*
X223233285Y-167028809D01*
X223709476Y-166790714D02*
X223709476Y-167457380D01*
X223709476Y-166885952D02*
X223757095Y-166838333D01*
X223852333Y-166790714D01*
X223995190Y-166790714D01*
X224090428Y-166838333D01*
X224138047Y-166933571D01*
X224138047Y-167457380D01*
X225804714Y-167409761D02*
X225709476Y-167457380D01*
X225519000Y-167457380D01*
X225423761Y-167409761D01*
X225376142Y-167362142D01*
X225328523Y-167266904D01*
X225328523Y-166981190D01*
X225376142Y-166885952D01*
X225423761Y-166838333D01*
X225519000Y-166790714D01*
X225709476Y-166790714D01*
X225804714Y-166838333D01*
X226376142Y-167457380D02*
X226280904Y-167409761D01*
X226233285Y-167362142D01*
X226185666Y-167266904D01*
X226185666Y-166981190D01*
X226233285Y-166885952D01*
X226280904Y-166838333D01*
X226376142Y-166790714D01*
X226519000Y-166790714D01*
X226614238Y-166838333D01*
X226661857Y-166885952D01*
X226709476Y-166981190D01*
X226709476Y-167266904D01*
X226661857Y-167362142D01*
X226614238Y-167409761D01*
X226519000Y-167457380D01*
X226376142Y-167457380D01*
X227280904Y-167457380D02*
X227185666Y-167409761D01*
X227138047Y-167314523D01*
X227138047Y-166457380D01*
X227661857Y-167457380D02*
X227661857Y-166457380D01*
X227661857Y-166838333D02*
X227757095Y-166790714D01*
X227947571Y-166790714D01*
X228042809Y-166838333D01*
X228090428Y-166885952D01*
X228138047Y-166981190D01*
X228138047Y-167266904D01*
X228090428Y-167362142D01*
X228042809Y-167409761D01*
X227947571Y-167457380D01*
X227757095Y-167457380D01*
X227661857Y-167409761D01*
X228471380Y-166790714D02*
X228709476Y-167457380D01*
X228947571Y-166790714D02*
X228709476Y-167457380D01*
X228614238Y-167695476D01*
X228566619Y-167743095D01*
X228471380Y-167790714D01*
X156758047Y-82716714D02*
X157139000Y-82716714D01*
X156900904Y-82383380D02*
X156900904Y-83240523D01*
X156948523Y-83335761D01*
X157043761Y-83383380D01*
X157139000Y-83383380D01*
X157472333Y-83383380D02*
X157472333Y-82716714D01*
X157472333Y-82907190D02*
X157519952Y-82811952D01*
X157567571Y-82764333D01*
X157662809Y-82716714D01*
X157758047Y-82716714D01*
X158519952Y-83335761D02*
X158424714Y-83383380D01*
X158234238Y-83383380D01*
X158139000Y-83335761D01*
X158091380Y-83288142D01*
X158043761Y-83192904D01*
X158043761Y-82907190D01*
X158091380Y-82811952D01*
X158139000Y-82764333D01*
X158234238Y-82716714D01*
X158424714Y-82716714D01*
X158519952Y-82764333D01*
X159091380Y-83383380D02*
X158996142Y-83335761D01*
X158948523Y-83288142D01*
X158900904Y-83192904D01*
X158900904Y-82907190D01*
X158948523Y-82811952D01*
X158996142Y-82764333D01*
X159091380Y-82716714D01*
X159234238Y-82716714D01*
X159329476Y-82764333D01*
X159377095Y-82811952D01*
X159424714Y-82907190D01*
X159424714Y-83192904D01*
X159377095Y-83288142D01*
X159329476Y-83335761D01*
X159234238Y-83383380D01*
X159091380Y-83383380D01*
X159853285Y-83288142D02*
X159900904Y-83335761D01*
X159853285Y-83383380D01*
X159805666Y-83335761D01*
X159853285Y-83288142D01*
X159853285Y-83383380D01*
X160758047Y-83383380D02*
X160758047Y-82383380D01*
X160758047Y-83335761D02*
X160662809Y-83383380D01*
X160472333Y-83383380D01*
X160377095Y-83335761D01*
X160329476Y-83288142D01*
X160281857Y-83192904D01*
X160281857Y-82907190D01*
X160329476Y-82811952D01*
X160377095Y-82764333D01*
X160472333Y-82716714D01*
X160662809Y-82716714D01*
X160758047Y-82764333D01*
X161615190Y-83335761D02*
X161519952Y-83383380D01*
X161329476Y-83383380D01*
X161234238Y-83335761D01*
X161186619Y-83240523D01*
X161186619Y-82859571D01*
X161234238Y-82764333D01*
X161329476Y-82716714D01*
X161519952Y-82716714D01*
X161615190Y-82764333D01*
X161662809Y-82859571D01*
X161662809Y-82954809D01*
X161186619Y-83050047D01*
X161996142Y-82716714D02*
X162234238Y-83383380D01*
X162472333Y-82716714D01*
D11*
G36*
X163235000Y-94585000D02*
G01*
X163535000Y-94585000D01*
X163535000Y-94885000D01*
X163235000Y-94885000D01*
X163235000Y-94585000D01*
X163235000Y-94585000D01*
G37*
X163235000Y-94585000D02*
X163535000Y-94585000D01*
X163535000Y-94885000D01*
X163235000Y-94885000D01*
X163235000Y-94585000D01*
G36*
X162935000Y-94585000D02*
G01*
X163235000Y-94585000D01*
X163235000Y-94885000D01*
X162935000Y-94885000D01*
X162935000Y-94585000D01*
X162935000Y-94585000D01*
G37*
X162935000Y-94585000D02*
X163235000Y-94585000D01*
X163235000Y-94885000D01*
X162935000Y-94885000D01*
X162935000Y-94585000D01*
G36*
X162635000Y-94585000D02*
G01*
X162935000Y-94585000D01*
X162935000Y-94885000D01*
X162635000Y-94885000D01*
X162635000Y-94585000D01*
X162635000Y-94585000D01*
G37*
X162635000Y-94585000D02*
X162935000Y-94585000D01*
X162935000Y-94885000D01*
X162635000Y-94885000D01*
X162635000Y-94585000D01*
G36*
X162335000Y-94585000D02*
G01*
X162635000Y-94585000D01*
X162635000Y-94885000D01*
X162335000Y-94885000D01*
X162335000Y-94585000D01*
X162335000Y-94585000D01*
G37*
X162335000Y-94585000D02*
X162635000Y-94585000D01*
X162635000Y-94885000D01*
X162335000Y-94885000D01*
X162335000Y-94585000D01*
G36*
X162035000Y-94585000D02*
G01*
X162335000Y-94585000D01*
X162335000Y-94885000D01*
X162035000Y-94885000D01*
X162035000Y-94585000D01*
X162035000Y-94585000D01*
G37*
X162035000Y-94585000D02*
X162335000Y-94585000D01*
X162335000Y-94885000D01*
X162035000Y-94885000D01*
X162035000Y-94585000D01*
G36*
X161735000Y-94585000D02*
G01*
X162035000Y-94585000D01*
X162035000Y-94885000D01*
X161735000Y-94885000D01*
X161735000Y-94585000D01*
X161735000Y-94585000D01*
G37*
X161735000Y-94585000D02*
X162035000Y-94585000D01*
X162035000Y-94885000D01*
X161735000Y-94885000D01*
X161735000Y-94585000D01*
G36*
X161435000Y-94585000D02*
G01*
X161735000Y-94585000D01*
X161735000Y-94885000D01*
X161435000Y-94885000D01*
X161435000Y-94585000D01*
X161435000Y-94585000D01*
G37*
X161435000Y-94585000D02*
X161735000Y-94585000D01*
X161735000Y-94885000D01*
X161435000Y-94885000D01*
X161435000Y-94585000D01*
G36*
X161135000Y-94585000D02*
G01*
X161435000Y-94585000D01*
X161435000Y-94885000D01*
X161135000Y-94885000D01*
X161135000Y-94585000D01*
X161135000Y-94585000D01*
G37*
X161135000Y-94585000D02*
X161435000Y-94585000D01*
X161435000Y-94885000D01*
X161135000Y-94885000D01*
X161135000Y-94585000D01*
G36*
X160835000Y-94585000D02*
G01*
X161135000Y-94585000D01*
X161135000Y-94885000D01*
X160835000Y-94885000D01*
X160835000Y-94585000D01*
X160835000Y-94585000D01*
G37*
X160835000Y-94585000D02*
X161135000Y-94585000D01*
X161135000Y-94885000D01*
X160835000Y-94885000D01*
X160835000Y-94585000D01*
G36*
X160535000Y-94585000D02*
G01*
X160835000Y-94585000D01*
X160835000Y-94885000D01*
X160535000Y-94885000D01*
X160535000Y-94585000D01*
X160535000Y-94585000D01*
G37*
X160535000Y-94585000D02*
X160835000Y-94585000D01*
X160835000Y-94885000D01*
X160535000Y-94885000D01*
X160535000Y-94585000D01*
G36*
X160235000Y-94585000D02*
G01*
X160535000Y-94585000D01*
X160535000Y-94885000D01*
X160235000Y-94885000D01*
X160235000Y-94585000D01*
X160235000Y-94585000D01*
G37*
X160235000Y-94585000D02*
X160535000Y-94585000D01*
X160535000Y-94885000D01*
X160235000Y-94885000D01*
X160235000Y-94585000D01*
G36*
X159935000Y-94585000D02*
G01*
X160235000Y-94585000D01*
X160235000Y-94885000D01*
X159935000Y-94885000D01*
X159935000Y-94585000D01*
X159935000Y-94585000D01*
G37*
X159935000Y-94585000D02*
X160235000Y-94585000D01*
X160235000Y-94885000D01*
X159935000Y-94885000D01*
X159935000Y-94585000D01*
G36*
X159635000Y-94585000D02*
G01*
X159935000Y-94585000D01*
X159935000Y-94885000D01*
X159635000Y-94885000D01*
X159635000Y-94585000D01*
X159635000Y-94585000D01*
G37*
X159635000Y-94585000D02*
X159935000Y-94585000D01*
X159935000Y-94885000D01*
X159635000Y-94885000D01*
X159635000Y-94585000D01*
G36*
X159335000Y-94585000D02*
G01*
X159635000Y-94585000D01*
X159635000Y-94885000D01*
X159335000Y-94885000D01*
X159335000Y-94585000D01*
X159335000Y-94585000D01*
G37*
X159335000Y-94585000D02*
X159635000Y-94585000D01*
X159635000Y-94885000D01*
X159335000Y-94885000D01*
X159335000Y-94585000D01*
G36*
X159035000Y-94585000D02*
G01*
X159335000Y-94585000D01*
X159335000Y-94885000D01*
X159035000Y-94885000D01*
X159035000Y-94585000D01*
X159035000Y-94585000D01*
G37*
X159035000Y-94585000D02*
X159335000Y-94585000D01*
X159335000Y-94885000D01*
X159035000Y-94885000D01*
X159035000Y-94585000D01*
G36*
X158735000Y-94585000D02*
G01*
X159035000Y-94585000D01*
X159035000Y-94885000D01*
X158735000Y-94885000D01*
X158735000Y-94585000D01*
X158735000Y-94585000D01*
G37*
X158735000Y-94585000D02*
X159035000Y-94585000D01*
X159035000Y-94885000D01*
X158735000Y-94885000D01*
X158735000Y-94585000D01*
G36*
X158435000Y-94585000D02*
G01*
X158735000Y-94585000D01*
X158735000Y-94885000D01*
X158435000Y-94885000D01*
X158435000Y-94585000D01*
X158435000Y-94585000D01*
G37*
X158435000Y-94585000D02*
X158735000Y-94585000D01*
X158735000Y-94885000D01*
X158435000Y-94885000D01*
X158435000Y-94585000D01*
G36*
X158135000Y-94585000D02*
G01*
X158435000Y-94585000D01*
X158435000Y-94885000D01*
X158135000Y-94885000D01*
X158135000Y-94585000D01*
X158135000Y-94585000D01*
G37*
X158135000Y-94585000D02*
X158435000Y-94585000D01*
X158435000Y-94885000D01*
X158135000Y-94885000D01*
X158135000Y-94585000D01*
G36*
X157835000Y-94585000D02*
G01*
X158135000Y-94585000D01*
X158135000Y-94885000D01*
X157835000Y-94885000D01*
X157835000Y-94585000D01*
X157835000Y-94585000D01*
G37*
X157835000Y-94585000D02*
X158135000Y-94585000D01*
X158135000Y-94885000D01*
X157835000Y-94885000D01*
X157835000Y-94585000D01*
G36*
X157535000Y-94585000D02*
G01*
X157835000Y-94585000D01*
X157835000Y-94885000D01*
X157535000Y-94885000D01*
X157535000Y-94585000D01*
X157535000Y-94585000D01*
G37*
X157535000Y-94585000D02*
X157835000Y-94585000D01*
X157835000Y-94885000D01*
X157535000Y-94885000D01*
X157535000Y-94585000D01*
G36*
X157235000Y-94585000D02*
G01*
X157535000Y-94585000D01*
X157535000Y-94885000D01*
X157235000Y-94885000D01*
X157235000Y-94585000D01*
X157235000Y-94585000D01*
G37*
X157235000Y-94585000D02*
X157535000Y-94585000D01*
X157535000Y-94885000D01*
X157235000Y-94885000D01*
X157235000Y-94585000D01*
G36*
X156935000Y-94585000D02*
G01*
X157235000Y-94585000D01*
X157235000Y-94885000D01*
X156935000Y-94885000D01*
X156935000Y-94585000D01*
X156935000Y-94585000D01*
G37*
X156935000Y-94585000D02*
X157235000Y-94585000D01*
X157235000Y-94885000D01*
X156935000Y-94885000D01*
X156935000Y-94585000D01*
G36*
X156635000Y-94585000D02*
G01*
X156935000Y-94585000D01*
X156935000Y-94885000D01*
X156635000Y-94885000D01*
X156635000Y-94585000D01*
X156635000Y-94585000D01*
G37*
X156635000Y-94585000D02*
X156935000Y-94585000D01*
X156935000Y-94885000D01*
X156635000Y-94885000D01*
X156635000Y-94585000D01*
G36*
X156335000Y-94585000D02*
G01*
X156635000Y-94585000D01*
X156635000Y-94885000D01*
X156335000Y-94885000D01*
X156335000Y-94585000D01*
X156335000Y-94585000D01*
G37*
X156335000Y-94585000D02*
X156635000Y-94585000D01*
X156635000Y-94885000D01*
X156335000Y-94885000D01*
X156335000Y-94585000D01*
G36*
X156035000Y-94585000D02*
G01*
X156335000Y-94585000D01*
X156335000Y-94885000D01*
X156035000Y-94885000D01*
X156035000Y-94585000D01*
X156035000Y-94585000D01*
G37*
X156035000Y-94585000D02*
X156335000Y-94585000D01*
X156335000Y-94885000D01*
X156035000Y-94885000D01*
X156035000Y-94585000D01*
G36*
X155735000Y-94585000D02*
G01*
X156035000Y-94585000D01*
X156035000Y-94885000D01*
X155735000Y-94885000D01*
X155735000Y-94585000D01*
X155735000Y-94585000D01*
G37*
X155735000Y-94585000D02*
X156035000Y-94585000D01*
X156035000Y-94885000D01*
X155735000Y-94885000D01*
X155735000Y-94585000D01*
G36*
X164135000Y-94285000D02*
G01*
X164435000Y-94285000D01*
X164435000Y-94585000D01*
X164135000Y-94585000D01*
X164135000Y-94285000D01*
X164135000Y-94285000D01*
G37*
X164135000Y-94285000D02*
X164435000Y-94285000D01*
X164435000Y-94585000D01*
X164135000Y-94585000D01*
X164135000Y-94285000D01*
G36*
X163835000Y-94285000D02*
G01*
X164135000Y-94285000D01*
X164135000Y-94585000D01*
X163835000Y-94585000D01*
X163835000Y-94285000D01*
X163835000Y-94285000D01*
G37*
X163835000Y-94285000D02*
X164135000Y-94285000D01*
X164135000Y-94585000D01*
X163835000Y-94585000D01*
X163835000Y-94285000D01*
G36*
X163535000Y-94285000D02*
G01*
X163835000Y-94285000D01*
X163835000Y-94585000D01*
X163535000Y-94585000D01*
X163535000Y-94285000D01*
X163535000Y-94285000D01*
G37*
X163535000Y-94285000D02*
X163835000Y-94285000D01*
X163835000Y-94585000D01*
X163535000Y-94585000D01*
X163535000Y-94285000D01*
G36*
X163235000Y-94285000D02*
G01*
X163535000Y-94285000D01*
X163535000Y-94585000D01*
X163235000Y-94585000D01*
X163235000Y-94285000D01*
X163235000Y-94285000D01*
G37*
X163235000Y-94285000D02*
X163535000Y-94285000D01*
X163535000Y-94585000D01*
X163235000Y-94585000D01*
X163235000Y-94285000D01*
G36*
X162935000Y-94285000D02*
G01*
X163235000Y-94285000D01*
X163235000Y-94585000D01*
X162935000Y-94585000D01*
X162935000Y-94285000D01*
X162935000Y-94285000D01*
G37*
X162935000Y-94285000D02*
X163235000Y-94285000D01*
X163235000Y-94585000D01*
X162935000Y-94585000D01*
X162935000Y-94285000D01*
G36*
X162635000Y-94285000D02*
G01*
X162935000Y-94285000D01*
X162935000Y-94585000D01*
X162635000Y-94585000D01*
X162635000Y-94285000D01*
X162635000Y-94285000D01*
G37*
X162635000Y-94285000D02*
X162935000Y-94285000D01*
X162935000Y-94585000D01*
X162635000Y-94585000D01*
X162635000Y-94285000D01*
G36*
X162335000Y-94285000D02*
G01*
X162635000Y-94285000D01*
X162635000Y-94585000D01*
X162335000Y-94585000D01*
X162335000Y-94285000D01*
X162335000Y-94285000D01*
G37*
X162335000Y-94285000D02*
X162635000Y-94285000D01*
X162635000Y-94585000D01*
X162335000Y-94585000D01*
X162335000Y-94285000D01*
G36*
X162035000Y-94285000D02*
G01*
X162335000Y-94285000D01*
X162335000Y-94585000D01*
X162035000Y-94585000D01*
X162035000Y-94285000D01*
X162035000Y-94285000D01*
G37*
X162035000Y-94285000D02*
X162335000Y-94285000D01*
X162335000Y-94585000D01*
X162035000Y-94585000D01*
X162035000Y-94285000D01*
G36*
X161735000Y-94285000D02*
G01*
X162035000Y-94285000D01*
X162035000Y-94585000D01*
X161735000Y-94585000D01*
X161735000Y-94285000D01*
X161735000Y-94285000D01*
G37*
X161735000Y-94285000D02*
X162035000Y-94285000D01*
X162035000Y-94585000D01*
X161735000Y-94585000D01*
X161735000Y-94285000D01*
G36*
X161435000Y-94285000D02*
G01*
X161735000Y-94285000D01*
X161735000Y-94585000D01*
X161435000Y-94585000D01*
X161435000Y-94285000D01*
X161435000Y-94285000D01*
G37*
X161435000Y-94285000D02*
X161735000Y-94285000D01*
X161735000Y-94585000D01*
X161435000Y-94585000D01*
X161435000Y-94285000D01*
G36*
X161135000Y-94285000D02*
G01*
X161435000Y-94285000D01*
X161435000Y-94585000D01*
X161135000Y-94585000D01*
X161135000Y-94285000D01*
X161135000Y-94285000D01*
G37*
X161135000Y-94285000D02*
X161435000Y-94285000D01*
X161435000Y-94585000D01*
X161135000Y-94585000D01*
X161135000Y-94285000D01*
G36*
X160835000Y-94285000D02*
G01*
X161135000Y-94285000D01*
X161135000Y-94585000D01*
X160835000Y-94585000D01*
X160835000Y-94285000D01*
X160835000Y-94285000D01*
G37*
X160835000Y-94285000D02*
X161135000Y-94285000D01*
X161135000Y-94585000D01*
X160835000Y-94585000D01*
X160835000Y-94285000D01*
G36*
X160535000Y-94285000D02*
G01*
X160835000Y-94285000D01*
X160835000Y-94585000D01*
X160535000Y-94585000D01*
X160535000Y-94285000D01*
X160535000Y-94285000D01*
G37*
X160535000Y-94285000D02*
X160835000Y-94285000D01*
X160835000Y-94585000D01*
X160535000Y-94585000D01*
X160535000Y-94285000D01*
G36*
X160235000Y-94285000D02*
G01*
X160535000Y-94285000D01*
X160535000Y-94585000D01*
X160235000Y-94585000D01*
X160235000Y-94285000D01*
X160235000Y-94285000D01*
G37*
X160235000Y-94285000D02*
X160535000Y-94285000D01*
X160535000Y-94585000D01*
X160235000Y-94585000D01*
X160235000Y-94285000D01*
G36*
X159935000Y-94285000D02*
G01*
X160235000Y-94285000D01*
X160235000Y-94585000D01*
X159935000Y-94585000D01*
X159935000Y-94285000D01*
X159935000Y-94285000D01*
G37*
X159935000Y-94285000D02*
X160235000Y-94285000D01*
X160235000Y-94585000D01*
X159935000Y-94585000D01*
X159935000Y-94285000D01*
G36*
X159635000Y-94285000D02*
G01*
X159935000Y-94285000D01*
X159935000Y-94585000D01*
X159635000Y-94585000D01*
X159635000Y-94285000D01*
X159635000Y-94285000D01*
G37*
X159635000Y-94285000D02*
X159935000Y-94285000D01*
X159935000Y-94585000D01*
X159635000Y-94585000D01*
X159635000Y-94285000D01*
G36*
X159335000Y-94285000D02*
G01*
X159635000Y-94285000D01*
X159635000Y-94585000D01*
X159335000Y-94585000D01*
X159335000Y-94285000D01*
X159335000Y-94285000D01*
G37*
X159335000Y-94285000D02*
X159635000Y-94285000D01*
X159635000Y-94585000D01*
X159335000Y-94585000D01*
X159335000Y-94285000D01*
G36*
X159035000Y-94285000D02*
G01*
X159335000Y-94285000D01*
X159335000Y-94585000D01*
X159035000Y-94585000D01*
X159035000Y-94285000D01*
X159035000Y-94285000D01*
G37*
X159035000Y-94285000D02*
X159335000Y-94285000D01*
X159335000Y-94585000D01*
X159035000Y-94585000D01*
X159035000Y-94285000D01*
G36*
X158735000Y-94285000D02*
G01*
X159035000Y-94285000D01*
X159035000Y-94585000D01*
X158735000Y-94585000D01*
X158735000Y-94285000D01*
X158735000Y-94285000D01*
G37*
X158735000Y-94285000D02*
X159035000Y-94285000D01*
X159035000Y-94585000D01*
X158735000Y-94585000D01*
X158735000Y-94285000D01*
G36*
X158435000Y-94285000D02*
G01*
X158735000Y-94285000D01*
X158735000Y-94585000D01*
X158435000Y-94585000D01*
X158435000Y-94285000D01*
X158435000Y-94285000D01*
G37*
X158435000Y-94285000D02*
X158735000Y-94285000D01*
X158735000Y-94585000D01*
X158435000Y-94585000D01*
X158435000Y-94285000D01*
G36*
X158135000Y-94285000D02*
G01*
X158435000Y-94285000D01*
X158435000Y-94585000D01*
X158135000Y-94585000D01*
X158135000Y-94285000D01*
X158135000Y-94285000D01*
G37*
X158135000Y-94285000D02*
X158435000Y-94285000D01*
X158435000Y-94585000D01*
X158135000Y-94585000D01*
X158135000Y-94285000D01*
G36*
X157835000Y-94285000D02*
G01*
X158135000Y-94285000D01*
X158135000Y-94585000D01*
X157835000Y-94585000D01*
X157835000Y-94285000D01*
X157835000Y-94285000D01*
G37*
X157835000Y-94285000D02*
X158135000Y-94285000D01*
X158135000Y-94585000D01*
X157835000Y-94585000D01*
X157835000Y-94285000D01*
G36*
X157535000Y-94285000D02*
G01*
X157835000Y-94285000D01*
X157835000Y-94585000D01*
X157535000Y-94585000D01*
X157535000Y-94285000D01*
X157535000Y-94285000D01*
G37*
X157535000Y-94285000D02*
X157835000Y-94285000D01*
X157835000Y-94585000D01*
X157535000Y-94585000D01*
X157535000Y-94285000D01*
G36*
X157235000Y-94285000D02*
G01*
X157535000Y-94285000D01*
X157535000Y-94585000D01*
X157235000Y-94585000D01*
X157235000Y-94285000D01*
X157235000Y-94285000D01*
G37*
X157235000Y-94285000D02*
X157535000Y-94285000D01*
X157535000Y-94585000D01*
X157235000Y-94585000D01*
X157235000Y-94285000D01*
G36*
X156935000Y-94285000D02*
G01*
X157235000Y-94285000D01*
X157235000Y-94585000D01*
X156935000Y-94585000D01*
X156935000Y-94285000D01*
X156935000Y-94285000D01*
G37*
X156935000Y-94285000D02*
X157235000Y-94285000D01*
X157235000Y-94585000D01*
X156935000Y-94585000D01*
X156935000Y-94285000D01*
G36*
X156635000Y-94285000D02*
G01*
X156935000Y-94285000D01*
X156935000Y-94585000D01*
X156635000Y-94585000D01*
X156635000Y-94285000D01*
X156635000Y-94285000D01*
G37*
X156635000Y-94285000D02*
X156935000Y-94285000D01*
X156935000Y-94585000D01*
X156635000Y-94585000D01*
X156635000Y-94285000D01*
G36*
X156335000Y-94285000D02*
G01*
X156635000Y-94285000D01*
X156635000Y-94585000D01*
X156335000Y-94585000D01*
X156335000Y-94285000D01*
X156335000Y-94285000D01*
G37*
X156335000Y-94285000D02*
X156635000Y-94285000D01*
X156635000Y-94585000D01*
X156335000Y-94585000D01*
X156335000Y-94285000D01*
G36*
X156035000Y-94285000D02*
G01*
X156335000Y-94285000D01*
X156335000Y-94585000D01*
X156035000Y-94585000D01*
X156035000Y-94285000D01*
X156035000Y-94285000D01*
G37*
X156035000Y-94285000D02*
X156335000Y-94285000D01*
X156335000Y-94585000D01*
X156035000Y-94585000D01*
X156035000Y-94285000D01*
G36*
X155735000Y-94285000D02*
G01*
X156035000Y-94285000D01*
X156035000Y-94585000D01*
X155735000Y-94585000D01*
X155735000Y-94285000D01*
X155735000Y-94285000D01*
G37*
X155735000Y-94285000D02*
X156035000Y-94285000D01*
X156035000Y-94585000D01*
X155735000Y-94585000D01*
X155735000Y-94285000D01*
G36*
X155435000Y-94285000D02*
G01*
X155735000Y-94285000D01*
X155735000Y-94585000D01*
X155435000Y-94585000D01*
X155435000Y-94285000D01*
X155435000Y-94285000D01*
G37*
X155435000Y-94285000D02*
X155735000Y-94285000D01*
X155735000Y-94585000D01*
X155435000Y-94585000D01*
X155435000Y-94285000D01*
G36*
X155135000Y-94285000D02*
G01*
X155435000Y-94285000D01*
X155435000Y-94585000D01*
X155135000Y-94585000D01*
X155135000Y-94285000D01*
X155135000Y-94285000D01*
G37*
X155135000Y-94285000D02*
X155435000Y-94285000D01*
X155435000Y-94585000D01*
X155135000Y-94585000D01*
X155135000Y-94285000D01*
G36*
X154835000Y-94285000D02*
G01*
X155135000Y-94285000D01*
X155135000Y-94585000D01*
X154835000Y-94585000D01*
X154835000Y-94285000D01*
X154835000Y-94285000D01*
G37*
X154835000Y-94285000D02*
X155135000Y-94285000D01*
X155135000Y-94585000D01*
X154835000Y-94585000D01*
X154835000Y-94285000D01*
G36*
X164435000Y-93985000D02*
G01*
X164735000Y-93985000D01*
X164735000Y-94285000D01*
X164435000Y-94285000D01*
X164435000Y-93985000D01*
X164435000Y-93985000D01*
G37*
X164435000Y-93985000D02*
X164735000Y-93985000D01*
X164735000Y-94285000D01*
X164435000Y-94285000D01*
X164435000Y-93985000D01*
G36*
X164135000Y-93985000D02*
G01*
X164435000Y-93985000D01*
X164435000Y-94285000D01*
X164135000Y-94285000D01*
X164135000Y-93985000D01*
X164135000Y-93985000D01*
G37*
X164135000Y-93985000D02*
X164435000Y-93985000D01*
X164435000Y-94285000D01*
X164135000Y-94285000D01*
X164135000Y-93985000D01*
G36*
X163835000Y-93985000D02*
G01*
X164135000Y-93985000D01*
X164135000Y-94285000D01*
X163835000Y-94285000D01*
X163835000Y-93985000D01*
X163835000Y-93985000D01*
G37*
X163835000Y-93985000D02*
X164135000Y-93985000D01*
X164135000Y-94285000D01*
X163835000Y-94285000D01*
X163835000Y-93985000D01*
G36*
X163535000Y-93985000D02*
G01*
X163835000Y-93985000D01*
X163835000Y-94285000D01*
X163535000Y-94285000D01*
X163535000Y-93985000D01*
X163535000Y-93985000D01*
G37*
X163535000Y-93985000D02*
X163835000Y-93985000D01*
X163835000Y-94285000D01*
X163535000Y-94285000D01*
X163535000Y-93985000D01*
G36*
X163235000Y-93985000D02*
G01*
X163535000Y-93985000D01*
X163535000Y-94285000D01*
X163235000Y-94285000D01*
X163235000Y-93985000D01*
X163235000Y-93985000D01*
G37*
X163235000Y-93985000D02*
X163535000Y-93985000D01*
X163535000Y-94285000D01*
X163235000Y-94285000D01*
X163235000Y-93985000D01*
G36*
X162935000Y-93985000D02*
G01*
X163235000Y-93985000D01*
X163235000Y-94285000D01*
X162935000Y-94285000D01*
X162935000Y-93985000D01*
X162935000Y-93985000D01*
G37*
X162935000Y-93985000D02*
X163235000Y-93985000D01*
X163235000Y-94285000D01*
X162935000Y-94285000D01*
X162935000Y-93985000D01*
G36*
X162635000Y-93985000D02*
G01*
X162935000Y-93985000D01*
X162935000Y-94285000D01*
X162635000Y-94285000D01*
X162635000Y-93985000D01*
X162635000Y-93985000D01*
G37*
X162635000Y-93985000D02*
X162935000Y-93985000D01*
X162935000Y-94285000D01*
X162635000Y-94285000D01*
X162635000Y-93985000D01*
G36*
X162335000Y-93985000D02*
G01*
X162635000Y-93985000D01*
X162635000Y-94285000D01*
X162335000Y-94285000D01*
X162335000Y-93985000D01*
X162335000Y-93985000D01*
G37*
X162335000Y-93985000D02*
X162635000Y-93985000D01*
X162635000Y-94285000D01*
X162335000Y-94285000D01*
X162335000Y-93985000D01*
G36*
X162035000Y-93985000D02*
G01*
X162335000Y-93985000D01*
X162335000Y-94285000D01*
X162035000Y-94285000D01*
X162035000Y-93985000D01*
X162035000Y-93985000D01*
G37*
X162035000Y-93985000D02*
X162335000Y-93985000D01*
X162335000Y-94285000D01*
X162035000Y-94285000D01*
X162035000Y-93985000D01*
G36*
X161735000Y-93985000D02*
G01*
X162035000Y-93985000D01*
X162035000Y-94285000D01*
X161735000Y-94285000D01*
X161735000Y-93985000D01*
X161735000Y-93985000D01*
G37*
X161735000Y-93985000D02*
X162035000Y-93985000D01*
X162035000Y-94285000D01*
X161735000Y-94285000D01*
X161735000Y-93985000D01*
G36*
X161435000Y-93985000D02*
G01*
X161735000Y-93985000D01*
X161735000Y-94285000D01*
X161435000Y-94285000D01*
X161435000Y-93985000D01*
X161435000Y-93985000D01*
G37*
X161435000Y-93985000D02*
X161735000Y-93985000D01*
X161735000Y-94285000D01*
X161435000Y-94285000D01*
X161435000Y-93985000D01*
G36*
X161135000Y-93985000D02*
G01*
X161435000Y-93985000D01*
X161435000Y-94285000D01*
X161135000Y-94285000D01*
X161135000Y-93985000D01*
X161135000Y-93985000D01*
G37*
X161135000Y-93985000D02*
X161435000Y-93985000D01*
X161435000Y-94285000D01*
X161135000Y-94285000D01*
X161135000Y-93985000D01*
G36*
X160835000Y-93985000D02*
G01*
X161135000Y-93985000D01*
X161135000Y-94285000D01*
X160835000Y-94285000D01*
X160835000Y-93985000D01*
X160835000Y-93985000D01*
G37*
X160835000Y-93985000D02*
X161135000Y-93985000D01*
X161135000Y-94285000D01*
X160835000Y-94285000D01*
X160835000Y-93985000D01*
G36*
X160535000Y-93985000D02*
G01*
X160835000Y-93985000D01*
X160835000Y-94285000D01*
X160535000Y-94285000D01*
X160535000Y-93985000D01*
X160535000Y-93985000D01*
G37*
X160535000Y-93985000D02*
X160835000Y-93985000D01*
X160835000Y-94285000D01*
X160535000Y-94285000D01*
X160535000Y-93985000D01*
G36*
X160235000Y-93985000D02*
G01*
X160535000Y-93985000D01*
X160535000Y-94285000D01*
X160235000Y-94285000D01*
X160235000Y-93985000D01*
X160235000Y-93985000D01*
G37*
X160235000Y-93985000D02*
X160535000Y-93985000D01*
X160535000Y-94285000D01*
X160235000Y-94285000D01*
X160235000Y-93985000D01*
G36*
X159935000Y-93985000D02*
G01*
X160235000Y-93985000D01*
X160235000Y-94285000D01*
X159935000Y-94285000D01*
X159935000Y-93985000D01*
X159935000Y-93985000D01*
G37*
X159935000Y-93985000D02*
X160235000Y-93985000D01*
X160235000Y-94285000D01*
X159935000Y-94285000D01*
X159935000Y-93985000D01*
G36*
X159635000Y-93985000D02*
G01*
X159935000Y-93985000D01*
X159935000Y-94285000D01*
X159635000Y-94285000D01*
X159635000Y-93985000D01*
X159635000Y-93985000D01*
G37*
X159635000Y-93985000D02*
X159935000Y-93985000D01*
X159935000Y-94285000D01*
X159635000Y-94285000D01*
X159635000Y-93985000D01*
G36*
X159335000Y-93985000D02*
G01*
X159635000Y-93985000D01*
X159635000Y-94285000D01*
X159335000Y-94285000D01*
X159335000Y-93985000D01*
X159335000Y-93985000D01*
G37*
X159335000Y-93985000D02*
X159635000Y-93985000D01*
X159635000Y-94285000D01*
X159335000Y-94285000D01*
X159335000Y-93985000D01*
G36*
X159035000Y-93985000D02*
G01*
X159335000Y-93985000D01*
X159335000Y-94285000D01*
X159035000Y-94285000D01*
X159035000Y-93985000D01*
X159035000Y-93985000D01*
G37*
X159035000Y-93985000D02*
X159335000Y-93985000D01*
X159335000Y-94285000D01*
X159035000Y-94285000D01*
X159035000Y-93985000D01*
G36*
X158735000Y-93985000D02*
G01*
X159035000Y-93985000D01*
X159035000Y-94285000D01*
X158735000Y-94285000D01*
X158735000Y-93985000D01*
X158735000Y-93985000D01*
G37*
X158735000Y-93985000D02*
X159035000Y-93985000D01*
X159035000Y-94285000D01*
X158735000Y-94285000D01*
X158735000Y-93985000D01*
G36*
X158435000Y-93985000D02*
G01*
X158735000Y-93985000D01*
X158735000Y-94285000D01*
X158435000Y-94285000D01*
X158435000Y-93985000D01*
X158435000Y-93985000D01*
G37*
X158435000Y-93985000D02*
X158735000Y-93985000D01*
X158735000Y-94285000D01*
X158435000Y-94285000D01*
X158435000Y-93985000D01*
G36*
X158135000Y-93985000D02*
G01*
X158435000Y-93985000D01*
X158435000Y-94285000D01*
X158135000Y-94285000D01*
X158135000Y-93985000D01*
X158135000Y-93985000D01*
G37*
X158135000Y-93985000D02*
X158435000Y-93985000D01*
X158435000Y-94285000D01*
X158135000Y-94285000D01*
X158135000Y-93985000D01*
G36*
X157835000Y-93985000D02*
G01*
X158135000Y-93985000D01*
X158135000Y-94285000D01*
X157835000Y-94285000D01*
X157835000Y-93985000D01*
X157835000Y-93985000D01*
G37*
X157835000Y-93985000D02*
X158135000Y-93985000D01*
X158135000Y-94285000D01*
X157835000Y-94285000D01*
X157835000Y-93985000D01*
G36*
X157535000Y-93985000D02*
G01*
X157835000Y-93985000D01*
X157835000Y-94285000D01*
X157535000Y-94285000D01*
X157535000Y-93985000D01*
X157535000Y-93985000D01*
G37*
X157535000Y-93985000D02*
X157835000Y-93985000D01*
X157835000Y-94285000D01*
X157535000Y-94285000D01*
X157535000Y-93985000D01*
G36*
X157235000Y-93985000D02*
G01*
X157535000Y-93985000D01*
X157535000Y-94285000D01*
X157235000Y-94285000D01*
X157235000Y-93985000D01*
X157235000Y-93985000D01*
G37*
X157235000Y-93985000D02*
X157535000Y-93985000D01*
X157535000Y-94285000D01*
X157235000Y-94285000D01*
X157235000Y-93985000D01*
G36*
X156935000Y-93985000D02*
G01*
X157235000Y-93985000D01*
X157235000Y-94285000D01*
X156935000Y-94285000D01*
X156935000Y-93985000D01*
X156935000Y-93985000D01*
G37*
X156935000Y-93985000D02*
X157235000Y-93985000D01*
X157235000Y-94285000D01*
X156935000Y-94285000D01*
X156935000Y-93985000D01*
G36*
X156635000Y-93985000D02*
G01*
X156935000Y-93985000D01*
X156935000Y-94285000D01*
X156635000Y-94285000D01*
X156635000Y-93985000D01*
X156635000Y-93985000D01*
G37*
X156635000Y-93985000D02*
X156935000Y-93985000D01*
X156935000Y-94285000D01*
X156635000Y-94285000D01*
X156635000Y-93985000D01*
G36*
X156335000Y-93985000D02*
G01*
X156635000Y-93985000D01*
X156635000Y-94285000D01*
X156335000Y-94285000D01*
X156335000Y-93985000D01*
X156335000Y-93985000D01*
G37*
X156335000Y-93985000D02*
X156635000Y-93985000D01*
X156635000Y-94285000D01*
X156335000Y-94285000D01*
X156335000Y-93985000D01*
G36*
X156035000Y-93985000D02*
G01*
X156335000Y-93985000D01*
X156335000Y-94285000D01*
X156035000Y-94285000D01*
X156035000Y-93985000D01*
X156035000Y-93985000D01*
G37*
X156035000Y-93985000D02*
X156335000Y-93985000D01*
X156335000Y-94285000D01*
X156035000Y-94285000D01*
X156035000Y-93985000D01*
G36*
X155735000Y-93985000D02*
G01*
X156035000Y-93985000D01*
X156035000Y-94285000D01*
X155735000Y-94285000D01*
X155735000Y-93985000D01*
X155735000Y-93985000D01*
G37*
X155735000Y-93985000D02*
X156035000Y-93985000D01*
X156035000Y-94285000D01*
X155735000Y-94285000D01*
X155735000Y-93985000D01*
G36*
X155435000Y-93985000D02*
G01*
X155735000Y-93985000D01*
X155735000Y-94285000D01*
X155435000Y-94285000D01*
X155435000Y-93985000D01*
X155435000Y-93985000D01*
G37*
X155435000Y-93985000D02*
X155735000Y-93985000D01*
X155735000Y-94285000D01*
X155435000Y-94285000D01*
X155435000Y-93985000D01*
G36*
X155135000Y-93985000D02*
G01*
X155435000Y-93985000D01*
X155435000Y-94285000D01*
X155135000Y-94285000D01*
X155135000Y-93985000D01*
X155135000Y-93985000D01*
G37*
X155135000Y-93985000D02*
X155435000Y-93985000D01*
X155435000Y-94285000D01*
X155135000Y-94285000D01*
X155135000Y-93985000D01*
G36*
X154835000Y-93985000D02*
G01*
X155135000Y-93985000D01*
X155135000Y-94285000D01*
X154835000Y-94285000D01*
X154835000Y-93985000D01*
X154835000Y-93985000D01*
G37*
X154835000Y-93985000D02*
X155135000Y-93985000D01*
X155135000Y-94285000D01*
X154835000Y-94285000D01*
X154835000Y-93985000D01*
G36*
X154535000Y-93985000D02*
G01*
X154835000Y-93985000D01*
X154835000Y-94285000D01*
X154535000Y-94285000D01*
X154535000Y-93985000D01*
X154535000Y-93985000D01*
G37*
X154535000Y-93985000D02*
X154835000Y-93985000D01*
X154835000Y-94285000D01*
X154535000Y-94285000D01*
X154535000Y-93985000D01*
G36*
X164735000Y-93685000D02*
G01*
X165035000Y-93685000D01*
X165035000Y-93985000D01*
X164735000Y-93985000D01*
X164735000Y-93685000D01*
X164735000Y-93685000D01*
G37*
X164735000Y-93685000D02*
X165035000Y-93685000D01*
X165035000Y-93985000D01*
X164735000Y-93985000D01*
X164735000Y-93685000D01*
G36*
X164435000Y-93685000D02*
G01*
X164735000Y-93685000D01*
X164735000Y-93985000D01*
X164435000Y-93985000D01*
X164435000Y-93685000D01*
X164435000Y-93685000D01*
G37*
X164435000Y-93685000D02*
X164735000Y-93685000D01*
X164735000Y-93985000D01*
X164435000Y-93985000D01*
X164435000Y-93685000D01*
G36*
X164135000Y-93685000D02*
G01*
X164435000Y-93685000D01*
X164435000Y-93985000D01*
X164135000Y-93985000D01*
X164135000Y-93685000D01*
X164135000Y-93685000D01*
G37*
X164135000Y-93685000D02*
X164435000Y-93685000D01*
X164435000Y-93985000D01*
X164135000Y-93985000D01*
X164135000Y-93685000D01*
G36*
X163835000Y-93685000D02*
G01*
X164135000Y-93685000D01*
X164135000Y-93985000D01*
X163835000Y-93985000D01*
X163835000Y-93685000D01*
X163835000Y-93685000D01*
G37*
X163835000Y-93685000D02*
X164135000Y-93685000D01*
X164135000Y-93985000D01*
X163835000Y-93985000D01*
X163835000Y-93685000D01*
G36*
X163535000Y-93685000D02*
G01*
X163835000Y-93685000D01*
X163835000Y-93985000D01*
X163535000Y-93985000D01*
X163535000Y-93685000D01*
X163535000Y-93685000D01*
G37*
X163535000Y-93685000D02*
X163835000Y-93685000D01*
X163835000Y-93985000D01*
X163535000Y-93985000D01*
X163535000Y-93685000D01*
G36*
X163235000Y-93685000D02*
G01*
X163535000Y-93685000D01*
X163535000Y-93985000D01*
X163235000Y-93985000D01*
X163235000Y-93685000D01*
X163235000Y-93685000D01*
G37*
X163235000Y-93685000D02*
X163535000Y-93685000D01*
X163535000Y-93985000D01*
X163235000Y-93985000D01*
X163235000Y-93685000D01*
G36*
X162935000Y-93685000D02*
G01*
X163235000Y-93685000D01*
X163235000Y-93985000D01*
X162935000Y-93985000D01*
X162935000Y-93685000D01*
X162935000Y-93685000D01*
G37*
X162935000Y-93685000D02*
X163235000Y-93685000D01*
X163235000Y-93985000D01*
X162935000Y-93985000D01*
X162935000Y-93685000D01*
G36*
X162635000Y-93685000D02*
G01*
X162935000Y-93685000D01*
X162935000Y-93985000D01*
X162635000Y-93985000D01*
X162635000Y-93685000D01*
X162635000Y-93685000D01*
G37*
X162635000Y-93685000D02*
X162935000Y-93685000D01*
X162935000Y-93985000D01*
X162635000Y-93985000D01*
X162635000Y-93685000D01*
G36*
X162335000Y-93685000D02*
G01*
X162635000Y-93685000D01*
X162635000Y-93985000D01*
X162335000Y-93985000D01*
X162335000Y-93685000D01*
X162335000Y-93685000D01*
G37*
X162335000Y-93685000D02*
X162635000Y-93685000D01*
X162635000Y-93985000D01*
X162335000Y-93985000D01*
X162335000Y-93685000D01*
G36*
X162035000Y-93685000D02*
G01*
X162335000Y-93685000D01*
X162335000Y-93985000D01*
X162035000Y-93985000D01*
X162035000Y-93685000D01*
X162035000Y-93685000D01*
G37*
X162035000Y-93685000D02*
X162335000Y-93685000D01*
X162335000Y-93985000D01*
X162035000Y-93985000D01*
X162035000Y-93685000D01*
G36*
X161735000Y-93685000D02*
G01*
X162035000Y-93685000D01*
X162035000Y-93985000D01*
X161735000Y-93985000D01*
X161735000Y-93685000D01*
X161735000Y-93685000D01*
G37*
X161735000Y-93685000D02*
X162035000Y-93685000D01*
X162035000Y-93985000D01*
X161735000Y-93985000D01*
X161735000Y-93685000D01*
G36*
X161435000Y-93685000D02*
G01*
X161735000Y-93685000D01*
X161735000Y-93985000D01*
X161435000Y-93985000D01*
X161435000Y-93685000D01*
X161435000Y-93685000D01*
G37*
X161435000Y-93685000D02*
X161735000Y-93685000D01*
X161735000Y-93985000D01*
X161435000Y-93985000D01*
X161435000Y-93685000D01*
G36*
X161135000Y-93685000D02*
G01*
X161435000Y-93685000D01*
X161435000Y-93985000D01*
X161135000Y-93985000D01*
X161135000Y-93685000D01*
X161135000Y-93685000D01*
G37*
X161135000Y-93685000D02*
X161435000Y-93685000D01*
X161435000Y-93985000D01*
X161135000Y-93985000D01*
X161135000Y-93685000D01*
G36*
X160835000Y-93685000D02*
G01*
X161135000Y-93685000D01*
X161135000Y-93985000D01*
X160835000Y-93985000D01*
X160835000Y-93685000D01*
X160835000Y-93685000D01*
G37*
X160835000Y-93685000D02*
X161135000Y-93685000D01*
X161135000Y-93985000D01*
X160835000Y-93985000D01*
X160835000Y-93685000D01*
G36*
X160535000Y-93685000D02*
G01*
X160835000Y-93685000D01*
X160835000Y-93985000D01*
X160535000Y-93985000D01*
X160535000Y-93685000D01*
X160535000Y-93685000D01*
G37*
X160535000Y-93685000D02*
X160835000Y-93685000D01*
X160835000Y-93985000D01*
X160535000Y-93985000D01*
X160535000Y-93685000D01*
G36*
X160235000Y-93685000D02*
G01*
X160535000Y-93685000D01*
X160535000Y-93985000D01*
X160235000Y-93985000D01*
X160235000Y-93685000D01*
X160235000Y-93685000D01*
G37*
X160235000Y-93685000D02*
X160535000Y-93685000D01*
X160535000Y-93985000D01*
X160235000Y-93985000D01*
X160235000Y-93685000D01*
G36*
X159935000Y-93685000D02*
G01*
X160235000Y-93685000D01*
X160235000Y-93985000D01*
X159935000Y-93985000D01*
X159935000Y-93685000D01*
X159935000Y-93685000D01*
G37*
X159935000Y-93685000D02*
X160235000Y-93685000D01*
X160235000Y-93985000D01*
X159935000Y-93985000D01*
X159935000Y-93685000D01*
G36*
X159635000Y-93685000D02*
G01*
X159935000Y-93685000D01*
X159935000Y-93985000D01*
X159635000Y-93985000D01*
X159635000Y-93685000D01*
X159635000Y-93685000D01*
G37*
X159635000Y-93685000D02*
X159935000Y-93685000D01*
X159935000Y-93985000D01*
X159635000Y-93985000D01*
X159635000Y-93685000D01*
G36*
X159335000Y-93685000D02*
G01*
X159635000Y-93685000D01*
X159635000Y-93985000D01*
X159335000Y-93985000D01*
X159335000Y-93685000D01*
X159335000Y-93685000D01*
G37*
X159335000Y-93685000D02*
X159635000Y-93685000D01*
X159635000Y-93985000D01*
X159335000Y-93985000D01*
X159335000Y-93685000D01*
G36*
X159035000Y-93685000D02*
G01*
X159335000Y-93685000D01*
X159335000Y-93985000D01*
X159035000Y-93985000D01*
X159035000Y-93685000D01*
X159035000Y-93685000D01*
G37*
X159035000Y-93685000D02*
X159335000Y-93685000D01*
X159335000Y-93985000D01*
X159035000Y-93985000D01*
X159035000Y-93685000D01*
G36*
X158735000Y-93685000D02*
G01*
X159035000Y-93685000D01*
X159035000Y-93985000D01*
X158735000Y-93985000D01*
X158735000Y-93685000D01*
X158735000Y-93685000D01*
G37*
X158735000Y-93685000D02*
X159035000Y-93685000D01*
X159035000Y-93985000D01*
X158735000Y-93985000D01*
X158735000Y-93685000D01*
G36*
X158435000Y-93685000D02*
G01*
X158735000Y-93685000D01*
X158735000Y-93985000D01*
X158435000Y-93985000D01*
X158435000Y-93685000D01*
X158435000Y-93685000D01*
G37*
X158435000Y-93685000D02*
X158735000Y-93685000D01*
X158735000Y-93985000D01*
X158435000Y-93985000D01*
X158435000Y-93685000D01*
G36*
X158135000Y-93685000D02*
G01*
X158435000Y-93685000D01*
X158435000Y-93985000D01*
X158135000Y-93985000D01*
X158135000Y-93685000D01*
X158135000Y-93685000D01*
G37*
X158135000Y-93685000D02*
X158435000Y-93685000D01*
X158435000Y-93985000D01*
X158135000Y-93985000D01*
X158135000Y-93685000D01*
G36*
X157835000Y-93685000D02*
G01*
X158135000Y-93685000D01*
X158135000Y-93985000D01*
X157835000Y-93985000D01*
X157835000Y-93685000D01*
X157835000Y-93685000D01*
G37*
X157835000Y-93685000D02*
X158135000Y-93685000D01*
X158135000Y-93985000D01*
X157835000Y-93985000D01*
X157835000Y-93685000D01*
G36*
X157535000Y-93685000D02*
G01*
X157835000Y-93685000D01*
X157835000Y-93985000D01*
X157535000Y-93985000D01*
X157535000Y-93685000D01*
X157535000Y-93685000D01*
G37*
X157535000Y-93685000D02*
X157835000Y-93685000D01*
X157835000Y-93985000D01*
X157535000Y-93985000D01*
X157535000Y-93685000D01*
G36*
X157235000Y-93685000D02*
G01*
X157535000Y-93685000D01*
X157535000Y-93985000D01*
X157235000Y-93985000D01*
X157235000Y-93685000D01*
X157235000Y-93685000D01*
G37*
X157235000Y-93685000D02*
X157535000Y-93685000D01*
X157535000Y-93985000D01*
X157235000Y-93985000D01*
X157235000Y-93685000D01*
G36*
X156935000Y-93685000D02*
G01*
X157235000Y-93685000D01*
X157235000Y-93985000D01*
X156935000Y-93985000D01*
X156935000Y-93685000D01*
X156935000Y-93685000D01*
G37*
X156935000Y-93685000D02*
X157235000Y-93685000D01*
X157235000Y-93985000D01*
X156935000Y-93985000D01*
X156935000Y-93685000D01*
G36*
X156635000Y-93685000D02*
G01*
X156935000Y-93685000D01*
X156935000Y-93985000D01*
X156635000Y-93985000D01*
X156635000Y-93685000D01*
X156635000Y-93685000D01*
G37*
X156635000Y-93685000D02*
X156935000Y-93685000D01*
X156935000Y-93985000D01*
X156635000Y-93985000D01*
X156635000Y-93685000D01*
G36*
X156335000Y-93685000D02*
G01*
X156635000Y-93685000D01*
X156635000Y-93985000D01*
X156335000Y-93985000D01*
X156335000Y-93685000D01*
X156335000Y-93685000D01*
G37*
X156335000Y-93685000D02*
X156635000Y-93685000D01*
X156635000Y-93985000D01*
X156335000Y-93985000D01*
X156335000Y-93685000D01*
G36*
X156035000Y-93685000D02*
G01*
X156335000Y-93685000D01*
X156335000Y-93985000D01*
X156035000Y-93985000D01*
X156035000Y-93685000D01*
X156035000Y-93685000D01*
G37*
X156035000Y-93685000D02*
X156335000Y-93685000D01*
X156335000Y-93985000D01*
X156035000Y-93985000D01*
X156035000Y-93685000D01*
G36*
X155735000Y-93685000D02*
G01*
X156035000Y-93685000D01*
X156035000Y-93985000D01*
X155735000Y-93985000D01*
X155735000Y-93685000D01*
X155735000Y-93685000D01*
G37*
X155735000Y-93685000D02*
X156035000Y-93685000D01*
X156035000Y-93985000D01*
X155735000Y-93985000D01*
X155735000Y-93685000D01*
G36*
X155435000Y-93685000D02*
G01*
X155735000Y-93685000D01*
X155735000Y-93985000D01*
X155435000Y-93985000D01*
X155435000Y-93685000D01*
X155435000Y-93685000D01*
G37*
X155435000Y-93685000D02*
X155735000Y-93685000D01*
X155735000Y-93985000D01*
X155435000Y-93985000D01*
X155435000Y-93685000D01*
G36*
X155135000Y-93685000D02*
G01*
X155435000Y-93685000D01*
X155435000Y-93985000D01*
X155135000Y-93985000D01*
X155135000Y-93685000D01*
X155135000Y-93685000D01*
G37*
X155135000Y-93685000D02*
X155435000Y-93685000D01*
X155435000Y-93985000D01*
X155135000Y-93985000D01*
X155135000Y-93685000D01*
G36*
X154835000Y-93685000D02*
G01*
X155135000Y-93685000D01*
X155135000Y-93985000D01*
X154835000Y-93985000D01*
X154835000Y-93685000D01*
X154835000Y-93685000D01*
G37*
X154835000Y-93685000D02*
X155135000Y-93685000D01*
X155135000Y-93985000D01*
X154835000Y-93985000D01*
X154835000Y-93685000D01*
G36*
X154535000Y-93685000D02*
G01*
X154835000Y-93685000D01*
X154835000Y-93985000D01*
X154535000Y-93985000D01*
X154535000Y-93685000D01*
X154535000Y-93685000D01*
G37*
X154535000Y-93685000D02*
X154835000Y-93685000D01*
X154835000Y-93985000D01*
X154535000Y-93985000D01*
X154535000Y-93685000D01*
G36*
X154235000Y-93685000D02*
G01*
X154535000Y-93685000D01*
X154535000Y-93985000D01*
X154235000Y-93985000D01*
X154235000Y-93685000D01*
X154235000Y-93685000D01*
G37*
X154235000Y-93685000D02*
X154535000Y-93685000D01*
X154535000Y-93985000D01*
X154235000Y-93985000D01*
X154235000Y-93685000D01*
G36*
X164735000Y-93385000D02*
G01*
X165035000Y-93385000D01*
X165035000Y-93685000D01*
X164735000Y-93685000D01*
X164735000Y-93385000D01*
X164735000Y-93385000D01*
G37*
X164735000Y-93385000D02*
X165035000Y-93385000D01*
X165035000Y-93685000D01*
X164735000Y-93685000D01*
X164735000Y-93385000D01*
G36*
X164435000Y-93385000D02*
G01*
X164735000Y-93385000D01*
X164735000Y-93685000D01*
X164435000Y-93685000D01*
X164435000Y-93385000D01*
X164435000Y-93385000D01*
G37*
X164435000Y-93385000D02*
X164735000Y-93385000D01*
X164735000Y-93685000D01*
X164435000Y-93685000D01*
X164435000Y-93385000D01*
G36*
X164135000Y-93385000D02*
G01*
X164435000Y-93385000D01*
X164435000Y-93685000D01*
X164135000Y-93685000D01*
X164135000Y-93385000D01*
X164135000Y-93385000D01*
G37*
X164135000Y-93385000D02*
X164435000Y-93385000D01*
X164435000Y-93685000D01*
X164135000Y-93685000D01*
X164135000Y-93385000D01*
G36*
X163835000Y-93385000D02*
G01*
X164135000Y-93385000D01*
X164135000Y-93685000D01*
X163835000Y-93685000D01*
X163835000Y-93385000D01*
X163835000Y-93385000D01*
G37*
X163835000Y-93385000D02*
X164135000Y-93385000D01*
X164135000Y-93685000D01*
X163835000Y-93685000D01*
X163835000Y-93385000D01*
G36*
X163535000Y-93385000D02*
G01*
X163835000Y-93385000D01*
X163835000Y-93685000D01*
X163535000Y-93685000D01*
X163535000Y-93385000D01*
X163535000Y-93385000D01*
G37*
X163535000Y-93385000D02*
X163835000Y-93385000D01*
X163835000Y-93685000D01*
X163535000Y-93685000D01*
X163535000Y-93385000D01*
G36*
X155435000Y-93385000D02*
G01*
X155735000Y-93385000D01*
X155735000Y-93685000D01*
X155435000Y-93685000D01*
X155435000Y-93385000D01*
X155435000Y-93385000D01*
G37*
X155435000Y-93385000D02*
X155735000Y-93385000D01*
X155735000Y-93685000D01*
X155435000Y-93685000D01*
X155435000Y-93385000D01*
G36*
X155135000Y-93385000D02*
G01*
X155435000Y-93385000D01*
X155435000Y-93685000D01*
X155135000Y-93685000D01*
X155135000Y-93385000D01*
X155135000Y-93385000D01*
G37*
X155135000Y-93385000D02*
X155435000Y-93385000D01*
X155435000Y-93685000D01*
X155135000Y-93685000D01*
X155135000Y-93385000D01*
G36*
X154835000Y-93385000D02*
G01*
X155135000Y-93385000D01*
X155135000Y-93685000D01*
X154835000Y-93685000D01*
X154835000Y-93385000D01*
X154835000Y-93385000D01*
G37*
X154835000Y-93385000D02*
X155135000Y-93385000D01*
X155135000Y-93685000D01*
X154835000Y-93685000D01*
X154835000Y-93385000D01*
G36*
X154535000Y-93385000D02*
G01*
X154835000Y-93385000D01*
X154835000Y-93685000D01*
X154535000Y-93685000D01*
X154535000Y-93385000D01*
X154535000Y-93385000D01*
G37*
X154535000Y-93385000D02*
X154835000Y-93385000D01*
X154835000Y-93685000D01*
X154535000Y-93685000D01*
X154535000Y-93385000D01*
G36*
X154235000Y-93385000D02*
G01*
X154535000Y-93385000D01*
X154535000Y-93685000D01*
X154235000Y-93685000D01*
X154235000Y-93385000D01*
X154235000Y-93385000D01*
G37*
X154235000Y-93385000D02*
X154535000Y-93385000D01*
X154535000Y-93685000D01*
X154235000Y-93685000D01*
X154235000Y-93385000D01*
G36*
X164735000Y-93085000D02*
G01*
X165035000Y-93085000D01*
X165035000Y-93385000D01*
X164735000Y-93385000D01*
X164735000Y-93085000D01*
X164735000Y-93085000D01*
G37*
X164735000Y-93085000D02*
X165035000Y-93085000D01*
X165035000Y-93385000D01*
X164735000Y-93385000D01*
X164735000Y-93085000D01*
G36*
X164435000Y-93085000D02*
G01*
X164735000Y-93085000D01*
X164735000Y-93385000D01*
X164435000Y-93385000D01*
X164435000Y-93085000D01*
X164435000Y-93085000D01*
G37*
X164435000Y-93085000D02*
X164735000Y-93085000D01*
X164735000Y-93385000D01*
X164435000Y-93385000D01*
X164435000Y-93085000D01*
G36*
X164135000Y-93085000D02*
G01*
X164435000Y-93085000D01*
X164435000Y-93385000D01*
X164135000Y-93385000D01*
X164135000Y-93085000D01*
X164135000Y-93085000D01*
G37*
X164135000Y-93085000D02*
X164435000Y-93085000D01*
X164435000Y-93385000D01*
X164135000Y-93385000D01*
X164135000Y-93085000D01*
G36*
X163835000Y-93085000D02*
G01*
X164135000Y-93085000D01*
X164135000Y-93385000D01*
X163835000Y-93385000D01*
X163835000Y-93085000D01*
X163835000Y-93085000D01*
G37*
X163835000Y-93085000D02*
X164135000Y-93085000D01*
X164135000Y-93385000D01*
X163835000Y-93385000D01*
X163835000Y-93085000D01*
G36*
X155135000Y-93085000D02*
G01*
X155435000Y-93085000D01*
X155435000Y-93385000D01*
X155135000Y-93385000D01*
X155135000Y-93085000D01*
X155135000Y-93085000D01*
G37*
X155135000Y-93085000D02*
X155435000Y-93085000D01*
X155435000Y-93385000D01*
X155135000Y-93385000D01*
X155135000Y-93085000D01*
G36*
X154835000Y-93085000D02*
G01*
X155135000Y-93085000D01*
X155135000Y-93385000D01*
X154835000Y-93385000D01*
X154835000Y-93085000D01*
X154835000Y-93085000D01*
G37*
X154835000Y-93085000D02*
X155135000Y-93085000D01*
X155135000Y-93385000D01*
X154835000Y-93385000D01*
X154835000Y-93085000D01*
G36*
X154535000Y-93085000D02*
G01*
X154835000Y-93085000D01*
X154835000Y-93385000D01*
X154535000Y-93385000D01*
X154535000Y-93085000D01*
X154535000Y-93085000D01*
G37*
X154535000Y-93085000D02*
X154835000Y-93085000D01*
X154835000Y-93385000D01*
X154535000Y-93385000D01*
X154535000Y-93085000D01*
G36*
X154235000Y-93085000D02*
G01*
X154535000Y-93085000D01*
X154535000Y-93385000D01*
X154235000Y-93385000D01*
X154235000Y-93085000D01*
X154235000Y-93085000D01*
G37*
X154235000Y-93085000D02*
X154535000Y-93085000D01*
X154535000Y-93385000D01*
X154235000Y-93385000D01*
X154235000Y-93085000D01*
G36*
X164735000Y-92785000D02*
G01*
X165035000Y-92785000D01*
X165035000Y-93085000D01*
X164735000Y-93085000D01*
X164735000Y-92785000D01*
X164735000Y-92785000D01*
G37*
X164735000Y-92785000D02*
X165035000Y-92785000D01*
X165035000Y-93085000D01*
X164735000Y-93085000D01*
X164735000Y-92785000D01*
G36*
X164435000Y-92785000D02*
G01*
X164735000Y-92785000D01*
X164735000Y-93085000D01*
X164435000Y-93085000D01*
X164435000Y-92785000D01*
X164435000Y-92785000D01*
G37*
X164435000Y-92785000D02*
X164735000Y-92785000D01*
X164735000Y-93085000D01*
X164435000Y-93085000D01*
X164435000Y-92785000D01*
G36*
X164135000Y-92785000D02*
G01*
X164435000Y-92785000D01*
X164435000Y-93085000D01*
X164135000Y-93085000D01*
X164135000Y-92785000D01*
X164135000Y-92785000D01*
G37*
X164135000Y-92785000D02*
X164435000Y-92785000D01*
X164435000Y-93085000D01*
X164135000Y-93085000D01*
X164135000Y-92785000D01*
G36*
X154835000Y-92785000D02*
G01*
X155135000Y-92785000D01*
X155135000Y-93085000D01*
X154835000Y-93085000D01*
X154835000Y-92785000D01*
X154835000Y-92785000D01*
G37*
X154835000Y-92785000D02*
X155135000Y-92785000D01*
X155135000Y-93085000D01*
X154835000Y-93085000D01*
X154835000Y-92785000D01*
G36*
X154535000Y-92785000D02*
G01*
X154835000Y-92785000D01*
X154835000Y-93085000D01*
X154535000Y-93085000D01*
X154535000Y-92785000D01*
X154535000Y-92785000D01*
G37*
X154535000Y-92785000D02*
X154835000Y-92785000D01*
X154835000Y-93085000D01*
X154535000Y-93085000D01*
X154535000Y-92785000D01*
G36*
X154235000Y-92785000D02*
G01*
X154535000Y-92785000D01*
X154535000Y-93085000D01*
X154235000Y-93085000D01*
X154235000Y-92785000D01*
X154235000Y-92785000D01*
G37*
X154235000Y-92785000D02*
X154535000Y-92785000D01*
X154535000Y-93085000D01*
X154235000Y-93085000D01*
X154235000Y-92785000D01*
G36*
X164735000Y-92485000D02*
G01*
X165035000Y-92485000D01*
X165035000Y-92785000D01*
X164735000Y-92785000D01*
X164735000Y-92485000D01*
X164735000Y-92485000D01*
G37*
X164735000Y-92485000D02*
X165035000Y-92485000D01*
X165035000Y-92785000D01*
X164735000Y-92785000D01*
X164735000Y-92485000D01*
G36*
X164435000Y-92485000D02*
G01*
X164735000Y-92485000D01*
X164735000Y-92785000D01*
X164435000Y-92785000D01*
X164435000Y-92485000D01*
X164435000Y-92485000D01*
G37*
X164435000Y-92485000D02*
X164735000Y-92485000D01*
X164735000Y-92785000D01*
X164435000Y-92785000D01*
X164435000Y-92485000D01*
G36*
X164135000Y-92485000D02*
G01*
X164435000Y-92485000D01*
X164435000Y-92785000D01*
X164135000Y-92785000D01*
X164135000Y-92485000D01*
X164135000Y-92485000D01*
G37*
X164135000Y-92485000D02*
X164435000Y-92485000D01*
X164435000Y-92785000D01*
X164135000Y-92785000D01*
X164135000Y-92485000D01*
G36*
X154835000Y-92485000D02*
G01*
X155135000Y-92485000D01*
X155135000Y-92785000D01*
X154835000Y-92785000D01*
X154835000Y-92485000D01*
X154835000Y-92485000D01*
G37*
X154835000Y-92485000D02*
X155135000Y-92485000D01*
X155135000Y-92785000D01*
X154835000Y-92785000D01*
X154835000Y-92485000D01*
G36*
X154535000Y-92485000D02*
G01*
X154835000Y-92485000D01*
X154835000Y-92785000D01*
X154535000Y-92785000D01*
X154535000Y-92485000D01*
X154535000Y-92485000D01*
G37*
X154535000Y-92485000D02*
X154835000Y-92485000D01*
X154835000Y-92785000D01*
X154535000Y-92785000D01*
X154535000Y-92485000D01*
G36*
X154235000Y-92485000D02*
G01*
X154535000Y-92485000D01*
X154535000Y-92785000D01*
X154235000Y-92785000D01*
X154235000Y-92485000D01*
X154235000Y-92485000D01*
G37*
X154235000Y-92485000D02*
X154535000Y-92485000D01*
X154535000Y-92785000D01*
X154235000Y-92785000D01*
X154235000Y-92485000D01*
G36*
X164735000Y-92185000D02*
G01*
X165035000Y-92185000D01*
X165035000Y-92485000D01*
X164735000Y-92485000D01*
X164735000Y-92185000D01*
X164735000Y-92185000D01*
G37*
X164735000Y-92185000D02*
X165035000Y-92185000D01*
X165035000Y-92485000D01*
X164735000Y-92485000D01*
X164735000Y-92185000D01*
G36*
X164435000Y-92185000D02*
G01*
X164735000Y-92185000D01*
X164735000Y-92485000D01*
X164435000Y-92485000D01*
X164435000Y-92185000D01*
X164435000Y-92185000D01*
G37*
X164435000Y-92185000D02*
X164735000Y-92185000D01*
X164735000Y-92485000D01*
X164435000Y-92485000D01*
X164435000Y-92185000D01*
G36*
X164135000Y-92185000D02*
G01*
X164435000Y-92185000D01*
X164435000Y-92485000D01*
X164135000Y-92485000D01*
X164135000Y-92185000D01*
X164135000Y-92185000D01*
G37*
X164135000Y-92185000D02*
X164435000Y-92185000D01*
X164435000Y-92485000D01*
X164135000Y-92485000D01*
X164135000Y-92185000D01*
G36*
X162635000Y-92185000D02*
G01*
X162935000Y-92185000D01*
X162935000Y-92485000D01*
X162635000Y-92485000D01*
X162635000Y-92185000D01*
X162635000Y-92185000D01*
G37*
X162635000Y-92185000D02*
X162935000Y-92185000D01*
X162935000Y-92485000D01*
X162635000Y-92485000D01*
X162635000Y-92185000D01*
G36*
X162335000Y-92185000D02*
G01*
X162635000Y-92185000D01*
X162635000Y-92485000D01*
X162335000Y-92485000D01*
X162335000Y-92185000D01*
X162335000Y-92185000D01*
G37*
X162335000Y-92185000D02*
X162635000Y-92185000D01*
X162635000Y-92485000D01*
X162335000Y-92485000D01*
X162335000Y-92185000D01*
G36*
X162035000Y-92185000D02*
G01*
X162335000Y-92185000D01*
X162335000Y-92485000D01*
X162035000Y-92485000D01*
X162035000Y-92185000D01*
X162035000Y-92185000D01*
G37*
X162035000Y-92185000D02*
X162335000Y-92185000D01*
X162335000Y-92485000D01*
X162035000Y-92485000D01*
X162035000Y-92185000D01*
G36*
X161735000Y-92185000D02*
G01*
X162035000Y-92185000D01*
X162035000Y-92485000D01*
X161735000Y-92485000D01*
X161735000Y-92185000D01*
X161735000Y-92185000D01*
G37*
X161735000Y-92185000D02*
X162035000Y-92185000D01*
X162035000Y-92485000D01*
X161735000Y-92485000D01*
X161735000Y-92185000D01*
G36*
X161435000Y-92185000D02*
G01*
X161735000Y-92185000D01*
X161735000Y-92485000D01*
X161435000Y-92485000D01*
X161435000Y-92185000D01*
X161435000Y-92185000D01*
G37*
X161435000Y-92185000D02*
X161735000Y-92185000D01*
X161735000Y-92485000D01*
X161435000Y-92485000D01*
X161435000Y-92185000D01*
G36*
X161135000Y-92185000D02*
G01*
X161435000Y-92185000D01*
X161435000Y-92485000D01*
X161135000Y-92485000D01*
X161135000Y-92185000D01*
X161135000Y-92185000D01*
G37*
X161135000Y-92185000D02*
X161435000Y-92185000D01*
X161435000Y-92485000D01*
X161135000Y-92485000D01*
X161135000Y-92185000D01*
G36*
X160835000Y-92185000D02*
G01*
X161135000Y-92185000D01*
X161135000Y-92485000D01*
X160835000Y-92485000D01*
X160835000Y-92185000D01*
X160835000Y-92185000D01*
G37*
X160835000Y-92185000D02*
X161135000Y-92185000D01*
X161135000Y-92485000D01*
X160835000Y-92485000D01*
X160835000Y-92185000D01*
G36*
X160535000Y-92185000D02*
G01*
X160835000Y-92185000D01*
X160835000Y-92485000D01*
X160535000Y-92485000D01*
X160535000Y-92185000D01*
X160535000Y-92185000D01*
G37*
X160535000Y-92185000D02*
X160835000Y-92185000D01*
X160835000Y-92485000D01*
X160535000Y-92485000D01*
X160535000Y-92185000D01*
G36*
X160235000Y-92185000D02*
G01*
X160535000Y-92185000D01*
X160535000Y-92485000D01*
X160235000Y-92485000D01*
X160235000Y-92185000D01*
X160235000Y-92185000D01*
G37*
X160235000Y-92185000D02*
X160535000Y-92185000D01*
X160535000Y-92485000D01*
X160235000Y-92485000D01*
X160235000Y-92185000D01*
G36*
X159935000Y-92185000D02*
G01*
X160235000Y-92185000D01*
X160235000Y-92485000D01*
X159935000Y-92485000D01*
X159935000Y-92185000D01*
X159935000Y-92185000D01*
G37*
X159935000Y-92185000D02*
X160235000Y-92185000D01*
X160235000Y-92485000D01*
X159935000Y-92485000D01*
X159935000Y-92185000D01*
G36*
X159635000Y-92185000D02*
G01*
X159935000Y-92185000D01*
X159935000Y-92485000D01*
X159635000Y-92485000D01*
X159635000Y-92185000D01*
X159635000Y-92185000D01*
G37*
X159635000Y-92185000D02*
X159935000Y-92185000D01*
X159935000Y-92485000D01*
X159635000Y-92485000D01*
X159635000Y-92185000D01*
G36*
X159335000Y-92185000D02*
G01*
X159635000Y-92185000D01*
X159635000Y-92485000D01*
X159335000Y-92485000D01*
X159335000Y-92185000D01*
X159335000Y-92185000D01*
G37*
X159335000Y-92185000D02*
X159635000Y-92185000D01*
X159635000Y-92485000D01*
X159335000Y-92485000D01*
X159335000Y-92185000D01*
G36*
X159035000Y-92185000D02*
G01*
X159335000Y-92185000D01*
X159335000Y-92485000D01*
X159035000Y-92485000D01*
X159035000Y-92185000D01*
X159035000Y-92185000D01*
G37*
X159035000Y-92185000D02*
X159335000Y-92185000D01*
X159335000Y-92485000D01*
X159035000Y-92485000D01*
X159035000Y-92185000D01*
G36*
X158735000Y-92185000D02*
G01*
X159035000Y-92185000D01*
X159035000Y-92485000D01*
X158735000Y-92485000D01*
X158735000Y-92185000D01*
X158735000Y-92185000D01*
G37*
X158735000Y-92185000D02*
X159035000Y-92185000D01*
X159035000Y-92485000D01*
X158735000Y-92485000D01*
X158735000Y-92185000D01*
G36*
X158435000Y-92185000D02*
G01*
X158735000Y-92185000D01*
X158735000Y-92485000D01*
X158435000Y-92485000D01*
X158435000Y-92185000D01*
X158435000Y-92185000D01*
G37*
X158435000Y-92185000D02*
X158735000Y-92185000D01*
X158735000Y-92485000D01*
X158435000Y-92485000D01*
X158435000Y-92185000D01*
G36*
X158135000Y-92185000D02*
G01*
X158435000Y-92185000D01*
X158435000Y-92485000D01*
X158135000Y-92485000D01*
X158135000Y-92185000D01*
X158135000Y-92185000D01*
G37*
X158135000Y-92185000D02*
X158435000Y-92185000D01*
X158435000Y-92485000D01*
X158135000Y-92485000D01*
X158135000Y-92185000D01*
G36*
X157835000Y-92185000D02*
G01*
X158135000Y-92185000D01*
X158135000Y-92485000D01*
X157835000Y-92485000D01*
X157835000Y-92185000D01*
X157835000Y-92185000D01*
G37*
X157835000Y-92185000D02*
X158135000Y-92185000D01*
X158135000Y-92485000D01*
X157835000Y-92485000D01*
X157835000Y-92185000D01*
G36*
X157535000Y-92185000D02*
G01*
X157835000Y-92185000D01*
X157835000Y-92485000D01*
X157535000Y-92485000D01*
X157535000Y-92185000D01*
X157535000Y-92185000D01*
G37*
X157535000Y-92185000D02*
X157835000Y-92185000D01*
X157835000Y-92485000D01*
X157535000Y-92485000D01*
X157535000Y-92185000D01*
G36*
X157235000Y-92185000D02*
G01*
X157535000Y-92185000D01*
X157535000Y-92485000D01*
X157235000Y-92485000D01*
X157235000Y-92185000D01*
X157235000Y-92185000D01*
G37*
X157235000Y-92185000D02*
X157535000Y-92185000D01*
X157535000Y-92485000D01*
X157235000Y-92485000D01*
X157235000Y-92185000D01*
G36*
X156935000Y-92185000D02*
G01*
X157235000Y-92185000D01*
X157235000Y-92485000D01*
X156935000Y-92485000D01*
X156935000Y-92185000D01*
X156935000Y-92185000D01*
G37*
X156935000Y-92185000D02*
X157235000Y-92185000D01*
X157235000Y-92485000D01*
X156935000Y-92485000D01*
X156935000Y-92185000D01*
G36*
X156635000Y-92185000D02*
G01*
X156935000Y-92185000D01*
X156935000Y-92485000D01*
X156635000Y-92485000D01*
X156635000Y-92185000D01*
X156635000Y-92185000D01*
G37*
X156635000Y-92185000D02*
X156935000Y-92185000D01*
X156935000Y-92485000D01*
X156635000Y-92485000D01*
X156635000Y-92185000D01*
G36*
X156335000Y-92185000D02*
G01*
X156635000Y-92185000D01*
X156635000Y-92485000D01*
X156335000Y-92485000D01*
X156335000Y-92185000D01*
X156335000Y-92185000D01*
G37*
X156335000Y-92185000D02*
X156635000Y-92185000D01*
X156635000Y-92485000D01*
X156335000Y-92485000D01*
X156335000Y-92185000D01*
G36*
X154835000Y-92185000D02*
G01*
X155135000Y-92185000D01*
X155135000Y-92485000D01*
X154835000Y-92485000D01*
X154835000Y-92185000D01*
X154835000Y-92185000D01*
G37*
X154835000Y-92185000D02*
X155135000Y-92185000D01*
X155135000Y-92485000D01*
X154835000Y-92485000D01*
X154835000Y-92185000D01*
G36*
X154535000Y-92185000D02*
G01*
X154835000Y-92185000D01*
X154835000Y-92485000D01*
X154535000Y-92485000D01*
X154535000Y-92185000D01*
X154535000Y-92185000D01*
G37*
X154535000Y-92185000D02*
X154835000Y-92185000D01*
X154835000Y-92485000D01*
X154535000Y-92485000D01*
X154535000Y-92185000D01*
G36*
X154235000Y-92185000D02*
G01*
X154535000Y-92185000D01*
X154535000Y-92485000D01*
X154235000Y-92485000D01*
X154235000Y-92185000D01*
X154235000Y-92185000D01*
G37*
X154235000Y-92185000D02*
X154535000Y-92185000D01*
X154535000Y-92485000D01*
X154235000Y-92485000D01*
X154235000Y-92185000D01*
G36*
X164735000Y-91885000D02*
G01*
X165035000Y-91885000D01*
X165035000Y-92185000D01*
X164735000Y-92185000D01*
X164735000Y-91885000D01*
X164735000Y-91885000D01*
G37*
X164735000Y-91885000D02*
X165035000Y-91885000D01*
X165035000Y-92185000D01*
X164735000Y-92185000D01*
X164735000Y-91885000D01*
G36*
X164435000Y-91885000D02*
G01*
X164735000Y-91885000D01*
X164735000Y-92185000D01*
X164435000Y-92185000D01*
X164435000Y-91885000D01*
X164435000Y-91885000D01*
G37*
X164435000Y-91885000D02*
X164735000Y-91885000D01*
X164735000Y-92185000D01*
X164435000Y-92185000D01*
X164435000Y-91885000D01*
G36*
X164135000Y-91885000D02*
G01*
X164435000Y-91885000D01*
X164435000Y-92185000D01*
X164135000Y-92185000D01*
X164135000Y-91885000D01*
X164135000Y-91885000D01*
G37*
X164135000Y-91885000D02*
X164435000Y-91885000D01*
X164435000Y-92185000D01*
X164135000Y-92185000D01*
X164135000Y-91885000D01*
G36*
X162635000Y-91885000D02*
G01*
X162935000Y-91885000D01*
X162935000Y-92185000D01*
X162635000Y-92185000D01*
X162635000Y-91885000D01*
X162635000Y-91885000D01*
G37*
X162635000Y-91885000D02*
X162935000Y-91885000D01*
X162935000Y-92185000D01*
X162635000Y-92185000D01*
X162635000Y-91885000D01*
G36*
X162335000Y-91885000D02*
G01*
X162635000Y-91885000D01*
X162635000Y-92185000D01*
X162335000Y-92185000D01*
X162335000Y-91885000D01*
X162335000Y-91885000D01*
G37*
X162335000Y-91885000D02*
X162635000Y-91885000D01*
X162635000Y-92185000D01*
X162335000Y-92185000D01*
X162335000Y-91885000D01*
G36*
X162035000Y-91885000D02*
G01*
X162335000Y-91885000D01*
X162335000Y-92185000D01*
X162035000Y-92185000D01*
X162035000Y-91885000D01*
X162035000Y-91885000D01*
G37*
X162035000Y-91885000D02*
X162335000Y-91885000D01*
X162335000Y-92185000D01*
X162035000Y-92185000D01*
X162035000Y-91885000D01*
G36*
X161735000Y-91885000D02*
G01*
X162035000Y-91885000D01*
X162035000Y-92185000D01*
X161735000Y-92185000D01*
X161735000Y-91885000D01*
X161735000Y-91885000D01*
G37*
X161735000Y-91885000D02*
X162035000Y-91885000D01*
X162035000Y-92185000D01*
X161735000Y-92185000D01*
X161735000Y-91885000D01*
G36*
X161435000Y-91885000D02*
G01*
X161735000Y-91885000D01*
X161735000Y-92185000D01*
X161435000Y-92185000D01*
X161435000Y-91885000D01*
X161435000Y-91885000D01*
G37*
X161435000Y-91885000D02*
X161735000Y-91885000D01*
X161735000Y-92185000D01*
X161435000Y-92185000D01*
X161435000Y-91885000D01*
G36*
X161135000Y-91885000D02*
G01*
X161435000Y-91885000D01*
X161435000Y-92185000D01*
X161135000Y-92185000D01*
X161135000Y-91885000D01*
X161135000Y-91885000D01*
G37*
X161135000Y-91885000D02*
X161435000Y-91885000D01*
X161435000Y-92185000D01*
X161135000Y-92185000D01*
X161135000Y-91885000D01*
G36*
X160835000Y-91885000D02*
G01*
X161135000Y-91885000D01*
X161135000Y-92185000D01*
X160835000Y-92185000D01*
X160835000Y-91885000D01*
X160835000Y-91885000D01*
G37*
X160835000Y-91885000D02*
X161135000Y-91885000D01*
X161135000Y-92185000D01*
X160835000Y-92185000D01*
X160835000Y-91885000D01*
G36*
X160535000Y-91885000D02*
G01*
X160835000Y-91885000D01*
X160835000Y-92185000D01*
X160535000Y-92185000D01*
X160535000Y-91885000D01*
X160535000Y-91885000D01*
G37*
X160535000Y-91885000D02*
X160835000Y-91885000D01*
X160835000Y-92185000D01*
X160535000Y-92185000D01*
X160535000Y-91885000D01*
G36*
X160235000Y-91885000D02*
G01*
X160535000Y-91885000D01*
X160535000Y-92185000D01*
X160235000Y-92185000D01*
X160235000Y-91885000D01*
X160235000Y-91885000D01*
G37*
X160235000Y-91885000D02*
X160535000Y-91885000D01*
X160535000Y-92185000D01*
X160235000Y-92185000D01*
X160235000Y-91885000D01*
G36*
X159935000Y-91885000D02*
G01*
X160235000Y-91885000D01*
X160235000Y-92185000D01*
X159935000Y-92185000D01*
X159935000Y-91885000D01*
X159935000Y-91885000D01*
G37*
X159935000Y-91885000D02*
X160235000Y-91885000D01*
X160235000Y-92185000D01*
X159935000Y-92185000D01*
X159935000Y-91885000D01*
G36*
X159635000Y-91885000D02*
G01*
X159935000Y-91885000D01*
X159935000Y-92185000D01*
X159635000Y-92185000D01*
X159635000Y-91885000D01*
X159635000Y-91885000D01*
G37*
X159635000Y-91885000D02*
X159935000Y-91885000D01*
X159935000Y-92185000D01*
X159635000Y-92185000D01*
X159635000Y-91885000D01*
G36*
X159335000Y-91885000D02*
G01*
X159635000Y-91885000D01*
X159635000Y-92185000D01*
X159335000Y-92185000D01*
X159335000Y-91885000D01*
X159335000Y-91885000D01*
G37*
X159335000Y-91885000D02*
X159635000Y-91885000D01*
X159635000Y-92185000D01*
X159335000Y-92185000D01*
X159335000Y-91885000D01*
G36*
X159035000Y-91885000D02*
G01*
X159335000Y-91885000D01*
X159335000Y-92185000D01*
X159035000Y-92185000D01*
X159035000Y-91885000D01*
X159035000Y-91885000D01*
G37*
X159035000Y-91885000D02*
X159335000Y-91885000D01*
X159335000Y-92185000D01*
X159035000Y-92185000D01*
X159035000Y-91885000D01*
G36*
X158735000Y-91885000D02*
G01*
X159035000Y-91885000D01*
X159035000Y-92185000D01*
X158735000Y-92185000D01*
X158735000Y-91885000D01*
X158735000Y-91885000D01*
G37*
X158735000Y-91885000D02*
X159035000Y-91885000D01*
X159035000Y-92185000D01*
X158735000Y-92185000D01*
X158735000Y-91885000D01*
G36*
X158435000Y-91885000D02*
G01*
X158735000Y-91885000D01*
X158735000Y-92185000D01*
X158435000Y-92185000D01*
X158435000Y-91885000D01*
X158435000Y-91885000D01*
G37*
X158435000Y-91885000D02*
X158735000Y-91885000D01*
X158735000Y-92185000D01*
X158435000Y-92185000D01*
X158435000Y-91885000D01*
G36*
X158135000Y-91885000D02*
G01*
X158435000Y-91885000D01*
X158435000Y-92185000D01*
X158135000Y-92185000D01*
X158135000Y-91885000D01*
X158135000Y-91885000D01*
G37*
X158135000Y-91885000D02*
X158435000Y-91885000D01*
X158435000Y-92185000D01*
X158135000Y-92185000D01*
X158135000Y-91885000D01*
G36*
X157835000Y-91885000D02*
G01*
X158135000Y-91885000D01*
X158135000Y-92185000D01*
X157835000Y-92185000D01*
X157835000Y-91885000D01*
X157835000Y-91885000D01*
G37*
X157835000Y-91885000D02*
X158135000Y-91885000D01*
X158135000Y-92185000D01*
X157835000Y-92185000D01*
X157835000Y-91885000D01*
G36*
X157535000Y-91885000D02*
G01*
X157835000Y-91885000D01*
X157835000Y-92185000D01*
X157535000Y-92185000D01*
X157535000Y-91885000D01*
X157535000Y-91885000D01*
G37*
X157535000Y-91885000D02*
X157835000Y-91885000D01*
X157835000Y-92185000D01*
X157535000Y-92185000D01*
X157535000Y-91885000D01*
G36*
X157235000Y-91885000D02*
G01*
X157535000Y-91885000D01*
X157535000Y-92185000D01*
X157235000Y-92185000D01*
X157235000Y-91885000D01*
X157235000Y-91885000D01*
G37*
X157235000Y-91885000D02*
X157535000Y-91885000D01*
X157535000Y-92185000D01*
X157235000Y-92185000D01*
X157235000Y-91885000D01*
G36*
X156935000Y-91885000D02*
G01*
X157235000Y-91885000D01*
X157235000Y-92185000D01*
X156935000Y-92185000D01*
X156935000Y-91885000D01*
X156935000Y-91885000D01*
G37*
X156935000Y-91885000D02*
X157235000Y-91885000D01*
X157235000Y-92185000D01*
X156935000Y-92185000D01*
X156935000Y-91885000D01*
G36*
X156635000Y-91885000D02*
G01*
X156935000Y-91885000D01*
X156935000Y-92185000D01*
X156635000Y-92185000D01*
X156635000Y-91885000D01*
X156635000Y-91885000D01*
G37*
X156635000Y-91885000D02*
X156935000Y-91885000D01*
X156935000Y-92185000D01*
X156635000Y-92185000D01*
X156635000Y-91885000D01*
G36*
X156335000Y-91885000D02*
G01*
X156635000Y-91885000D01*
X156635000Y-92185000D01*
X156335000Y-92185000D01*
X156335000Y-91885000D01*
X156335000Y-91885000D01*
G37*
X156335000Y-91885000D02*
X156635000Y-91885000D01*
X156635000Y-92185000D01*
X156335000Y-92185000D01*
X156335000Y-91885000D01*
G36*
X154835000Y-91885000D02*
G01*
X155135000Y-91885000D01*
X155135000Y-92185000D01*
X154835000Y-92185000D01*
X154835000Y-91885000D01*
X154835000Y-91885000D01*
G37*
X154835000Y-91885000D02*
X155135000Y-91885000D01*
X155135000Y-92185000D01*
X154835000Y-92185000D01*
X154835000Y-91885000D01*
G36*
X154535000Y-91885000D02*
G01*
X154835000Y-91885000D01*
X154835000Y-92185000D01*
X154535000Y-92185000D01*
X154535000Y-91885000D01*
X154535000Y-91885000D01*
G37*
X154535000Y-91885000D02*
X154835000Y-91885000D01*
X154835000Y-92185000D01*
X154535000Y-92185000D01*
X154535000Y-91885000D01*
G36*
X154235000Y-91885000D02*
G01*
X154535000Y-91885000D01*
X154535000Y-92185000D01*
X154235000Y-92185000D01*
X154235000Y-91885000D01*
X154235000Y-91885000D01*
G37*
X154235000Y-91885000D02*
X154535000Y-91885000D01*
X154535000Y-92185000D01*
X154235000Y-92185000D01*
X154235000Y-91885000D01*
G36*
X164735000Y-91585000D02*
G01*
X165035000Y-91585000D01*
X165035000Y-91885000D01*
X164735000Y-91885000D01*
X164735000Y-91585000D01*
X164735000Y-91585000D01*
G37*
X164735000Y-91585000D02*
X165035000Y-91585000D01*
X165035000Y-91885000D01*
X164735000Y-91885000D01*
X164735000Y-91585000D01*
G36*
X164435000Y-91585000D02*
G01*
X164735000Y-91585000D01*
X164735000Y-91885000D01*
X164435000Y-91885000D01*
X164435000Y-91585000D01*
X164435000Y-91585000D01*
G37*
X164435000Y-91585000D02*
X164735000Y-91585000D01*
X164735000Y-91885000D01*
X164435000Y-91885000D01*
X164435000Y-91585000D01*
G36*
X164135000Y-91585000D02*
G01*
X164435000Y-91585000D01*
X164435000Y-91885000D01*
X164135000Y-91885000D01*
X164135000Y-91585000D01*
X164135000Y-91585000D01*
G37*
X164135000Y-91585000D02*
X164435000Y-91585000D01*
X164435000Y-91885000D01*
X164135000Y-91885000D01*
X164135000Y-91585000D01*
G36*
X162635000Y-91585000D02*
G01*
X162935000Y-91585000D01*
X162935000Y-91885000D01*
X162635000Y-91885000D01*
X162635000Y-91585000D01*
X162635000Y-91585000D01*
G37*
X162635000Y-91585000D02*
X162935000Y-91585000D01*
X162935000Y-91885000D01*
X162635000Y-91885000D01*
X162635000Y-91585000D01*
G36*
X162335000Y-91585000D02*
G01*
X162635000Y-91585000D01*
X162635000Y-91885000D01*
X162335000Y-91885000D01*
X162335000Y-91585000D01*
X162335000Y-91585000D01*
G37*
X162335000Y-91585000D02*
X162635000Y-91585000D01*
X162635000Y-91885000D01*
X162335000Y-91885000D01*
X162335000Y-91585000D01*
G36*
X162035000Y-91585000D02*
G01*
X162335000Y-91585000D01*
X162335000Y-91885000D01*
X162035000Y-91885000D01*
X162035000Y-91585000D01*
X162035000Y-91585000D01*
G37*
X162035000Y-91585000D02*
X162335000Y-91585000D01*
X162335000Y-91885000D01*
X162035000Y-91885000D01*
X162035000Y-91585000D01*
G36*
X161735000Y-91585000D02*
G01*
X162035000Y-91585000D01*
X162035000Y-91885000D01*
X161735000Y-91885000D01*
X161735000Y-91585000D01*
X161735000Y-91585000D01*
G37*
X161735000Y-91585000D02*
X162035000Y-91585000D01*
X162035000Y-91885000D01*
X161735000Y-91885000D01*
X161735000Y-91585000D01*
G36*
X161435000Y-91585000D02*
G01*
X161735000Y-91585000D01*
X161735000Y-91885000D01*
X161435000Y-91885000D01*
X161435000Y-91585000D01*
X161435000Y-91585000D01*
G37*
X161435000Y-91585000D02*
X161735000Y-91585000D01*
X161735000Y-91885000D01*
X161435000Y-91885000D01*
X161435000Y-91585000D01*
G36*
X161135000Y-91585000D02*
G01*
X161435000Y-91585000D01*
X161435000Y-91885000D01*
X161135000Y-91885000D01*
X161135000Y-91585000D01*
X161135000Y-91585000D01*
G37*
X161135000Y-91585000D02*
X161435000Y-91585000D01*
X161435000Y-91885000D01*
X161135000Y-91885000D01*
X161135000Y-91585000D01*
G36*
X160835000Y-91585000D02*
G01*
X161135000Y-91585000D01*
X161135000Y-91885000D01*
X160835000Y-91885000D01*
X160835000Y-91585000D01*
X160835000Y-91585000D01*
G37*
X160835000Y-91585000D02*
X161135000Y-91585000D01*
X161135000Y-91885000D01*
X160835000Y-91885000D01*
X160835000Y-91585000D01*
G36*
X160535000Y-91585000D02*
G01*
X160835000Y-91585000D01*
X160835000Y-91885000D01*
X160535000Y-91885000D01*
X160535000Y-91585000D01*
X160535000Y-91585000D01*
G37*
X160535000Y-91585000D02*
X160835000Y-91585000D01*
X160835000Y-91885000D01*
X160535000Y-91885000D01*
X160535000Y-91585000D01*
G36*
X160235000Y-91585000D02*
G01*
X160535000Y-91585000D01*
X160535000Y-91885000D01*
X160235000Y-91885000D01*
X160235000Y-91585000D01*
X160235000Y-91585000D01*
G37*
X160235000Y-91585000D02*
X160535000Y-91585000D01*
X160535000Y-91885000D01*
X160235000Y-91885000D01*
X160235000Y-91585000D01*
G36*
X159935000Y-91585000D02*
G01*
X160235000Y-91585000D01*
X160235000Y-91885000D01*
X159935000Y-91885000D01*
X159935000Y-91585000D01*
X159935000Y-91585000D01*
G37*
X159935000Y-91585000D02*
X160235000Y-91585000D01*
X160235000Y-91885000D01*
X159935000Y-91885000D01*
X159935000Y-91585000D01*
G36*
X159635000Y-91585000D02*
G01*
X159935000Y-91585000D01*
X159935000Y-91885000D01*
X159635000Y-91885000D01*
X159635000Y-91585000D01*
X159635000Y-91585000D01*
G37*
X159635000Y-91585000D02*
X159935000Y-91585000D01*
X159935000Y-91885000D01*
X159635000Y-91885000D01*
X159635000Y-91585000D01*
G36*
X159335000Y-91585000D02*
G01*
X159635000Y-91585000D01*
X159635000Y-91885000D01*
X159335000Y-91885000D01*
X159335000Y-91585000D01*
X159335000Y-91585000D01*
G37*
X159335000Y-91585000D02*
X159635000Y-91585000D01*
X159635000Y-91885000D01*
X159335000Y-91885000D01*
X159335000Y-91585000D01*
G36*
X159035000Y-91585000D02*
G01*
X159335000Y-91585000D01*
X159335000Y-91885000D01*
X159035000Y-91885000D01*
X159035000Y-91585000D01*
X159035000Y-91585000D01*
G37*
X159035000Y-91585000D02*
X159335000Y-91585000D01*
X159335000Y-91885000D01*
X159035000Y-91885000D01*
X159035000Y-91585000D01*
G36*
X158735000Y-91585000D02*
G01*
X159035000Y-91585000D01*
X159035000Y-91885000D01*
X158735000Y-91885000D01*
X158735000Y-91585000D01*
X158735000Y-91585000D01*
G37*
X158735000Y-91585000D02*
X159035000Y-91585000D01*
X159035000Y-91885000D01*
X158735000Y-91885000D01*
X158735000Y-91585000D01*
G36*
X158435000Y-91585000D02*
G01*
X158735000Y-91585000D01*
X158735000Y-91885000D01*
X158435000Y-91885000D01*
X158435000Y-91585000D01*
X158435000Y-91585000D01*
G37*
X158435000Y-91585000D02*
X158735000Y-91585000D01*
X158735000Y-91885000D01*
X158435000Y-91885000D01*
X158435000Y-91585000D01*
G36*
X158135000Y-91585000D02*
G01*
X158435000Y-91585000D01*
X158435000Y-91885000D01*
X158135000Y-91885000D01*
X158135000Y-91585000D01*
X158135000Y-91585000D01*
G37*
X158135000Y-91585000D02*
X158435000Y-91585000D01*
X158435000Y-91885000D01*
X158135000Y-91885000D01*
X158135000Y-91585000D01*
G36*
X157835000Y-91585000D02*
G01*
X158135000Y-91585000D01*
X158135000Y-91885000D01*
X157835000Y-91885000D01*
X157835000Y-91585000D01*
X157835000Y-91585000D01*
G37*
X157835000Y-91585000D02*
X158135000Y-91585000D01*
X158135000Y-91885000D01*
X157835000Y-91885000D01*
X157835000Y-91585000D01*
G36*
X157535000Y-91585000D02*
G01*
X157835000Y-91585000D01*
X157835000Y-91885000D01*
X157535000Y-91885000D01*
X157535000Y-91585000D01*
X157535000Y-91585000D01*
G37*
X157535000Y-91585000D02*
X157835000Y-91585000D01*
X157835000Y-91885000D01*
X157535000Y-91885000D01*
X157535000Y-91585000D01*
G36*
X157235000Y-91585000D02*
G01*
X157535000Y-91585000D01*
X157535000Y-91885000D01*
X157235000Y-91885000D01*
X157235000Y-91585000D01*
X157235000Y-91585000D01*
G37*
X157235000Y-91585000D02*
X157535000Y-91585000D01*
X157535000Y-91885000D01*
X157235000Y-91885000D01*
X157235000Y-91585000D01*
G36*
X156935000Y-91585000D02*
G01*
X157235000Y-91585000D01*
X157235000Y-91885000D01*
X156935000Y-91885000D01*
X156935000Y-91585000D01*
X156935000Y-91585000D01*
G37*
X156935000Y-91585000D02*
X157235000Y-91585000D01*
X157235000Y-91885000D01*
X156935000Y-91885000D01*
X156935000Y-91585000D01*
G36*
X156635000Y-91585000D02*
G01*
X156935000Y-91585000D01*
X156935000Y-91885000D01*
X156635000Y-91885000D01*
X156635000Y-91585000D01*
X156635000Y-91585000D01*
G37*
X156635000Y-91585000D02*
X156935000Y-91585000D01*
X156935000Y-91885000D01*
X156635000Y-91885000D01*
X156635000Y-91585000D01*
G36*
X156335000Y-91585000D02*
G01*
X156635000Y-91585000D01*
X156635000Y-91885000D01*
X156335000Y-91885000D01*
X156335000Y-91585000D01*
X156335000Y-91585000D01*
G37*
X156335000Y-91585000D02*
X156635000Y-91585000D01*
X156635000Y-91885000D01*
X156335000Y-91885000D01*
X156335000Y-91585000D01*
G36*
X154835000Y-91585000D02*
G01*
X155135000Y-91585000D01*
X155135000Y-91885000D01*
X154835000Y-91885000D01*
X154835000Y-91585000D01*
X154835000Y-91585000D01*
G37*
X154835000Y-91585000D02*
X155135000Y-91585000D01*
X155135000Y-91885000D01*
X154835000Y-91885000D01*
X154835000Y-91585000D01*
G36*
X154535000Y-91585000D02*
G01*
X154835000Y-91585000D01*
X154835000Y-91885000D01*
X154535000Y-91885000D01*
X154535000Y-91585000D01*
X154535000Y-91585000D01*
G37*
X154535000Y-91585000D02*
X154835000Y-91585000D01*
X154835000Y-91885000D01*
X154535000Y-91885000D01*
X154535000Y-91585000D01*
G36*
X154235000Y-91585000D02*
G01*
X154535000Y-91585000D01*
X154535000Y-91885000D01*
X154235000Y-91885000D01*
X154235000Y-91585000D01*
X154235000Y-91585000D01*
G37*
X154235000Y-91585000D02*
X154535000Y-91585000D01*
X154535000Y-91885000D01*
X154235000Y-91885000D01*
X154235000Y-91585000D01*
G36*
X164735000Y-91285000D02*
G01*
X165035000Y-91285000D01*
X165035000Y-91585000D01*
X164735000Y-91585000D01*
X164735000Y-91285000D01*
X164735000Y-91285000D01*
G37*
X164735000Y-91285000D02*
X165035000Y-91285000D01*
X165035000Y-91585000D01*
X164735000Y-91585000D01*
X164735000Y-91285000D01*
G36*
X164435000Y-91285000D02*
G01*
X164735000Y-91285000D01*
X164735000Y-91585000D01*
X164435000Y-91585000D01*
X164435000Y-91285000D01*
X164435000Y-91285000D01*
G37*
X164435000Y-91285000D02*
X164735000Y-91285000D01*
X164735000Y-91585000D01*
X164435000Y-91585000D01*
X164435000Y-91285000D01*
G36*
X164135000Y-91285000D02*
G01*
X164435000Y-91285000D01*
X164435000Y-91585000D01*
X164135000Y-91585000D01*
X164135000Y-91285000D01*
X164135000Y-91285000D01*
G37*
X164135000Y-91285000D02*
X164435000Y-91285000D01*
X164435000Y-91585000D01*
X164135000Y-91585000D01*
X164135000Y-91285000D01*
G36*
X162335000Y-91285000D02*
G01*
X162635000Y-91285000D01*
X162635000Y-91585000D01*
X162335000Y-91585000D01*
X162335000Y-91285000D01*
X162335000Y-91285000D01*
G37*
X162335000Y-91285000D02*
X162635000Y-91285000D01*
X162635000Y-91585000D01*
X162335000Y-91585000D01*
X162335000Y-91285000D01*
G36*
X162035000Y-91285000D02*
G01*
X162335000Y-91285000D01*
X162335000Y-91585000D01*
X162035000Y-91585000D01*
X162035000Y-91285000D01*
X162035000Y-91285000D01*
G37*
X162035000Y-91285000D02*
X162335000Y-91285000D01*
X162335000Y-91585000D01*
X162035000Y-91585000D01*
X162035000Y-91285000D01*
G36*
X161735000Y-91285000D02*
G01*
X162035000Y-91285000D01*
X162035000Y-91585000D01*
X161735000Y-91585000D01*
X161735000Y-91285000D01*
X161735000Y-91285000D01*
G37*
X161735000Y-91285000D02*
X162035000Y-91285000D01*
X162035000Y-91585000D01*
X161735000Y-91585000D01*
X161735000Y-91285000D01*
G36*
X161435000Y-91285000D02*
G01*
X161735000Y-91285000D01*
X161735000Y-91585000D01*
X161435000Y-91585000D01*
X161435000Y-91285000D01*
X161435000Y-91285000D01*
G37*
X161435000Y-91285000D02*
X161735000Y-91285000D01*
X161735000Y-91585000D01*
X161435000Y-91585000D01*
X161435000Y-91285000D01*
G36*
X161135000Y-91285000D02*
G01*
X161435000Y-91285000D01*
X161435000Y-91585000D01*
X161135000Y-91585000D01*
X161135000Y-91285000D01*
X161135000Y-91285000D01*
G37*
X161135000Y-91285000D02*
X161435000Y-91285000D01*
X161435000Y-91585000D01*
X161135000Y-91585000D01*
X161135000Y-91285000D01*
G36*
X160835000Y-91285000D02*
G01*
X161135000Y-91285000D01*
X161135000Y-91585000D01*
X160835000Y-91585000D01*
X160835000Y-91285000D01*
X160835000Y-91285000D01*
G37*
X160835000Y-91285000D02*
X161135000Y-91285000D01*
X161135000Y-91585000D01*
X160835000Y-91585000D01*
X160835000Y-91285000D01*
G36*
X160535000Y-91285000D02*
G01*
X160835000Y-91285000D01*
X160835000Y-91585000D01*
X160535000Y-91585000D01*
X160535000Y-91285000D01*
X160535000Y-91285000D01*
G37*
X160535000Y-91285000D02*
X160835000Y-91285000D01*
X160835000Y-91585000D01*
X160535000Y-91585000D01*
X160535000Y-91285000D01*
G36*
X160235000Y-91285000D02*
G01*
X160535000Y-91285000D01*
X160535000Y-91585000D01*
X160235000Y-91585000D01*
X160235000Y-91285000D01*
X160235000Y-91285000D01*
G37*
X160235000Y-91285000D02*
X160535000Y-91285000D01*
X160535000Y-91585000D01*
X160235000Y-91585000D01*
X160235000Y-91285000D01*
G36*
X159935000Y-91285000D02*
G01*
X160235000Y-91285000D01*
X160235000Y-91585000D01*
X159935000Y-91585000D01*
X159935000Y-91285000D01*
X159935000Y-91285000D01*
G37*
X159935000Y-91285000D02*
X160235000Y-91285000D01*
X160235000Y-91585000D01*
X159935000Y-91585000D01*
X159935000Y-91285000D01*
G36*
X159635000Y-91285000D02*
G01*
X159935000Y-91285000D01*
X159935000Y-91585000D01*
X159635000Y-91585000D01*
X159635000Y-91285000D01*
X159635000Y-91285000D01*
G37*
X159635000Y-91285000D02*
X159935000Y-91285000D01*
X159935000Y-91585000D01*
X159635000Y-91585000D01*
X159635000Y-91285000D01*
G36*
X159335000Y-91285000D02*
G01*
X159635000Y-91285000D01*
X159635000Y-91585000D01*
X159335000Y-91585000D01*
X159335000Y-91285000D01*
X159335000Y-91285000D01*
G37*
X159335000Y-91285000D02*
X159635000Y-91285000D01*
X159635000Y-91585000D01*
X159335000Y-91585000D01*
X159335000Y-91285000D01*
G36*
X159035000Y-91285000D02*
G01*
X159335000Y-91285000D01*
X159335000Y-91585000D01*
X159035000Y-91585000D01*
X159035000Y-91285000D01*
X159035000Y-91285000D01*
G37*
X159035000Y-91285000D02*
X159335000Y-91285000D01*
X159335000Y-91585000D01*
X159035000Y-91585000D01*
X159035000Y-91285000D01*
G36*
X158735000Y-91285000D02*
G01*
X159035000Y-91285000D01*
X159035000Y-91585000D01*
X158735000Y-91585000D01*
X158735000Y-91285000D01*
X158735000Y-91285000D01*
G37*
X158735000Y-91285000D02*
X159035000Y-91285000D01*
X159035000Y-91585000D01*
X158735000Y-91585000D01*
X158735000Y-91285000D01*
G36*
X158435000Y-91285000D02*
G01*
X158735000Y-91285000D01*
X158735000Y-91585000D01*
X158435000Y-91585000D01*
X158435000Y-91285000D01*
X158435000Y-91285000D01*
G37*
X158435000Y-91285000D02*
X158735000Y-91285000D01*
X158735000Y-91585000D01*
X158435000Y-91585000D01*
X158435000Y-91285000D01*
G36*
X158135000Y-91285000D02*
G01*
X158435000Y-91285000D01*
X158435000Y-91585000D01*
X158135000Y-91585000D01*
X158135000Y-91285000D01*
X158135000Y-91285000D01*
G37*
X158135000Y-91285000D02*
X158435000Y-91285000D01*
X158435000Y-91585000D01*
X158135000Y-91585000D01*
X158135000Y-91285000D01*
G36*
X157835000Y-91285000D02*
G01*
X158135000Y-91285000D01*
X158135000Y-91585000D01*
X157835000Y-91585000D01*
X157835000Y-91285000D01*
X157835000Y-91285000D01*
G37*
X157835000Y-91285000D02*
X158135000Y-91285000D01*
X158135000Y-91585000D01*
X157835000Y-91585000D01*
X157835000Y-91285000D01*
G36*
X157535000Y-91285000D02*
G01*
X157835000Y-91285000D01*
X157835000Y-91585000D01*
X157535000Y-91585000D01*
X157535000Y-91285000D01*
X157535000Y-91285000D01*
G37*
X157535000Y-91285000D02*
X157835000Y-91285000D01*
X157835000Y-91585000D01*
X157535000Y-91585000D01*
X157535000Y-91285000D01*
G36*
X157235000Y-91285000D02*
G01*
X157535000Y-91285000D01*
X157535000Y-91585000D01*
X157235000Y-91585000D01*
X157235000Y-91285000D01*
X157235000Y-91285000D01*
G37*
X157235000Y-91285000D02*
X157535000Y-91285000D01*
X157535000Y-91585000D01*
X157235000Y-91585000D01*
X157235000Y-91285000D01*
G36*
X156935000Y-91285000D02*
G01*
X157235000Y-91285000D01*
X157235000Y-91585000D01*
X156935000Y-91585000D01*
X156935000Y-91285000D01*
X156935000Y-91285000D01*
G37*
X156935000Y-91285000D02*
X157235000Y-91285000D01*
X157235000Y-91585000D01*
X156935000Y-91585000D01*
X156935000Y-91285000D01*
G36*
X156635000Y-91285000D02*
G01*
X156935000Y-91285000D01*
X156935000Y-91585000D01*
X156635000Y-91585000D01*
X156635000Y-91285000D01*
X156635000Y-91285000D01*
G37*
X156635000Y-91285000D02*
X156935000Y-91285000D01*
X156935000Y-91585000D01*
X156635000Y-91585000D01*
X156635000Y-91285000D01*
G36*
X154835000Y-91285000D02*
G01*
X155135000Y-91285000D01*
X155135000Y-91585000D01*
X154835000Y-91585000D01*
X154835000Y-91285000D01*
X154835000Y-91285000D01*
G37*
X154835000Y-91285000D02*
X155135000Y-91285000D01*
X155135000Y-91585000D01*
X154835000Y-91585000D01*
X154835000Y-91285000D01*
G36*
X154535000Y-91285000D02*
G01*
X154835000Y-91285000D01*
X154835000Y-91585000D01*
X154535000Y-91585000D01*
X154535000Y-91285000D01*
X154535000Y-91285000D01*
G37*
X154535000Y-91285000D02*
X154835000Y-91285000D01*
X154835000Y-91585000D01*
X154535000Y-91585000D01*
X154535000Y-91285000D01*
G36*
X154235000Y-91285000D02*
G01*
X154535000Y-91285000D01*
X154535000Y-91585000D01*
X154235000Y-91585000D01*
X154235000Y-91285000D01*
X154235000Y-91285000D01*
G37*
X154235000Y-91285000D02*
X154535000Y-91285000D01*
X154535000Y-91585000D01*
X154235000Y-91585000D01*
X154235000Y-91285000D01*
G36*
X164735000Y-90985000D02*
G01*
X165035000Y-90985000D01*
X165035000Y-91285000D01*
X164735000Y-91285000D01*
X164735000Y-90985000D01*
X164735000Y-90985000D01*
G37*
X164735000Y-90985000D02*
X165035000Y-90985000D01*
X165035000Y-91285000D01*
X164735000Y-91285000D01*
X164735000Y-90985000D01*
G36*
X164435000Y-90985000D02*
G01*
X164735000Y-90985000D01*
X164735000Y-91285000D01*
X164435000Y-91285000D01*
X164435000Y-90985000D01*
X164435000Y-90985000D01*
G37*
X164435000Y-90985000D02*
X164735000Y-90985000D01*
X164735000Y-91285000D01*
X164435000Y-91285000D01*
X164435000Y-90985000D01*
G36*
X164135000Y-90985000D02*
G01*
X164435000Y-90985000D01*
X164435000Y-91285000D01*
X164135000Y-91285000D01*
X164135000Y-90985000D01*
X164135000Y-90985000D01*
G37*
X164135000Y-90985000D02*
X164435000Y-90985000D01*
X164435000Y-91285000D01*
X164135000Y-91285000D01*
X164135000Y-90985000D01*
G36*
X154835000Y-90985000D02*
G01*
X155135000Y-90985000D01*
X155135000Y-91285000D01*
X154835000Y-91285000D01*
X154835000Y-90985000D01*
X154835000Y-90985000D01*
G37*
X154835000Y-90985000D02*
X155135000Y-90985000D01*
X155135000Y-91285000D01*
X154835000Y-91285000D01*
X154835000Y-90985000D01*
G36*
X154535000Y-90985000D02*
G01*
X154835000Y-90985000D01*
X154835000Y-91285000D01*
X154535000Y-91285000D01*
X154535000Y-90985000D01*
X154535000Y-90985000D01*
G37*
X154535000Y-90985000D02*
X154835000Y-90985000D01*
X154835000Y-91285000D01*
X154535000Y-91285000D01*
X154535000Y-90985000D01*
G36*
X154235000Y-90985000D02*
G01*
X154535000Y-90985000D01*
X154535000Y-91285000D01*
X154235000Y-91285000D01*
X154235000Y-90985000D01*
X154235000Y-90985000D01*
G37*
X154235000Y-90985000D02*
X154535000Y-90985000D01*
X154535000Y-91285000D01*
X154235000Y-91285000D01*
X154235000Y-90985000D01*
G36*
X164735000Y-90685000D02*
G01*
X165035000Y-90685000D01*
X165035000Y-90985000D01*
X164735000Y-90985000D01*
X164735000Y-90685000D01*
X164735000Y-90685000D01*
G37*
X164735000Y-90685000D02*
X165035000Y-90685000D01*
X165035000Y-90985000D01*
X164735000Y-90985000D01*
X164735000Y-90685000D01*
G36*
X164435000Y-90685000D02*
G01*
X164735000Y-90685000D01*
X164735000Y-90985000D01*
X164435000Y-90985000D01*
X164435000Y-90685000D01*
X164435000Y-90685000D01*
G37*
X164435000Y-90685000D02*
X164735000Y-90685000D01*
X164735000Y-90985000D01*
X164435000Y-90985000D01*
X164435000Y-90685000D01*
G36*
X164135000Y-90685000D02*
G01*
X164435000Y-90685000D01*
X164435000Y-90985000D01*
X164135000Y-90985000D01*
X164135000Y-90685000D01*
X164135000Y-90685000D01*
G37*
X164135000Y-90685000D02*
X164435000Y-90685000D01*
X164435000Y-90985000D01*
X164135000Y-90985000D01*
X164135000Y-90685000D01*
G36*
X154835000Y-90685000D02*
G01*
X155135000Y-90685000D01*
X155135000Y-90985000D01*
X154835000Y-90985000D01*
X154835000Y-90685000D01*
X154835000Y-90685000D01*
G37*
X154835000Y-90685000D02*
X155135000Y-90685000D01*
X155135000Y-90985000D01*
X154835000Y-90985000D01*
X154835000Y-90685000D01*
G36*
X154535000Y-90685000D02*
G01*
X154835000Y-90685000D01*
X154835000Y-90985000D01*
X154535000Y-90985000D01*
X154535000Y-90685000D01*
X154535000Y-90685000D01*
G37*
X154535000Y-90685000D02*
X154835000Y-90685000D01*
X154835000Y-90985000D01*
X154535000Y-90985000D01*
X154535000Y-90685000D01*
G36*
X154235000Y-90685000D02*
G01*
X154535000Y-90685000D01*
X154535000Y-90985000D01*
X154235000Y-90985000D01*
X154235000Y-90685000D01*
X154235000Y-90685000D01*
G37*
X154235000Y-90685000D02*
X154535000Y-90685000D01*
X154535000Y-90985000D01*
X154235000Y-90985000D01*
X154235000Y-90685000D01*
G36*
X164735000Y-90385000D02*
G01*
X165035000Y-90385000D01*
X165035000Y-90685000D01*
X164735000Y-90685000D01*
X164735000Y-90385000D01*
X164735000Y-90385000D01*
G37*
X164735000Y-90385000D02*
X165035000Y-90385000D01*
X165035000Y-90685000D01*
X164735000Y-90685000D01*
X164735000Y-90385000D01*
G36*
X164435000Y-90385000D02*
G01*
X164735000Y-90385000D01*
X164735000Y-90685000D01*
X164435000Y-90685000D01*
X164435000Y-90385000D01*
X164435000Y-90385000D01*
G37*
X164435000Y-90385000D02*
X164735000Y-90385000D01*
X164735000Y-90685000D01*
X164435000Y-90685000D01*
X164435000Y-90385000D01*
G36*
X164135000Y-90385000D02*
G01*
X164435000Y-90385000D01*
X164435000Y-90685000D01*
X164135000Y-90685000D01*
X164135000Y-90385000D01*
X164135000Y-90385000D01*
G37*
X164135000Y-90385000D02*
X164435000Y-90385000D01*
X164435000Y-90685000D01*
X164135000Y-90685000D01*
X164135000Y-90385000D01*
G36*
X154835000Y-90385000D02*
G01*
X155135000Y-90385000D01*
X155135000Y-90685000D01*
X154835000Y-90685000D01*
X154835000Y-90385000D01*
X154835000Y-90385000D01*
G37*
X154835000Y-90385000D02*
X155135000Y-90385000D01*
X155135000Y-90685000D01*
X154835000Y-90685000D01*
X154835000Y-90385000D01*
G36*
X154535000Y-90385000D02*
G01*
X154835000Y-90385000D01*
X154835000Y-90685000D01*
X154535000Y-90685000D01*
X154535000Y-90385000D01*
X154535000Y-90385000D01*
G37*
X154535000Y-90385000D02*
X154835000Y-90385000D01*
X154835000Y-90685000D01*
X154535000Y-90685000D01*
X154535000Y-90385000D01*
G36*
X154235000Y-90385000D02*
G01*
X154535000Y-90385000D01*
X154535000Y-90685000D01*
X154235000Y-90685000D01*
X154235000Y-90385000D01*
X154235000Y-90385000D01*
G37*
X154235000Y-90385000D02*
X154535000Y-90385000D01*
X154535000Y-90685000D01*
X154235000Y-90685000D01*
X154235000Y-90385000D01*
G36*
X164735000Y-90085000D02*
G01*
X165035000Y-90085000D01*
X165035000Y-90385000D01*
X164735000Y-90385000D01*
X164735000Y-90085000D01*
X164735000Y-90085000D01*
G37*
X164735000Y-90085000D02*
X165035000Y-90085000D01*
X165035000Y-90385000D01*
X164735000Y-90385000D01*
X164735000Y-90085000D01*
G36*
X164435000Y-90085000D02*
G01*
X164735000Y-90085000D01*
X164735000Y-90385000D01*
X164435000Y-90385000D01*
X164435000Y-90085000D01*
X164435000Y-90085000D01*
G37*
X164435000Y-90085000D02*
X164735000Y-90085000D01*
X164735000Y-90385000D01*
X164435000Y-90385000D01*
X164435000Y-90085000D01*
G36*
X164135000Y-90085000D02*
G01*
X164435000Y-90085000D01*
X164435000Y-90385000D01*
X164135000Y-90385000D01*
X164135000Y-90085000D01*
X164135000Y-90085000D01*
G37*
X164135000Y-90085000D02*
X164435000Y-90085000D01*
X164435000Y-90385000D01*
X164135000Y-90385000D01*
X164135000Y-90085000D01*
G36*
X162635000Y-90085000D02*
G01*
X162935000Y-90085000D01*
X162935000Y-90385000D01*
X162635000Y-90385000D01*
X162635000Y-90085000D01*
X162635000Y-90085000D01*
G37*
X162635000Y-90085000D02*
X162935000Y-90085000D01*
X162935000Y-90385000D01*
X162635000Y-90385000D01*
X162635000Y-90085000D01*
G36*
X162335000Y-90085000D02*
G01*
X162635000Y-90085000D01*
X162635000Y-90385000D01*
X162335000Y-90385000D01*
X162335000Y-90085000D01*
X162335000Y-90085000D01*
G37*
X162335000Y-90085000D02*
X162635000Y-90085000D01*
X162635000Y-90385000D01*
X162335000Y-90385000D01*
X162335000Y-90085000D01*
G36*
X162035000Y-90085000D02*
G01*
X162335000Y-90085000D01*
X162335000Y-90385000D01*
X162035000Y-90385000D01*
X162035000Y-90085000D01*
X162035000Y-90085000D01*
G37*
X162035000Y-90085000D02*
X162335000Y-90085000D01*
X162335000Y-90385000D01*
X162035000Y-90385000D01*
X162035000Y-90085000D01*
G36*
X159635000Y-90085000D02*
G01*
X159935000Y-90085000D01*
X159935000Y-90385000D01*
X159635000Y-90385000D01*
X159635000Y-90085000D01*
X159635000Y-90085000D01*
G37*
X159635000Y-90085000D02*
X159935000Y-90085000D01*
X159935000Y-90385000D01*
X159635000Y-90385000D01*
X159635000Y-90085000D01*
G36*
X159335000Y-90085000D02*
G01*
X159635000Y-90085000D01*
X159635000Y-90385000D01*
X159335000Y-90385000D01*
X159335000Y-90085000D01*
X159335000Y-90085000D01*
G37*
X159335000Y-90085000D02*
X159635000Y-90085000D01*
X159635000Y-90385000D01*
X159335000Y-90385000D01*
X159335000Y-90085000D01*
G36*
X156935000Y-90085000D02*
G01*
X157235000Y-90085000D01*
X157235000Y-90385000D01*
X156935000Y-90385000D01*
X156935000Y-90085000D01*
X156935000Y-90085000D01*
G37*
X156935000Y-90085000D02*
X157235000Y-90085000D01*
X157235000Y-90385000D01*
X156935000Y-90385000D01*
X156935000Y-90085000D01*
G36*
X156635000Y-90085000D02*
G01*
X156935000Y-90085000D01*
X156935000Y-90385000D01*
X156635000Y-90385000D01*
X156635000Y-90085000D01*
X156635000Y-90085000D01*
G37*
X156635000Y-90085000D02*
X156935000Y-90085000D01*
X156935000Y-90385000D01*
X156635000Y-90385000D01*
X156635000Y-90085000D01*
G36*
X156335000Y-90085000D02*
G01*
X156635000Y-90085000D01*
X156635000Y-90385000D01*
X156335000Y-90385000D01*
X156335000Y-90085000D01*
X156335000Y-90085000D01*
G37*
X156335000Y-90085000D02*
X156635000Y-90085000D01*
X156635000Y-90385000D01*
X156335000Y-90385000D01*
X156335000Y-90085000D01*
G36*
X154835000Y-90085000D02*
G01*
X155135000Y-90085000D01*
X155135000Y-90385000D01*
X154835000Y-90385000D01*
X154835000Y-90085000D01*
X154835000Y-90085000D01*
G37*
X154835000Y-90085000D02*
X155135000Y-90085000D01*
X155135000Y-90385000D01*
X154835000Y-90385000D01*
X154835000Y-90085000D01*
G36*
X154535000Y-90085000D02*
G01*
X154835000Y-90085000D01*
X154835000Y-90385000D01*
X154535000Y-90385000D01*
X154535000Y-90085000D01*
X154535000Y-90085000D01*
G37*
X154535000Y-90085000D02*
X154835000Y-90085000D01*
X154835000Y-90385000D01*
X154535000Y-90385000D01*
X154535000Y-90085000D01*
G36*
X154235000Y-90085000D02*
G01*
X154535000Y-90085000D01*
X154535000Y-90385000D01*
X154235000Y-90385000D01*
X154235000Y-90085000D01*
X154235000Y-90085000D01*
G37*
X154235000Y-90085000D02*
X154535000Y-90085000D01*
X154535000Y-90385000D01*
X154235000Y-90385000D01*
X154235000Y-90085000D01*
G36*
X164735000Y-89785000D02*
G01*
X165035000Y-89785000D01*
X165035000Y-90085000D01*
X164735000Y-90085000D01*
X164735000Y-89785000D01*
X164735000Y-89785000D01*
G37*
X164735000Y-89785000D02*
X165035000Y-89785000D01*
X165035000Y-90085000D01*
X164735000Y-90085000D01*
X164735000Y-89785000D01*
G36*
X164435000Y-89785000D02*
G01*
X164735000Y-89785000D01*
X164735000Y-90085000D01*
X164435000Y-90085000D01*
X164435000Y-89785000D01*
X164435000Y-89785000D01*
G37*
X164435000Y-89785000D02*
X164735000Y-89785000D01*
X164735000Y-90085000D01*
X164435000Y-90085000D01*
X164435000Y-89785000D01*
G36*
X164135000Y-89785000D02*
G01*
X164435000Y-89785000D01*
X164435000Y-90085000D01*
X164135000Y-90085000D01*
X164135000Y-89785000D01*
X164135000Y-89785000D01*
G37*
X164135000Y-89785000D02*
X164435000Y-89785000D01*
X164435000Y-90085000D01*
X164135000Y-90085000D01*
X164135000Y-89785000D01*
G36*
X162635000Y-89785000D02*
G01*
X162935000Y-89785000D01*
X162935000Y-90085000D01*
X162635000Y-90085000D01*
X162635000Y-89785000D01*
X162635000Y-89785000D01*
G37*
X162635000Y-89785000D02*
X162935000Y-89785000D01*
X162935000Y-90085000D01*
X162635000Y-90085000D01*
X162635000Y-89785000D01*
G36*
X162335000Y-89785000D02*
G01*
X162635000Y-89785000D01*
X162635000Y-90085000D01*
X162335000Y-90085000D01*
X162335000Y-89785000D01*
X162335000Y-89785000D01*
G37*
X162335000Y-89785000D02*
X162635000Y-89785000D01*
X162635000Y-90085000D01*
X162335000Y-90085000D01*
X162335000Y-89785000D01*
G36*
X162035000Y-89785000D02*
G01*
X162335000Y-89785000D01*
X162335000Y-90085000D01*
X162035000Y-90085000D01*
X162035000Y-89785000D01*
X162035000Y-89785000D01*
G37*
X162035000Y-89785000D02*
X162335000Y-89785000D01*
X162335000Y-90085000D01*
X162035000Y-90085000D01*
X162035000Y-89785000D01*
G36*
X161735000Y-89785000D02*
G01*
X162035000Y-89785000D01*
X162035000Y-90085000D01*
X161735000Y-90085000D01*
X161735000Y-89785000D01*
X161735000Y-89785000D01*
G37*
X161735000Y-89785000D02*
X162035000Y-89785000D01*
X162035000Y-90085000D01*
X161735000Y-90085000D01*
X161735000Y-89785000D01*
G36*
X159935000Y-89785000D02*
G01*
X160235000Y-89785000D01*
X160235000Y-90085000D01*
X159935000Y-90085000D01*
X159935000Y-89785000D01*
X159935000Y-89785000D01*
G37*
X159935000Y-89785000D02*
X160235000Y-89785000D01*
X160235000Y-90085000D01*
X159935000Y-90085000D01*
X159935000Y-89785000D01*
G36*
X159635000Y-89785000D02*
G01*
X159935000Y-89785000D01*
X159935000Y-90085000D01*
X159635000Y-90085000D01*
X159635000Y-89785000D01*
X159635000Y-89785000D01*
G37*
X159635000Y-89785000D02*
X159935000Y-89785000D01*
X159935000Y-90085000D01*
X159635000Y-90085000D01*
X159635000Y-89785000D01*
G36*
X159335000Y-89785000D02*
G01*
X159635000Y-89785000D01*
X159635000Y-90085000D01*
X159335000Y-90085000D01*
X159335000Y-89785000D01*
X159335000Y-89785000D01*
G37*
X159335000Y-89785000D02*
X159635000Y-89785000D01*
X159635000Y-90085000D01*
X159335000Y-90085000D01*
X159335000Y-89785000D01*
G36*
X159035000Y-89785000D02*
G01*
X159335000Y-89785000D01*
X159335000Y-90085000D01*
X159035000Y-90085000D01*
X159035000Y-89785000D01*
X159035000Y-89785000D01*
G37*
X159035000Y-89785000D02*
X159335000Y-89785000D01*
X159335000Y-90085000D01*
X159035000Y-90085000D01*
X159035000Y-89785000D01*
G36*
X157235000Y-89785000D02*
G01*
X157535000Y-89785000D01*
X157535000Y-90085000D01*
X157235000Y-90085000D01*
X157235000Y-89785000D01*
X157235000Y-89785000D01*
G37*
X157235000Y-89785000D02*
X157535000Y-89785000D01*
X157535000Y-90085000D01*
X157235000Y-90085000D01*
X157235000Y-89785000D01*
G36*
X156935000Y-89785000D02*
G01*
X157235000Y-89785000D01*
X157235000Y-90085000D01*
X156935000Y-90085000D01*
X156935000Y-89785000D01*
X156935000Y-89785000D01*
G37*
X156935000Y-89785000D02*
X157235000Y-89785000D01*
X157235000Y-90085000D01*
X156935000Y-90085000D01*
X156935000Y-89785000D01*
G36*
X156635000Y-89785000D02*
G01*
X156935000Y-89785000D01*
X156935000Y-90085000D01*
X156635000Y-90085000D01*
X156635000Y-89785000D01*
X156635000Y-89785000D01*
G37*
X156635000Y-89785000D02*
X156935000Y-89785000D01*
X156935000Y-90085000D01*
X156635000Y-90085000D01*
X156635000Y-89785000D01*
G36*
X156335000Y-89785000D02*
G01*
X156635000Y-89785000D01*
X156635000Y-90085000D01*
X156335000Y-90085000D01*
X156335000Y-89785000D01*
X156335000Y-89785000D01*
G37*
X156335000Y-89785000D02*
X156635000Y-89785000D01*
X156635000Y-90085000D01*
X156335000Y-90085000D01*
X156335000Y-89785000D01*
G36*
X154835000Y-89785000D02*
G01*
X155135000Y-89785000D01*
X155135000Y-90085000D01*
X154835000Y-90085000D01*
X154835000Y-89785000D01*
X154835000Y-89785000D01*
G37*
X154835000Y-89785000D02*
X155135000Y-89785000D01*
X155135000Y-90085000D01*
X154835000Y-90085000D01*
X154835000Y-89785000D01*
G36*
X154535000Y-89785000D02*
G01*
X154835000Y-89785000D01*
X154835000Y-90085000D01*
X154535000Y-90085000D01*
X154535000Y-89785000D01*
X154535000Y-89785000D01*
G37*
X154535000Y-89785000D02*
X154835000Y-89785000D01*
X154835000Y-90085000D01*
X154535000Y-90085000D01*
X154535000Y-89785000D01*
G36*
X154235000Y-89785000D02*
G01*
X154535000Y-89785000D01*
X154535000Y-90085000D01*
X154235000Y-90085000D01*
X154235000Y-89785000D01*
X154235000Y-89785000D01*
G37*
X154235000Y-89785000D02*
X154535000Y-89785000D01*
X154535000Y-90085000D01*
X154235000Y-90085000D01*
X154235000Y-89785000D01*
G36*
X164735000Y-89485000D02*
G01*
X165035000Y-89485000D01*
X165035000Y-89785000D01*
X164735000Y-89785000D01*
X164735000Y-89485000D01*
X164735000Y-89485000D01*
G37*
X164735000Y-89485000D02*
X165035000Y-89485000D01*
X165035000Y-89785000D01*
X164735000Y-89785000D01*
X164735000Y-89485000D01*
G36*
X164435000Y-89485000D02*
G01*
X164735000Y-89485000D01*
X164735000Y-89785000D01*
X164435000Y-89785000D01*
X164435000Y-89485000D01*
X164435000Y-89485000D01*
G37*
X164435000Y-89485000D02*
X164735000Y-89485000D01*
X164735000Y-89785000D01*
X164435000Y-89785000D01*
X164435000Y-89485000D01*
G36*
X164135000Y-89485000D02*
G01*
X164435000Y-89485000D01*
X164435000Y-89785000D01*
X164135000Y-89785000D01*
X164135000Y-89485000D01*
X164135000Y-89485000D01*
G37*
X164135000Y-89485000D02*
X164435000Y-89485000D01*
X164435000Y-89785000D01*
X164135000Y-89785000D01*
X164135000Y-89485000D01*
G36*
X162635000Y-89485000D02*
G01*
X162935000Y-89485000D01*
X162935000Y-89785000D01*
X162635000Y-89785000D01*
X162635000Y-89485000D01*
X162635000Y-89485000D01*
G37*
X162635000Y-89485000D02*
X162935000Y-89485000D01*
X162935000Y-89785000D01*
X162635000Y-89785000D01*
X162635000Y-89485000D01*
G36*
X162335000Y-89485000D02*
G01*
X162635000Y-89485000D01*
X162635000Y-89785000D01*
X162335000Y-89785000D01*
X162335000Y-89485000D01*
X162335000Y-89485000D01*
G37*
X162335000Y-89485000D02*
X162635000Y-89485000D01*
X162635000Y-89785000D01*
X162335000Y-89785000D01*
X162335000Y-89485000D01*
G36*
X162035000Y-89485000D02*
G01*
X162335000Y-89485000D01*
X162335000Y-89785000D01*
X162035000Y-89785000D01*
X162035000Y-89485000D01*
X162035000Y-89485000D01*
G37*
X162035000Y-89485000D02*
X162335000Y-89485000D01*
X162335000Y-89785000D01*
X162035000Y-89785000D01*
X162035000Y-89485000D01*
G36*
X161735000Y-89485000D02*
G01*
X162035000Y-89485000D01*
X162035000Y-89785000D01*
X161735000Y-89785000D01*
X161735000Y-89485000D01*
X161735000Y-89485000D01*
G37*
X161735000Y-89485000D02*
X162035000Y-89485000D01*
X162035000Y-89785000D01*
X161735000Y-89785000D01*
X161735000Y-89485000D01*
G36*
X159935000Y-89485000D02*
G01*
X160235000Y-89485000D01*
X160235000Y-89785000D01*
X159935000Y-89785000D01*
X159935000Y-89485000D01*
X159935000Y-89485000D01*
G37*
X159935000Y-89485000D02*
X160235000Y-89485000D01*
X160235000Y-89785000D01*
X159935000Y-89785000D01*
X159935000Y-89485000D01*
G36*
X159635000Y-89485000D02*
G01*
X159935000Y-89485000D01*
X159935000Y-89785000D01*
X159635000Y-89785000D01*
X159635000Y-89485000D01*
X159635000Y-89485000D01*
G37*
X159635000Y-89485000D02*
X159935000Y-89485000D01*
X159935000Y-89785000D01*
X159635000Y-89785000D01*
X159635000Y-89485000D01*
G36*
X159335000Y-89485000D02*
G01*
X159635000Y-89485000D01*
X159635000Y-89785000D01*
X159335000Y-89785000D01*
X159335000Y-89485000D01*
X159335000Y-89485000D01*
G37*
X159335000Y-89485000D02*
X159635000Y-89485000D01*
X159635000Y-89785000D01*
X159335000Y-89785000D01*
X159335000Y-89485000D01*
G36*
X159035000Y-89485000D02*
G01*
X159335000Y-89485000D01*
X159335000Y-89785000D01*
X159035000Y-89785000D01*
X159035000Y-89485000D01*
X159035000Y-89485000D01*
G37*
X159035000Y-89485000D02*
X159335000Y-89485000D01*
X159335000Y-89785000D01*
X159035000Y-89785000D01*
X159035000Y-89485000D01*
G36*
X157235000Y-89485000D02*
G01*
X157535000Y-89485000D01*
X157535000Y-89785000D01*
X157235000Y-89785000D01*
X157235000Y-89485000D01*
X157235000Y-89485000D01*
G37*
X157235000Y-89485000D02*
X157535000Y-89485000D01*
X157535000Y-89785000D01*
X157235000Y-89785000D01*
X157235000Y-89485000D01*
G36*
X156935000Y-89485000D02*
G01*
X157235000Y-89485000D01*
X157235000Y-89785000D01*
X156935000Y-89785000D01*
X156935000Y-89485000D01*
X156935000Y-89485000D01*
G37*
X156935000Y-89485000D02*
X157235000Y-89485000D01*
X157235000Y-89785000D01*
X156935000Y-89785000D01*
X156935000Y-89485000D01*
G36*
X156635000Y-89485000D02*
G01*
X156935000Y-89485000D01*
X156935000Y-89785000D01*
X156635000Y-89785000D01*
X156635000Y-89485000D01*
X156635000Y-89485000D01*
G37*
X156635000Y-89485000D02*
X156935000Y-89485000D01*
X156935000Y-89785000D01*
X156635000Y-89785000D01*
X156635000Y-89485000D01*
G36*
X156335000Y-89485000D02*
G01*
X156635000Y-89485000D01*
X156635000Y-89785000D01*
X156335000Y-89785000D01*
X156335000Y-89485000D01*
X156335000Y-89485000D01*
G37*
X156335000Y-89485000D02*
X156635000Y-89485000D01*
X156635000Y-89785000D01*
X156335000Y-89785000D01*
X156335000Y-89485000D01*
G36*
X154835000Y-89485000D02*
G01*
X155135000Y-89485000D01*
X155135000Y-89785000D01*
X154835000Y-89785000D01*
X154835000Y-89485000D01*
X154835000Y-89485000D01*
G37*
X154835000Y-89485000D02*
X155135000Y-89485000D01*
X155135000Y-89785000D01*
X154835000Y-89785000D01*
X154835000Y-89485000D01*
G36*
X154535000Y-89485000D02*
G01*
X154835000Y-89485000D01*
X154835000Y-89785000D01*
X154535000Y-89785000D01*
X154535000Y-89485000D01*
X154535000Y-89485000D01*
G37*
X154535000Y-89485000D02*
X154835000Y-89485000D01*
X154835000Y-89785000D01*
X154535000Y-89785000D01*
X154535000Y-89485000D01*
G36*
X154235000Y-89485000D02*
G01*
X154535000Y-89485000D01*
X154535000Y-89785000D01*
X154235000Y-89785000D01*
X154235000Y-89485000D01*
X154235000Y-89485000D01*
G37*
X154235000Y-89485000D02*
X154535000Y-89485000D01*
X154535000Y-89785000D01*
X154235000Y-89785000D01*
X154235000Y-89485000D01*
G36*
X164735000Y-89185000D02*
G01*
X165035000Y-89185000D01*
X165035000Y-89485000D01*
X164735000Y-89485000D01*
X164735000Y-89185000D01*
X164735000Y-89185000D01*
G37*
X164735000Y-89185000D02*
X165035000Y-89185000D01*
X165035000Y-89485000D01*
X164735000Y-89485000D01*
X164735000Y-89185000D01*
G36*
X164435000Y-89185000D02*
G01*
X164735000Y-89185000D01*
X164735000Y-89485000D01*
X164435000Y-89485000D01*
X164435000Y-89185000D01*
X164435000Y-89185000D01*
G37*
X164435000Y-89185000D02*
X164735000Y-89185000D01*
X164735000Y-89485000D01*
X164435000Y-89485000D01*
X164435000Y-89185000D01*
G36*
X164135000Y-89185000D02*
G01*
X164435000Y-89185000D01*
X164435000Y-89485000D01*
X164135000Y-89485000D01*
X164135000Y-89185000D01*
X164135000Y-89185000D01*
G37*
X164135000Y-89185000D02*
X164435000Y-89185000D01*
X164435000Y-89485000D01*
X164135000Y-89485000D01*
X164135000Y-89185000D01*
G36*
X162635000Y-89185000D02*
G01*
X162935000Y-89185000D01*
X162935000Y-89485000D01*
X162635000Y-89485000D01*
X162635000Y-89185000D01*
X162635000Y-89185000D01*
G37*
X162635000Y-89185000D02*
X162935000Y-89185000D01*
X162935000Y-89485000D01*
X162635000Y-89485000D01*
X162635000Y-89185000D01*
G36*
X162335000Y-89185000D02*
G01*
X162635000Y-89185000D01*
X162635000Y-89485000D01*
X162335000Y-89485000D01*
X162335000Y-89185000D01*
X162335000Y-89185000D01*
G37*
X162335000Y-89185000D02*
X162635000Y-89185000D01*
X162635000Y-89485000D01*
X162335000Y-89485000D01*
X162335000Y-89185000D01*
G36*
X162035000Y-89185000D02*
G01*
X162335000Y-89185000D01*
X162335000Y-89485000D01*
X162035000Y-89485000D01*
X162035000Y-89185000D01*
X162035000Y-89185000D01*
G37*
X162035000Y-89185000D02*
X162335000Y-89185000D01*
X162335000Y-89485000D01*
X162035000Y-89485000D01*
X162035000Y-89185000D01*
G36*
X159635000Y-89185000D02*
G01*
X159935000Y-89185000D01*
X159935000Y-89485000D01*
X159635000Y-89485000D01*
X159635000Y-89185000D01*
X159635000Y-89185000D01*
G37*
X159635000Y-89185000D02*
X159935000Y-89185000D01*
X159935000Y-89485000D01*
X159635000Y-89485000D01*
X159635000Y-89185000D01*
G36*
X159335000Y-89185000D02*
G01*
X159635000Y-89185000D01*
X159635000Y-89485000D01*
X159335000Y-89485000D01*
X159335000Y-89185000D01*
X159335000Y-89185000D01*
G37*
X159335000Y-89185000D02*
X159635000Y-89185000D01*
X159635000Y-89485000D01*
X159335000Y-89485000D01*
X159335000Y-89185000D01*
G36*
X156935000Y-89185000D02*
G01*
X157235000Y-89185000D01*
X157235000Y-89485000D01*
X156935000Y-89485000D01*
X156935000Y-89185000D01*
X156935000Y-89185000D01*
G37*
X156935000Y-89185000D02*
X157235000Y-89185000D01*
X157235000Y-89485000D01*
X156935000Y-89485000D01*
X156935000Y-89185000D01*
G36*
X156635000Y-89185000D02*
G01*
X156935000Y-89185000D01*
X156935000Y-89485000D01*
X156635000Y-89485000D01*
X156635000Y-89185000D01*
X156635000Y-89185000D01*
G37*
X156635000Y-89185000D02*
X156935000Y-89185000D01*
X156935000Y-89485000D01*
X156635000Y-89485000D01*
X156635000Y-89185000D01*
G36*
X156335000Y-89185000D02*
G01*
X156635000Y-89185000D01*
X156635000Y-89485000D01*
X156335000Y-89485000D01*
X156335000Y-89185000D01*
X156335000Y-89185000D01*
G37*
X156335000Y-89185000D02*
X156635000Y-89185000D01*
X156635000Y-89485000D01*
X156335000Y-89485000D01*
X156335000Y-89185000D01*
G36*
X154835000Y-89185000D02*
G01*
X155135000Y-89185000D01*
X155135000Y-89485000D01*
X154835000Y-89485000D01*
X154835000Y-89185000D01*
X154835000Y-89185000D01*
G37*
X154835000Y-89185000D02*
X155135000Y-89185000D01*
X155135000Y-89485000D01*
X154835000Y-89485000D01*
X154835000Y-89185000D01*
G36*
X154535000Y-89185000D02*
G01*
X154835000Y-89185000D01*
X154835000Y-89485000D01*
X154535000Y-89485000D01*
X154535000Y-89185000D01*
X154535000Y-89185000D01*
G37*
X154535000Y-89185000D02*
X154835000Y-89185000D01*
X154835000Y-89485000D01*
X154535000Y-89485000D01*
X154535000Y-89185000D01*
G36*
X154235000Y-89185000D02*
G01*
X154535000Y-89185000D01*
X154535000Y-89485000D01*
X154235000Y-89485000D01*
X154235000Y-89185000D01*
X154235000Y-89185000D01*
G37*
X154235000Y-89185000D02*
X154535000Y-89185000D01*
X154535000Y-89485000D01*
X154235000Y-89485000D01*
X154235000Y-89185000D01*
G36*
X164735000Y-88885000D02*
G01*
X165035000Y-88885000D01*
X165035000Y-89185000D01*
X164735000Y-89185000D01*
X164735000Y-88885000D01*
X164735000Y-88885000D01*
G37*
X164735000Y-88885000D02*
X165035000Y-88885000D01*
X165035000Y-89185000D01*
X164735000Y-89185000D01*
X164735000Y-88885000D01*
G36*
X164435000Y-88885000D02*
G01*
X164735000Y-88885000D01*
X164735000Y-89185000D01*
X164435000Y-89185000D01*
X164435000Y-88885000D01*
X164435000Y-88885000D01*
G37*
X164435000Y-88885000D02*
X164735000Y-88885000D01*
X164735000Y-89185000D01*
X164435000Y-89185000D01*
X164435000Y-88885000D01*
G36*
X164135000Y-88885000D02*
G01*
X164435000Y-88885000D01*
X164435000Y-89185000D01*
X164135000Y-89185000D01*
X164135000Y-88885000D01*
X164135000Y-88885000D01*
G37*
X164135000Y-88885000D02*
X164435000Y-88885000D01*
X164435000Y-89185000D01*
X164135000Y-89185000D01*
X164135000Y-88885000D01*
G36*
X154835000Y-88885000D02*
G01*
X155135000Y-88885000D01*
X155135000Y-89185000D01*
X154835000Y-89185000D01*
X154835000Y-88885000D01*
X154835000Y-88885000D01*
G37*
X154835000Y-88885000D02*
X155135000Y-88885000D01*
X155135000Y-89185000D01*
X154835000Y-89185000D01*
X154835000Y-88885000D01*
G36*
X154535000Y-88885000D02*
G01*
X154835000Y-88885000D01*
X154835000Y-89185000D01*
X154535000Y-89185000D01*
X154535000Y-88885000D01*
X154535000Y-88885000D01*
G37*
X154535000Y-88885000D02*
X154835000Y-88885000D01*
X154835000Y-89185000D01*
X154535000Y-89185000D01*
X154535000Y-88885000D01*
G36*
X154235000Y-88885000D02*
G01*
X154535000Y-88885000D01*
X154535000Y-89185000D01*
X154235000Y-89185000D01*
X154235000Y-88885000D01*
X154235000Y-88885000D01*
G37*
X154235000Y-88885000D02*
X154535000Y-88885000D01*
X154535000Y-89185000D01*
X154235000Y-89185000D01*
X154235000Y-88885000D01*
G36*
X164735000Y-88585000D02*
G01*
X165035000Y-88585000D01*
X165035000Y-88885000D01*
X164735000Y-88885000D01*
X164735000Y-88585000D01*
X164735000Y-88585000D01*
G37*
X164735000Y-88585000D02*
X165035000Y-88585000D01*
X165035000Y-88885000D01*
X164735000Y-88885000D01*
X164735000Y-88585000D01*
G36*
X164435000Y-88585000D02*
G01*
X164735000Y-88585000D01*
X164735000Y-88885000D01*
X164435000Y-88885000D01*
X164435000Y-88585000D01*
X164435000Y-88585000D01*
G37*
X164435000Y-88585000D02*
X164735000Y-88585000D01*
X164735000Y-88885000D01*
X164435000Y-88885000D01*
X164435000Y-88585000D01*
G36*
X164135000Y-88585000D02*
G01*
X164435000Y-88585000D01*
X164435000Y-88885000D01*
X164135000Y-88885000D01*
X164135000Y-88585000D01*
X164135000Y-88585000D01*
G37*
X164135000Y-88585000D02*
X164435000Y-88585000D01*
X164435000Y-88885000D01*
X164135000Y-88885000D01*
X164135000Y-88585000D01*
G36*
X154835000Y-88585000D02*
G01*
X155135000Y-88585000D01*
X155135000Y-88885000D01*
X154835000Y-88885000D01*
X154835000Y-88585000D01*
X154835000Y-88585000D01*
G37*
X154835000Y-88585000D02*
X155135000Y-88585000D01*
X155135000Y-88885000D01*
X154835000Y-88885000D01*
X154835000Y-88585000D01*
G36*
X154535000Y-88585000D02*
G01*
X154835000Y-88585000D01*
X154835000Y-88885000D01*
X154535000Y-88885000D01*
X154535000Y-88585000D01*
X154535000Y-88585000D01*
G37*
X154535000Y-88585000D02*
X154835000Y-88585000D01*
X154835000Y-88885000D01*
X154535000Y-88885000D01*
X154535000Y-88585000D01*
G36*
X154235000Y-88585000D02*
G01*
X154535000Y-88585000D01*
X154535000Y-88885000D01*
X154235000Y-88885000D01*
X154235000Y-88585000D01*
X154235000Y-88585000D01*
G37*
X154235000Y-88585000D02*
X154535000Y-88585000D01*
X154535000Y-88885000D01*
X154235000Y-88885000D01*
X154235000Y-88585000D01*
G36*
X164735000Y-88285000D02*
G01*
X165035000Y-88285000D01*
X165035000Y-88585000D01*
X164735000Y-88585000D01*
X164735000Y-88285000D01*
X164735000Y-88285000D01*
G37*
X164735000Y-88285000D02*
X165035000Y-88285000D01*
X165035000Y-88585000D01*
X164735000Y-88585000D01*
X164735000Y-88285000D01*
G36*
X164435000Y-88285000D02*
G01*
X164735000Y-88285000D01*
X164735000Y-88585000D01*
X164435000Y-88585000D01*
X164435000Y-88285000D01*
X164435000Y-88285000D01*
G37*
X164435000Y-88285000D02*
X164735000Y-88285000D01*
X164735000Y-88585000D01*
X164435000Y-88585000D01*
X164435000Y-88285000D01*
G36*
X164135000Y-88285000D02*
G01*
X164435000Y-88285000D01*
X164435000Y-88585000D01*
X164135000Y-88585000D01*
X164135000Y-88285000D01*
X164135000Y-88285000D01*
G37*
X164135000Y-88285000D02*
X164435000Y-88285000D01*
X164435000Y-88585000D01*
X164135000Y-88585000D01*
X164135000Y-88285000D01*
G36*
X154835000Y-88285000D02*
G01*
X155135000Y-88285000D01*
X155135000Y-88585000D01*
X154835000Y-88585000D01*
X154835000Y-88285000D01*
X154835000Y-88285000D01*
G37*
X154835000Y-88285000D02*
X155135000Y-88285000D01*
X155135000Y-88585000D01*
X154835000Y-88585000D01*
X154835000Y-88285000D01*
G36*
X154535000Y-88285000D02*
G01*
X154835000Y-88285000D01*
X154835000Y-88585000D01*
X154535000Y-88585000D01*
X154535000Y-88285000D01*
X154535000Y-88285000D01*
G37*
X154535000Y-88285000D02*
X154835000Y-88285000D01*
X154835000Y-88585000D01*
X154535000Y-88585000D01*
X154535000Y-88285000D01*
G36*
X154235000Y-88285000D02*
G01*
X154535000Y-88285000D01*
X154535000Y-88585000D01*
X154235000Y-88585000D01*
X154235000Y-88285000D01*
X154235000Y-88285000D01*
G37*
X154235000Y-88285000D02*
X154535000Y-88285000D01*
X154535000Y-88585000D01*
X154235000Y-88585000D01*
X154235000Y-88285000D01*
G36*
X164735000Y-87985000D02*
G01*
X165035000Y-87985000D01*
X165035000Y-88285000D01*
X164735000Y-88285000D01*
X164735000Y-87985000D01*
X164735000Y-87985000D01*
G37*
X164735000Y-87985000D02*
X165035000Y-87985000D01*
X165035000Y-88285000D01*
X164735000Y-88285000D01*
X164735000Y-87985000D01*
G36*
X164435000Y-87985000D02*
G01*
X164735000Y-87985000D01*
X164735000Y-88285000D01*
X164435000Y-88285000D01*
X164435000Y-87985000D01*
X164435000Y-87985000D01*
G37*
X164435000Y-87985000D02*
X164735000Y-87985000D01*
X164735000Y-88285000D01*
X164435000Y-88285000D01*
X164435000Y-87985000D01*
G36*
X164135000Y-87985000D02*
G01*
X164435000Y-87985000D01*
X164435000Y-88285000D01*
X164135000Y-88285000D01*
X164135000Y-87985000D01*
X164135000Y-87985000D01*
G37*
X164135000Y-87985000D02*
X164435000Y-87985000D01*
X164435000Y-88285000D01*
X164135000Y-88285000D01*
X164135000Y-87985000D01*
G36*
X162335000Y-87985000D02*
G01*
X162635000Y-87985000D01*
X162635000Y-88285000D01*
X162335000Y-88285000D01*
X162335000Y-87985000D01*
X162335000Y-87985000D01*
G37*
X162335000Y-87985000D02*
X162635000Y-87985000D01*
X162635000Y-88285000D01*
X162335000Y-88285000D01*
X162335000Y-87985000D01*
G36*
X162035000Y-87985000D02*
G01*
X162335000Y-87985000D01*
X162335000Y-88285000D01*
X162035000Y-88285000D01*
X162035000Y-87985000D01*
X162035000Y-87985000D01*
G37*
X162035000Y-87985000D02*
X162335000Y-87985000D01*
X162335000Y-88285000D01*
X162035000Y-88285000D01*
X162035000Y-87985000D01*
G36*
X159635000Y-87985000D02*
G01*
X159935000Y-87985000D01*
X159935000Y-88285000D01*
X159635000Y-88285000D01*
X159635000Y-87985000D01*
X159635000Y-87985000D01*
G37*
X159635000Y-87985000D02*
X159935000Y-87985000D01*
X159935000Y-88285000D01*
X159635000Y-88285000D01*
X159635000Y-87985000D01*
G36*
X159335000Y-87985000D02*
G01*
X159635000Y-87985000D01*
X159635000Y-88285000D01*
X159335000Y-88285000D01*
X159335000Y-87985000D01*
X159335000Y-87985000D01*
G37*
X159335000Y-87985000D02*
X159635000Y-87985000D01*
X159635000Y-88285000D01*
X159335000Y-88285000D01*
X159335000Y-87985000D01*
G36*
X156935000Y-87985000D02*
G01*
X157235000Y-87985000D01*
X157235000Y-88285000D01*
X156935000Y-88285000D01*
X156935000Y-87985000D01*
X156935000Y-87985000D01*
G37*
X156935000Y-87985000D02*
X157235000Y-87985000D01*
X157235000Y-88285000D01*
X156935000Y-88285000D01*
X156935000Y-87985000D01*
G36*
X156635000Y-87985000D02*
G01*
X156935000Y-87985000D01*
X156935000Y-88285000D01*
X156635000Y-88285000D01*
X156635000Y-87985000D01*
X156635000Y-87985000D01*
G37*
X156635000Y-87985000D02*
X156935000Y-87985000D01*
X156935000Y-88285000D01*
X156635000Y-88285000D01*
X156635000Y-87985000D01*
G36*
X154835000Y-87985000D02*
G01*
X155135000Y-87985000D01*
X155135000Y-88285000D01*
X154835000Y-88285000D01*
X154835000Y-87985000D01*
X154835000Y-87985000D01*
G37*
X154835000Y-87985000D02*
X155135000Y-87985000D01*
X155135000Y-88285000D01*
X154835000Y-88285000D01*
X154835000Y-87985000D01*
G36*
X154535000Y-87985000D02*
G01*
X154835000Y-87985000D01*
X154835000Y-88285000D01*
X154535000Y-88285000D01*
X154535000Y-87985000D01*
X154535000Y-87985000D01*
G37*
X154535000Y-87985000D02*
X154835000Y-87985000D01*
X154835000Y-88285000D01*
X154535000Y-88285000D01*
X154535000Y-87985000D01*
G36*
X154235000Y-87985000D02*
G01*
X154535000Y-87985000D01*
X154535000Y-88285000D01*
X154235000Y-88285000D01*
X154235000Y-87985000D01*
X154235000Y-87985000D01*
G37*
X154235000Y-87985000D02*
X154535000Y-87985000D01*
X154535000Y-88285000D01*
X154235000Y-88285000D01*
X154235000Y-87985000D01*
G36*
X164735000Y-87685000D02*
G01*
X165035000Y-87685000D01*
X165035000Y-87985000D01*
X164735000Y-87985000D01*
X164735000Y-87685000D01*
X164735000Y-87685000D01*
G37*
X164735000Y-87685000D02*
X165035000Y-87685000D01*
X165035000Y-87985000D01*
X164735000Y-87985000D01*
X164735000Y-87685000D01*
G36*
X164435000Y-87685000D02*
G01*
X164735000Y-87685000D01*
X164735000Y-87985000D01*
X164435000Y-87985000D01*
X164435000Y-87685000D01*
X164435000Y-87685000D01*
G37*
X164435000Y-87685000D02*
X164735000Y-87685000D01*
X164735000Y-87985000D01*
X164435000Y-87985000D01*
X164435000Y-87685000D01*
G36*
X164135000Y-87685000D02*
G01*
X164435000Y-87685000D01*
X164435000Y-87985000D01*
X164135000Y-87985000D01*
X164135000Y-87685000D01*
X164135000Y-87685000D01*
G37*
X164135000Y-87685000D02*
X164435000Y-87685000D01*
X164435000Y-87985000D01*
X164135000Y-87985000D01*
X164135000Y-87685000D01*
G36*
X162635000Y-87685000D02*
G01*
X162935000Y-87685000D01*
X162935000Y-87985000D01*
X162635000Y-87985000D01*
X162635000Y-87685000D01*
X162635000Y-87685000D01*
G37*
X162635000Y-87685000D02*
X162935000Y-87685000D01*
X162935000Y-87985000D01*
X162635000Y-87985000D01*
X162635000Y-87685000D01*
G36*
X162335000Y-87685000D02*
G01*
X162635000Y-87685000D01*
X162635000Y-87985000D01*
X162335000Y-87985000D01*
X162335000Y-87685000D01*
X162335000Y-87685000D01*
G37*
X162335000Y-87685000D02*
X162635000Y-87685000D01*
X162635000Y-87985000D01*
X162335000Y-87985000D01*
X162335000Y-87685000D01*
G36*
X162035000Y-87685000D02*
G01*
X162335000Y-87685000D01*
X162335000Y-87985000D01*
X162035000Y-87985000D01*
X162035000Y-87685000D01*
X162035000Y-87685000D01*
G37*
X162035000Y-87685000D02*
X162335000Y-87685000D01*
X162335000Y-87985000D01*
X162035000Y-87985000D01*
X162035000Y-87685000D01*
G36*
X161735000Y-87685000D02*
G01*
X162035000Y-87685000D01*
X162035000Y-87985000D01*
X161735000Y-87985000D01*
X161735000Y-87685000D01*
X161735000Y-87685000D01*
G37*
X161735000Y-87685000D02*
X162035000Y-87685000D01*
X162035000Y-87985000D01*
X161735000Y-87985000D01*
X161735000Y-87685000D01*
G36*
X159935000Y-87685000D02*
G01*
X160235000Y-87685000D01*
X160235000Y-87985000D01*
X159935000Y-87985000D01*
X159935000Y-87685000D01*
X159935000Y-87685000D01*
G37*
X159935000Y-87685000D02*
X160235000Y-87685000D01*
X160235000Y-87985000D01*
X159935000Y-87985000D01*
X159935000Y-87685000D01*
G36*
X159635000Y-87685000D02*
G01*
X159935000Y-87685000D01*
X159935000Y-87985000D01*
X159635000Y-87985000D01*
X159635000Y-87685000D01*
X159635000Y-87685000D01*
G37*
X159635000Y-87685000D02*
X159935000Y-87685000D01*
X159935000Y-87985000D01*
X159635000Y-87985000D01*
X159635000Y-87685000D01*
G36*
X159335000Y-87685000D02*
G01*
X159635000Y-87685000D01*
X159635000Y-87985000D01*
X159335000Y-87985000D01*
X159335000Y-87685000D01*
X159335000Y-87685000D01*
G37*
X159335000Y-87685000D02*
X159635000Y-87685000D01*
X159635000Y-87985000D01*
X159335000Y-87985000D01*
X159335000Y-87685000D01*
G36*
X159035000Y-87685000D02*
G01*
X159335000Y-87685000D01*
X159335000Y-87985000D01*
X159035000Y-87985000D01*
X159035000Y-87685000D01*
X159035000Y-87685000D01*
G37*
X159035000Y-87685000D02*
X159335000Y-87685000D01*
X159335000Y-87985000D01*
X159035000Y-87985000D01*
X159035000Y-87685000D01*
G36*
X157235000Y-87685000D02*
G01*
X157535000Y-87685000D01*
X157535000Y-87985000D01*
X157235000Y-87985000D01*
X157235000Y-87685000D01*
X157235000Y-87685000D01*
G37*
X157235000Y-87685000D02*
X157535000Y-87685000D01*
X157535000Y-87985000D01*
X157235000Y-87985000D01*
X157235000Y-87685000D01*
G36*
X156935000Y-87685000D02*
G01*
X157235000Y-87685000D01*
X157235000Y-87985000D01*
X156935000Y-87985000D01*
X156935000Y-87685000D01*
X156935000Y-87685000D01*
G37*
X156935000Y-87685000D02*
X157235000Y-87685000D01*
X157235000Y-87985000D01*
X156935000Y-87985000D01*
X156935000Y-87685000D01*
G36*
X156635000Y-87685000D02*
G01*
X156935000Y-87685000D01*
X156935000Y-87985000D01*
X156635000Y-87985000D01*
X156635000Y-87685000D01*
X156635000Y-87685000D01*
G37*
X156635000Y-87685000D02*
X156935000Y-87685000D01*
X156935000Y-87985000D01*
X156635000Y-87985000D01*
X156635000Y-87685000D01*
G36*
X156335000Y-87685000D02*
G01*
X156635000Y-87685000D01*
X156635000Y-87985000D01*
X156335000Y-87985000D01*
X156335000Y-87685000D01*
X156335000Y-87685000D01*
G37*
X156335000Y-87685000D02*
X156635000Y-87685000D01*
X156635000Y-87985000D01*
X156335000Y-87985000D01*
X156335000Y-87685000D01*
G36*
X154835000Y-87685000D02*
G01*
X155135000Y-87685000D01*
X155135000Y-87985000D01*
X154835000Y-87985000D01*
X154835000Y-87685000D01*
X154835000Y-87685000D01*
G37*
X154835000Y-87685000D02*
X155135000Y-87685000D01*
X155135000Y-87985000D01*
X154835000Y-87985000D01*
X154835000Y-87685000D01*
G36*
X154535000Y-87685000D02*
G01*
X154835000Y-87685000D01*
X154835000Y-87985000D01*
X154535000Y-87985000D01*
X154535000Y-87685000D01*
X154535000Y-87685000D01*
G37*
X154535000Y-87685000D02*
X154835000Y-87685000D01*
X154835000Y-87985000D01*
X154535000Y-87985000D01*
X154535000Y-87685000D01*
G36*
X154235000Y-87685000D02*
G01*
X154535000Y-87685000D01*
X154535000Y-87985000D01*
X154235000Y-87985000D01*
X154235000Y-87685000D01*
X154235000Y-87685000D01*
G37*
X154235000Y-87685000D02*
X154535000Y-87685000D01*
X154535000Y-87985000D01*
X154235000Y-87985000D01*
X154235000Y-87685000D01*
G36*
X164735000Y-87385000D02*
G01*
X165035000Y-87385000D01*
X165035000Y-87685000D01*
X164735000Y-87685000D01*
X164735000Y-87385000D01*
X164735000Y-87385000D01*
G37*
X164735000Y-87385000D02*
X165035000Y-87385000D01*
X165035000Y-87685000D01*
X164735000Y-87685000D01*
X164735000Y-87385000D01*
G36*
X164435000Y-87385000D02*
G01*
X164735000Y-87385000D01*
X164735000Y-87685000D01*
X164435000Y-87685000D01*
X164435000Y-87385000D01*
X164435000Y-87385000D01*
G37*
X164435000Y-87385000D02*
X164735000Y-87385000D01*
X164735000Y-87685000D01*
X164435000Y-87685000D01*
X164435000Y-87385000D01*
G36*
X164135000Y-87385000D02*
G01*
X164435000Y-87385000D01*
X164435000Y-87685000D01*
X164135000Y-87685000D01*
X164135000Y-87385000D01*
X164135000Y-87385000D01*
G37*
X164135000Y-87385000D02*
X164435000Y-87385000D01*
X164435000Y-87685000D01*
X164135000Y-87685000D01*
X164135000Y-87385000D01*
G36*
X162635000Y-87385000D02*
G01*
X162935000Y-87385000D01*
X162935000Y-87685000D01*
X162635000Y-87685000D01*
X162635000Y-87385000D01*
X162635000Y-87385000D01*
G37*
X162635000Y-87385000D02*
X162935000Y-87385000D01*
X162935000Y-87685000D01*
X162635000Y-87685000D01*
X162635000Y-87385000D01*
G36*
X162335000Y-87385000D02*
G01*
X162635000Y-87385000D01*
X162635000Y-87685000D01*
X162335000Y-87685000D01*
X162335000Y-87385000D01*
X162335000Y-87385000D01*
G37*
X162335000Y-87385000D02*
X162635000Y-87385000D01*
X162635000Y-87685000D01*
X162335000Y-87685000D01*
X162335000Y-87385000D01*
G36*
X162035000Y-87385000D02*
G01*
X162335000Y-87385000D01*
X162335000Y-87685000D01*
X162035000Y-87685000D01*
X162035000Y-87385000D01*
X162035000Y-87385000D01*
G37*
X162035000Y-87385000D02*
X162335000Y-87385000D01*
X162335000Y-87685000D01*
X162035000Y-87685000D01*
X162035000Y-87385000D01*
G36*
X161735000Y-87385000D02*
G01*
X162035000Y-87385000D01*
X162035000Y-87685000D01*
X161735000Y-87685000D01*
X161735000Y-87385000D01*
X161735000Y-87385000D01*
G37*
X161735000Y-87385000D02*
X162035000Y-87385000D01*
X162035000Y-87685000D01*
X161735000Y-87685000D01*
X161735000Y-87385000D01*
G36*
X159935000Y-87385000D02*
G01*
X160235000Y-87385000D01*
X160235000Y-87685000D01*
X159935000Y-87685000D01*
X159935000Y-87385000D01*
X159935000Y-87385000D01*
G37*
X159935000Y-87385000D02*
X160235000Y-87385000D01*
X160235000Y-87685000D01*
X159935000Y-87685000D01*
X159935000Y-87385000D01*
G36*
X159635000Y-87385000D02*
G01*
X159935000Y-87385000D01*
X159935000Y-87685000D01*
X159635000Y-87685000D01*
X159635000Y-87385000D01*
X159635000Y-87385000D01*
G37*
X159635000Y-87385000D02*
X159935000Y-87385000D01*
X159935000Y-87685000D01*
X159635000Y-87685000D01*
X159635000Y-87385000D01*
G36*
X159335000Y-87385000D02*
G01*
X159635000Y-87385000D01*
X159635000Y-87685000D01*
X159335000Y-87685000D01*
X159335000Y-87385000D01*
X159335000Y-87385000D01*
G37*
X159335000Y-87385000D02*
X159635000Y-87385000D01*
X159635000Y-87685000D01*
X159335000Y-87685000D01*
X159335000Y-87385000D01*
G36*
X159035000Y-87385000D02*
G01*
X159335000Y-87385000D01*
X159335000Y-87685000D01*
X159035000Y-87685000D01*
X159035000Y-87385000D01*
X159035000Y-87385000D01*
G37*
X159035000Y-87385000D02*
X159335000Y-87385000D01*
X159335000Y-87685000D01*
X159035000Y-87685000D01*
X159035000Y-87385000D01*
G36*
X157235000Y-87385000D02*
G01*
X157535000Y-87385000D01*
X157535000Y-87685000D01*
X157235000Y-87685000D01*
X157235000Y-87385000D01*
X157235000Y-87385000D01*
G37*
X157235000Y-87385000D02*
X157535000Y-87385000D01*
X157535000Y-87685000D01*
X157235000Y-87685000D01*
X157235000Y-87385000D01*
G36*
X156935000Y-87385000D02*
G01*
X157235000Y-87385000D01*
X157235000Y-87685000D01*
X156935000Y-87685000D01*
X156935000Y-87385000D01*
X156935000Y-87385000D01*
G37*
X156935000Y-87385000D02*
X157235000Y-87385000D01*
X157235000Y-87685000D01*
X156935000Y-87685000D01*
X156935000Y-87385000D01*
G36*
X156635000Y-87385000D02*
G01*
X156935000Y-87385000D01*
X156935000Y-87685000D01*
X156635000Y-87685000D01*
X156635000Y-87385000D01*
X156635000Y-87385000D01*
G37*
X156635000Y-87385000D02*
X156935000Y-87385000D01*
X156935000Y-87685000D01*
X156635000Y-87685000D01*
X156635000Y-87385000D01*
G36*
X156335000Y-87385000D02*
G01*
X156635000Y-87385000D01*
X156635000Y-87685000D01*
X156335000Y-87685000D01*
X156335000Y-87385000D01*
X156335000Y-87385000D01*
G37*
X156335000Y-87385000D02*
X156635000Y-87385000D01*
X156635000Y-87685000D01*
X156335000Y-87685000D01*
X156335000Y-87385000D01*
G36*
X154835000Y-87385000D02*
G01*
X155135000Y-87385000D01*
X155135000Y-87685000D01*
X154835000Y-87685000D01*
X154835000Y-87385000D01*
X154835000Y-87385000D01*
G37*
X154835000Y-87385000D02*
X155135000Y-87385000D01*
X155135000Y-87685000D01*
X154835000Y-87685000D01*
X154835000Y-87385000D01*
G36*
X154535000Y-87385000D02*
G01*
X154835000Y-87385000D01*
X154835000Y-87685000D01*
X154535000Y-87685000D01*
X154535000Y-87385000D01*
X154535000Y-87385000D01*
G37*
X154535000Y-87385000D02*
X154835000Y-87385000D01*
X154835000Y-87685000D01*
X154535000Y-87685000D01*
X154535000Y-87385000D01*
G36*
X154235000Y-87385000D02*
G01*
X154535000Y-87385000D01*
X154535000Y-87685000D01*
X154235000Y-87685000D01*
X154235000Y-87385000D01*
X154235000Y-87385000D01*
G37*
X154235000Y-87385000D02*
X154535000Y-87385000D01*
X154535000Y-87685000D01*
X154235000Y-87685000D01*
X154235000Y-87385000D01*
G36*
X164735000Y-87085000D02*
G01*
X165035000Y-87085000D01*
X165035000Y-87385000D01*
X164735000Y-87385000D01*
X164735000Y-87085000D01*
X164735000Y-87085000D01*
G37*
X164735000Y-87085000D02*
X165035000Y-87085000D01*
X165035000Y-87385000D01*
X164735000Y-87385000D01*
X164735000Y-87085000D01*
G36*
X164435000Y-87085000D02*
G01*
X164735000Y-87085000D01*
X164735000Y-87385000D01*
X164435000Y-87385000D01*
X164435000Y-87085000D01*
X164435000Y-87085000D01*
G37*
X164435000Y-87085000D02*
X164735000Y-87085000D01*
X164735000Y-87385000D01*
X164435000Y-87385000D01*
X164435000Y-87085000D01*
G36*
X164135000Y-87085000D02*
G01*
X164435000Y-87085000D01*
X164435000Y-87385000D01*
X164135000Y-87385000D01*
X164135000Y-87085000D01*
X164135000Y-87085000D01*
G37*
X164135000Y-87085000D02*
X164435000Y-87085000D01*
X164435000Y-87385000D01*
X164135000Y-87385000D01*
X164135000Y-87085000D01*
G36*
X162635000Y-87085000D02*
G01*
X162935000Y-87085000D01*
X162935000Y-87385000D01*
X162635000Y-87385000D01*
X162635000Y-87085000D01*
X162635000Y-87085000D01*
G37*
X162635000Y-87085000D02*
X162935000Y-87085000D01*
X162935000Y-87385000D01*
X162635000Y-87385000D01*
X162635000Y-87085000D01*
G36*
X162335000Y-87085000D02*
G01*
X162635000Y-87085000D01*
X162635000Y-87385000D01*
X162335000Y-87385000D01*
X162335000Y-87085000D01*
X162335000Y-87085000D01*
G37*
X162335000Y-87085000D02*
X162635000Y-87085000D01*
X162635000Y-87385000D01*
X162335000Y-87385000D01*
X162335000Y-87085000D01*
G36*
X162035000Y-87085000D02*
G01*
X162335000Y-87085000D01*
X162335000Y-87385000D01*
X162035000Y-87385000D01*
X162035000Y-87085000D01*
X162035000Y-87085000D01*
G37*
X162035000Y-87085000D02*
X162335000Y-87085000D01*
X162335000Y-87385000D01*
X162035000Y-87385000D01*
X162035000Y-87085000D01*
G36*
X159935000Y-87085000D02*
G01*
X160235000Y-87085000D01*
X160235000Y-87385000D01*
X159935000Y-87385000D01*
X159935000Y-87085000D01*
X159935000Y-87085000D01*
G37*
X159935000Y-87085000D02*
X160235000Y-87085000D01*
X160235000Y-87385000D01*
X159935000Y-87385000D01*
X159935000Y-87085000D01*
G36*
X159635000Y-87085000D02*
G01*
X159935000Y-87085000D01*
X159935000Y-87385000D01*
X159635000Y-87385000D01*
X159635000Y-87085000D01*
X159635000Y-87085000D01*
G37*
X159635000Y-87085000D02*
X159935000Y-87085000D01*
X159935000Y-87385000D01*
X159635000Y-87385000D01*
X159635000Y-87085000D01*
G36*
X159335000Y-87085000D02*
G01*
X159635000Y-87085000D01*
X159635000Y-87385000D01*
X159335000Y-87385000D01*
X159335000Y-87085000D01*
X159335000Y-87085000D01*
G37*
X159335000Y-87085000D02*
X159635000Y-87085000D01*
X159635000Y-87385000D01*
X159335000Y-87385000D01*
X159335000Y-87085000D01*
G36*
X159035000Y-87085000D02*
G01*
X159335000Y-87085000D01*
X159335000Y-87385000D01*
X159035000Y-87385000D01*
X159035000Y-87085000D01*
X159035000Y-87085000D01*
G37*
X159035000Y-87085000D02*
X159335000Y-87085000D01*
X159335000Y-87385000D01*
X159035000Y-87385000D01*
X159035000Y-87085000D01*
G36*
X156935000Y-87085000D02*
G01*
X157235000Y-87085000D01*
X157235000Y-87385000D01*
X156935000Y-87385000D01*
X156935000Y-87085000D01*
X156935000Y-87085000D01*
G37*
X156935000Y-87085000D02*
X157235000Y-87085000D01*
X157235000Y-87385000D01*
X156935000Y-87385000D01*
X156935000Y-87085000D01*
G36*
X156635000Y-87085000D02*
G01*
X156935000Y-87085000D01*
X156935000Y-87385000D01*
X156635000Y-87385000D01*
X156635000Y-87085000D01*
X156635000Y-87085000D01*
G37*
X156635000Y-87085000D02*
X156935000Y-87085000D01*
X156935000Y-87385000D01*
X156635000Y-87385000D01*
X156635000Y-87085000D01*
G36*
X156335000Y-87085000D02*
G01*
X156635000Y-87085000D01*
X156635000Y-87385000D01*
X156335000Y-87385000D01*
X156335000Y-87085000D01*
X156335000Y-87085000D01*
G37*
X156335000Y-87085000D02*
X156635000Y-87085000D01*
X156635000Y-87385000D01*
X156335000Y-87385000D01*
X156335000Y-87085000D01*
G36*
X154835000Y-87085000D02*
G01*
X155135000Y-87085000D01*
X155135000Y-87385000D01*
X154835000Y-87385000D01*
X154835000Y-87085000D01*
X154835000Y-87085000D01*
G37*
X154835000Y-87085000D02*
X155135000Y-87085000D01*
X155135000Y-87385000D01*
X154835000Y-87385000D01*
X154835000Y-87085000D01*
G36*
X154535000Y-87085000D02*
G01*
X154835000Y-87085000D01*
X154835000Y-87385000D01*
X154535000Y-87385000D01*
X154535000Y-87085000D01*
X154535000Y-87085000D01*
G37*
X154535000Y-87085000D02*
X154835000Y-87085000D01*
X154835000Y-87385000D01*
X154535000Y-87385000D01*
X154535000Y-87085000D01*
G36*
X154235000Y-87085000D02*
G01*
X154535000Y-87085000D01*
X154535000Y-87385000D01*
X154235000Y-87385000D01*
X154235000Y-87085000D01*
X154235000Y-87085000D01*
G37*
X154235000Y-87085000D02*
X154535000Y-87085000D01*
X154535000Y-87385000D01*
X154235000Y-87385000D01*
X154235000Y-87085000D01*
G36*
X164735000Y-86785000D02*
G01*
X165035000Y-86785000D01*
X165035000Y-87085000D01*
X164735000Y-87085000D01*
X164735000Y-86785000D01*
X164735000Y-86785000D01*
G37*
X164735000Y-86785000D02*
X165035000Y-86785000D01*
X165035000Y-87085000D01*
X164735000Y-87085000D01*
X164735000Y-86785000D01*
G36*
X164435000Y-86785000D02*
G01*
X164735000Y-86785000D01*
X164735000Y-87085000D01*
X164435000Y-87085000D01*
X164435000Y-86785000D01*
X164435000Y-86785000D01*
G37*
X164435000Y-86785000D02*
X164735000Y-86785000D01*
X164735000Y-87085000D01*
X164435000Y-87085000D01*
X164435000Y-86785000D01*
G36*
X164135000Y-86785000D02*
G01*
X164435000Y-86785000D01*
X164435000Y-87085000D01*
X164135000Y-87085000D01*
X164135000Y-86785000D01*
X164135000Y-86785000D01*
G37*
X164135000Y-86785000D02*
X164435000Y-86785000D01*
X164435000Y-87085000D01*
X164135000Y-87085000D01*
X164135000Y-86785000D01*
G36*
X154835000Y-86785000D02*
G01*
X155135000Y-86785000D01*
X155135000Y-87085000D01*
X154835000Y-87085000D01*
X154835000Y-86785000D01*
X154835000Y-86785000D01*
G37*
X154835000Y-86785000D02*
X155135000Y-86785000D01*
X155135000Y-87085000D01*
X154835000Y-87085000D01*
X154835000Y-86785000D01*
G36*
X154535000Y-86785000D02*
G01*
X154835000Y-86785000D01*
X154835000Y-87085000D01*
X154535000Y-87085000D01*
X154535000Y-86785000D01*
X154535000Y-86785000D01*
G37*
X154535000Y-86785000D02*
X154835000Y-86785000D01*
X154835000Y-87085000D01*
X154535000Y-87085000D01*
X154535000Y-86785000D01*
G36*
X154235000Y-86785000D02*
G01*
X154535000Y-86785000D01*
X154535000Y-87085000D01*
X154235000Y-87085000D01*
X154235000Y-86785000D01*
X154235000Y-86785000D01*
G37*
X154235000Y-86785000D02*
X154535000Y-86785000D01*
X154535000Y-87085000D01*
X154235000Y-87085000D01*
X154235000Y-86785000D01*
G36*
X164735000Y-86485000D02*
G01*
X165035000Y-86485000D01*
X165035000Y-86785000D01*
X164735000Y-86785000D01*
X164735000Y-86485000D01*
X164735000Y-86485000D01*
G37*
X164735000Y-86485000D02*
X165035000Y-86485000D01*
X165035000Y-86785000D01*
X164735000Y-86785000D01*
X164735000Y-86485000D01*
G36*
X164435000Y-86485000D02*
G01*
X164735000Y-86485000D01*
X164735000Y-86785000D01*
X164435000Y-86785000D01*
X164435000Y-86485000D01*
X164435000Y-86485000D01*
G37*
X164435000Y-86485000D02*
X164735000Y-86485000D01*
X164735000Y-86785000D01*
X164435000Y-86785000D01*
X164435000Y-86485000D01*
G36*
X164135000Y-86485000D02*
G01*
X164435000Y-86485000D01*
X164435000Y-86785000D01*
X164135000Y-86785000D01*
X164135000Y-86485000D01*
X164135000Y-86485000D01*
G37*
X164135000Y-86485000D02*
X164435000Y-86485000D01*
X164435000Y-86785000D01*
X164135000Y-86785000D01*
X164135000Y-86485000D01*
G36*
X154835000Y-86485000D02*
G01*
X155135000Y-86485000D01*
X155135000Y-86785000D01*
X154835000Y-86785000D01*
X154835000Y-86485000D01*
X154835000Y-86485000D01*
G37*
X154835000Y-86485000D02*
X155135000Y-86485000D01*
X155135000Y-86785000D01*
X154835000Y-86785000D01*
X154835000Y-86485000D01*
G36*
X154535000Y-86485000D02*
G01*
X154835000Y-86485000D01*
X154835000Y-86785000D01*
X154535000Y-86785000D01*
X154535000Y-86485000D01*
X154535000Y-86485000D01*
G37*
X154535000Y-86485000D02*
X154835000Y-86485000D01*
X154835000Y-86785000D01*
X154535000Y-86785000D01*
X154535000Y-86485000D01*
G36*
X154235000Y-86485000D02*
G01*
X154535000Y-86485000D01*
X154535000Y-86785000D01*
X154235000Y-86785000D01*
X154235000Y-86485000D01*
X154235000Y-86485000D01*
G37*
X154235000Y-86485000D02*
X154535000Y-86485000D01*
X154535000Y-86785000D01*
X154235000Y-86785000D01*
X154235000Y-86485000D01*
G36*
X164735000Y-86185000D02*
G01*
X165035000Y-86185000D01*
X165035000Y-86485000D01*
X164735000Y-86485000D01*
X164735000Y-86185000D01*
X164735000Y-86185000D01*
G37*
X164735000Y-86185000D02*
X165035000Y-86185000D01*
X165035000Y-86485000D01*
X164735000Y-86485000D01*
X164735000Y-86185000D01*
G36*
X164435000Y-86185000D02*
G01*
X164735000Y-86185000D01*
X164735000Y-86485000D01*
X164435000Y-86485000D01*
X164435000Y-86185000D01*
X164435000Y-86185000D01*
G37*
X164435000Y-86185000D02*
X164735000Y-86185000D01*
X164735000Y-86485000D01*
X164435000Y-86485000D01*
X164435000Y-86185000D01*
G36*
X164135000Y-86185000D02*
G01*
X164435000Y-86185000D01*
X164435000Y-86485000D01*
X164135000Y-86485000D01*
X164135000Y-86185000D01*
X164135000Y-86185000D01*
G37*
X164135000Y-86185000D02*
X164435000Y-86185000D01*
X164435000Y-86485000D01*
X164135000Y-86485000D01*
X164135000Y-86185000D01*
G36*
X163835000Y-86185000D02*
G01*
X164135000Y-86185000D01*
X164135000Y-86485000D01*
X163835000Y-86485000D01*
X163835000Y-86185000D01*
X163835000Y-86185000D01*
G37*
X163835000Y-86185000D02*
X164135000Y-86185000D01*
X164135000Y-86485000D01*
X163835000Y-86485000D01*
X163835000Y-86185000D01*
G36*
X155135000Y-86185000D02*
G01*
X155435000Y-86185000D01*
X155435000Y-86485000D01*
X155135000Y-86485000D01*
X155135000Y-86185000D01*
X155135000Y-86185000D01*
G37*
X155135000Y-86185000D02*
X155435000Y-86185000D01*
X155435000Y-86485000D01*
X155135000Y-86485000D01*
X155135000Y-86185000D01*
G36*
X154835000Y-86185000D02*
G01*
X155135000Y-86185000D01*
X155135000Y-86485000D01*
X154835000Y-86485000D01*
X154835000Y-86185000D01*
X154835000Y-86185000D01*
G37*
X154835000Y-86185000D02*
X155135000Y-86185000D01*
X155135000Y-86485000D01*
X154835000Y-86485000D01*
X154835000Y-86185000D01*
G36*
X154535000Y-86185000D02*
G01*
X154835000Y-86185000D01*
X154835000Y-86485000D01*
X154535000Y-86485000D01*
X154535000Y-86185000D01*
X154535000Y-86185000D01*
G37*
X154535000Y-86185000D02*
X154835000Y-86185000D01*
X154835000Y-86485000D01*
X154535000Y-86485000D01*
X154535000Y-86185000D01*
G36*
X154235000Y-86185000D02*
G01*
X154535000Y-86185000D01*
X154535000Y-86485000D01*
X154235000Y-86485000D01*
X154235000Y-86185000D01*
X154235000Y-86185000D01*
G37*
X154235000Y-86185000D02*
X154535000Y-86185000D01*
X154535000Y-86485000D01*
X154235000Y-86485000D01*
X154235000Y-86185000D01*
G36*
X164735000Y-85885000D02*
G01*
X165035000Y-85885000D01*
X165035000Y-86185000D01*
X164735000Y-86185000D01*
X164735000Y-85885000D01*
X164735000Y-85885000D01*
G37*
X164735000Y-85885000D02*
X165035000Y-85885000D01*
X165035000Y-86185000D01*
X164735000Y-86185000D01*
X164735000Y-85885000D01*
G36*
X164435000Y-85885000D02*
G01*
X164735000Y-85885000D01*
X164735000Y-86185000D01*
X164435000Y-86185000D01*
X164435000Y-85885000D01*
X164435000Y-85885000D01*
G37*
X164435000Y-85885000D02*
X164735000Y-85885000D01*
X164735000Y-86185000D01*
X164435000Y-86185000D01*
X164435000Y-85885000D01*
G36*
X164135000Y-85885000D02*
G01*
X164435000Y-85885000D01*
X164435000Y-86185000D01*
X164135000Y-86185000D01*
X164135000Y-85885000D01*
X164135000Y-85885000D01*
G37*
X164135000Y-85885000D02*
X164435000Y-85885000D01*
X164435000Y-86185000D01*
X164135000Y-86185000D01*
X164135000Y-85885000D01*
G36*
X163835000Y-85885000D02*
G01*
X164135000Y-85885000D01*
X164135000Y-86185000D01*
X163835000Y-86185000D01*
X163835000Y-85885000D01*
X163835000Y-85885000D01*
G37*
X163835000Y-85885000D02*
X164135000Y-85885000D01*
X164135000Y-86185000D01*
X163835000Y-86185000D01*
X163835000Y-85885000D01*
G36*
X163535000Y-85885000D02*
G01*
X163835000Y-85885000D01*
X163835000Y-86185000D01*
X163535000Y-86185000D01*
X163535000Y-85885000D01*
X163535000Y-85885000D01*
G37*
X163535000Y-85885000D02*
X163835000Y-85885000D01*
X163835000Y-86185000D01*
X163535000Y-86185000D01*
X163535000Y-85885000D01*
G36*
X155435000Y-85885000D02*
G01*
X155735000Y-85885000D01*
X155735000Y-86185000D01*
X155435000Y-86185000D01*
X155435000Y-85885000D01*
X155435000Y-85885000D01*
G37*
X155435000Y-85885000D02*
X155735000Y-85885000D01*
X155735000Y-86185000D01*
X155435000Y-86185000D01*
X155435000Y-85885000D01*
G36*
X155135000Y-85885000D02*
G01*
X155435000Y-85885000D01*
X155435000Y-86185000D01*
X155135000Y-86185000D01*
X155135000Y-85885000D01*
X155135000Y-85885000D01*
G37*
X155135000Y-85885000D02*
X155435000Y-85885000D01*
X155435000Y-86185000D01*
X155135000Y-86185000D01*
X155135000Y-85885000D01*
G36*
X154835000Y-85885000D02*
G01*
X155135000Y-85885000D01*
X155135000Y-86185000D01*
X154835000Y-86185000D01*
X154835000Y-85885000D01*
X154835000Y-85885000D01*
G37*
X154835000Y-85885000D02*
X155135000Y-85885000D01*
X155135000Y-86185000D01*
X154835000Y-86185000D01*
X154835000Y-85885000D01*
G36*
X154535000Y-85885000D02*
G01*
X154835000Y-85885000D01*
X154835000Y-86185000D01*
X154535000Y-86185000D01*
X154535000Y-85885000D01*
X154535000Y-85885000D01*
G37*
X154535000Y-85885000D02*
X154835000Y-85885000D01*
X154835000Y-86185000D01*
X154535000Y-86185000D01*
X154535000Y-85885000D01*
G36*
X154235000Y-85885000D02*
G01*
X154535000Y-85885000D01*
X154535000Y-86185000D01*
X154235000Y-86185000D01*
X154235000Y-85885000D01*
X154235000Y-85885000D01*
G37*
X154235000Y-85885000D02*
X154535000Y-85885000D01*
X154535000Y-86185000D01*
X154235000Y-86185000D01*
X154235000Y-85885000D01*
G36*
X164735000Y-85585000D02*
G01*
X165035000Y-85585000D01*
X165035000Y-85885000D01*
X164735000Y-85885000D01*
X164735000Y-85585000D01*
X164735000Y-85585000D01*
G37*
X164735000Y-85585000D02*
X165035000Y-85585000D01*
X165035000Y-85885000D01*
X164735000Y-85885000D01*
X164735000Y-85585000D01*
G36*
X164435000Y-85585000D02*
G01*
X164735000Y-85585000D01*
X164735000Y-85885000D01*
X164435000Y-85885000D01*
X164435000Y-85585000D01*
X164435000Y-85585000D01*
G37*
X164435000Y-85585000D02*
X164735000Y-85585000D01*
X164735000Y-85885000D01*
X164435000Y-85885000D01*
X164435000Y-85585000D01*
G36*
X164135000Y-85585000D02*
G01*
X164435000Y-85585000D01*
X164435000Y-85885000D01*
X164135000Y-85885000D01*
X164135000Y-85585000D01*
X164135000Y-85585000D01*
G37*
X164135000Y-85585000D02*
X164435000Y-85585000D01*
X164435000Y-85885000D01*
X164135000Y-85885000D01*
X164135000Y-85585000D01*
G36*
X163835000Y-85585000D02*
G01*
X164135000Y-85585000D01*
X164135000Y-85885000D01*
X163835000Y-85885000D01*
X163835000Y-85585000D01*
X163835000Y-85585000D01*
G37*
X163835000Y-85585000D02*
X164135000Y-85585000D01*
X164135000Y-85885000D01*
X163835000Y-85885000D01*
X163835000Y-85585000D01*
G36*
X163535000Y-85585000D02*
G01*
X163835000Y-85585000D01*
X163835000Y-85885000D01*
X163535000Y-85885000D01*
X163535000Y-85585000D01*
X163535000Y-85585000D01*
G37*
X163535000Y-85585000D02*
X163835000Y-85585000D01*
X163835000Y-85885000D01*
X163535000Y-85885000D01*
X163535000Y-85585000D01*
G36*
X163235000Y-85585000D02*
G01*
X163535000Y-85585000D01*
X163535000Y-85885000D01*
X163235000Y-85885000D01*
X163235000Y-85585000D01*
X163235000Y-85585000D01*
G37*
X163235000Y-85585000D02*
X163535000Y-85585000D01*
X163535000Y-85885000D01*
X163235000Y-85885000D01*
X163235000Y-85585000D01*
G36*
X162935000Y-85585000D02*
G01*
X163235000Y-85585000D01*
X163235000Y-85885000D01*
X162935000Y-85885000D01*
X162935000Y-85585000D01*
X162935000Y-85585000D01*
G37*
X162935000Y-85585000D02*
X163235000Y-85585000D01*
X163235000Y-85885000D01*
X162935000Y-85885000D01*
X162935000Y-85585000D01*
G36*
X162635000Y-85585000D02*
G01*
X162935000Y-85585000D01*
X162935000Y-85885000D01*
X162635000Y-85885000D01*
X162635000Y-85585000D01*
X162635000Y-85585000D01*
G37*
X162635000Y-85585000D02*
X162935000Y-85585000D01*
X162935000Y-85885000D01*
X162635000Y-85885000D01*
X162635000Y-85585000D01*
G36*
X162335000Y-85585000D02*
G01*
X162635000Y-85585000D01*
X162635000Y-85885000D01*
X162335000Y-85885000D01*
X162335000Y-85585000D01*
X162335000Y-85585000D01*
G37*
X162335000Y-85585000D02*
X162635000Y-85585000D01*
X162635000Y-85885000D01*
X162335000Y-85885000D01*
X162335000Y-85585000D01*
G36*
X162035000Y-85585000D02*
G01*
X162335000Y-85585000D01*
X162335000Y-85885000D01*
X162035000Y-85885000D01*
X162035000Y-85585000D01*
X162035000Y-85585000D01*
G37*
X162035000Y-85585000D02*
X162335000Y-85585000D01*
X162335000Y-85885000D01*
X162035000Y-85885000D01*
X162035000Y-85585000D01*
G36*
X161735000Y-85585000D02*
G01*
X162035000Y-85585000D01*
X162035000Y-85885000D01*
X161735000Y-85885000D01*
X161735000Y-85585000D01*
X161735000Y-85585000D01*
G37*
X161735000Y-85585000D02*
X162035000Y-85585000D01*
X162035000Y-85885000D01*
X161735000Y-85885000D01*
X161735000Y-85585000D01*
G36*
X161435000Y-85585000D02*
G01*
X161735000Y-85585000D01*
X161735000Y-85885000D01*
X161435000Y-85885000D01*
X161435000Y-85585000D01*
X161435000Y-85585000D01*
G37*
X161435000Y-85585000D02*
X161735000Y-85585000D01*
X161735000Y-85885000D01*
X161435000Y-85885000D01*
X161435000Y-85585000D01*
G36*
X161135000Y-85585000D02*
G01*
X161435000Y-85585000D01*
X161435000Y-85885000D01*
X161135000Y-85885000D01*
X161135000Y-85585000D01*
X161135000Y-85585000D01*
G37*
X161135000Y-85585000D02*
X161435000Y-85585000D01*
X161435000Y-85885000D01*
X161135000Y-85885000D01*
X161135000Y-85585000D01*
G36*
X160835000Y-85585000D02*
G01*
X161135000Y-85585000D01*
X161135000Y-85885000D01*
X160835000Y-85885000D01*
X160835000Y-85585000D01*
X160835000Y-85585000D01*
G37*
X160835000Y-85585000D02*
X161135000Y-85585000D01*
X161135000Y-85885000D01*
X160835000Y-85885000D01*
X160835000Y-85585000D01*
G36*
X160535000Y-85585000D02*
G01*
X160835000Y-85585000D01*
X160835000Y-85885000D01*
X160535000Y-85885000D01*
X160535000Y-85585000D01*
X160535000Y-85585000D01*
G37*
X160535000Y-85585000D02*
X160835000Y-85585000D01*
X160835000Y-85885000D01*
X160535000Y-85885000D01*
X160535000Y-85585000D01*
G36*
X160235000Y-85585000D02*
G01*
X160535000Y-85585000D01*
X160535000Y-85885000D01*
X160235000Y-85885000D01*
X160235000Y-85585000D01*
X160235000Y-85585000D01*
G37*
X160235000Y-85585000D02*
X160535000Y-85585000D01*
X160535000Y-85885000D01*
X160235000Y-85885000D01*
X160235000Y-85585000D01*
G36*
X159935000Y-85585000D02*
G01*
X160235000Y-85585000D01*
X160235000Y-85885000D01*
X159935000Y-85885000D01*
X159935000Y-85585000D01*
X159935000Y-85585000D01*
G37*
X159935000Y-85585000D02*
X160235000Y-85585000D01*
X160235000Y-85885000D01*
X159935000Y-85885000D01*
X159935000Y-85585000D01*
G36*
X159635000Y-85585000D02*
G01*
X159935000Y-85585000D01*
X159935000Y-85885000D01*
X159635000Y-85885000D01*
X159635000Y-85585000D01*
X159635000Y-85585000D01*
G37*
X159635000Y-85585000D02*
X159935000Y-85585000D01*
X159935000Y-85885000D01*
X159635000Y-85885000D01*
X159635000Y-85585000D01*
G36*
X159335000Y-85585000D02*
G01*
X159635000Y-85585000D01*
X159635000Y-85885000D01*
X159335000Y-85885000D01*
X159335000Y-85585000D01*
X159335000Y-85585000D01*
G37*
X159335000Y-85585000D02*
X159635000Y-85585000D01*
X159635000Y-85885000D01*
X159335000Y-85885000D01*
X159335000Y-85585000D01*
G36*
X159035000Y-85585000D02*
G01*
X159335000Y-85585000D01*
X159335000Y-85885000D01*
X159035000Y-85885000D01*
X159035000Y-85585000D01*
X159035000Y-85585000D01*
G37*
X159035000Y-85585000D02*
X159335000Y-85585000D01*
X159335000Y-85885000D01*
X159035000Y-85885000D01*
X159035000Y-85585000D01*
G36*
X158735000Y-85585000D02*
G01*
X159035000Y-85585000D01*
X159035000Y-85885000D01*
X158735000Y-85885000D01*
X158735000Y-85585000D01*
X158735000Y-85585000D01*
G37*
X158735000Y-85585000D02*
X159035000Y-85585000D01*
X159035000Y-85885000D01*
X158735000Y-85885000D01*
X158735000Y-85585000D01*
G36*
X158435000Y-85585000D02*
G01*
X158735000Y-85585000D01*
X158735000Y-85885000D01*
X158435000Y-85885000D01*
X158435000Y-85585000D01*
X158435000Y-85585000D01*
G37*
X158435000Y-85585000D02*
X158735000Y-85585000D01*
X158735000Y-85885000D01*
X158435000Y-85885000D01*
X158435000Y-85585000D01*
G36*
X158135000Y-85585000D02*
G01*
X158435000Y-85585000D01*
X158435000Y-85885000D01*
X158135000Y-85885000D01*
X158135000Y-85585000D01*
X158135000Y-85585000D01*
G37*
X158135000Y-85585000D02*
X158435000Y-85585000D01*
X158435000Y-85885000D01*
X158135000Y-85885000D01*
X158135000Y-85585000D01*
G36*
X157835000Y-85585000D02*
G01*
X158135000Y-85585000D01*
X158135000Y-85885000D01*
X157835000Y-85885000D01*
X157835000Y-85585000D01*
X157835000Y-85585000D01*
G37*
X157835000Y-85585000D02*
X158135000Y-85585000D01*
X158135000Y-85885000D01*
X157835000Y-85885000D01*
X157835000Y-85585000D01*
G36*
X157535000Y-85585000D02*
G01*
X157835000Y-85585000D01*
X157835000Y-85885000D01*
X157535000Y-85885000D01*
X157535000Y-85585000D01*
X157535000Y-85585000D01*
G37*
X157535000Y-85585000D02*
X157835000Y-85585000D01*
X157835000Y-85885000D01*
X157535000Y-85885000D01*
X157535000Y-85585000D01*
G36*
X157235000Y-85585000D02*
G01*
X157535000Y-85585000D01*
X157535000Y-85885000D01*
X157235000Y-85885000D01*
X157235000Y-85585000D01*
X157235000Y-85585000D01*
G37*
X157235000Y-85585000D02*
X157535000Y-85585000D01*
X157535000Y-85885000D01*
X157235000Y-85885000D01*
X157235000Y-85585000D01*
G36*
X156935000Y-85585000D02*
G01*
X157235000Y-85585000D01*
X157235000Y-85885000D01*
X156935000Y-85885000D01*
X156935000Y-85585000D01*
X156935000Y-85585000D01*
G37*
X156935000Y-85585000D02*
X157235000Y-85585000D01*
X157235000Y-85885000D01*
X156935000Y-85885000D01*
X156935000Y-85585000D01*
G36*
X156635000Y-85585000D02*
G01*
X156935000Y-85585000D01*
X156935000Y-85885000D01*
X156635000Y-85885000D01*
X156635000Y-85585000D01*
X156635000Y-85585000D01*
G37*
X156635000Y-85585000D02*
X156935000Y-85585000D01*
X156935000Y-85885000D01*
X156635000Y-85885000D01*
X156635000Y-85585000D01*
G36*
X156335000Y-85585000D02*
G01*
X156635000Y-85585000D01*
X156635000Y-85885000D01*
X156335000Y-85885000D01*
X156335000Y-85585000D01*
X156335000Y-85585000D01*
G37*
X156335000Y-85585000D02*
X156635000Y-85585000D01*
X156635000Y-85885000D01*
X156335000Y-85885000D01*
X156335000Y-85585000D01*
G36*
X156035000Y-85585000D02*
G01*
X156335000Y-85585000D01*
X156335000Y-85885000D01*
X156035000Y-85885000D01*
X156035000Y-85585000D01*
X156035000Y-85585000D01*
G37*
X156035000Y-85585000D02*
X156335000Y-85585000D01*
X156335000Y-85885000D01*
X156035000Y-85885000D01*
X156035000Y-85585000D01*
G36*
X155735000Y-85585000D02*
G01*
X156035000Y-85585000D01*
X156035000Y-85885000D01*
X155735000Y-85885000D01*
X155735000Y-85585000D01*
X155735000Y-85585000D01*
G37*
X155735000Y-85585000D02*
X156035000Y-85585000D01*
X156035000Y-85885000D01*
X155735000Y-85885000D01*
X155735000Y-85585000D01*
G36*
X155435000Y-85585000D02*
G01*
X155735000Y-85585000D01*
X155735000Y-85885000D01*
X155435000Y-85885000D01*
X155435000Y-85585000D01*
X155435000Y-85585000D01*
G37*
X155435000Y-85585000D02*
X155735000Y-85585000D01*
X155735000Y-85885000D01*
X155435000Y-85885000D01*
X155435000Y-85585000D01*
G36*
X155135000Y-85585000D02*
G01*
X155435000Y-85585000D01*
X155435000Y-85885000D01*
X155135000Y-85885000D01*
X155135000Y-85585000D01*
X155135000Y-85585000D01*
G37*
X155135000Y-85585000D02*
X155435000Y-85585000D01*
X155435000Y-85885000D01*
X155135000Y-85885000D01*
X155135000Y-85585000D01*
G36*
X154835000Y-85585000D02*
G01*
X155135000Y-85585000D01*
X155135000Y-85885000D01*
X154835000Y-85885000D01*
X154835000Y-85585000D01*
X154835000Y-85585000D01*
G37*
X154835000Y-85585000D02*
X155135000Y-85585000D01*
X155135000Y-85885000D01*
X154835000Y-85885000D01*
X154835000Y-85585000D01*
G36*
X154535000Y-85585000D02*
G01*
X154835000Y-85585000D01*
X154835000Y-85885000D01*
X154535000Y-85885000D01*
X154535000Y-85585000D01*
X154535000Y-85585000D01*
G37*
X154535000Y-85585000D02*
X154835000Y-85585000D01*
X154835000Y-85885000D01*
X154535000Y-85885000D01*
X154535000Y-85585000D01*
G36*
X154235000Y-85585000D02*
G01*
X154535000Y-85585000D01*
X154535000Y-85885000D01*
X154235000Y-85885000D01*
X154235000Y-85585000D01*
X154235000Y-85585000D01*
G37*
X154235000Y-85585000D02*
X154535000Y-85585000D01*
X154535000Y-85885000D01*
X154235000Y-85885000D01*
X154235000Y-85585000D01*
G36*
X164435000Y-85285000D02*
G01*
X164735000Y-85285000D01*
X164735000Y-85585000D01*
X164435000Y-85585000D01*
X164435000Y-85285000D01*
X164435000Y-85285000D01*
G37*
X164435000Y-85285000D02*
X164735000Y-85285000D01*
X164735000Y-85585000D01*
X164435000Y-85585000D01*
X164435000Y-85285000D01*
G36*
X164135000Y-85285000D02*
G01*
X164435000Y-85285000D01*
X164435000Y-85585000D01*
X164135000Y-85585000D01*
X164135000Y-85285000D01*
X164135000Y-85285000D01*
G37*
X164135000Y-85285000D02*
X164435000Y-85285000D01*
X164435000Y-85585000D01*
X164135000Y-85585000D01*
X164135000Y-85285000D01*
G36*
X163835000Y-85285000D02*
G01*
X164135000Y-85285000D01*
X164135000Y-85585000D01*
X163835000Y-85585000D01*
X163835000Y-85285000D01*
X163835000Y-85285000D01*
G37*
X163835000Y-85285000D02*
X164135000Y-85285000D01*
X164135000Y-85585000D01*
X163835000Y-85585000D01*
X163835000Y-85285000D01*
G36*
X163535000Y-85285000D02*
G01*
X163835000Y-85285000D01*
X163835000Y-85585000D01*
X163535000Y-85585000D01*
X163535000Y-85285000D01*
X163535000Y-85285000D01*
G37*
X163535000Y-85285000D02*
X163835000Y-85285000D01*
X163835000Y-85585000D01*
X163535000Y-85585000D01*
X163535000Y-85285000D01*
G36*
X163235000Y-85285000D02*
G01*
X163535000Y-85285000D01*
X163535000Y-85585000D01*
X163235000Y-85585000D01*
X163235000Y-85285000D01*
X163235000Y-85285000D01*
G37*
X163235000Y-85285000D02*
X163535000Y-85285000D01*
X163535000Y-85585000D01*
X163235000Y-85585000D01*
X163235000Y-85285000D01*
G36*
X162935000Y-85285000D02*
G01*
X163235000Y-85285000D01*
X163235000Y-85585000D01*
X162935000Y-85585000D01*
X162935000Y-85285000D01*
X162935000Y-85285000D01*
G37*
X162935000Y-85285000D02*
X163235000Y-85285000D01*
X163235000Y-85585000D01*
X162935000Y-85585000D01*
X162935000Y-85285000D01*
G36*
X162635000Y-85285000D02*
G01*
X162935000Y-85285000D01*
X162935000Y-85585000D01*
X162635000Y-85585000D01*
X162635000Y-85285000D01*
X162635000Y-85285000D01*
G37*
X162635000Y-85285000D02*
X162935000Y-85285000D01*
X162935000Y-85585000D01*
X162635000Y-85585000D01*
X162635000Y-85285000D01*
G36*
X162335000Y-85285000D02*
G01*
X162635000Y-85285000D01*
X162635000Y-85585000D01*
X162335000Y-85585000D01*
X162335000Y-85285000D01*
X162335000Y-85285000D01*
G37*
X162335000Y-85285000D02*
X162635000Y-85285000D01*
X162635000Y-85585000D01*
X162335000Y-85585000D01*
X162335000Y-85285000D01*
G36*
X162035000Y-85285000D02*
G01*
X162335000Y-85285000D01*
X162335000Y-85585000D01*
X162035000Y-85585000D01*
X162035000Y-85285000D01*
X162035000Y-85285000D01*
G37*
X162035000Y-85285000D02*
X162335000Y-85285000D01*
X162335000Y-85585000D01*
X162035000Y-85585000D01*
X162035000Y-85285000D01*
G36*
X161735000Y-85285000D02*
G01*
X162035000Y-85285000D01*
X162035000Y-85585000D01*
X161735000Y-85585000D01*
X161735000Y-85285000D01*
X161735000Y-85285000D01*
G37*
X161735000Y-85285000D02*
X162035000Y-85285000D01*
X162035000Y-85585000D01*
X161735000Y-85585000D01*
X161735000Y-85285000D01*
G36*
X161435000Y-85285000D02*
G01*
X161735000Y-85285000D01*
X161735000Y-85585000D01*
X161435000Y-85585000D01*
X161435000Y-85285000D01*
X161435000Y-85285000D01*
G37*
X161435000Y-85285000D02*
X161735000Y-85285000D01*
X161735000Y-85585000D01*
X161435000Y-85585000D01*
X161435000Y-85285000D01*
G36*
X161135000Y-85285000D02*
G01*
X161435000Y-85285000D01*
X161435000Y-85585000D01*
X161135000Y-85585000D01*
X161135000Y-85285000D01*
X161135000Y-85285000D01*
G37*
X161135000Y-85285000D02*
X161435000Y-85285000D01*
X161435000Y-85585000D01*
X161135000Y-85585000D01*
X161135000Y-85285000D01*
G36*
X160835000Y-85285000D02*
G01*
X161135000Y-85285000D01*
X161135000Y-85585000D01*
X160835000Y-85585000D01*
X160835000Y-85285000D01*
X160835000Y-85285000D01*
G37*
X160835000Y-85285000D02*
X161135000Y-85285000D01*
X161135000Y-85585000D01*
X160835000Y-85585000D01*
X160835000Y-85285000D01*
G36*
X160535000Y-85285000D02*
G01*
X160835000Y-85285000D01*
X160835000Y-85585000D01*
X160535000Y-85585000D01*
X160535000Y-85285000D01*
X160535000Y-85285000D01*
G37*
X160535000Y-85285000D02*
X160835000Y-85285000D01*
X160835000Y-85585000D01*
X160535000Y-85585000D01*
X160535000Y-85285000D01*
G36*
X160235000Y-85285000D02*
G01*
X160535000Y-85285000D01*
X160535000Y-85585000D01*
X160235000Y-85585000D01*
X160235000Y-85285000D01*
X160235000Y-85285000D01*
G37*
X160235000Y-85285000D02*
X160535000Y-85285000D01*
X160535000Y-85585000D01*
X160235000Y-85585000D01*
X160235000Y-85285000D01*
G36*
X159935000Y-85285000D02*
G01*
X160235000Y-85285000D01*
X160235000Y-85585000D01*
X159935000Y-85585000D01*
X159935000Y-85285000D01*
X159935000Y-85285000D01*
G37*
X159935000Y-85285000D02*
X160235000Y-85285000D01*
X160235000Y-85585000D01*
X159935000Y-85585000D01*
X159935000Y-85285000D01*
G36*
X159635000Y-85285000D02*
G01*
X159935000Y-85285000D01*
X159935000Y-85585000D01*
X159635000Y-85585000D01*
X159635000Y-85285000D01*
X159635000Y-85285000D01*
G37*
X159635000Y-85285000D02*
X159935000Y-85285000D01*
X159935000Y-85585000D01*
X159635000Y-85585000D01*
X159635000Y-85285000D01*
G36*
X159335000Y-85285000D02*
G01*
X159635000Y-85285000D01*
X159635000Y-85585000D01*
X159335000Y-85585000D01*
X159335000Y-85285000D01*
X159335000Y-85285000D01*
G37*
X159335000Y-85285000D02*
X159635000Y-85285000D01*
X159635000Y-85585000D01*
X159335000Y-85585000D01*
X159335000Y-85285000D01*
G36*
X159035000Y-85285000D02*
G01*
X159335000Y-85285000D01*
X159335000Y-85585000D01*
X159035000Y-85585000D01*
X159035000Y-85285000D01*
X159035000Y-85285000D01*
G37*
X159035000Y-85285000D02*
X159335000Y-85285000D01*
X159335000Y-85585000D01*
X159035000Y-85585000D01*
X159035000Y-85285000D01*
G36*
X158735000Y-85285000D02*
G01*
X159035000Y-85285000D01*
X159035000Y-85585000D01*
X158735000Y-85585000D01*
X158735000Y-85285000D01*
X158735000Y-85285000D01*
G37*
X158735000Y-85285000D02*
X159035000Y-85285000D01*
X159035000Y-85585000D01*
X158735000Y-85585000D01*
X158735000Y-85285000D01*
G36*
X158435000Y-85285000D02*
G01*
X158735000Y-85285000D01*
X158735000Y-85585000D01*
X158435000Y-85585000D01*
X158435000Y-85285000D01*
X158435000Y-85285000D01*
G37*
X158435000Y-85285000D02*
X158735000Y-85285000D01*
X158735000Y-85585000D01*
X158435000Y-85585000D01*
X158435000Y-85285000D01*
G36*
X158135000Y-85285000D02*
G01*
X158435000Y-85285000D01*
X158435000Y-85585000D01*
X158135000Y-85585000D01*
X158135000Y-85285000D01*
X158135000Y-85285000D01*
G37*
X158135000Y-85285000D02*
X158435000Y-85285000D01*
X158435000Y-85585000D01*
X158135000Y-85585000D01*
X158135000Y-85285000D01*
G36*
X157835000Y-85285000D02*
G01*
X158135000Y-85285000D01*
X158135000Y-85585000D01*
X157835000Y-85585000D01*
X157835000Y-85285000D01*
X157835000Y-85285000D01*
G37*
X157835000Y-85285000D02*
X158135000Y-85285000D01*
X158135000Y-85585000D01*
X157835000Y-85585000D01*
X157835000Y-85285000D01*
G36*
X157535000Y-85285000D02*
G01*
X157835000Y-85285000D01*
X157835000Y-85585000D01*
X157535000Y-85585000D01*
X157535000Y-85285000D01*
X157535000Y-85285000D01*
G37*
X157535000Y-85285000D02*
X157835000Y-85285000D01*
X157835000Y-85585000D01*
X157535000Y-85585000D01*
X157535000Y-85285000D01*
G36*
X157235000Y-85285000D02*
G01*
X157535000Y-85285000D01*
X157535000Y-85585000D01*
X157235000Y-85585000D01*
X157235000Y-85285000D01*
X157235000Y-85285000D01*
G37*
X157235000Y-85285000D02*
X157535000Y-85285000D01*
X157535000Y-85585000D01*
X157235000Y-85585000D01*
X157235000Y-85285000D01*
G36*
X156935000Y-85285000D02*
G01*
X157235000Y-85285000D01*
X157235000Y-85585000D01*
X156935000Y-85585000D01*
X156935000Y-85285000D01*
X156935000Y-85285000D01*
G37*
X156935000Y-85285000D02*
X157235000Y-85285000D01*
X157235000Y-85585000D01*
X156935000Y-85585000D01*
X156935000Y-85285000D01*
G36*
X156635000Y-85285000D02*
G01*
X156935000Y-85285000D01*
X156935000Y-85585000D01*
X156635000Y-85585000D01*
X156635000Y-85285000D01*
X156635000Y-85285000D01*
G37*
X156635000Y-85285000D02*
X156935000Y-85285000D01*
X156935000Y-85585000D01*
X156635000Y-85585000D01*
X156635000Y-85285000D01*
G36*
X156335000Y-85285000D02*
G01*
X156635000Y-85285000D01*
X156635000Y-85585000D01*
X156335000Y-85585000D01*
X156335000Y-85285000D01*
X156335000Y-85285000D01*
G37*
X156335000Y-85285000D02*
X156635000Y-85285000D01*
X156635000Y-85585000D01*
X156335000Y-85585000D01*
X156335000Y-85285000D01*
G36*
X156035000Y-85285000D02*
G01*
X156335000Y-85285000D01*
X156335000Y-85585000D01*
X156035000Y-85585000D01*
X156035000Y-85285000D01*
X156035000Y-85285000D01*
G37*
X156035000Y-85285000D02*
X156335000Y-85285000D01*
X156335000Y-85585000D01*
X156035000Y-85585000D01*
X156035000Y-85285000D01*
G36*
X155735000Y-85285000D02*
G01*
X156035000Y-85285000D01*
X156035000Y-85585000D01*
X155735000Y-85585000D01*
X155735000Y-85285000D01*
X155735000Y-85285000D01*
G37*
X155735000Y-85285000D02*
X156035000Y-85285000D01*
X156035000Y-85585000D01*
X155735000Y-85585000D01*
X155735000Y-85285000D01*
G36*
X155435000Y-85285000D02*
G01*
X155735000Y-85285000D01*
X155735000Y-85585000D01*
X155435000Y-85585000D01*
X155435000Y-85285000D01*
X155435000Y-85285000D01*
G37*
X155435000Y-85285000D02*
X155735000Y-85285000D01*
X155735000Y-85585000D01*
X155435000Y-85585000D01*
X155435000Y-85285000D01*
G36*
X155135000Y-85285000D02*
G01*
X155435000Y-85285000D01*
X155435000Y-85585000D01*
X155135000Y-85585000D01*
X155135000Y-85285000D01*
X155135000Y-85285000D01*
G37*
X155135000Y-85285000D02*
X155435000Y-85285000D01*
X155435000Y-85585000D01*
X155135000Y-85585000D01*
X155135000Y-85285000D01*
G36*
X154835000Y-85285000D02*
G01*
X155135000Y-85285000D01*
X155135000Y-85585000D01*
X154835000Y-85585000D01*
X154835000Y-85285000D01*
X154835000Y-85285000D01*
G37*
X154835000Y-85285000D02*
X155135000Y-85285000D01*
X155135000Y-85585000D01*
X154835000Y-85585000D01*
X154835000Y-85285000D01*
G36*
X154535000Y-85285000D02*
G01*
X154835000Y-85285000D01*
X154835000Y-85585000D01*
X154535000Y-85585000D01*
X154535000Y-85285000D01*
X154535000Y-85285000D01*
G37*
X154535000Y-85285000D02*
X154835000Y-85285000D01*
X154835000Y-85585000D01*
X154535000Y-85585000D01*
X154535000Y-85285000D01*
G36*
X164135000Y-84985000D02*
G01*
X164435000Y-84985000D01*
X164435000Y-85285000D01*
X164135000Y-85285000D01*
X164135000Y-84985000D01*
X164135000Y-84985000D01*
G37*
X164135000Y-84985000D02*
X164435000Y-84985000D01*
X164435000Y-85285000D01*
X164135000Y-85285000D01*
X164135000Y-84985000D01*
G36*
X163835000Y-84985000D02*
G01*
X164135000Y-84985000D01*
X164135000Y-85285000D01*
X163835000Y-85285000D01*
X163835000Y-84985000D01*
X163835000Y-84985000D01*
G37*
X163835000Y-84985000D02*
X164135000Y-84985000D01*
X164135000Y-85285000D01*
X163835000Y-85285000D01*
X163835000Y-84985000D01*
G36*
X163535000Y-84985000D02*
G01*
X163835000Y-84985000D01*
X163835000Y-85285000D01*
X163535000Y-85285000D01*
X163535000Y-84985000D01*
X163535000Y-84985000D01*
G37*
X163535000Y-84985000D02*
X163835000Y-84985000D01*
X163835000Y-85285000D01*
X163535000Y-85285000D01*
X163535000Y-84985000D01*
G36*
X163235000Y-84985000D02*
G01*
X163535000Y-84985000D01*
X163535000Y-85285000D01*
X163235000Y-85285000D01*
X163235000Y-84985000D01*
X163235000Y-84985000D01*
G37*
X163235000Y-84985000D02*
X163535000Y-84985000D01*
X163535000Y-85285000D01*
X163235000Y-85285000D01*
X163235000Y-84985000D01*
G36*
X162935000Y-84985000D02*
G01*
X163235000Y-84985000D01*
X163235000Y-85285000D01*
X162935000Y-85285000D01*
X162935000Y-84985000D01*
X162935000Y-84985000D01*
G37*
X162935000Y-84985000D02*
X163235000Y-84985000D01*
X163235000Y-85285000D01*
X162935000Y-85285000D01*
X162935000Y-84985000D01*
G36*
X162635000Y-84985000D02*
G01*
X162935000Y-84985000D01*
X162935000Y-85285000D01*
X162635000Y-85285000D01*
X162635000Y-84985000D01*
X162635000Y-84985000D01*
G37*
X162635000Y-84985000D02*
X162935000Y-84985000D01*
X162935000Y-85285000D01*
X162635000Y-85285000D01*
X162635000Y-84985000D01*
G36*
X162335000Y-84985000D02*
G01*
X162635000Y-84985000D01*
X162635000Y-85285000D01*
X162335000Y-85285000D01*
X162335000Y-84985000D01*
X162335000Y-84985000D01*
G37*
X162335000Y-84985000D02*
X162635000Y-84985000D01*
X162635000Y-85285000D01*
X162335000Y-85285000D01*
X162335000Y-84985000D01*
G36*
X162035000Y-84985000D02*
G01*
X162335000Y-84985000D01*
X162335000Y-85285000D01*
X162035000Y-85285000D01*
X162035000Y-84985000D01*
X162035000Y-84985000D01*
G37*
X162035000Y-84985000D02*
X162335000Y-84985000D01*
X162335000Y-85285000D01*
X162035000Y-85285000D01*
X162035000Y-84985000D01*
G36*
X161735000Y-84985000D02*
G01*
X162035000Y-84985000D01*
X162035000Y-85285000D01*
X161735000Y-85285000D01*
X161735000Y-84985000D01*
X161735000Y-84985000D01*
G37*
X161735000Y-84985000D02*
X162035000Y-84985000D01*
X162035000Y-85285000D01*
X161735000Y-85285000D01*
X161735000Y-84985000D01*
G36*
X161435000Y-84985000D02*
G01*
X161735000Y-84985000D01*
X161735000Y-85285000D01*
X161435000Y-85285000D01*
X161435000Y-84985000D01*
X161435000Y-84985000D01*
G37*
X161435000Y-84985000D02*
X161735000Y-84985000D01*
X161735000Y-85285000D01*
X161435000Y-85285000D01*
X161435000Y-84985000D01*
G36*
X161135000Y-84985000D02*
G01*
X161435000Y-84985000D01*
X161435000Y-85285000D01*
X161135000Y-85285000D01*
X161135000Y-84985000D01*
X161135000Y-84985000D01*
G37*
X161135000Y-84985000D02*
X161435000Y-84985000D01*
X161435000Y-85285000D01*
X161135000Y-85285000D01*
X161135000Y-84985000D01*
G36*
X160835000Y-84985000D02*
G01*
X161135000Y-84985000D01*
X161135000Y-85285000D01*
X160835000Y-85285000D01*
X160835000Y-84985000D01*
X160835000Y-84985000D01*
G37*
X160835000Y-84985000D02*
X161135000Y-84985000D01*
X161135000Y-85285000D01*
X160835000Y-85285000D01*
X160835000Y-84985000D01*
G36*
X160535000Y-84985000D02*
G01*
X160835000Y-84985000D01*
X160835000Y-85285000D01*
X160535000Y-85285000D01*
X160535000Y-84985000D01*
X160535000Y-84985000D01*
G37*
X160535000Y-84985000D02*
X160835000Y-84985000D01*
X160835000Y-85285000D01*
X160535000Y-85285000D01*
X160535000Y-84985000D01*
G36*
X160235000Y-84985000D02*
G01*
X160535000Y-84985000D01*
X160535000Y-85285000D01*
X160235000Y-85285000D01*
X160235000Y-84985000D01*
X160235000Y-84985000D01*
G37*
X160235000Y-84985000D02*
X160535000Y-84985000D01*
X160535000Y-85285000D01*
X160235000Y-85285000D01*
X160235000Y-84985000D01*
G36*
X159935000Y-84985000D02*
G01*
X160235000Y-84985000D01*
X160235000Y-85285000D01*
X159935000Y-85285000D01*
X159935000Y-84985000D01*
X159935000Y-84985000D01*
G37*
X159935000Y-84985000D02*
X160235000Y-84985000D01*
X160235000Y-85285000D01*
X159935000Y-85285000D01*
X159935000Y-84985000D01*
G36*
X159635000Y-84985000D02*
G01*
X159935000Y-84985000D01*
X159935000Y-85285000D01*
X159635000Y-85285000D01*
X159635000Y-84985000D01*
X159635000Y-84985000D01*
G37*
X159635000Y-84985000D02*
X159935000Y-84985000D01*
X159935000Y-85285000D01*
X159635000Y-85285000D01*
X159635000Y-84985000D01*
G36*
X159335000Y-84985000D02*
G01*
X159635000Y-84985000D01*
X159635000Y-85285000D01*
X159335000Y-85285000D01*
X159335000Y-84985000D01*
X159335000Y-84985000D01*
G37*
X159335000Y-84985000D02*
X159635000Y-84985000D01*
X159635000Y-85285000D01*
X159335000Y-85285000D01*
X159335000Y-84985000D01*
G36*
X159035000Y-84985000D02*
G01*
X159335000Y-84985000D01*
X159335000Y-85285000D01*
X159035000Y-85285000D01*
X159035000Y-84985000D01*
X159035000Y-84985000D01*
G37*
X159035000Y-84985000D02*
X159335000Y-84985000D01*
X159335000Y-85285000D01*
X159035000Y-85285000D01*
X159035000Y-84985000D01*
G36*
X158735000Y-84985000D02*
G01*
X159035000Y-84985000D01*
X159035000Y-85285000D01*
X158735000Y-85285000D01*
X158735000Y-84985000D01*
X158735000Y-84985000D01*
G37*
X158735000Y-84985000D02*
X159035000Y-84985000D01*
X159035000Y-85285000D01*
X158735000Y-85285000D01*
X158735000Y-84985000D01*
G36*
X158435000Y-84985000D02*
G01*
X158735000Y-84985000D01*
X158735000Y-85285000D01*
X158435000Y-85285000D01*
X158435000Y-84985000D01*
X158435000Y-84985000D01*
G37*
X158435000Y-84985000D02*
X158735000Y-84985000D01*
X158735000Y-85285000D01*
X158435000Y-85285000D01*
X158435000Y-84985000D01*
G36*
X158135000Y-84985000D02*
G01*
X158435000Y-84985000D01*
X158435000Y-85285000D01*
X158135000Y-85285000D01*
X158135000Y-84985000D01*
X158135000Y-84985000D01*
G37*
X158135000Y-84985000D02*
X158435000Y-84985000D01*
X158435000Y-85285000D01*
X158135000Y-85285000D01*
X158135000Y-84985000D01*
G36*
X157835000Y-84985000D02*
G01*
X158135000Y-84985000D01*
X158135000Y-85285000D01*
X157835000Y-85285000D01*
X157835000Y-84985000D01*
X157835000Y-84985000D01*
G37*
X157835000Y-84985000D02*
X158135000Y-84985000D01*
X158135000Y-85285000D01*
X157835000Y-85285000D01*
X157835000Y-84985000D01*
G36*
X157535000Y-84985000D02*
G01*
X157835000Y-84985000D01*
X157835000Y-85285000D01*
X157535000Y-85285000D01*
X157535000Y-84985000D01*
X157535000Y-84985000D01*
G37*
X157535000Y-84985000D02*
X157835000Y-84985000D01*
X157835000Y-85285000D01*
X157535000Y-85285000D01*
X157535000Y-84985000D01*
G36*
X157235000Y-84985000D02*
G01*
X157535000Y-84985000D01*
X157535000Y-85285000D01*
X157235000Y-85285000D01*
X157235000Y-84985000D01*
X157235000Y-84985000D01*
G37*
X157235000Y-84985000D02*
X157535000Y-84985000D01*
X157535000Y-85285000D01*
X157235000Y-85285000D01*
X157235000Y-84985000D01*
G36*
X156935000Y-84985000D02*
G01*
X157235000Y-84985000D01*
X157235000Y-85285000D01*
X156935000Y-85285000D01*
X156935000Y-84985000D01*
X156935000Y-84985000D01*
G37*
X156935000Y-84985000D02*
X157235000Y-84985000D01*
X157235000Y-85285000D01*
X156935000Y-85285000D01*
X156935000Y-84985000D01*
G36*
X156635000Y-84985000D02*
G01*
X156935000Y-84985000D01*
X156935000Y-85285000D01*
X156635000Y-85285000D01*
X156635000Y-84985000D01*
X156635000Y-84985000D01*
G37*
X156635000Y-84985000D02*
X156935000Y-84985000D01*
X156935000Y-85285000D01*
X156635000Y-85285000D01*
X156635000Y-84985000D01*
G36*
X156335000Y-84985000D02*
G01*
X156635000Y-84985000D01*
X156635000Y-85285000D01*
X156335000Y-85285000D01*
X156335000Y-84985000D01*
X156335000Y-84985000D01*
G37*
X156335000Y-84985000D02*
X156635000Y-84985000D01*
X156635000Y-85285000D01*
X156335000Y-85285000D01*
X156335000Y-84985000D01*
G36*
X156035000Y-84985000D02*
G01*
X156335000Y-84985000D01*
X156335000Y-85285000D01*
X156035000Y-85285000D01*
X156035000Y-84985000D01*
X156035000Y-84985000D01*
G37*
X156035000Y-84985000D02*
X156335000Y-84985000D01*
X156335000Y-85285000D01*
X156035000Y-85285000D01*
X156035000Y-84985000D01*
G36*
X155735000Y-84985000D02*
G01*
X156035000Y-84985000D01*
X156035000Y-85285000D01*
X155735000Y-85285000D01*
X155735000Y-84985000D01*
X155735000Y-84985000D01*
G37*
X155735000Y-84985000D02*
X156035000Y-84985000D01*
X156035000Y-85285000D01*
X155735000Y-85285000D01*
X155735000Y-84985000D01*
G36*
X155435000Y-84985000D02*
G01*
X155735000Y-84985000D01*
X155735000Y-85285000D01*
X155435000Y-85285000D01*
X155435000Y-84985000D01*
X155435000Y-84985000D01*
G37*
X155435000Y-84985000D02*
X155735000Y-84985000D01*
X155735000Y-85285000D01*
X155435000Y-85285000D01*
X155435000Y-84985000D01*
G36*
X155135000Y-84985000D02*
G01*
X155435000Y-84985000D01*
X155435000Y-85285000D01*
X155135000Y-85285000D01*
X155135000Y-84985000D01*
X155135000Y-84985000D01*
G37*
X155135000Y-84985000D02*
X155435000Y-84985000D01*
X155435000Y-85285000D01*
X155135000Y-85285000D01*
X155135000Y-84985000D01*
G36*
X154835000Y-84985000D02*
G01*
X155135000Y-84985000D01*
X155135000Y-85285000D01*
X154835000Y-85285000D01*
X154835000Y-84985000D01*
X154835000Y-84985000D01*
G37*
X154835000Y-84985000D02*
X155135000Y-84985000D01*
X155135000Y-85285000D01*
X154835000Y-85285000D01*
X154835000Y-84985000D01*
G36*
X163235000Y-84685000D02*
G01*
X163535000Y-84685000D01*
X163535000Y-84985000D01*
X163235000Y-84985000D01*
X163235000Y-84685000D01*
X163235000Y-84685000D01*
G37*
X163235000Y-84685000D02*
X163535000Y-84685000D01*
X163535000Y-84985000D01*
X163235000Y-84985000D01*
X163235000Y-84685000D01*
G36*
X162935000Y-84685000D02*
G01*
X163235000Y-84685000D01*
X163235000Y-84985000D01*
X162935000Y-84985000D01*
X162935000Y-84685000D01*
X162935000Y-84685000D01*
G37*
X162935000Y-84685000D02*
X163235000Y-84685000D01*
X163235000Y-84985000D01*
X162935000Y-84985000D01*
X162935000Y-84685000D01*
G36*
X162635000Y-84685000D02*
G01*
X162935000Y-84685000D01*
X162935000Y-84985000D01*
X162635000Y-84985000D01*
X162635000Y-84685000D01*
X162635000Y-84685000D01*
G37*
X162635000Y-84685000D02*
X162935000Y-84685000D01*
X162935000Y-84985000D01*
X162635000Y-84985000D01*
X162635000Y-84685000D01*
G36*
X162335000Y-84685000D02*
G01*
X162635000Y-84685000D01*
X162635000Y-84985000D01*
X162335000Y-84985000D01*
X162335000Y-84685000D01*
X162335000Y-84685000D01*
G37*
X162335000Y-84685000D02*
X162635000Y-84685000D01*
X162635000Y-84985000D01*
X162335000Y-84985000D01*
X162335000Y-84685000D01*
G36*
X162035000Y-84685000D02*
G01*
X162335000Y-84685000D01*
X162335000Y-84985000D01*
X162035000Y-84985000D01*
X162035000Y-84685000D01*
X162035000Y-84685000D01*
G37*
X162035000Y-84685000D02*
X162335000Y-84685000D01*
X162335000Y-84985000D01*
X162035000Y-84985000D01*
X162035000Y-84685000D01*
G36*
X161735000Y-84685000D02*
G01*
X162035000Y-84685000D01*
X162035000Y-84985000D01*
X161735000Y-84985000D01*
X161735000Y-84685000D01*
X161735000Y-84685000D01*
G37*
X161735000Y-84685000D02*
X162035000Y-84685000D01*
X162035000Y-84985000D01*
X161735000Y-84985000D01*
X161735000Y-84685000D01*
G36*
X161435000Y-84685000D02*
G01*
X161735000Y-84685000D01*
X161735000Y-84985000D01*
X161435000Y-84985000D01*
X161435000Y-84685000D01*
X161435000Y-84685000D01*
G37*
X161435000Y-84685000D02*
X161735000Y-84685000D01*
X161735000Y-84985000D01*
X161435000Y-84985000D01*
X161435000Y-84685000D01*
G36*
X161135000Y-84685000D02*
G01*
X161435000Y-84685000D01*
X161435000Y-84985000D01*
X161135000Y-84985000D01*
X161135000Y-84685000D01*
X161135000Y-84685000D01*
G37*
X161135000Y-84685000D02*
X161435000Y-84685000D01*
X161435000Y-84985000D01*
X161135000Y-84985000D01*
X161135000Y-84685000D01*
G36*
X160835000Y-84685000D02*
G01*
X161135000Y-84685000D01*
X161135000Y-84985000D01*
X160835000Y-84985000D01*
X160835000Y-84685000D01*
X160835000Y-84685000D01*
G37*
X160835000Y-84685000D02*
X161135000Y-84685000D01*
X161135000Y-84985000D01*
X160835000Y-84985000D01*
X160835000Y-84685000D01*
G36*
X160535000Y-84685000D02*
G01*
X160835000Y-84685000D01*
X160835000Y-84985000D01*
X160535000Y-84985000D01*
X160535000Y-84685000D01*
X160535000Y-84685000D01*
G37*
X160535000Y-84685000D02*
X160835000Y-84685000D01*
X160835000Y-84985000D01*
X160535000Y-84985000D01*
X160535000Y-84685000D01*
G36*
X160235000Y-84685000D02*
G01*
X160535000Y-84685000D01*
X160535000Y-84985000D01*
X160235000Y-84985000D01*
X160235000Y-84685000D01*
X160235000Y-84685000D01*
G37*
X160235000Y-84685000D02*
X160535000Y-84685000D01*
X160535000Y-84985000D01*
X160235000Y-84985000D01*
X160235000Y-84685000D01*
G36*
X159935000Y-84685000D02*
G01*
X160235000Y-84685000D01*
X160235000Y-84985000D01*
X159935000Y-84985000D01*
X159935000Y-84685000D01*
X159935000Y-84685000D01*
G37*
X159935000Y-84685000D02*
X160235000Y-84685000D01*
X160235000Y-84985000D01*
X159935000Y-84985000D01*
X159935000Y-84685000D01*
G36*
X159635000Y-84685000D02*
G01*
X159935000Y-84685000D01*
X159935000Y-84985000D01*
X159635000Y-84985000D01*
X159635000Y-84685000D01*
X159635000Y-84685000D01*
G37*
X159635000Y-84685000D02*
X159935000Y-84685000D01*
X159935000Y-84985000D01*
X159635000Y-84985000D01*
X159635000Y-84685000D01*
G36*
X159335000Y-84685000D02*
G01*
X159635000Y-84685000D01*
X159635000Y-84985000D01*
X159335000Y-84985000D01*
X159335000Y-84685000D01*
X159335000Y-84685000D01*
G37*
X159335000Y-84685000D02*
X159635000Y-84685000D01*
X159635000Y-84985000D01*
X159335000Y-84985000D01*
X159335000Y-84685000D01*
G36*
X159035000Y-84685000D02*
G01*
X159335000Y-84685000D01*
X159335000Y-84985000D01*
X159035000Y-84985000D01*
X159035000Y-84685000D01*
X159035000Y-84685000D01*
G37*
X159035000Y-84685000D02*
X159335000Y-84685000D01*
X159335000Y-84985000D01*
X159035000Y-84985000D01*
X159035000Y-84685000D01*
G36*
X158735000Y-84685000D02*
G01*
X159035000Y-84685000D01*
X159035000Y-84985000D01*
X158735000Y-84985000D01*
X158735000Y-84685000D01*
X158735000Y-84685000D01*
G37*
X158735000Y-84685000D02*
X159035000Y-84685000D01*
X159035000Y-84985000D01*
X158735000Y-84985000D01*
X158735000Y-84685000D01*
G36*
X158435000Y-84685000D02*
G01*
X158735000Y-84685000D01*
X158735000Y-84985000D01*
X158435000Y-84985000D01*
X158435000Y-84685000D01*
X158435000Y-84685000D01*
G37*
X158435000Y-84685000D02*
X158735000Y-84685000D01*
X158735000Y-84985000D01*
X158435000Y-84985000D01*
X158435000Y-84685000D01*
G36*
X158135000Y-84685000D02*
G01*
X158435000Y-84685000D01*
X158435000Y-84985000D01*
X158135000Y-84985000D01*
X158135000Y-84685000D01*
X158135000Y-84685000D01*
G37*
X158135000Y-84685000D02*
X158435000Y-84685000D01*
X158435000Y-84985000D01*
X158135000Y-84985000D01*
X158135000Y-84685000D01*
G36*
X157835000Y-84685000D02*
G01*
X158135000Y-84685000D01*
X158135000Y-84985000D01*
X157835000Y-84985000D01*
X157835000Y-84685000D01*
X157835000Y-84685000D01*
G37*
X157835000Y-84685000D02*
X158135000Y-84685000D01*
X158135000Y-84985000D01*
X157835000Y-84985000D01*
X157835000Y-84685000D01*
G36*
X157535000Y-84685000D02*
G01*
X157835000Y-84685000D01*
X157835000Y-84985000D01*
X157535000Y-84985000D01*
X157535000Y-84685000D01*
X157535000Y-84685000D01*
G37*
X157535000Y-84685000D02*
X157835000Y-84685000D01*
X157835000Y-84985000D01*
X157535000Y-84985000D01*
X157535000Y-84685000D01*
G36*
X157235000Y-84685000D02*
G01*
X157535000Y-84685000D01*
X157535000Y-84985000D01*
X157235000Y-84985000D01*
X157235000Y-84685000D01*
X157235000Y-84685000D01*
G37*
X157235000Y-84685000D02*
X157535000Y-84685000D01*
X157535000Y-84985000D01*
X157235000Y-84985000D01*
X157235000Y-84685000D01*
G36*
X156935000Y-84685000D02*
G01*
X157235000Y-84685000D01*
X157235000Y-84985000D01*
X156935000Y-84985000D01*
X156935000Y-84685000D01*
X156935000Y-84685000D01*
G37*
X156935000Y-84685000D02*
X157235000Y-84685000D01*
X157235000Y-84985000D01*
X156935000Y-84985000D01*
X156935000Y-84685000D01*
G36*
X156635000Y-84685000D02*
G01*
X156935000Y-84685000D01*
X156935000Y-84985000D01*
X156635000Y-84985000D01*
X156635000Y-84685000D01*
X156635000Y-84685000D01*
G37*
X156635000Y-84685000D02*
X156935000Y-84685000D01*
X156935000Y-84985000D01*
X156635000Y-84985000D01*
X156635000Y-84685000D01*
G36*
X156335000Y-84685000D02*
G01*
X156635000Y-84685000D01*
X156635000Y-84985000D01*
X156335000Y-84985000D01*
X156335000Y-84685000D01*
X156335000Y-84685000D01*
G37*
X156335000Y-84685000D02*
X156635000Y-84685000D01*
X156635000Y-84985000D01*
X156335000Y-84985000D01*
X156335000Y-84685000D01*
G36*
X156035000Y-84685000D02*
G01*
X156335000Y-84685000D01*
X156335000Y-84985000D01*
X156035000Y-84985000D01*
X156035000Y-84685000D01*
X156035000Y-84685000D01*
G37*
X156035000Y-84685000D02*
X156335000Y-84685000D01*
X156335000Y-84985000D01*
X156035000Y-84985000D01*
X156035000Y-84685000D01*
G36*
X155735000Y-84685000D02*
G01*
X156035000Y-84685000D01*
X156035000Y-84985000D01*
X155735000Y-84985000D01*
X155735000Y-84685000D01*
X155735000Y-84685000D01*
G37*
X155735000Y-84685000D02*
X156035000Y-84685000D01*
X156035000Y-84985000D01*
X155735000Y-84985000D01*
X155735000Y-84685000D01*
D12*
X223178000Y-80257000D02*
G75*
G03X223178000Y-80257000I-3000000J0D01*
G01*
X214278000Y-78257000D02*
X214278000Y-74157000D01*
X226078000Y-74157000D02*
X226078000Y-78257000D01*
X226078000Y-82257000D02*
X226078000Y-86357000D01*
X214278000Y-82257000D02*
X214278000Y-86357000D01*
X214278000Y-86357000D02*
X226078000Y-86357000D01*
X216378000Y-87757000D02*
X216078000Y-88057000D01*
X216078000Y-88057000D02*
X216078000Y-87457000D01*
X216078000Y-87457000D02*
X216378000Y-87757000D01*
X214278000Y-74157000D02*
X216678000Y-74157000D01*
X218878000Y-74157000D02*
X221478000Y-74157000D01*
X223678000Y-74157000D02*
X226078000Y-74157000D01*
X219678000Y-80257000D02*
X220678000Y-80257000D01*
X220178000Y-80757000D02*
X220178000Y-79757000D01*
D10*
X231806845Y-163939880D02*
X231806845Y-162939880D01*
X231806845Y-163416071D02*
X232378273Y-163416071D01*
X232378273Y-163939880D02*
X232378273Y-162939880D01*
X232997321Y-163368452D02*
X232902083Y-163320833D01*
X232854464Y-163273214D01*
X232806845Y-163177976D01*
X232806845Y-163130357D01*
X232854464Y-163035119D01*
X232902083Y-162987500D01*
X232997321Y-162939880D01*
X233187797Y-162939880D01*
X233283035Y-162987500D01*
X233330654Y-163035119D01*
X233378273Y-163130357D01*
X233378273Y-163177976D01*
X233330654Y-163273214D01*
X233283035Y-163320833D01*
X233187797Y-163368452D01*
X232997321Y-163368452D01*
X232902083Y-163416071D01*
X232854464Y-163463690D01*
X232806845Y-163558928D01*
X232806845Y-163749404D01*
X232854464Y-163844642D01*
X232902083Y-163892261D01*
X232997321Y-163939880D01*
X233187797Y-163939880D01*
X233283035Y-163892261D01*
X233330654Y-163844642D01*
X233378273Y-163749404D01*
X233378273Y-163558928D01*
X233330654Y-163463690D01*
X233283035Y-163416071D01*
X233187797Y-163368452D01*
X145288095Y-119489880D02*
X145288095Y-118489880D01*
X145288095Y-118966071D02*
X145859523Y-118966071D01*
X145859523Y-119489880D02*
X145859523Y-118489880D01*
X146811904Y-118489880D02*
X146335714Y-118489880D01*
X146288095Y-118966071D01*
X146335714Y-118918452D01*
X146430952Y-118870833D01*
X146669047Y-118870833D01*
X146764285Y-118918452D01*
X146811904Y-118966071D01*
X146859523Y-119061309D01*
X146859523Y-119299404D01*
X146811904Y-119394642D01*
X146764285Y-119442261D01*
X146669047Y-119489880D01*
X146430952Y-119489880D01*
X146335714Y-119442261D01*
X146288095Y-119394642D01*
X145288095Y-163939880D02*
X145288095Y-162939880D01*
X145288095Y-163416071D02*
X145859523Y-163416071D01*
X145859523Y-163939880D02*
X145859523Y-162939880D01*
X146240476Y-162939880D02*
X146907142Y-162939880D01*
X146478571Y-163939880D01*
X231806845Y-119489880D02*
X231806845Y-118489880D01*
X231806845Y-118966071D02*
X232378273Y-118966071D01*
X232378273Y-119489880D02*
X232378273Y-118489880D01*
X233283035Y-118489880D02*
X233092559Y-118489880D01*
X232997321Y-118537500D01*
X232949702Y-118585119D01*
X232854464Y-118727976D01*
X232806845Y-118918452D01*
X232806845Y-119299404D01*
X232854464Y-119394642D01*
X232902083Y-119442261D01*
X232997321Y-119489880D01*
X233187797Y-119489880D01*
X233283035Y-119442261D01*
X233330654Y-119394642D01*
X233378273Y-119299404D01*
X233378273Y-119061309D01*
X233330654Y-118966071D01*
X233283035Y-118918452D01*
X233187797Y-118870833D01*
X232997321Y-118870833D01*
X232902083Y-118918452D01*
X232854464Y-118966071D01*
X232806845Y-119061309D01*
X231806845Y-109171130D02*
X231806845Y-108171130D01*
X231806845Y-108647321D02*
X232378273Y-108647321D01*
X232378273Y-109171130D02*
X232378273Y-108171130D01*
X233283035Y-108504464D02*
X233283035Y-109171130D01*
X233044940Y-108123511D02*
X232806845Y-108837797D01*
X233425892Y-108837797D01*
X145288095Y-109171130D02*
X145288095Y-108171130D01*
X145288095Y-108647321D02*
X145859523Y-108647321D01*
X145859523Y-109171130D02*
X145859523Y-108171130D01*
X146240476Y-108171130D02*
X146859523Y-108171130D01*
X146526190Y-108552083D01*
X146669047Y-108552083D01*
X146764285Y-108599702D01*
X146811904Y-108647321D01*
X146859523Y-108742559D01*
X146859523Y-108980654D01*
X146811904Y-109075892D01*
X146764285Y-109123511D01*
X146669047Y-109171130D01*
X146383333Y-109171130D01*
X146288095Y-109123511D01*
X146240476Y-109075892D01*
X231806845Y-64721130D02*
X231806845Y-63721130D01*
X231806845Y-64197321D02*
X232378273Y-64197321D01*
X232378273Y-64721130D02*
X232378273Y-63721130D01*
X232806845Y-63816369D02*
X232854464Y-63768750D01*
X232949702Y-63721130D01*
X233187797Y-63721130D01*
X233283035Y-63768750D01*
X233330654Y-63816369D01*
X233378273Y-63911607D01*
X233378273Y-64006845D01*
X233330654Y-64149702D01*
X232759226Y-64721130D01*
X233378273Y-64721130D01*
X145288095Y-64721130D02*
X145288095Y-63721130D01*
X145288095Y-64197321D02*
X145859523Y-64197321D01*
X145859523Y-64721130D02*
X145859523Y-63721130D01*
X146859523Y-64721130D02*
X146288095Y-64721130D01*
X146573809Y-64721130D02*
X146573809Y-63721130D01*
X146478571Y-63863988D01*
X146383333Y-63959226D01*
X146288095Y-64006845D01*
X213382761Y-86290333D02*
X213430380Y-86147476D01*
X213430380Y-85909380D01*
X213382761Y-85814142D01*
X213335142Y-85766523D01*
X213239904Y-85718904D01*
X213144666Y-85718904D01*
X213049428Y-85766523D01*
X213001809Y-85814142D01*
X212954190Y-85909380D01*
X212906571Y-86099857D01*
X212858952Y-86195095D01*
X212811333Y-86242714D01*
X212716095Y-86290333D01*
X212620857Y-86290333D01*
X212525619Y-86242714D01*
X212478000Y-86195095D01*
X212430380Y-86099857D01*
X212430380Y-85861761D01*
X212478000Y-85718904D01*
X212430380Y-85385571D02*
X213430380Y-85147476D01*
X212716095Y-84957000D01*
X213430380Y-84766523D01*
X212430380Y-84528428D01*
X212525619Y-84195095D02*
X212478000Y-84147476D01*
X212430380Y-84052238D01*
X212430380Y-83814142D01*
X212478000Y-83718904D01*
X212525619Y-83671285D01*
X212620857Y-83623666D01*
X212716095Y-83623666D01*
X212858952Y-83671285D01*
X213430380Y-84242714D01*
X213430380Y-83623666D01*
%LPC*%
D13*
X232568750Y-166687500D03*
X146050000Y-122237500D03*
X146050000Y-166687500D03*
X232568750Y-122237500D03*
D14*
X212718650Y-118713250D03*
X213988650Y-118713250D03*
X215258650Y-118713250D03*
X211448650Y-118713250D03*
X210178650Y-118713250D03*
X212725000Y-115443000D03*
X211455000Y-115443000D03*
X210185000Y-115443000D03*
X213995000Y-115443000D03*
X215265000Y-115443000D03*
X163347400Y-118713250D03*
X164617400Y-118713250D03*
X168427400Y-118713250D03*
X167157400Y-118713250D03*
X165887400Y-118713250D03*
X168433750Y-115443000D03*
X167163750Y-115443000D03*
X163353750Y-115443000D03*
X164623750Y-115443000D03*
X165893750Y-115443000D03*
D13*
X232568750Y-111918750D03*
X146050000Y-111918750D03*
X232568750Y-67468750D03*
X146050000Y-67468750D03*
D15*
X225266250Y-99314000D03*
X215106250Y-99314000D03*
D16*
X216376250Y-96774000D03*
D17*
X220186250Y-99314000D03*
D16*
X222726250Y-94234000D03*
D15*
X206216250Y-99314000D03*
X196056250Y-99314000D03*
D16*
X197326250Y-96774000D03*
D17*
X201136250Y-99314000D03*
D16*
X203676250Y-94234000D03*
D15*
X187166250Y-99314000D03*
X177006250Y-99314000D03*
D16*
X178276250Y-96774000D03*
D17*
X182086250Y-99314000D03*
D16*
X184626250Y-94234000D03*
D15*
X206216250Y-80264000D03*
X196056250Y-80264000D03*
D16*
X197326250Y-77724000D03*
D17*
X201136250Y-80264000D03*
D16*
X203676250Y-75184000D03*
D15*
X187166250Y-80264000D03*
X177006250Y-80264000D03*
D16*
X178276250Y-77724000D03*
D17*
X182086250Y-80264000D03*
D16*
X184626250Y-75184000D03*
D18*
X217678000Y-87757000D03*
D19*
X220178000Y-87757000D03*
X222678000Y-87757000D03*
D20*
X214578000Y-80257000D03*
X225778000Y-80257000D03*
D19*
X217678000Y-73257000D03*
X222678000Y-73257000D03*
D21*
X161925750Y-69496000D03*
X156145750Y-69496000D03*
D22*
X154715750Y-70026000D03*
X163355750Y-70026000D03*
D23*
X154715750Y-65846000D03*
X163355750Y-65846000D03*
M02*
