G04 #@! TF.GenerationSoftware,KiCad,Pcbnew,(5.1.4)-1*
G04 #@! TF.CreationDate,2020-07-31T11:22:47-07:00*
G04 #@! TF.ProjectId,basic_macropad,62617369-635f-46d6-9163-726f7061642e,rev?*
G04 #@! TF.SameCoordinates,Original*
G04 #@! TF.FileFunction,Soldermask,Bot*
G04 #@! TF.FilePolarity,Negative*
%FSLAX46Y46*%
G04 Gerber Fmt 4.6, Leading zero omitted, Abs format (unit mm)*
G04 Created by KiCad (PCBNEW (5.1.4)-1) date 2020-07-31 11:22:47*
%MOMM*%
%LPD*%
G04 APERTURE LIST*
%ADD10C,0.020000*%
G04 APERTURE END LIST*
D10*
G36*
X232844630Y-164447276D02*
G01*
X233225343Y-164523004D01*
X233634999Y-164692689D01*
X234003679Y-164939034D01*
X234317216Y-165252571D01*
X234563561Y-165621251D01*
X234733246Y-166030907D01*
X234819750Y-166465796D01*
X234819750Y-166909204D01*
X234733246Y-167344093D01*
X234563561Y-167753749D01*
X234317216Y-168122429D01*
X234003679Y-168435966D01*
X233634999Y-168682311D01*
X233225343Y-168851996D01*
X232844630Y-168927724D01*
X232790455Y-168938500D01*
X232347045Y-168938500D01*
X232292870Y-168927724D01*
X231912157Y-168851996D01*
X231502501Y-168682311D01*
X231133821Y-168435966D01*
X230820284Y-168122429D01*
X230573939Y-167753749D01*
X230404254Y-167344093D01*
X230317750Y-166909204D01*
X230317750Y-166465796D01*
X230404254Y-166030907D01*
X230573939Y-165621251D01*
X230820284Y-165252571D01*
X231133821Y-164939034D01*
X231502501Y-164692689D01*
X231912157Y-164523004D01*
X232292870Y-164447276D01*
X232347045Y-164436500D01*
X232790455Y-164436500D01*
X232844630Y-164447276D01*
X232844630Y-164447276D01*
G37*
G36*
X146325880Y-164447276D02*
G01*
X146706593Y-164523004D01*
X147116249Y-164692689D01*
X147484929Y-164939034D01*
X147798466Y-165252571D01*
X148044811Y-165621251D01*
X148214496Y-166030907D01*
X148301000Y-166465796D01*
X148301000Y-166909204D01*
X148214496Y-167344093D01*
X148044811Y-167753749D01*
X147798466Y-168122429D01*
X147484929Y-168435966D01*
X147116249Y-168682311D01*
X146706593Y-168851996D01*
X146325880Y-168927724D01*
X146271705Y-168938500D01*
X145828295Y-168938500D01*
X145774120Y-168927724D01*
X145393407Y-168851996D01*
X144983751Y-168682311D01*
X144615071Y-168435966D01*
X144301534Y-168122429D01*
X144055189Y-167753749D01*
X143885504Y-167344093D01*
X143799000Y-166909204D01*
X143799000Y-166465796D01*
X143885504Y-166030907D01*
X144055189Y-165621251D01*
X144301534Y-165252571D01*
X144615071Y-164939034D01*
X144983751Y-164692689D01*
X145393407Y-164523004D01*
X145774120Y-164447276D01*
X145828295Y-164436500D01*
X146271705Y-164436500D01*
X146325880Y-164447276D01*
X146325880Y-164447276D01*
G37*
G36*
X232844630Y-119997276D02*
G01*
X233225343Y-120073004D01*
X233634999Y-120242689D01*
X234003679Y-120489034D01*
X234317216Y-120802571D01*
X234563561Y-121171251D01*
X234733246Y-121580907D01*
X234819750Y-122015796D01*
X234819750Y-122459204D01*
X234733246Y-122894093D01*
X234563561Y-123303749D01*
X234317216Y-123672429D01*
X234003679Y-123985966D01*
X233634999Y-124232311D01*
X233225343Y-124401996D01*
X232844630Y-124477724D01*
X232790455Y-124488500D01*
X232347045Y-124488500D01*
X232292870Y-124477724D01*
X231912157Y-124401996D01*
X231502501Y-124232311D01*
X231133821Y-123985966D01*
X230820284Y-123672429D01*
X230573939Y-123303749D01*
X230404254Y-122894093D01*
X230317750Y-122459204D01*
X230317750Y-122015796D01*
X230404254Y-121580907D01*
X230573939Y-121171251D01*
X230820284Y-120802571D01*
X231133821Y-120489034D01*
X231502501Y-120242689D01*
X231912157Y-120073004D01*
X232292870Y-119997276D01*
X232347045Y-119986500D01*
X232790455Y-119986500D01*
X232844630Y-119997276D01*
X232844630Y-119997276D01*
G37*
G36*
X146325880Y-119997276D02*
G01*
X146706593Y-120073004D01*
X147116249Y-120242689D01*
X147484929Y-120489034D01*
X147798466Y-120802571D01*
X148044811Y-121171251D01*
X148214496Y-121580907D01*
X148301000Y-122015796D01*
X148301000Y-122459204D01*
X148214496Y-122894093D01*
X148044811Y-123303749D01*
X147798466Y-123672429D01*
X147484929Y-123985966D01*
X147116249Y-124232311D01*
X146706593Y-124401996D01*
X146325880Y-124477724D01*
X146271705Y-124488500D01*
X145828295Y-124488500D01*
X145774120Y-124477724D01*
X145393407Y-124401996D01*
X144983751Y-124232311D01*
X144615071Y-123985966D01*
X144301534Y-123672429D01*
X144055189Y-123303749D01*
X143885504Y-122894093D01*
X143799000Y-122459204D01*
X143799000Y-122015796D01*
X143885504Y-121580907D01*
X144055189Y-121171251D01*
X144301534Y-120802571D01*
X144615071Y-120489034D01*
X144983751Y-120242689D01*
X145393407Y-120073004D01*
X145774120Y-119997276D01*
X145828295Y-119986500D01*
X146271705Y-119986500D01*
X146325880Y-119997276D01*
X146325880Y-119997276D01*
G37*
G36*
X168557114Y-118285639D02*
G01*
X168638045Y-118319162D01*
X168710880Y-118367829D01*
X168772821Y-118429770D01*
X168821488Y-118502605D01*
X168855011Y-118583536D01*
X168872100Y-118669451D01*
X168872100Y-118757049D01*
X168855011Y-118842964D01*
X168821488Y-118923895D01*
X168772821Y-118996730D01*
X168710880Y-119058671D01*
X168638045Y-119107338D01*
X168638044Y-119107339D01*
X168638043Y-119107339D01*
X168557114Y-119140861D01*
X168471201Y-119157950D01*
X168383599Y-119157950D01*
X168297686Y-119140861D01*
X168216757Y-119107339D01*
X168216756Y-119107339D01*
X168216755Y-119107338D01*
X168143920Y-119058671D01*
X168081979Y-118996730D01*
X168033312Y-118923895D01*
X167999789Y-118842964D01*
X167982700Y-118757049D01*
X167982700Y-118669451D01*
X167999789Y-118583536D01*
X168033312Y-118502605D01*
X168081979Y-118429770D01*
X168143920Y-118367829D01*
X168216755Y-118319162D01*
X168297686Y-118285639D01*
X168383599Y-118268550D01*
X168471201Y-118268550D01*
X168557114Y-118285639D01*
X168557114Y-118285639D01*
G37*
G36*
X167287114Y-118285639D02*
G01*
X167368045Y-118319162D01*
X167440880Y-118367829D01*
X167502821Y-118429770D01*
X167551488Y-118502605D01*
X167585011Y-118583536D01*
X167602100Y-118669451D01*
X167602100Y-118757049D01*
X167585011Y-118842964D01*
X167551488Y-118923895D01*
X167502821Y-118996730D01*
X167440880Y-119058671D01*
X167368045Y-119107338D01*
X167368044Y-119107339D01*
X167368043Y-119107339D01*
X167287114Y-119140861D01*
X167201201Y-119157950D01*
X167113599Y-119157950D01*
X167027686Y-119140861D01*
X166946757Y-119107339D01*
X166946756Y-119107339D01*
X166946755Y-119107338D01*
X166873920Y-119058671D01*
X166811979Y-118996730D01*
X166763312Y-118923895D01*
X166729789Y-118842964D01*
X166712700Y-118757049D01*
X166712700Y-118669451D01*
X166729789Y-118583536D01*
X166763312Y-118502605D01*
X166811979Y-118429770D01*
X166873920Y-118367829D01*
X166946755Y-118319162D01*
X167027686Y-118285639D01*
X167113599Y-118268550D01*
X167201201Y-118268550D01*
X167287114Y-118285639D01*
X167287114Y-118285639D01*
G37*
G36*
X166017114Y-118285639D02*
G01*
X166098045Y-118319162D01*
X166170880Y-118367829D01*
X166232821Y-118429770D01*
X166281488Y-118502605D01*
X166315011Y-118583536D01*
X166332100Y-118669451D01*
X166332100Y-118757049D01*
X166315011Y-118842964D01*
X166281488Y-118923895D01*
X166232821Y-118996730D01*
X166170880Y-119058671D01*
X166098045Y-119107338D01*
X166098044Y-119107339D01*
X166098043Y-119107339D01*
X166017114Y-119140861D01*
X165931201Y-119157950D01*
X165843599Y-119157950D01*
X165757686Y-119140861D01*
X165676757Y-119107339D01*
X165676756Y-119107339D01*
X165676755Y-119107338D01*
X165603920Y-119058671D01*
X165541979Y-118996730D01*
X165493312Y-118923895D01*
X165459789Y-118842964D01*
X165442700Y-118757049D01*
X165442700Y-118669451D01*
X165459789Y-118583536D01*
X165493312Y-118502605D01*
X165541979Y-118429770D01*
X165603920Y-118367829D01*
X165676755Y-118319162D01*
X165757686Y-118285639D01*
X165843599Y-118268550D01*
X165931201Y-118268550D01*
X166017114Y-118285639D01*
X166017114Y-118285639D01*
G37*
G36*
X164747114Y-118285639D02*
G01*
X164828045Y-118319162D01*
X164900880Y-118367829D01*
X164962821Y-118429770D01*
X165011488Y-118502605D01*
X165045011Y-118583536D01*
X165062100Y-118669451D01*
X165062100Y-118757049D01*
X165045011Y-118842964D01*
X165011488Y-118923895D01*
X164962821Y-118996730D01*
X164900880Y-119058671D01*
X164828045Y-119107338D01*
X164828044Y-119107339D01*
X164828043Y-119107339D01*
X164747114Y-119140861D01*
X164661201Y-119157950D01*
X164573599Y-119157950D01*
X164487686Y-119140861D01*
X164406757Y-119107339D01*
X164406756Y-119107339D01*
X164406755Y-119107338D01*
X164333920Y-119058671D01*
X164271979Y-118996730D01*
X164223312Y-118923895D01*
X164189789Y-118842964D01*
X164172700Y-118757049D01*
X164172700Y-118669451D01*
X164189789Y-118583536D01*
X164223312Y-118502605D01*
X164271979Y-118429770D01*
X164333920Y-118367829D01*
X164406755Y-118319162D01*
X164487686Y-118285639D01*
X164573599Y-118268550D01*
X164661201Y-118268550D01*
X164747114Y-118285639D01*
X164747114Y-118285639D01*
G37*
G36*
X163477114Y-118285639D02*
G01*
X163558045Y-118319162D01*
X163630880Y-118367829D01*
X163692821Y-118429770D01*
X163741488Y-118502605D01*
X163775011Y-118583536D01*
X163792100Y-118669451D01*
X163792100Y-118757049D01*
X163775011Y-118842964D01*
X163741488Y-118923895D01*
X163692821Y-118996730D01*
X163630880Y-119058671D01*
X163558045Y-119107338D01*
X163558044Y-119107339D01*
X163558043Y-119107339D01*
X163477114Y-119140861D01*
X163391201Y-119157950D01*
X163303599Y-119157950D01*
X163217686Y-119140861D01*
X163136757Y-119107339D01*
X163136756Y-119107339D01*
X163136755Y-119107338D01*
X163063920Y-119058671D01*
X163001979Y-118996730D01*
X162953312Y-118923895D01*
X162919789Y-118842964D01*
X162902700Y-118757049D01*
X162902700Y-118669451D01*
X162919789Y-118583536D01*
X162953312Y-118502605D01*
X163001979Y-118429770D01*
X163063920Y-118367829D01*
X163136755Y-118319162D01*
X163217686Y-118285639D01*
X163303599Y-118268550D01*
X163391201Y-118268550D01*
X163477114Y-118285639D01*
X163477114Y-118285639D01*
G37*
G36*
X210308364Y-118285639D02*
G01*
X210389295Y-118319162D01*
X210462130Y-118367829D01*
X210524071Y-118429770D01*
X210572738Y-118502605D01*
X210606261Y-118583536D01*
X210623350Y-118669451D01*
X210623350Y-118757049D01*
X210606261Y-118842964D01*
X210572738Y-118923895D01*
X210524071Y-118996730D01*
X210462130Y-119058671D01*
X210389295Y-119107338D01*
X210389294Y-119107339D01*
X210389293Y-119107339D01*
X210308364Y-119140861D01*
X210222451Y-119157950D01*
X210134849Y-119157950D01*
X210048936Y-119140861D01*
X209968007Y-119107339D01*
X209968006Y-119107339D01*
X209968005Y-119107338D01*
X209895170Y-119058671D01*
X209833229Y-118996730D01*
X209784562Y-118923895D01*
X209751039Y-118842964D01*
X209733950Y-118757049D01*
X209733950Y-118669451D01*
X209751039Y-118583536D01*
X209784562Y-118502605D01*
X209833229Y-118429770D01*
X209895170Y-118367829D01*
X209968005Y-118319162D01*
X210048936Y-118285639D01*
X210134849Y-118268550D01*
X210222451Y-118268550D01*
X210308364Y-118285639D01*
X210308364Y-118285639D01*
G37*
G36*
X211578364Y-118285639D02*
G01*
X211659295Y-118319162D01*
X211732130Y-118367829D01*
X211794071Y-118429770D01*
X211842738Y-118502605D01*
X211876261Y-118583536D01*
X211893350Y-118669451D01*
X211893350Y-118757049D01*
X211876261Y-118842964D01*
X211842738Y-118923895D01*
X211794071Y-118996730D01*
X211732130Y-119058671D01*
X211659295Y-119107338D01*
X211659294Y-119107339D01*
X211659293Y-119107339D01*
X211578364Y-119140861D01*
X211492451Y-119157950D01*
X211404849Y-119157950D01*
X211318936Y-119140861D01*
X211238007Y-119107339D01*
X211238006Y-119107339D01*
X211238005Y-119107338D01*
X211165170Y-119058671D01*
X211103229Y-118996730D01*
X211054562Y-118923895D01*
X211021039Y-118842964D01*
X211003950Y-118757049D01*
X211003950Y-118669451D01*
X211021039Y-118583536D01*
X211054562Y-118502605D01*
X211103229Y-118429770D01*
X211165170Y-118367829D01*
X211238005Y-118319162D01*
X211318936Y-118285639D01*
X211404849Y-118268550D01*
X211492451Y-118268550D01*
X211578364Y-118285639D01*
X211578364Y-118285639D01*
G37*
G36*
X214118364Y-118285639D02*
G01*
X214199295Y-118319162D01*
X214272130Y-118367829D01*
X214334071Y-118429770D01*
X214382738Y-118502605D01*
X214416261Y-118583536D01*
X214433350Y-118669451D01*
X214433350Y-118757049D01*
X214416261Y-118842964D01*
X214382738Y-118923895D01*
X214334071Y-118996730D01*
X214272130Y-119058671D01*
X214199295Y-119107338D01*
X214199294Y-119107339D01*
X214199293Y-119107339D01*
X214118364Y-119140861D01*
X214032451Y-119157950D01*
X213944849Y-119157950D01*
X213858936Y-119140861D01*
X213778007Y-119107339D01*
X213778006Y-119107339D01*
X213778005Y-119107338D01*
X213705170Y-119058671D01*
X213643229Y-118996730D01*
X213594562Y-118923895D01*
X213561039Y-118842964D01*
X213543950Y-118757049D01*
X213543950Y-118669451D01*
X213561039Y-118583536D01*
X213594562Y-118502605D01*
X213643229Y-118429770D01*
X213705170Y-118367829D01*
X213778005Y-118319162D01*
X213858936Y-118285639D01*
X213944849Y-118268550D01*
X214032451Y-118268550D01*
X214118364Y-118285639D01*
X214118364Y-118285639D01*
G37*
G36*
X212848364Y-118285639D02*
G01*
X212929295Y-118319162D01*
X213002130Y-118367829D01*
X213064071Y-118429770D01*
X213112738Y-118502605D01*
X213146261Y-118583536D01*
X213163350Y-118669451D01*
X213163350Y-118757049D01*
X213146261Y-118842964D01*
X213112738Y-118923895D01*
X213064071Y-118996730D01*
X213002130Y-119058671D01*
X212929295Y-119107338D01*
X212929294Y-119107339D01*
X212929293Y-119107339D01*
X212848364Y-119140861D01*
X212762451Y-119157950D01*
X212674849Y-119157950D01*
X212588936Y-119140861D01*
X212508007Y-119107339D01*
X212508006Y-119107339D01*
X212508005Y-119107338D01*
X212435170Y-119058671D01*
X212373229Y-118996730D01*
X212324562Y-118923895D01*
X212291039Y-118842964D01*
X212273950Y-118757049D01*
X212273950Y-118669451D01*
X212291039Y-118583536D01*
X212324562Y-118502605D01*
X212373229Y-118429770D01*
X212435170Y-118367829D01*
X212508005Y-118319162D01*
X212588936Y-118285639D01*
X212674849Y-118268550D01*
X212762451Y-118268550D01*
X212848364Y-118285639D01*
X212848364Y-118285639D01*
G37*
G36*
X215388364Y-118285639D02*
G01*
X215469295Y-118319162D01*
X215542130Y-118367829D01*
X215604071Y-118429770D01*
X215652738Y-118502605D01*
X215686261Y-118583536D01*
X215703350Y-118669451D01*
X215703350Y-118757049D01*
X215686261Y-118842964D01*
X215652738Y-118923895D01*
X215604071Y-118996730D01*
X215542130Y-119058671D01*
X215469295Y-119107338D01*
X215469294Y-119107339D01*
X215469293Y-119107339D01*
X215388364Y-119140861D01*
X215302451Y-119157950D01*
X215214849Y-119157950D01*
X215128936Y-119140861D01*
X215048007Y-119107339D01*
X215048006Y-119107339D01*
X215048005Y-119107338D01*
X214975170Y-119058671D01*
X214913229Y-118996730D01*
X214864562Y-118923895D01*
X214831039Y-118842964D01*
X214813950Y-118757049D01*
X214813950Y-118669451D01*
X214831039Y-118583536D01*
X214864562Y-118502605D01*
X214913229Y-118429770D01*
X214975170Y-118367829D01*
X215048005Y-118319162D01*
X215128936Y-118285639D01*
X215214849Y-118268550D01*
X215302451Y-118268550D01*
X215388364Y-118285639D01*
X215388364Y-118285639D01*
G37*
G36*
X168563464Y-115015389D02*
G01*
X168644395Y-115048912D01*
X168717230Y-115097579D01*
X168779171Y-115159520D01*
X168827838Y-115232355D01*
X168861361Y-115313286D01*
X168878450Y-115399201D01*
X168878450Y-115486799D01*
X168861361Y-115572714D01*
X168827838Y-115653645D01*
X168779171Y-115726480D01*
X168717230Y-115788421D01*
X168644395Y-115837088D01*
X168644394Y-115837089D01*
X168644393Y-115837089D01*
X168563464Y-115870611D01*
X168477551Y-115887700D01*
X168389949Y-115887700D01*
X168304036Y-115870611D01*
X168223107Y-115837089D01*
X168223106Y-115837089D01*
X168223105Y-115837088D01*
X168150270Y-115788421D01*
X168088329Y-115726480D01*
X168039662Y-115653645D01*
X168006139Y-115572714D01*
X167989050Y-115486799D01*
X167989050Y-115399201D01*
X168006139Y-115313286D01*
X168039662Y-115232355D01*
X168088329Y-115159520D01*
X168150270Y-115097579D01*
X168223105Y-115048912D01*
X168304036Y-115015389D01*
X168389949Y-114998300D01*
X168477551Y-114998300D01*
X168563464Y-115015389D01*
X168563464Y-115015389D01*
G37*
G36*
X166023464Y-115015389D02*
G01*
X166104395Y-115048912D01*
X166177230Y-115097579D01*
X166239171Y-115159520D01*
X166287838Y-115232355D01*
X166321361Y-115313286D01*
X166338450Y-115399201D01*
X166338450Y-115486799D01*
X166321361Y-115572714D01*
X166287838Y-115653645D01*
X166239171Y-115726480D01*
X166177230Y-115788421D01*
X166104395Y-115837088D01*
X166104394Y-115837089D01*
X166104393Y-115837089D01*
X166023464Y-115870611D01*
X165937551Y-115887700D01*
X165849949Y-115887700D01*
X165764036Y-115870611D01*
X165683107Y-115837089D01*
X165683106Y-115837089D01*
X165683105Y-115837088D01*
X165610270Y-115788421D01*
X165548329Y-115726480D01*
X165499662Y-115653645D01*
X165466139Y-115572714D01*
X165449050Y-115486799D01*
X165449050Y-115399201D01*
X165466139Y-115313286D01*
X165499662Y-115232355D01*
X165548329Y-115159520D01*
X165610270Y-115097579D01*
X165683105Y-115048912D01*
X165764036Y-115015389D01*
X165849949Y-114998300D01*
X165937551Y-114998300D01*
X166023464Y-115015389D01*
X166023464Y-115015389D01*
G37*
G36*
X163483464Y-115015389D02*
G01*
X163564395Y-115048912D01*
X163637230Y-115097579D01*
X163699171Y-115159520D01*
X163747838Y-115232355D01*
X163781361Y-115313286D01*
X163798450Y-115399201D01*
X163798450Y-115486799D01*
X163781361Y-115572714D01*
X163747838Y-115653645D01*
X163699171Y-115726480D01*
X163637230Y-115788421D01*
X163564395Y-115837088D01*
X163564394Y-115837089D01*
X163564393Y-115837089D01*
X163483464Y-115870611D01*
X163397551Y-115887700D01*
X163309949Y-115887700D01*
X163224036Y-115870611D01*
X163143107Y-115837089D01*
X163143106Y-115837089D01*
X163143105Y-115837088D01*
X163070270Y-115788421D01*
X163008329Y-115726480D01*
X162959662Y-115653645D01*
X162926139Y-115572714D01*
X162909050Y-115486799D01*
X162909050Y-115399201D01*
X162926139Y-115313286D01*
X162959662Y-115232355D01*
X163008329Y-115159520D01*
X163070270Y-115097579D01*
X163143105Y-115048912D01*
X163224036Y-115015389D01*
X163309949Y-114998300D01*
X163397551Y-114998300D01*
X163483464Y-115015389D01*
X163483464Y-115015389D01*
G37*
G36*
X167293464Y-115015389D02*
G01*
X167374395Y-115048912D01*
X167447230Y-115097579D01*
X167509171Y-115159520D01*
X167557838Y-115232355D01*
X167591361Y-115313286D01*
X167608450Y-115399201D01*
X167608450Y-115486799D01*
X167591361Y-115572714D01*
X167557838Y-115653645D01*
X167509171Y-115726480D01*
X167447230Y-115788421D01*
X167374395Y-115837088D01*
X167374394Y-115837089D01*
X167374393Y-115837089D01*
X167293464Y-115870611D01*
X167207551Y-115887700D01*
X167119949Y-115887700D01*
X167034036Y-115870611D01*
X166953107Y-115837089D01*
X166953106Y-115837089D01*
X166953105Y-115837088D01*
X166880270Y-115788421D01*
X166818329Y-115726480D01*
X166769662Y-115653645D01*
X166736139Y-115572714D01*
X166719050Y-115486799D01*
X166719050Y-115399201D01*
X166736139Y-115313286D01*
X166769662Y-115232355D01*
X166818329Y-115159520D01*
X166880270Y-115097579D01*
X166953105Y-115048912D01*
X167034036Y-115015389D01*
X167119949Y-114998300D01*
X167207551Y-114998300D01*
X167293464Y-115015389D01*
X167293464Y-115015389D01*
G37*
G36*
X215394714Y-115015389D02*
G01*
X215475645Y-115048912D01*
X215548480Y-115097579D01*
X215610421Y-115159520D01*
X215659088Y-115232355D01*
X215692611Y-115313286D01*
X215709700Y-115399201D01*
X215709700Y-115486799D01*
X215692611Y-115572714D01*
X215659088Y-115653645D01*
X215610421Y-115726480D01*
X215548480Y-115788421D01*
X215475645Y-115837088D01*
X215475644Y-115837089D01*
X215475643Y-115837089D01*
X215394714Y-115870611D01*
X215308801Y-115887700D01*
X215221199Y-115887700D01*
X215135286Y-115870611D01*
X215054357Y-115837089D01*
X215054356Y-115837089D01*
X215054355Y-115837088D01*
X214981520Y-115788421D01*
X214919579Y-115726480D01*
X214870912Y-115653645D01*
X214837389Y-115572714D01*
X214820300Y-115486799D01*
X214820300Y-115399201D01*
X214837389Y-115313286D01*
X214870912Y-115232355D01*
X214919579Y-115159520D01*
X214981520Y-115097579D01*
X215054355Y-115048912D01*
X215135286Y-115015389D01*
X215221199Y-114998300D01*
X215308801Y-114998300D01*
X215394714Y-115015389D01*
X215394714Y-115015389D01*
G37*
G36*
X210314714Y-115015389D02*
G01*
X210395645Y-115048912D01*
X210468480Y-115097579D01*
X210530421Y-115159520D01*
X210579088Y-115232355D01*
X210612611Y-115313286D01*
X210629700Y-115399201D01*
X210629700Y-115486799D01*
X210612611Y-115572714D01*
X210579088Y-115653645D01*
X210530421Y-115726480D01*
X210468480Y-115788421D01*
X210395645Y-115837088D01*
X210395644Y-115837089D01*
X210395643Y-115837089D01*
X210314714Y-115870611D01*
X210228801Y-115887700D01*
X210141199Y-115887700D01*
X210055286Y-115870611D01*
X209974357Y-115837089D01*
X209974356Y-115837089D01*
X209974355Y-115837088D01*
X209901520Y-115788421D01*
X209839579Y-115726480D01*
X209790912Y-115653645D01*
X209757389Y-115572714D01*
X209740300Y-115486799D01*
X209740300Y-115399201D01*
X209757389Y-115313286D01*
X209790912Y-115232355D01*
X209839579Y-115159520D01*
X209901520Y-115097579D01*
X209974355Y-115048912D01*
X210055286Y-115015389D01*
X210141199Y-114998300D01*
X210228801Y-114998300D01*
X210314714Y-115015389D01*
X210314714Y-115015389D01*
G37*
G36*
X211584714Y-115015389D02*
G01*
X211665645Y-115048912D01*
X211738480Y-115097579D01*
X211800421Y-115159520D01*
X211849088Y-115232355D01*
X211882611Y-115313286D01*
X211899700Y-115399201D01*
X211899700Y-115486799D01*
X211882611Y-115572714D01*
X211849088Y-115653645D01*
X211800421Y-115726480D01*
X211738480Y-115788421D01*
X211665645Y-115837088D01*
X211665644Y-115837089D01*
X211665643Y-115837089D01*
X211584714Y-115870611D01*
X211498801Y-115887700D01*
X211411199Y-115887700D01*
X211325286Y-115870611D01*
X211244357Y-115837089D01*
X211244356Y-115837089D01*
X211244355Y-115837088D01*
X211171520Y-115788421D01*
X211109579Y-115726480D01*
X211060912Y-115653645D01*
X211027389Y-115572714D01*
X211010300Y-115486799D01*
X211010300Y-115399201D01*
X211027389Y-115313286D01*
X211060912Y-115232355D01*
X211109579Y-115159520D01*
X211171520Y-115097579D01*
X211244355Y-115048912D01*
X211325286Y-115015389D01*
X211411199Y-114998300D01*
X211498801Y-114998300D01*
X211584714Y-115015389D01*
X211584714Y-115015389D01*
G37*
G36*
X212854714Y-115015389D02*
G01*
X212935645Y-115048912D01*
X213008480Y-115097579D01*
X213070421Y-115159520D01*
X213119088Y-115232355D01*
X213152611Y-115313286D01*
X213169700Y-115399201D01*
X213169700Y-115486799D01*
X213152611Y-115572714D01*
X213119088Y-115653645D01*
X213070421Y-115726480D01*
X213008480Y-115788421D01*
X212935645Y-115837088D01*
X212935644Y-115837089D01*
X212935643Y-115837089D01*
X212854714Y-115870611D01*
X212768801Y-115887700D01*
X212681199Y-115887700D01*
X212595286Y-115870611D01*
X212514357Y-115837089D01*
X212514356Y-115837089D01*
X212514355Y-115837088D01*
X212441520Y-115788421D01*
X212379579Y-115726480D01*
X212330912Y-115653645D01*
X212297389Y-115572714D01*
X212280300Y-115486799D01*
X212280300Y-115399201D01*
X212297389Y-115313286D01*
X212330912Y-115232355D01*
X212379579Y-115159520D01*
X212441520Y-115097579D01*
X212514355Y-115048912D01*
X212595286Y-115015389D01*
X212681199Y-114998300D01*
X212768801Y-114998300D01*
X212854714Y-115015389D01*
X212854714Y-115015389D01*
G37*
G36*
X164753464Y-115015389D02*
G01*
X164834395Y-115048912D01*
X164907230Y-115097579D01*
X164969171Y-115159520D01*
X165017838Y-115232355D01*
X165051361Y-115313286D01*
X165068450Y-115399201D01*
X165068450Y-115486799D01*
X165051361Y-115572714D01*
X165017838Y-115653645D01*
X164969171Y-115726480D01*
X164907230Y-115788421D01*
X164834395Y-115837088D01*
X164834394Y-115837089D01*
X164834393Y-115837089D01*
X164753464Y-115870611D01*
X164667551Y-115887700D01*
X164579949Y-115887700D01*
X164494036Y-115870611D01*
X164413107Y-115837089D01*
X164413106Y-115837089D01*
X164413105Y-115837088D01*
X164340270Y-115788421D01*
X164278329Y-115726480D01*
X164229662Y-115653645D01*
X164196139Y-115572714D01*
X164179050Y-115486799D01*
X164179050Y-115399201D01*
X164196139Y-115313286D01*
X164229662Y-115232355D01*
X164278329Y-115159520D01*
X164340270Y-115097579D01*
X164413105Y-115048912D01*
X164494036Y-115015389D01*
X164579949Y-114998300D01*
X164667551Y-114998300D01*
X164753464Y-115015389D01*
X164753464Y-115015389D01*
G37*
G36*
X214124714Y-115015389D02*
G01*
X214205645Y-115048912D01*
X214278480Y-115097579D01*
X214340421Y-115159520D01*
X214389088Y-115232355D01*
X214422611Y-115313286D01*
X214439700Y-115399201D01*
X214439700Y-115486799D01*
X214422611Y-115572714D01*
X214389088Y-115653645D01*
X214340421Y-115726480D01*
X214278480Y-115788421D01*
X214205645Y-115837088D01*
X214205644Y-115837089D01*
X214205643Y-115837089D01*
X214124714Y-115870611D01*
X214038801Y-115887700D01*
X213951199Y-115887700D01*
X213865286Y-115870611D01*
X213784357Y-115837089D01*
X213784356Y-115837089D01*
X213784355Y-115837088D01*
X213711520Y-115788421D01*
X213649579Y-115726480D01*
X213600912Y-115653645D01*
X213567389Y-115572714D01*
X213550300Y-115486799D01*
X213550300Y-115399201D01*
X213567389Y-115313286D01*
X213600912Y-115232355D01*
X213649579Y-115159520D01*
X213711520Y-115097579D01*
X213784355Y-115048912D01*
X213865286Y-115015389D01*
X213951199Y-114998300D01*
X214038801Y-114998300D01*
X214124714Y-115015389D01*
X214124714Y-115015389D01*
G37*
G36*
X232844630Y-109678526D02*
G01*
X233225343Y-109754254D01*
X233634999Y-109923939D01*
X234003679Y-110170284D01*
X234317216Y-110483821D01*
X234563561Y-110852501D01*
X234733246Y-111262157D01*
X234819750Y-111697046D01*
X234819750Y-112140454D01*
X234733246Y-112575343D01*
X234563561Y-112984999D01*
X234317216Y-113353679D01*
X234003679Y-113667216D01*
X233634999Y-113913561D01*
X233225343Y-114083246D01*
X232844630Y-114158974D01*
X232790455Y-114169750D01*
X232347045Y-114169750D01*
X232292870Y-114158974D01*
X231912157Y-114083246D01*
X231502501Y-113913561D01*
X231133821Y-113667216D01*
X230820284Y-113353679D01*
X230573939Y-112984999D01*
X230404254Y-112575343D01*
X230317750Y-112140454D01*
X230317750Y-111697046D01*
X230404254Y-111262157D01*
X230573939Y-110852501D01*
X230820284Y-110483821D01*
X231133821Y-110170284D01*
X231502501Y-109923939D01*
X231912157Y-109754254D01*
X232292870Y-109678526D01*
X232347045Y-109667750D01*
X232790455Y-109667750D01*
X232844630Y-109678526D01*
X232844630Y-109678526D01*
G37*
G36*
X146325880Y-109678526D02*
G01*
X146706593Y-109754254D01*
X147116249Y-109923939D01*
X147484929Y-110170284D01*
X147798466Y-110483821D01*
X148044811Y-110852501D01*
X148214496Y-111262157D01*
X148301000Y-111697046D01*
X148301000Y-112140454D01*
X148214496Y-112575343D01*
X148044811Y-112984999D01*
X147798466Y-113353679D01*
X147484929Y-113667216D01*
X147116249Y-113913561D01*
X146706593Y-114083246D01*
X146325880Y-114158974D01*
X146271705Y-114169750D01*
X145828295Y-114169750D01*
X145774120Y-114158974D01*
X145393407Y-114083246D01*
X144983751Y-113913561D01*
X144615071Y-113667216D01*
X144301534Y-113353679D01*
X144055189Y-112984999D01*
X143885504Y-112575343D01*
X143799000Y-112140454D01*
X143799000Y-111697046D01*
X143885504Y-111262157D01*
X144055189Y-110852501D01*
X144301534Y-110483821D01*
X144615071Y-110170284D01*
X144983751Y-109923939D01*
X145393407Y-109754254D01*
X145774120Y-109678526D01*
X145828295Y-109667750D01*
X146271705Y-109667750D01*
X146325880Y-109678526D01*
X146325880Y-109678526D01*
G37*
G36*
X162502468Y-109584815D02*
G01*
X162541138Y-109596546D01*
X162576777Y-109615596D01*
X162608017Y-109641233D01*
X162633654Y-109672473D01*
X162652704Y-109708112D01*
X162664435Y-109746782D01*
X162669000Y-109793138D01*
X162669000Y-110869362D01*
X162664435Y-110915718D01*
X162652704Y-110954388D01*
X162633654Y-110990027D01*
X162608017Y-111021267D01*
X162576777Y-111046904D01*
X162541138Y-111065954D01*
X162502468Y-111077685D01*
X162456112Y-111082250D01*
X161804888Y-111082250D01*
X161758532Y-111077685D01*
X161719862Y-111065954D01*
X161684223Y-111046904D01*
X161652983Y-111021267D01*
X161627346Y-110990027D01*
X161608296Y-110954388D01*
X161596565Y-110915718D01*
X161592000Y-110869362D01*
X161592000Y-109793138D01*
X161596565Y-109746782D01*
X161608296Y-109708112D01*
X161627346Y-109672473D01*
X161652983Y-109641233D01*
X161684223Y-109615596D01*
X161719862Y-109596546D01*
X161758532Y-109584815D01*
X161804888Y-109580250D01*
X162456112Y-109580250D01*
X162502468Y-109584815D01*
X162502468Y-109584815D01*
G37*
G36*
X164377468Y-109584815D02*
G01*
X164416138Y-109596546D01*
X164451777Y-109615596D01*
X164483017Y-109641233D01*
X164508654Y-109672473D01*
X164527704Y-109708112D01*
X164539435Y-109746782D01*
X164544000Y-109793138D01*
X164544000Y-110869362D01*
X164539435Y-110915718D01*
X164527704Y-110954388D01*
X164508654Y-110990027D01*
X164483017Y-111021267D01*
X164451777Y-111046904D01*
X164416138Y-111065954D01*
X164377468Y-111077685D01*
X164331112Y-111082250D01*
X163679888Y-111082250D01*
X163633532Y-111077685D01*
X163594862Y-111065954D01*
X163559223Y-111046904D01*
X163527983Y-111021267D01*
X163502346Y-110990027D01*
X163483296Y-110954388D01*
X163471565Y-110915718D01*
X163467000Y-110869362D01*
X163467000Y-109793138D01*
X163471565Y-109746782D01*
X163483296Y-109708112D01*
X163502346Y-109672473D01*
X163527983Y-109641233D01*
X163559223Y-109615596D01*
X163594862Y-109596546D01*
X163633532Y-109584815D01*
X163679888Y-109580250D01*
X164331112Y-109580250D01*
X164377468Y-109584815D01*
X164377468Y-109584815D01*
G37*
G36*
X169653218Y-108353565D02*
G01*
X169691888Y-108365296D01*
X169727527Y-108384346D01*
X169758767Y-108409983D01*
X169784404Y-108441223D01*
X169803454Y-108476862D01*
X169815185Y-108515532D01*
X169819750Y-108561888D01*
X169819750Y-109213112D01*
X169815185Y-109259468D01*
X169803454Y-109298138D01*
X169784404Y-109333777D01*
X169758767Y-109365017D01*
X169727527Y-109390654D01*
X169691888Y-109409704D01*
X169653218Y-109421435D01*
X169606862Y-109426000D01*
X168530638Y-109426000D01*
X168484282Y-109421435D01*
X168445612Y-109409704D01*
X168409973Y-109390654D01*
X168378733Y-109365017D01*
X168353096Y-109333777D01*
X168334046Y-109298138D01*
X168322315Y-109259468D01*
X168317750Y-109213112D01*
X168317750Y-108561888D01*
X168322315Y-108515532D01*
X168334046Y-108476862D01*
X168353096Y-108441223D01*
X168378733Y-108409983D01*
X168409973Y-108384346D01*
X168445612Y-108365296D01*
X168484282Y-108353565D01*
X168530638Y-108349000D01*
X169606862Y-108349000D01*
X169653218Y-108353565D01*
X169653218Y-108353565D01*
G37*
G36*
X169653218Y-106478565D02*
G01*
X169691888Y-106490296D01*
X169727527Y-106509346D01*
X169758767Y-106534983D01*
X169784404Y-106566223D01*
X169803454Y-106601862D01*
X169815185Y-106640532D01*
X169819750Y-106686888D01*
X169819750Y-107338112D01*
X169815185Y-107384468D01*
X169803454Y-107423138D01*
X169784404Y-107458777D01*
X169758767Y-107490017D01*
X169727527Y-107515654D01*
X169691888Y-107534704D01*
X169653218Y-107546435D01*
X169606862Y-107551000D01*
X168530638Y-107551000D01*
X168484282Y-107546435D01*
X168445612Y-107534704D01*
X168409973Y-107515654D01*
X168378733Y-107490017D01*
X168353096Y-107458777D01*
X168334046Y-107423138D01*
X168322315Y-107384468D01*
X168317750Y-107338112D01*
X168317750Y-106686888D01*
X168322315Y-106640532D01*
X168334046Y-106601862D01*
X168353096Y-106566223D01*
X168378733Y-106534983D01*
X168409973Y-106509346D01*
X168445612Y-106490296D01*
X168484282Y-106478565D01*
X168530638Y-106474000D01*
X169606862Y-106474000D01*
X169653218Y-106478565D01*
X169653218Y-106478565D01*
G37*
G36*
X163806250Y-107370750D02*
G01*
X155154250Y-107370750D01*
X155154250Y-105768750D01*
X163806250Y-105768750D01*
X163806250Y-107370750D01*
X163806250Y-107370750D01*
G37*
G36*
X149809468Y-105686565D02*
G01*
X149848138Y-105698296D01*
X149883777Y-105717346D01*
X149915017Y-105742983D01*
X149940654Y-105774223D01*
X149959704Y-105809862D01*
X149971435Y-105848532D01*
X149976000Y-105894888D01*
X149976000Y-106546112D01*
X149971435Y-106592468D01*
X149959704Y-106631138D01*
X149940654Y-106666777D01*
X149915017Y-106698017D01*
X149883777Y-106723654D01*
X149848138Y-106742704D01*
X149809468Y-106754435D01*
X149763112Y-106759000D01*
X148686888Y-106759000D01*
X148640532Y-106754435D01*
X148601862Y-106742704D01*
X148566223Y-106723654D01*
X148534983Y-106698017D01*
X148509346Y-106666777D01*
X148490296Y-106631138D01*
X148478565Y-106592468D01*
X148474000Y-106546112D01*
X148474000Y-105894888D01*
X148478565Y-105848532D01*
X148490296Y-105809862D01*
X148509346Y-105774223D01*
X148534983Y-105742983D01*
X148566223Y-105717346D01*
X148601862Y-105698296D01*
X148640532Y-105686565D01*
X148686888Y-105682000D01*
X149763112Y-105682000D01*
X149809468Y-105686565D01*
X149809468Y-105686565D01*
G37*
G36*
X165981250Y-105195750D02*
G01*
X164379250Y-105195750D01*
X164379250Y-96543750D01*
X165981250Y-96543750D01*
X165981250Y-105195750D01*
X165981250Y-105195750D01*
G37*
G36*
X154581250Y-105195750D02*
G01*
X152979250Y-105195750D01*
X152979250Y-96543750D01*
X154581250Y-96543750D01*
X154581250Y-105195750D01*
X154581250Y-105195750D01*
G37*
G36*
X149809468Y-103811565D02*
G01*
X149848138Y-103823296D01*
X149883777Y-103842346D01*
X149915017Y-103867983D01*
X149940654Y-103899223D01*
X149959704Y-103934862D01*
X149971435Y-103973532D01*
X149976000Y-104019888D01*
X149976000Y-104671112D01*
X149971435Y-104717468D01*
X149959704Y-104756138D01*
X149940654Y-104791777D01*
X149915017Y-104823017D01*
X149883777Y-104848654D01*
X149848138Y-104867704D01*
X149809468Y-104879435D01*
X149763112Y-104884000D01*
X148686888Y-104884000D01*
X148640532Y-104879435D01*
X148601862Y-104867704D01*
X148566223Y-104848654D01*
X148534983Y-104823017D01*
X148509346Y-104791777D01*
X148490296Y-104756138D01*
X148478565Y-104717468D01*
X148474000Y-104671112D01*
X148474000Y-104019888D01*
X148478565Y-103973532D01*
X148490296Y-103934862D01*
X148509346Y-103899223D01*
X148534983Y-103867983D01*
X148566223Y-103842346D01*
X148601862Y-103823296D01*
X148640532Y-103811565D01*
X148686888Y-103807000D01*
X149763112Y-103807000D01*
X149809468Y-103811565D01*
X149809468Y-103811565D01*
G37*
G36*
X190357250Y-101369750D02*
G01*
X189055250Y-101369750D01*
X189055250Y-100367750D01*
X190357250Y-100367750D01*
X190357250Y-101369750D01*
X190357250Y-101369750D01*
G37*
G36*
X228457250Y-101369750D02*
G01*
X227155250Y-101369750D01*
X227155250Y-100367750D01*
X228457250Y-100367750D01*
X228457250Y-101369750D01*
X228457250Y-101369750D01*
G37*
G36*
X209407250Y-101369750D02*
G01*
X208105250Y-101369750D01*
X208105250Y-100367750D01*
X209407250Y-100367750D01*
X209407250Y-101369750D01*
X209407250Y-101369750D01*
G37*
G36*
X182682724Y-97347684D02*
G01*
X182850159Y-97417038D01*
X183054873Y-97501833D01*
X183389798Y-97725623D01*
X183674627Y-98010452D01*
X183898417Y-98345377D01*
X183930812Y-98423586D01*
X184052566Y-98717526D01*
X184131150Y-99112594D01*
X184131150Y-99515406D01*
X184052566Y-99910474D01*
X184001701Y-100033272D01*
X183898417Y-100282623D01*
X183674627Y-100617548D01*
X183389798Y-100902377D01*
X183054873Y-101126167D01*
X182900724Y-101190017D01*
X182682724Y-101280316D01*
X182287656Y-101358900D01*
X181884844Y-101358900D01*
X181489776Y-101280316D01*
X181271776Y-101190017D01*
X181117627Y-101126167D01*
X180782702Y-100902377D01*
X180497873Y-100617548D01*
X180274083Y-100282623D01*
X180170799Y-100033272D01*
X180119934Y-99910474D01*
X180041350Y-99515406D01*
X180041350Y-99112594D01*
X180119934Y-98717526D01*
X180241688Y-98423586D01*
X180274083Y-98345377D01*
X180497873Y-98010452D01*
X180782702Y-97725623D01*
X181117627Y-97501833D01*
X181322341Y-97417038D01*
X181489776Y-97347684D01*
X181884844Y-97269100D01*
X182287656Y-97269100D01*
X182682724Y-97347684D01*
X182682724Y-97347684D01*
G37*
G36*
X220782724Y-97347684D02*
G01*
X220950159Y-97417038D01*
X221154873Y-97501833D01*
X221489798Y-97725623D01*
X221774627Y-98010452D01*
X221998417Y-98345377D01*
X222030812Y-98423586D01*
X222152566Y-98717526D01*
X222231150Y-99112594D01*
X222231150Y-99515406D01*
X222152566Y-99910474D01*
X222101701Y-100033272D01*
X221998417Y-100282623D01*
X221774627Y-100617548D01*
X221489798Y-100902377D01*
X221154873Y-101126167D01*
X221000724Y-101190017D01*
X220782724Y-101280316D01*
X220387656Y-101358900D01*
X219984844Y-101358900D01*
X219589776Y-101280316D01*
X219371776Y-101190017D01*
X219217627Y-101126167D01*
X218882702Y-100902377D01*
X218597873Y-100617548D01*
X218374083Y-100282623D01*
X218270799Y-100033272D01*
X218219934Y-99910474D01*
X218141350Y-99515406D01*
X218141350Y-99112594D01*
X218219934Y-98717526D01*
X218341688Y-98423586D01*
X218374083Y-98345377D01*
X218597873Y-98010452D01*
X218882702Y-97725623D01*
X219217627Y-97501833D01*
X219422341Y-97417038D01*
X219589776Y-97347684D01*
X219984844Y-97269100D01*
X220387656Y-97269100D01*
X220782724Y-97347684D01*
X220782724Y-97347684D01*
G37*
G36*
X201732724Y-97347684D02*
G01*
X201900159Y-97417038D01*
X202104873Y-97501833D01*
X202439798Y-97725623D01*
X202724627Y-98010452D01*
X202948417Y-98345377D01*
X202980812Y-98423586D01*
X203102566Y-98717526D01*
X203181150Y-99112594D01*
X203181150Y-99515406D01*
X203102566Y-99910474D01*
X203051701Y-100033272D01*
X202948417Y-100282623D01*
X202724627Y-100617548D01*
X202439798Y-100902377D01*
X202104873Y-101126167D01*
X201950724Y-101190017D01*
X201732724Y-101280316D01*
X201337656Y-101358900D01*
X200934844Y-101358900D01*
X200539776Y-101280316D01*
X200321776Y-101190017D01*
X200167627Y-101126167D01*
X199832702Y-100902377D01*
X199547873Y-100617548D01*
X199324083Y-100282623D01*
X199220799Y-100033272D01*
X199169934Y-99910474D01*
X199091350Y-99515406D01*
X199091350Y-99112594D01*
X199169934Y-98717526D01*
X199291688Y-98423586D01*
X199324083Y-98345377D01*
X199547873Y-98010452D01*
X199832702Y-97725623D01*
X200167627Y-97501833D01*
X200372341Y-97417038D01*
X200539776Y-97347684D01*
X200934844Y-97269100D01*
X201337656Y-97269100D01*
X201732724Y-97347684D01*
X201732724Y-97347684D01*
G37*
G36*
X187436354Y-98423585D02*
G01*
X187604876Y-98493389D01*
X187756541Y-98594728D01*
X187885522Y-98723709D01*
X187986861Y-98875374D01*
X188056665Y-99043896D01*
X188092250Y-99222797D01*
X188092250Y-99405203D01*
X188056665Y-99584104D01*
X187986861Y-99752626D01*
X187885522Y-99904291D01*
X187756541Y-100033272D01*
X187604876Y-100134611D01*
X187436354Y-100204415D01*
X187257453Y-100240000D01*
X187075047Y-100240000D01*
X186896146Y-100204415D01*
X186727624Y-100134611D01*
X186575959Y-100033272D01*
X186446978Y-99904291D01*
X186345639Y-99752626D01*
X186275835Y-99584104D01*
X186240250Y-99405203D01*
X186240250Y-99222797D01*
X186275835Y-99043896D01*
X186345639Y-98875374D01*
X186446978Y-98723709D01*
X186575959Y-98594728D01*
X186727624Y-98493389D01*
X186896146Y-98423585D01*
X187075047Y-98388000D01*
X187257453Y-98388000D01*
X187436354Y-98423585D01*
X187436354Y-98423585D01*
G37*
G36*
X196326354Y-98423585D02*
G01*
X196494876Y-98493389D01*
X196646541Y-98594728D01*
X196775522Y-98723709D01*
X196876861Y-98875374D01*
X196946665Y-99043896D01*
X196982250Y-99222797D01*
X196982250Y-99405203D01*
X196946665Y-99584104D01*
X196876861Y-99752626D01*
X196775522Y-99904291D01*
X196646541Y-100033272D01*
X196494876Y-100134611D01*
X196326354Y-100204415D01*
X196147453Y-100240000D01*
X195965047Y-100240000D01*
X195786146Y-100204415D01*
X195617624Y-100134611D01*
X195465959Y-100033272D01*
X195336978Y-99904291D01*
X195235639Y-99752626D01*
X195165835Y-99584104D01*
X195130250Y-99405203D01*
X195130250Y-99222797D01*
X195165835Y-99043896D01*
X195235639Y-98875374D01*
X195336978Y-98723709D01*
X195465959Y-98594728D01*
X195617624Y-98493389D01*
X195786146Y-98423585D01*
X195965047Y-98388000D01*
X196147453Y-98388000D01*
X196326354Y-98423585D01*
X196326354Y-98423585D01*
G37*
G36*
X206486354Y-98423585D02*
G01*
X206654876Y-98493389D01*
X206806541Y-98594728D01*
X206935522Y-98723709D01*
X207036861Y-98875374D01*
X207106665Y-99043896D01*
X207142250Y-99222797D01*
X207142250Y-99405203D01*
X207106665Y-99584104D01*
X207036861Y-99752626D01*
X206935522Y-99904291D01*
X206806541Y-100033272D01*
X206654876Y-100134611D01*
X206486354Y-100204415D01*
X206307453Y-100240000D01*
X206125047Y-100240000D01*
X205946146Y-100204415D01*
X205777624Y-100134611D01*
X205625959Y-100033272D01*
X205496978Y-99904291D01*
X205395639Y-99752626D01*
X205325835Y-99584104D01*
X205290250Y-99405203D01*
X205290250Y-99222797D01*
X205325835Y-99043896D01*
X205395639Y-98875374D01*
X205496978Y-98723709D01*
X205625959Y-98594728D01*
X205777624Y-98493389D01*
X205946146Y-98423585D01*
X206125047Y-98388000D01*
X206307453Y-98388000D01*
X206486354Y-98423585D01*
X206486354Y-98423585D01*
G37*
G36*
X225536354Y-98423585D02*
G01*
X225704876Y-98493389D01*
X225856541Y-98594728D01*
X225985522Y-98723709D01*
X226086861Y-98875374D01*
X226156665Y-99043896D01*
X226192250Y-99222797D01*
X226192250Y-99405203D01*
X226156665Y-99584104D01*
X226086861Y-99752626D01*
X225985522Y-99904291D01*
X225856541Y-100033272D01*
X225704876Y-100134611D01*
X225536354Y-100204415D01*
X225357453Y-100240000D01*
X225175047Y-100240000D01*
X224996146Y-100204415D01*
X224827624Y-100134611D01*
X224675959Y-100033272D01*
X224546978Y-99904291D01*
X224445639Y-99752626D01*
X224375835Y-99584104D01*
X224340250Y-99405203D01*
X224340250Y-99222797D01*
X224375835Y-99043896D01*
X224445639Y-98875374D01*
X224546978Y-98723709D01*
X224675959Y-98594728D01*
X224827624Y-98493389D01*
X224996146Y-98423585D01*
X225175047Y-98388000D01*
X225357453Y-98388000D01*
X225536354Y-98423585D01*
X225536354Y-98423585D01*
G37*
G36*
X215376354Y-98423585D02*
G01*
X215544876Y-98493389D01*
X215696541Y-98594728D01*
X215825522Y-98723709D01*
X215926861Y-98875374D01*
X215996665Y-99043896D01*
X216032250Y-99222797D01*
X216032250Y-99405203D01*
X215996665Y-99584104D01*
X215926861Y-99752626D01*
X215825522Y-99904291D01*
X215696541Y-100033272D01*
X215544876Y-100134611D01*
X215376354Y-100204415D01*
X215197453Y-100240000D01*
X215015047Y-100240000D01*
X214836146Y-100204415D01*
X214667624Y-100134611D01*
X214515959Y-100033272D01*
X214386978Y-99904291D01*
X214285639Y-99752626D01*
X214215835Y-99584104D01*
X214180250Y-99405203D01*
X214180250Y-99222797D01*
X214215835Y-99043896D01*
X214285639Y-98875374D01*
X214386978Y-98723709D01*
X214515959Y-98594728D01*
X214667624Y-98493389D01*
X214836146Y-98423585D01*
X215015047Y-98388000D01*
X215197453Y-98388000D01*
X215376354Y-98423585D01*
X215376354Y-98423585D01*
G37*
G36*
X177276354Y-98423585D02*
G01*
X177444876Y-98493389D01*
X177596541Y-98594728D01*
X177725522Y-98723709D01*
X177826861Y-98875374D01*
X177896665Y-99043896D01*
X177932250Y-99222797D01*
X177932250Y-99405203D01*
X177896665Y-99584104D01*
X177826861Y-99752626D01*
X177725522Y-99904291D01*
X177596541Y-100033272D01*
X177444876Y-100134611D01*
X177276354Y-100204415D01*
X177097453Y-100240000D01*
X176915047Y-100240000D01*
X176736146Y-100204415D01*
X176567624Y-100134611D01*
X176415959Y-100033272D01*
X176286978Y-99904291D01*
X176185639Y-99752626D01*
X176115835Y-99584104D01*
X176080250Y-99405203D01*
X176080250Y-99222797D01*
X176115835Y-99043896D01*
X176185639Y-98875374D01*
X176286978Y-98723709D01*
X176415959Y-98594728D01*
X176567624Y-98493389D01*
X176736146Y-98423585D01*
X176915047Y-98388000D01*
X177097453Y-98388000D01*
X177276354Y-98423585D01*
X177276354Y-98423585D01*
G37*
G36*
X178578835Y-95252802D02*
G01*
X178728660Y-95282604D01*
X179010924Y-95399521D01*
X179264955Y-95569259D01*
X179480991Y-95785295D01*
X179650729Y-96039326D01*
X179767646Y-96321590D01*
X179767646Y-96321591D01*
X179824872Y-96609282D01*
X179827250Y-96621240D01*
X179827250Y-96926760D01*
X179767646Y-97226410D01*
X179650729Y-97508674D01*
X179480991Y-97762705D01*
X179264955Y-97978741D01*
X179010924Y-98148479D01*
X178728660Y-98265396D01*
X178578835Y-98295198D01*
X178429011Y-98325000D01*
X178123489Y-98325000D01*
X177973665Y-98295198D01*
X177823840Y-98265396D01*
X177541576Y-98148479D01*
X177287545Y-97978741D01*
X177071509Y-97762705D01*
X176901771Y-97508674D01*
X176784854Y-97226410D01*
X176725250Y-96926760D01*
X176725250Y-96621240D01*
X176727629Y-96609282D01*
X176784854Y-96321591D01*
X176784854Y-96321590D01*
X176901771Y-96039326D01*
X177071509Y-95785295D01*
X177287545Y-95569259D01*
X177541576Y-95399521D01*
X177823840Y-95282604D01*
X177973665Y-95252802D01*
X178123489Y-95223000D01*
X178429011Y-95223000D01*
X178578835Y-95252802D01*
X178578835Y-95252802D01*
G37*
G36*
X197628835Y-95252802D02*
G01*
X197778660Y-95282604D01*
X198060924Y-95399521D01*
X198314955Y-95569259D01*
X198530991Y-95785295D01*
X198700729Y-96039326D01*
X198817646Y-96321590D01*
X198817646Y-96321591D01*
X198874872Y-96609282D01*
X198877250Y-96621240D01*
X198877250Y-96926760D01*
X198817646Y-97226410D01*
X198700729Y-97508674D01*
X198530991Y-97762705D01*
X198314955Y-97978741D01*
X198060924Y-98148479D01*
X197778660Y-98265396D01*
X197628835Y-98295198D01*
X197479011Y-98325000D01*
X197173489Y-98325000D01*
X197023665Y-98295198D01*
X196873840Y-98265396D01*
X196591576Y-98148479D01*
X196337545Y-97978741D01*
X196121509Y-97762705D01*
X195951771Y-97508674D01*
X195834854Y-97226410D01*
X195775250Y-96926760D01*
X195775250Y-96621240D01*
X195777629Y-96609282D01*
X195834854Y-96321591D01*
X195834854Y-96321590D01*
X195951771Y-96039326D01*
X196121509Y-95785295D01*
X196337545Y-95569259D01*
X196591576Y-95399521D01*
X196873840Y-95282604D01*
X197023665Y-95252802D01*
X197173489Y-95223000D01*
X197479011Y-95223000D01*
X197628835Y-95252802D01*
X197628835Y-95252802D01*
G37*
G36*
X216678835Y-95252802D02*
G01*
X216828660Y-95282604D01*
X217110924Y-95399521D01*
X217364955Y-95569259D01*
X217580991Y-95785295D01*
X217750729Y-96039326D01*
X217867646Y-96321590D01*
X217867646Y-96321591D01*
X217924872Y-96609282D01*
X217927250Y-96621240D01*
X217927250Y-96926760D01*
X217867646Y-97226410D01*
X217750729Y-97508674D01*
X217580991Y-97762705D01*
X217364955Y-97978741D01*
X217110924Y-98148479D01*
X216828660Y-98265396D01*
X216678835Y-98295198D01*
X216529011Y-98325000D01*
X216223489Y-98325000D01*
X216073665Y-98295198D01*
X215923840Y-98265396D01*
X215641576Y-98148479D01*
X215387545Y-97978741D01*
X215171509Y-97762705D01*
X215001771Y-97508674D01*
X214884854Y-97226410D01*
X214825250Y-96926760D01*
X214825250Y-96621240D01*
X214827629Y-96609282D01*
X214884854Y-96321591D01*
X214884854Y-96321590D01*
X215001771Y-96039326D01*
X215171509Y-95785295D01*
X215387545Y-95569259D01*
X215641576Y-95399521D01*
X215923840Y-95282604D01*
X216073665Y-95252802D01*
X216223489Y-95223000D01*
X216529011Y-95223000D01*
X216678835Y-95252802D01*
X216678835Y-95252802D01*
G37*
G36*
X195377250Y-98075000D02*
G01*
X192725250Y-98075000D01*
X192725250Y-95473000D01*
X195377250Y-95473000D01*
X195377250Y-98075000D01*
X195377250Y-98075000D01*
G37*
G36*
X176327250Y-98075000D02*
G01*
X173675250Y-98075000D01*
X173675250Y-95473000D01*
X176327250Y-95473000D01*
X176327250Y-98075000D01*
X176327250Y-98075000D01*
G37*
G36*
X214427250Y-98075000D02*
G01*
X211775250Y-98075000D01*
X211775250Y-95473000D01*
X214427250Y-95473000D01*
X214427250Y-98075000D01*
X214427250Y-98075000D01*
G37*
G36*
X190357250Y-98069750D02*
G01*
X189055250Y-98069750D01*
X189055250Y-97067750D01*
X190357250Y-97067750D01*
X190357250Y-98069750D01*
X190357250Y-98069750D01*
G37*
G36*
X209407250Y-98069750D02*
G01*
X208105250Y-98069750D01*
X208105250Y-97067750D01*
X209407250Y-97067750D01*
X209407250Y-98069750D01*
X209407250Y-98069750D01*
G37*
G36*
X228457250Y-98069750D02*
G01*
X227155250Y-98069750D01*
X227155250Y-97067750D01*
X228457250Y-97067750D01*
X228457250Y-98069750D01*
X228457250Y-98069750D01*
G37*
G36*
X169589718Y-96510815D02*
G01*
X169628388Y-96522546D01*
X169664027Y-96541596D01*
X169695267Y-96567233D01*
X169720904Y-96598473D01*
X169739954Y-96634112D01*
X169751685Y-96672782D01*
X169756250Y-96719138D01*
X169756250Y-97370362D01*
X169751685Y-97416718D01*
X169739954Y-97455388D01*
X169720904Y-97491027D01*
X169695267Y-97522267D01*
X169664027Y-97547904D01*
X169628388Y-97566954D01*
X169589718Y-97578685D01*
X169543362Y-97583250D01*
X168467138Y-97583250D01*
X168420782Y-97578685D01*
X168382112Y-97566954D01*
X168346473Y-97547904D01*
X168315233Y-97522267D01*
X168289596Y-97491027D01*
X168270546Y-97455388D01*
X168258815Y-97416718D01*
X168254250Y-97370362D01*
X168254250Y-96719138D01*
X168258815Y-96672782D01*
X168270546Y-96634112D01*
X168289596Y-96598473D01*
X168315233Y-96567233D01*
X168346473Y-96541596D01*
X168382112Y-96522546D01*
X168420782Y-96510815D01*
X168467138Y-96506250D01*
X169543362Y-96506250D01*
X169589718Y-96510815D01*
X169589718Y-96510815D01*
G37*
G36*
X146634468Y-96447315D02*
G01*
X146673138Y-96459046D01*
X146708777Y-96478096D01*
X146740017Y-96503733D01*
X146765654Y-96534973D01*
X146784704Y-96570612D01*
X146796435Y-96609282D01*
X146801000Y-96655638D01*
X146801000Y-97306862D01*
X146796435Y-97353218D01*
X146784704Y-97391888D01*
X146765654Y-97427527D01*
X146740017Y-97458767D01*
X146708777Y-97484404D01*
X146673138Y-97503454D01*
X146634468Y-97515185D01*
X146588112Y-97519750D01*
X145511888Y-97519750D01*
X145465532Y-97515185D01*
X145426862Y-97503454D01*
X145391223Y-97484404D01*
X145359983Y-97458767D01*
X145334346Y-97427527D01*
X145315296Y-97391888D01*
X145303565Y-97353218D01*
X145299000Y-97306862D01*
X145299000Y-96655638D01*
X145303565Y-96609282D01*
X145315296Y-96570612D01*
X145334346Y-96534973D01*
X145359983Y-96503733D01*
X145391223Y-96478096D01*
X145426862Y-96459046D01*
X145465532Y-96447315D01*
X145511888Y-96442750D01*
X146588112Y-96442750D01*
X146634468Y-96447315D01*
X146634468Y-96447315D01*
G37*
G36*
X163806250Y-95970750D02*
G01*
X155154250Y-95970750D01*
X155154250Y-94368750D01*
X163806250Y-94368750D01*
X163806250Y-95970750D01*
X163806250Y-95970750D01*
G37*
G36*
X222930405Y-92693223D02*
G01*
X223178660Y-92742604D01*
X223460924Y-92859521D01*
X223714955Y-93029259D01*
X223930991Y-93245295D01*
X224100729Y-93499326D01*
X224217646Y-93781590D01*
X224277250Y-94081240D01*
X224277250Y-94386760D01*
X224217646Y-94686410D01*
X224100729Y-94968674D01*
X223930991Y-95222705D01*
X223714955Y-95438741D01*
X223460924Y-95608479D01*
X223178660Y-95725396D01*
X223028835Y-95755198D01*
X222879011Y-95785000D01*
X222573489Y-95785000D01*
X222423665Y-95755198D01*
X222273840Y-95725396D01*
X221991576Y-95608479D01*
X221737545Y-95438741D01*
X221521509Y-95222705D01*
X221351771Y-94968674D01*
X221234854Y-94686410D01*
X221175250Y-94386760D01*
X221175250Y-94081240D01*
X221234854Y-93781590D01*
X221351771Y-93499326D01*
X221521509Y-93245295D01*
X221737545Y-93029259D01*
X221991576Y-92859521D01*
X222273840Y-92742604D01*
X222522095Y-92693223D01*
X222573489Y-92683000D01*
X222879011Y-92683000D01*
X222930405Y-92693223D01*
X222930405Y-92693223D01*
G37*
G36*
X184830405Y-92693223D02*
G01*
X185078660Y-92742604D01*
X185360924Y-92859521D01*
X185614955Y-93029259D01*
X185830991Y-93245295D01*
X186000729Y-93499326D01*
X186117646Y-93781590D01*
X186177250Y-94081240D01*
X186177250Y-94386760D01*
X186117646Y-94686410D01*
X186000729Y-94968674D01*
X185830991Y-95222705D01*
X185614955Y-95438741D01*
X185360924Y-95608479D01*
X185078660Y-95725396D01*
X184928835Y-95755198D01*
X184779011Y-95785000D01*
X184473489Y-95785000D01*
X184323665Y-95755198D01*
X184173840Y-95725396D01*
X183891576Y-95608479D01*
X183637545Y-95438741D01*
X183421509Y-95222705D01*
X183251771Y-94968674D01*
X183134854Y-94686410D01*
X183075250Y-94386760D01*
X183075250Y-94081240D01*
X183134854Y-93781590D01*
X183251771Y-93499326D01*
X183421509Y-93245295D01*
X183637545Y-93029259D01*
X183891576Y-92859521D01*
X184173840Y-92742604D01*
X184422095Y-92693223D01*
X184473489Y-92683000D01*
X184779011Y-92683000D01*
X184830405Y-92693223D01*
X184830405Y-92693223D01*
G37*
G36*
X203880405Y-92693223D02*
G01*
X204128660Y-92742604D01*
X204410924Y-92859521D01*
X204664955Y-93029259D01*
X204880991Y-93245295D01*
X205050729Y-93499326D01*
X205167646Y-93781590D01*
X205227250Y-94081240D01*
X205227250Y-94386760D01*
X205167646Y-94686410D01*
X205050729Y-94968674D01*
X204880991Y-95222705D01*
X204664955Y-95438741D01*
X204410924Y-95608479D01*
X204128660Y-95725396D01*
X203978835Y-95755198D01*
X203829011Y-95785000D01*
X203523489Y-95785000D01*
X203373665Y-95755198D01*
X203223840Y-95725396D01*
X202941576Y-95608479D01*
X202687545Y-95438741D01*
X202471509Y-95222705D01*
X202301771Y-94968674D01*
X202184854Y-94686410D01*
X202125250Y-94386760D01*
X202125250Y-94081240D01*
X202184854Y-93781590D01*
X202301771Y-93499326D01*
X202471509Y-93245295D01*
X202687545Y-93029259D01*
X202941576Y-92859521D01*
X203223840Y-92742604D01*
X203472095Y-92693223D01*
X203523489Y-92683000D01*
X203829011Y-92683000D01*
X203880405Y-92693223D01*
X203880405Y-92693223D01*
G37*
G36*
X169589718Y-94635815D02*
G01*
X169628388Y-94647546D01*
X169664027Y-94666596D01*
X169695267Y-94692233D01*
X169720904Y-94723473D01*
X169739954Y-94759112D01*
X169751685Y-94797782D01*
X169756250Y-94844138D01*
X169756250Y-95495362D01*
X169751685Y-95541718D01*
X169739954Y-95580388D01*
X169720904Y-95616027D01*
X169695267Y-95647267D01*
X169664027Y-95672904D01*
X169628388Y-95691954D01*
X169589718Y-95703685D01*
X169543362Y-95708250D01*
X168467138Y-95708250D01*
X168420782Y-95703685D01*
X168382112Y-95691954D01*
X168346473Y-95672904D01*
X168315233Y-95647267D01*
X168289596Y-95616027D01*
X168270546Y-95580388D01*
X168258815Y-95541718D01*
X168254250Y-95495362D01*
X168254250Y-94844138D01*
X168258815Y-94797782D01*
X168270546Y-94759112D01*
X168289596Y-94723473D01*
X168315233Y-94692233D01*
X168346473Y-94666596D01*
X168382112Y-94647546D01*
X168420782Y-94635815D01*
X168467138Y-94631250D01*
X169543362Y-94631250D01*
X169589718Y-94635815D01*
X169589718Y-94635815D01*
G37*
G36*
X146634468Y-94572315D02*
G01*
X146673138Y-94584046D01*
X146708777Y-94603096D01*
X146740017Y-94628733D01*
X146765654Y-94659973D01*
X146784704Y-94695612D01*
X146796435Y-94734282D01*
X146801000Y-94780638D01*
X146801000Y-95431862D01*
X146796435Y-95478218D01*
X146784704Y-95516888D01*
X146765654Y-95552527D01*
X146740017Y-95583767D01*
X146708777Y-95609404D01*
X146673138Y-95628454D01*
X146634468Y-95640185D01*
X146588112Y-95644750D01*
X145511888Y-95644750D01*
X145465532Y-95640185D01*
X145426862Y-95628454D01*
X145391223Y-95609404D01*
X145359983Y-95583767D01*
X145334346Y-95552527D01*
X145315296Y-95516888D01*
X145303565Y-95478218D01*
X145299000Y-95431862D01*
X145299000Y-94780638D01*
X145303565Y-94734282D01*
X145315296Y-94695612D01*
X145334346Y-94659973D01*
X145359983Y-94628733D01*
X145391223Y-94603096D01*
X145426862Y-94584046D01*
X145465532Y-94572315D01*
X145511888Y-94567750D01*
X146588112Y-94567750D01*
X146634468Y-94572315D01*
X146634468Y-94572315D01*
G37*
G36*
X189254250Y-95535000D02*
G01*
X186602250Y-95535000D01*
X186602250Y-92933000D01*
X189254250Y-92933000D01*
X189254250Y-95535000D01*
X189254250Y-95535000D01*
G37*
G36*
X227354250Y-95535000D02*
G01*
X224702250Y-95535000D01*
X224702250Y-92933000D01*
X227354250Y-92933000D01*
X227354250Y-95535000D01*
X227354250Y-95535000D01*
G37*
G36*
X208304250Y-95535000D02*
G01*
X205652250Y-95535000D01*
X205652250Y-92933000D01*
X208304250Y-92933000D01*
X208304250Y-95535000D01*
X208304250Y-95535000D01*
G37*
G36*
X151968468Y-92605565D02*
G01*
X152007138Y-92617296D01*
X152042777Y-92636346D01*
X152074017Y-92661983D01*
X152099654Y-92693223D01*
X152118704Y-92728862D01*
X152130435Y-92767532D01*
X152135000Y-92813888D01*
X152135000Y-93465112D01*
X152130435Y-93511468D01*
X152118704Y-93550138D01*
X152099654Y-93585777D01*
X152074017Y-93617017D01*
X152042777Y-93642654D01*
X152007138Y-93661704D01*
X151968468Y-93673435D01*
X151922112Y-93678000D01*
X150845888Y-93678000D01*
X150799532Y-93673435D01*
X150760862Y-93661704D01*
X150725223Y-93642654D01*
X150693983Y-93617017D01*
X150668346Y-93585777D01*
X150649296Y-93550138D01*
X150637565Y-93511468D01*
X150633000Y-93465112D01*
X150633000Y-92813888D01*
X150637565Y-92767532D01*
X150649296Y-92728862D01*
X150668346Y-92693223D01*
X150693983Y-92661983D01*
X150725223Y-92636346D01*
X150760862Y-92617296D01*
X150799532Y-92605565D01*
X150845888Y-92601000D01*
X151922112Y-92601000D01*
X151968468Y-92605565D01*
X151968468Y-92605565D01*
G37*
G36*
X151968468Y-90730565D02*
G01*
X152007138Y-90742296D01*
X152042777Y-90761346D01*
X152074017Y-90786983D01*
X152099654Y-90818223D01*
X152118704Y-90853862D01*
X152130435Y-90892532D01*
X152135000Y-90938888D01*
X152135000Y-91590112D01*
X152130435Y-91636468D01*
X152118704Y-91675138D01*
X152099654Y-91710777D01*
X152074017Y-91742017D01*
X152042777Y-91767654D01*
X152007138Y-91786704D01*
X151968468Y-91798435D01*
X151922112Y-91803000D01*
X150845888Y-91803000D01*
X150799532Y-91798435D01*
X150760862Y-91786704D01*
X150725223Y-91767654D01*
X150693983Y-91742017D01*
X150668346Y-91710777D01*
X150649296Y-91675138D01*
X150637565Y-91636468D01*
X150633000Y-91590112D01*
X150633000Y-90938888D01*
X150637565Y-90892532D01*
X150649296Y-90853862D01*
X150668346Y-90818223D01*
X150693983Y-90786983D01*
X150725223Y-90761346D01*
X150760862Y-90742296D01*
X150799532Y-90730565D01*
X150845888Y-90726000D01*
X151922112Y-90726000D01*
X151968468Y-90730565D01*
X151968468Y-90730565D01*
G37*
G36*
X177082250Y-90289000D02*
G01*
X175480250Y-90289000D01*
X175480250Y-89187000D01*
X177082250Y-89187000D01*
X177082250Y-90289000D01*
X177082250Y-90289000D01*
G37*
G36*
X172182250Y-90289000D02*
G01*
X170580250Y-90289000D01*
X170580250Y-89187000D01*
X172182250Y-89187000D01*
X172182250Y-90289000D01*
X172182250Y-90289000D01*
G37*
G36*
X208038500Y-90257250D02*
G01*
X206436500Y-90257250D01*
X206436500Y-89155250D01*
X208038500Y-89155250D01*
X208038500Y-90257250D01*
X208038500Y-90257250D01*
G37*
G36*
X203138500Y-90257250D02*
G01*
X201536500Y-90257250D01*
X201536500Y-89155250D01*
X203138500Y-89155250D01*
X203138500Y-90257250D01*
X203138500Y-90257250D01*
G37*
G36*
X220484564Y-86746389D02*
G01*
X220645561Y-86813076D01*
X220675835Y-86825616D01*
X220821580Y-86923000D01*
X220847973Y-86940635D01*
X220994365Y-87087027D01*
X221109385Y-87259167D01*
X221188611Y-87450436D01*
X221229000Y-87653484D01*
X221229000Y-87860516D01*
X221188611Y-88063564D01*
X221109385Y-88254833D01*
X221109384Y-88254835D01*
X220994365Y-88426973D01*
X220847973Y-88573365D01*
X220675835Y-88688384D01*
X220675834Y-88688385D01*
X220675833Y-88688385D01*
X220484564Y-88767611D01*
X220281516Y-88808000D01*
X220074484Y-88808000D01*
X219871436Y-88767611D01*
X219680167Y-88688385D01*
X219680166Y-88688385D01*
X219680165Y-88688384D01*
X219508027Y-88573365D01*
X219361635Y-88426973D01*
X219246616Y-88254835D01*
X219246615Y-88254833D01*
X219167389Y-88063564D01*
X219127000Y-87860516D01*
X219127000Y-87653484D01*
X219167389Y-87450436D01*
X219246615Y-87259167D01*
X219361635Y-87087027D01*
X219508027Y-86940635D01*
X219534420Y-86923000D01*
X219680165Y-86825616D01*
X219710439Y-86813076D01*
X219871436Y-86746389D01*
X220074484Y-86706000D01*
X220281516Y-86706000D01*
X220484564Y-86746389D01*
X220484564Y-86746389D01*
G37*
G36*
X222984564Y-86746389D02*
G01*
X223145561Y-86813076D01*
X223175835Y-86825616D01*
X223321580Y-86923000D01*
X223347973Y-86940635D01*
X223494365Y-87087027D01*
X223609385Y-87259167D01*
X223688611Y-87450436D01*
X223729000Y-87653484D01*
X223729000Y-87860516D01*
X223688611Y-88063564D01*
X223609385Y-88254833D01*
X223609384Y-88254835D01*
X223494365Y-88426973D01*
X223347973Y-88573365D01*
X223175835Y-88688384D01*
X223175834Y-88688385D01*
X223175833Y-88688385D01*
X222984564Y-88767611D01*
X222781516Y-88808000D01*
X222574484Y-88808000D01*
X222371436Y-88767611D01*
X222180167Y-88688385D01*
X222180166Y-88688385D01*
X222180165Y-88688384D01*
X222008027Y-88573365D01*
X221861635Y-88426973D01*
X221746616Y-88254835D01*
X221746615Y-88254833D01*
X221667389Y-88063564D01*
X221627000Y-87860516D01*
X221627000Y-87653484D01*
X221667389Y-87450436D01*
X221746615Y-87259167D01*
X221861635Y-87087027D01*
X222008027Y-86940635D01*
X222034420Y-86923000D01*
X222180165Y-86825616D01*
X222210439Y-86813076D01*
X222371436Y-86746389D01*
X222574484Y-86706000D01*
X222781516Y-86706000D01*
X222984564Y-86746389D01*
X222984564Y-86746389D01*
G37*
G36*
X218729000Y-88808000D02*
G01*
X216627000Y-88808000D01*
X216627000Y-86706000D01*
X218729000Y-86706000D01*
X218729000Y-88808000D01*
X218729000Y-88808000D01*
G37*
G36*
X156445218Y-87620815D02*
G01*
X156483888Y-87632546D01*
X156519527Y-87651596D01*
X156550767Y-87677233D01*
X156576404Y-87708473D01*
X156595454Y-87744112D01*
X156607185Y-87782782D01*
X156611750Y-87829138D01*
X156611750Y-88480362D01*
X156607185Y-88526718D01*
X156595454Y-88565388D01*
X156576404Y-88601027D01*
X156550767Y-88632267D01*
X156519527Y-88657904D01*
X156483888Y-88676954D01*
X156445218Y-88688685D01*
X156398862Y-88693250D01*
X155322638Y-88693250D01*
X155276282Y-88688685D01*
X155237612Y-88676954D01*
X155201973Y-88657904D01*
X155170733Y-88632267D01*
X155145096Y-88601027D01*
X155126046Y-88565388D01*
X155114315Y-88526718D01*
X155109750Y-88480362D01*
X155109750Y-87829138D01*
X155114315Y-87782782D01*
X155126046Y-87744112D01*
X155145096Y-87708473D01*
X155170733Y-87677233D01*
X155201973Y-87651596D01*
X155237612Y-87632546D01*
X155276282Y-87620815D01*
X155322638Y-87616250D01*
X156398862Y-87616250D01*
X156445218Y-87620815D01*
X156445218Y-87620815D01*
G37*
G36*
X165112968Y-87620815D02*
G01*
X165151638Y-87632546D01*
X165187277Y-87651596D01*
X165218517Y-87677233D01*
X165244154Y-87708473D01*
X165263204Y-87744112D01*
X165274935Y-87782782D01*
X165279500Y-87829138D01*
X165279500Y-88480362D01*
X165274935Y-88526718D01*
X165263204Y-88565388D01*
X165244154Y-88601027D01*
X165218517Y-88632267D01*
X165187277Y-88657904D01*
X165151638Y-88676954D01*
X165112968Y-88688685D01*
X165066612Y-88693250D01*
X163990388Y-88693250D01*
X163944032Y-88688685D01*
X163905362Y-88676954D01*
X163869723Y-88657904D01*
X163838483Y-88632267D01*
X163812846Y-88601027D01*
X163793796Y-88565388D01*
X163782065Y-88526718D01*
X163777500Y-88480362D01*
X163777500Y-87829138D01*
X163782065Y-87782782D01*
X163793796Y-87744112D01*
X163812846Y-87708473D01*
X163838483Y-87677233D01*
X163869723Y-87651596D01*
X163905362Y-87632546D01*
X163944032Y-87620815D01*
X163990388Y-87616250D01*
X165066612Y-87616250D01*
X165112968Y-87620815D01*
X165112968Y-87620815D01*
G37*
G36*
X161934500Y-88623000D02*
G01*
X160432500Y-88623000D01*
X160432500Y-87321000D01*
X161934500Y-87321000D01*
X161934500Y-88623000D01*
X161934500Y-88623000D01*
G37*
G36*
X159734500Y-88623000D02*
G01*
X158232500Y-88623000D01*
X158232500Y-87321000D01*
X159734500Y-87321000D01*
X159734500Y-88623000D01*
X159734500Y-88623000D01*
G37*
G36*
X172182250Y-87089000D02*
G01*
X170580250Y-87089000D01*
X170580250Y-85987000D01*
X172182250Y-85987000D01*
X172182250Y-87089000D01*
X172182250Y-87089000D01*
G37*
G36*
X177082250Y-87089000D02*
G01*
X175480250Y-87089000D01*
X175480250Y-85987000D01*
X177082250Y-85987000D01*
X177082250Y-87089000D01*
X177082250Y-87089000D01*
G37*
G36*
X203138500Y-87057250D02*
G01*
X201536500Y-87057250D01*
X201536500Y-85955250D01*
X203138500Y-85955250D01*
X203138500Y-87057250D01*
X203138500Y-87057250D01*
G37*
G36*
X208038500Y-87057250D02*
G01*
X206436500Y-87057250D01*
X206436500Y-85955250D01*
X208038500Y-85955250D01*
X208038500Y-87057250D01*
X208038500Y-87057250D01*
G37*
G36*
X161934500Y-86923000D02*
G01*
X160432500Y-86923000D01*
X160432500Y-85621000D01*
X161934500Y-85621000D01*
X161934500Y-86923000D01*
X161934500Y-86923000D01*
G37*
G36*
X159734500Y-86923000D02*
G01*
X158232500Y-86923000D01*
X158232500Y-85621000D01*
X159734500Y-85621000D01*
X159734500Y-86923000D01*
X159734500Y-86923000D01*
G37*
G36*
X165112968Y-85745815D02*
G01*
X165151638Y-85757546D01*
X165187277Y-85776596D01*
X165218517Y-85802233D01*
X165244154Y-85833473D01*
X165263204Y-85869112D01*
X165274935Y-85907782D01*
X165279500Y-85954138D01*
X165279500Y-86605362D01*
X165274935Y-86651718D01*
X165263204Y-86690388D01*
X165244154Y-86726027D01*
X165218517Y-86757267D01*
X165187277Y-86782904D01*
X165151638Y-86801954D01*
X165112968Y-86813685D01*
X165066612Y-86818250D01*
X163990388Y-86818250D01*
X163944032Y-86813685D01*
X163905362Y-86801954D01*
X163869723Y-86782904D01*
X163838483Y-86757267D01*
X163812846Y-86726027D01*
X163793796Y-86690388D01*
X163782065Y-86651718D01*
X163777500Y-86605362D01*
X163777500Y-85954138D01*
X163782065Y-85907782D01*
X163793796Y-85869112D01*
X163812846Y-85833473D01*
X163838483Y-85802233D01*
X163869723Y-85776596D01*
X163905362Y-85757546D01*
X163944032Y-85745815D01*
X163990388Y-85741250D01*
X165066612Y-85741250D01*
X165112968Y-85745815D01*
X165112968Y-85745815D01*
G37*
G36*
X156445218Y-85745815D02*
G01*
X156483888Y-85757546D01*
X156519527Y-85776596D01*
X156550767Y-85802233D01*
X156576404Y-85833473D01*
X156595454Y-85869112D01*
X156607185Y-85907782D01*
X156611750Y-85954138D01*
X156611750Y-86605362D01*
X156607185Y-86651718D01*
X156595454Y-86690388D01*
X156576404Y-86726027D01*
X156550767Y-86757267D01*
X156519527Y-86782904D01*
X156483888Y-86801954D01*
X156445218Y-86813685D01*
X156398862Y-86818250D01*
X155322638Y-86818250D01*
X155276282Y-86813685D01*
X155237612Y-86801954D01*
X155201973Y-86782904D01*
X155170733Y-86757267D01*
X155145096Y-86726027D01*
X155126046Y-86690388D01*
X155114315Y-86651718D01*
X155109750Y-86605362D01*
X155109750Y-85954138D01*
X155114315Y-85907782D01*
X155126046Y-85869112D01*
X155145096Y-85833473D01*
X155170733Y-85802233D01*
X155201973Y-85776596D01*
X155237612Y-85757546D01*
X155276282Y-85745815D01*
X155322638Y-85741250D01*
X156398862Y-85741250D01*
X156445218Y-85745815D01*
X156445218Y-85745815D01*
G37*
G36*
X209407250Y-82319750D02*
G01*
X208105250Y-82319750D01*
X208105250Y-81317750D01*
X209407250Y-81317750D01*
X209407250Y-82319750D01*
X209407250Y-82319750D01*
G37*
G36*
X190357250Y-82319750D02*
G01*
X189055250Y-82319750D01*
X189055250Y-81317750D01*
X190357250Y-81317750D01*
X190357250Y-82319750D01*
X190357250Y-82319750D01*
G37*
G36*
X182682724Y-78297684D02*
G01*
X182861868Y-78371888D01*
X183054873Y-78451833D01*
X183389798Y-78675623D01*
X183674627Y-78960452D01*
X183898417Y-79295377D01*
X183948966Y-79417413D01*
X184052566Y-79667526D01*
X184131150Y-80062594D01*
X184131150Y-80465406D01*
X184052566Y-80860474D01*
X183962267Y-81078474D01*
X183898417Y-81232623D01*
X183674627Y-81567548D01*
X183389798Y-81852377D01*
X183054873Y-82076167D01*
X182900724Y-82140017D01*
X182682724Y-82230316D01*
X182287656Y-82308900D01*
X181884844Y-82308900D01*
X181489776Y-82230316D01*
X181271776Y-82140017D01*
X181117627Y-82076167D01*
X180782702Y-81852377D01*
X180497873Y-81567548D01*
X180274083Y-81232623D01*
X180210233Y-81078474D01*
X180119934Y-80860474D01*
X180041350Y-80465406D01*
X180041350Y-80062594D01*
X180119934Y-79667526D01*
X180223534Y-79417413D01*
X180274083Y-79295377D01*
X180497873Y-78960452D01*
X180782702Y-78675623D01*
X181117627Y-78451833D01*
X181310632Y-78371888D01*
X181489776Y-78297684D01*
X181884844Y-78219100D01*
X182287656Y-78219100D01*
X182682724Y-78297684D01*
X182682724Y-78297684D01*
G37*
G36*
X201732724Y-78297684D02*
G01*
X201911868Y-78371888D01*
X202104873Y-78451833D01*
X202439798Y-78675623D01*
X202724627Y-78960452D01*
X202948417Y-79295377D01*
X202998966Y-79417413D01*
X203102566Y-79667526D01*
X203181150Y-80062594D01*
X203181150Y-80465406D01*
X203102566Y-80860474D01*
X203012267Y-81078474D01*
X202948417Y-81232623D01*
X202724627Y-81567548D01*
X202439798Y-81852377D01*
X202104873Y-82076167D01*
X201950724Y-82140017D01*
X201732724Y-82230316D01*
X201337656Y-82308900D01*
X200934844Y-82308900D01*
X200539776Y-82230316D01*
X200321776Y-82140017D01*
X200167627Y-82076167D01*
X199832702Y-81852377D01*
X199547873Y-81567548D01*
X199324083Y-81232623D01*
X199260233Y-81078474D01*
X199169934Y-80860474D01*
X199091350Y-80465406D01*
X199091350Y-80062594D01*
X199169934Y-79667526D01*
X199273534Y-79417413D01*
X199324083Y-79295377D01*
X199547873Y-78960452D01*
X199832702Y-78675623D01*
X200167627Y-78451833D01*
X200360632Y-78371888D01*
X200539776Y-78297684D01*
X200934844Y-78219100D01*
X201337656Y-78219100D01*
X201732724Y-78297684D01*
X201732724Y-78297684D01*
G37*
G36*
X226153256Y-78648298D02*
G01*
X226259579Y-78669447D01*
X226560042Y-78793903D01*
X226830451Y-78974585D01*
X227060415Y-79204549D01*
X227239235Y-79472172D01*
X227241098Y-79474960D01*
X227365553Y-79775422D01*
X227429000Y-80094389D01*
X227429000Y-80419611D01*
X227399071Y-80570071D01*
X227365553Y-80738579D01*
X227241097Y-81039042D01*
X227060415Y-81309451D01*
X226830451Y-81539415D01*
X226560042Y-81720097D01*
X226259579Y-81844553D01*
X226153256Y-81865702D01*
X225940611Y-81908000D01*
X225615389Y-81908000D01*
X225402744Y-81865702D01*
X225296421Y-81844553D01*
X224995958Y-81720097D01*
X224725549Y-81539415D01*
X224495585Y-81309451D01*
X224314903Y-81039042D01*
X224190447Y-80738579D01*
X224156929Y-80570071D01*
X224127000Y-80419611D01*
X224127000Y-80094389D01*
X224190447Y-79775422D01*
X224314902Y-79474960D01*
X224316765Y-79472172D01*
X224495585Y-79204549D01*
X224725549Y-78974585D01*
X224995958Y-78793903D01*
X225296421Y-78669447D01*
X225402744Y-78648298D01*
X225615389Y-78606000D01*
X225940611Y-78606000D01*
X226153256Y-78648298D01*
X226153256Y-78648298D01*
G37*
G36*
X214953256Y-78648298D02*
G01*
X215059579Y-78669447D01*
X215360042Y-78793903D01*
X215630451Y-78974585D01*
X215860415Y-79204549D01*
X216039235Y-79472172D01*
X216041098Y-79474960D01*
X216165553Y-79775422D01*
X216229000Y-80094389D01*
X216229000Y-80419611D01*
X216199071Y-80570071D01*
X216165553Y-80738579D01*
X216041097Y-81039042D01*
X215860415Y-81309451D01*
X215630451Y-81539415D01*
X215360042Y-81720097D01*
X215059579Y-81844553D01*
X214953256Y-81865702D01*
X214740611Y-81908000D01*
X214415389Y-81908000D01*
X214202744Y-81865702D01*
X214096421Y-81844553D01*
X213795958Y-81720097D01*
X213525549Y-81539415D01*
X213295585Y-81309451D01*
X213114903Y-81039042D01*
X212990447Y-80738579D01*
X212956929Y-80570071D01*
X212927000Y-80419611D01*
X212927000Y-80094389D01*
X212990447Y-79775422D01*
X213114902Y-79474960D01*
X213116765Y-79472172D01*
X213295585Y-79204549D01*
X213525549Y-78974585D01*
X213795958Y-78793903D01*
X214096421Y-78669447D01*
X214202744Y-78648298D01*
X214415389Y-78606000D01*
X214740611Y-78606000D01*
X214953256Y-78648298D01*
X214953256Y-78648298D01*
G37*
G36*
X177276354Y-79373585D02*
G01*
X177444876Y-79443389D01*
X177596541Y-79544728D01*
X177725522Y-79673709D01*
X177826861Y-79825374D01*
X177896665Y-79993896D01*
X177932250Y-80172797D01*
X177932250Y-80355203D01*
X177896665Y-80534104D01*
X177826861Y-80702626D01*
X177725522Y-80854291D01*
X177596541Y-80983272D01*
X177444876Y-81084611D01*
X177276354Y-81154415D01*
X177097453Y-81190000D01*
X176915047Y-81190000D01*
X176736146Y-81154415D01*
X176567624Y-81084611D01*
X176415959Y-80983272D01*
X176286978Y-80854291D01*
X176185639Y-80702626D01*
X176115835Y-80534104D01*
X176080250Y-80355203D01*
X176080250Y-80172797D01*
X176115835Y-79993896D01*
X176185639Y-79825374D01*
X176286978Y-79673709D01*
X176415959Y-79544728D01*
X176567624Y-79443389D01*
X176736146Y-79373585D01*
X176915047Y-79338000D01*
X177097453Y-79338000D01*
X177276354Y-79373585D01*
X177276354Y-79373585D01*
G37*
G36*
X196326354Y-79373585D02*
G01*
X196494876Y-79443389D01*
X196646541Y-79544728D01*
X196775522Y-79673709D01*
X196876861Y-79825374D01*
X196946665Y-79993896D01*
X196982250Y-80172797D01*
X196982250Y-80355203D01*
X196946665Y-80534104D01*
X196876861Y-80702626D01*
X196775522Y-80854291D01*
X196646541Y-80983272D01*
X196494876Y-81084611D01*
X196326354Y-81154415D01*
X196147453Y-81190000D01*
X195965047Y-81190000D01*
X195786146Y-81154415D01*
X195617624Y-81084611D01*
X195465959Y-80983272D01*
X195336978Y-80854291D01*
X195235639Y-80702626D01*
X195165835Y-80534104D01*
X195130250Y-80355203D01*
X195130250Y-80172797D01*
X195165835Y-79993896D01*
X195235639Y-79825374D01*
X195336978Y-79673709D01*
X195465959Y-79544728D01*
X195617624Y-79443389D01*
X195786146Y-79373585D01*
X195965047Y-79338000D01*
X196147453Y-79338000D01*
X196326354Y-79373585D01*
X196326354Y-79373585D01*
G37*
G36*
X187436354Y-79373585D02*
G01*
X187604876Y-79443389D01*
X187756541Y-79544728D01*
X187885522Y-79673709D01*
X187986861Y-79825374D01*
X188056665Y-79993896D01*
X188092250Y-80172797D01*
X188092250Y-80355203D01*
X188056665Y-80534104D01*
X187986861Y-80702626D01*
X187885522Y-80854291D01*
X187756541Y-80983272D01*
X187604876Y-81084611D01*
X187436354Y-81154415D01*
X187257453Y-81190000D01*
X187075047Y-81190000D01*
X186896146Y-81154415D01*
X186727624Y-81084611D01*
X186575959Y-80983272D01*
X186446978Y-80854291D01*
X186345639Y-80702626D01*
X186275835Y-80534104D01*
X186240250Y-80355203D01*
X186240250Y-80172797D01*
X186275835Y-79993896D01*
X186345639Y-79825374D01*
X186446978Y-79673709D01*
X186575959Y-79544728D01*
X186727624Y-79443389D01*
X186896146Y-79373585D01*
X187075047Y-79338000D01*
X187257453Y-79338000D01*
X187436354Y-79373585D01*
X187436354Y-79373585D01*
G37*
G36*
X206486354Y-79373585D02*
G01*
X206654876Y-79443389D01*
X206806541Y-79544728D01*
X206935522Y-79673709D01*
X207036861Y-79825374D01*
X207106665Y-79993896D01*
X207142250Y-80172797D01*
X207142250Y-80355203D01*
X207106665Y-80534104D01*
X207036861Y-80702626D01*
X206935522Y-80854291D01*
X206806541Y-80983272D01*
X206654876Y-81084611D01*
X206486354Y-81154415D01*
X206307453Y-81190000D01*
X206125047Y-81190000D01*
X205946146Y-81154415D01*
X205777624Y-81084611D01*
X205625959Y-80983272D01*
X205496978Y-80854291D01*
X205395639Y-80702626D01*
X205325835Y-80534104D01*
X205290250Y-80355203D01*
X205290250Y-80172797D01*
X205325835Y-79993896D01*
X205395639Y-79825374D01*
X205496978Y-79673709D01*
X205625959Y-79544728D01*
X205777624Y-79443389D01*
X205946146Y-79373585D01*
X206125047Y-79338000D01*
X206307453Y-79338000D01*
X206486354Y-79373585D01*
X206486354Y-79373585D01*
G37*
G36*
X149993604Y-79309597D02*
G01*
X150030144Y-79320682D01*
X150063821Y-79338683D01*
X150093341Y-79362909D01*
X150117567Y-79392429D01*
X150135568Y-79426106D01*
X150146653Y-79462646D01*
X150151000Y-79506788D01*
X150151000Y-80455712D01*
X150146653Y-80499854D01*
X150135568Y-80536394D01*
X150117567Y-80570071D01*
X150093341Y-80599591D01*
X150063821Y-80623817D01*
X150030144Y-80641818D01*
X149993604Y-80652903D01*
X149949462Y-80657250D01*
X148500538Y-80657250D01*
X148456396Y-80652903D01*
X148419856Y-80641818D01*
X148386179Y-80623817D01*
X148356659Y-80599591D01*
X148332433Y-80570071D01*
X148314432Y-80536394D01*
X148303347Y-80499854D01*
X148299000Y-80455712D01*
X148299000Y-79506788D01*
X148303347Y-79462646D01*
X148314432Y-79426106D01*
X148332433Y-79392429D01*
X148356659Y-79362909D01*
X148386179Y-79338683D01*
X148419856Y-79320682D01*
X148456396Y-79309597D01*
X148500538Y-79305250D01*
X149949462Y-79305250D01*
X149993604Y-79309597D01*
X149993604Y-79309597D01*
G37*
G36*
X161144218Y-79302315D02*
G01*
X161182888Y-79314046D01*
X161218527Y-79333096D01*
X161249767Y-79358733D01*
X161275404Y-79389973D01*
X161294454Y-79425612D01*
X161306185Y-79464282D01*
X161310750Y-79510638D01*
X161310750Y-80161862D01*
X161306185Y-80208218D01*
X161294454Y-80246888D01*
X161275404Y-80282527D01*
X161249767Y-80313767D01*
X161218527Y-80339404D01*
X161182888Y-80358454D01*
X161144218Y-80370185D01*
X161097862Y-80374750D01*
X160021638Y-80374750D01*
X159975282Y-80370185D01*
X159936612Y-80358454D01*
X159900973Y-80339404D01*
X159869733Y-80313767D01*
X159844096Y-80282527D01*
X159825046Y-80246888D01*
X159813315Y-80208218D01*
X159808750Y-80161862D01*
X159808750Y-79510638D01*
X159813315Y-79464282D01*
X159825046Y-79425612D01*
X159844096Y-79389973D01*
X159869733Y-79358733D01*
X159900973Y-79333096D01*
X159936612Y-79314046D01*
X159975282Y-79302315D01*
X160021638Y-79297750D01*
X161097862Y-79297750D01*
X161144218Y-79302315D01*
X161144218Y-79302315D01*
G37*
G36*
X157969218Y-79277315D02*
G01*
X158007888Y-79289046D01*
X158043527Y-79308096D01*
X158074767Y-79333733D01*
X158100404Y-79364973D01*
X158119454Y-79400612D01*
X158131185Y-79439282D01*
X158135750Y-79485638D01*
X158135750Y-80136862D01*
X158131185Y-80183218D01*
X158119454Y-80221888D01*
X158100404Y-80257527D01*
X158074767Y-80288767D01*
X158043527Y-80314404D01*
X158007888Y-80333454D01*
X157969218Y-80345185D01*
X157922862Y-80349750D01*
X156846638Y-80349750D01*
X156800282Y-80345185D01*
X156761612Y-80333454D01*
X156725973Y-80314404D01*
X156694733Y-80288767D01*
X156669096Y-80257527D01*
X156650046Y-80221888D01*
X156638315Y-80183218D01*
X156633750Y-80136862D01*
X156633750Y-79485638D01*
X156638315Y-79439282D01*
X156650046Y-79400612D01*
X156669096Y-79364973D01*
X156694733Y-79333733D01*
X156725973Y-79308096D01*
X156761612Y-79289046D01*
X156800282Y-79277315D01*
X156846638Y-79272750D01*
X157922862Y-79272750D01*
X157969218Y-79277315D01*
X157969218Y-79277315D01*
G37*
G36*
X197610978Y-76199250D02*
G01*
X197778660Y-76232604D01*
X198060924Y-76349521D01*
X198314955Y-76519259D01*
X198530991Y-76735295D01*
X198700729Y-76989326D01*
X198817646Y-77271590D01*
X198817646Y-77271591D01*
X198877250Y-77571239D01*
X198877250Y-77876761D01*
X198853528Y-77996017D01*
X198817646Y-78176410D01*
X198700729Y-78458674D01*
X198530991Y-78712705D01*
X198314955Y-78928741D01*
X198060924Y-79098479D01*
X197778660Y-79215396D01*
X197628835Y-79245198D01*
X197479011Y-79275000D01*
X197173489Y-79275000D01*
X197023665Y-79245198D01*
X196873840Y-79215396D01*
X196591576Y-79098479D01*
X196337545Y-78928741D01*
X196121509Y-78712705D01*
X195951771Y-78458674D01*
X195834854Y-78176410D01*
X195798972Y-77996017D01*
X195775250Y-77876761D01*
X195775250Y-77571239D01*
X195834854Y-77271591D01*
X195834854Y-77271590D01*
X195951771Y-76989326D01*
X196121509Y-76735295D01*
X196337545Y-76519259D01*
X196591576Y-76349521D01*
X196873840Y-76232604D01*
X197041522Y-76199250D01*
X197173489Y-76173000D01*
X197479011Y-76173000D01*
X197610978Y-76199250D01*
X197610978Y-76199250D01*
G37*
G36*
X178560978Y-76199250D02*
G01*
X178728660Y-76232604D01*
X179010924Y-76349521D01*
X179264955Y-76519259D01*
X179480991Y-76735295D01*
X179650729Y-76989326D01*
X179767646Y-77271590D01*
X179767646Y-77271591D01*
X179827250Y-77571239D01*
X179827250Y-77876761D01*
X179803528Y-77996017D01*
X179767646Y-78176410D01*
X179650729Y-78458674D01*
X179480991Y-78712705D01*
X179264955Y-78928741D01*
X179010924Y-79098479D01*
X178728660Y-79215396D01*
X178578835Y-79245198D01*
X178429011Y-79275000D01*
X178123489Y-79275000D01*
X177973665Y-79245198D01*
X177823840Y-79215396D01*
X177541576Y-79098479D01*
X177287545Y-78928741D01*
X177071509Y-78712705D01*
X176901771Y-78458674D01*
X176784854Y-78176410D01*
X176748972Y-77996017D01*
X176725250Y-77876761D01*
X176725250Y-77571239D01*
X176784854Y-77271591D01*
X176784854Y-77271590D01*
X176901771Y-76989326D01*
X177071509Y-76735295D01*
X177287545Y-76519259D01*
X177541576Y-76349521D01*
X177823840Y-76232604D01*
X177991522Y-76199250D01*
X178123489Y-76173000D01*
X178429011Y-76173000D01*
X178560978Y-76199250D01*
X178560978Y-76199250D01*
G37*
G36*
X195377250Y-79025000D02*
G01*
X192725250Y-79025000D01*
X192725250Y-76423000D01*
X195377250Y-76423000D01*
X195377250Y-79025000D01*
X195377250Y-79025000D01*
G37*
G36*
X176327250Y-79025000D02*
G01*
X173675250Y-79025000D01*
X173675250Y-76423000D01*
X176327250Y-76423000D01*
X176327250Y-79025000D01*
X176327250Y-79025000D01*
G37*
G36*
X190357250Y-79019750D02*
G01*
X189055250Y-79019750D01*
X189055250Y-78017750D01*
X190357250Y-78017750D01*
X190357250Y-79019750D01*
X190357250Y-79019750D01*
G37*
G36*
X209407250Y-79019750D02*
G01*
X208105250Y-79019750D01*
X208105250Y-78017750D01*
X209407250Y-78017750D01*
X209407250Y-79019750D01*
X209407250Y-79019750D01*
G37*
G36*
X161144218Y-77427315D02*
G01*
X161182888Y-77439046D01*
X161218527Y-77458096D01*
X161249767Y-77483733D01*
X161275404Y-77514973D01*
X161294454Y-77550612D01*
X161306185Y-77589282D01*
X161310750Y-77635638D01*
X161310750Y-78286862D01*
X161306185Y-78333218D01*
X161294454Y-78371888D01*
X161275404Y-78407527D01*
X161249767Y-78438767D01*
X161218527Y-78464404D01*
X161182888Y-78483454D01*
X161144218Y-78495185D01*
X161097862Y-78499750D01*
X160021638Y-78499750D01*
X159975282Y-78495185D01*
X159936612Y-78483454D01*
X159900973Y-78464404D01*
X159869733Y-78438767D01*
X159844096Y-78407527D01*
X159825046Y-78371888D01*
X159813315Y-78333218D01*
X159808750Y-78286862D01*
X159808750Y-77635638D01*
X159813315Y-77589282D01*
X159825046Y-77550612D01*
X159844096Y-77514973D01*
X159869733Y-77483733D01*
X159900973Y-77458096D01*
X159936612Y-77439046D01*
X159975282Y-77427315D01*
X160021638Y-77422750D01*
X161097862Y-77422750D01*
X161144218Y-77427315D01*
X161144218Y-77427315D01*
G37*
G36*
X157969218Y-77402315D02*
G01*
X158007888Y-77414046D01*
X158043527Y-77433096D01*
X158074767Y-77458733D01*
X158100404Y-77489973D01*
X158119454Y-77525612D01*
X158131185Y-77564282D01*
X158135750Y-77610638D01*
X158135750Y-78261862D01*
X158131185Y-78308218D01*
X158119454Y-78346888D01*
X158100404Y-78382527D01*
X158074767Y-78413767D01*
X158043527Y-78439404D01*
X158007888Y-78458454D01*
X157969218Y-78470185D01*
X157922862Y-78474750D01*
X156846638Y-78474750D01*
X156800282Y-78470185D01*
X156761612Y-78458454D01*
X156725973Y-78439404D01*
X156694733Y-78413767D01*
X156669096Y-78382527D01*
X156650046Y-78346888D01*
X156638315Y-78308218D01*
X156633750Y-78261862D01*
X156633750Y-77610638D01*
X156638315Y-77564282D01*
X156650046Y-77525612D01*
X156669096Y-77489973D01*
X156694733Y-77458733D01*
X156725973Y-77433096D01*
X156761612Y-77414046D01*
X156800282Y-77402315D01*
X156846638Y-77397750D01*
X157922862Y-77397750D01*
X157969218Y-77402315D01*
X157969218Y-77402315D01*
G37*
G36*
X155016468Y-76984565D02*
G01*
X155055138Y-76996296D01*
X155090777Y-77015346D01*
X155122017Y-77040983D01*
X155147654Y-77072223D01*
X155166704Y-77107862D01*
X155178435Y-77146532D01*
X155183000Y-77192888D01*
X155183000Y-77844112D01*
X155178435Y-77890468D01*
X155166704Y-77929138D01*
X155147654Y-77964777D01*
X155122017Y-77996017D01*
X155090777Y-78021654D01*
X155055138Y-78040704D01*
X155016468Y-78052435D01*
X154970112Y-78057000D01*
X153893888Y-78057000D01*
X153847532Y-78052435D01*
X153808862Y-78040704D01*
X153773223Y-78021654D01*
X153741983Y-77996017D01*
X153716346Y-77964777D01*
X153697296Y-77929138D01*
X153685565Y-77890468D01*
X153681000Y-77844112D01*
X153681000Y-77192888D01*
X153685565Y-77146532D01*
X153697296Y-77107862D01*
X153716346Y-77072223D01*
X153741983Y-77040983D01*
X153773223Y-77015346D01*
X153808862Y-76996296D01*
X153847532Y-76984565D01*
X153893888Y-76980000D01*
X154970112Y-76980000D01*
X155016468Y-76984565D01*
X155016468Y-76984565D01*
G37*
G36*
X164033468Y-76984565D02*
G01*
X164072138Y-76996296D01*
X164107777Y-77015346D01*
X164139017Y-77040983D01*
X164164654Y-77072223D01*
X164183704Y-77107862D01*
X164195435Y-77146532D01*
X164200000Y-77192888D01*
X164200000Y-77844112D01*
X164195435Y-77890468D01*
X164183704Y-77929138D01*
X164164654Y-77964777D01*
X164139017Y-77996017D01*
X164107777Y-78021654D01*
X164072138Y-78040704D01*
X164033468Y-78052435D01*
X163987112Y-78057000D01*
X162910888Y-78057000D01*
X162864532Y-78052435D01*
X162825862Y-78040704D01*
X162790223Y-78021654D01*
X162758983Y-77996017D01*
X162733346Y-77964777D01*
X162714296Y-77929138D01*
X162702565Y-77890468D01*
X162698000Y-77844112D01*
X162698000Y-77192888D01*
X162702565Y-77146532D01*
X162714296Y-77107862D01*
X162733346Y-77072223D01*
X162758983Y-77040983D01*
X162790223Y-77015346D01*
X162825862Y-76996296D01*
X162864532Y-76984565D01*
X162910888Y-76980000D01*
X163987112Y-76980000D01*
X164033468Y-76984565D01*
X164033468Y-76984565D01*
G37*
G36*
X149993604Y-76509597D02*
G01*
X150030144Y-76520682D01*
X150063821Y-76538683D01*
X150093341Y-76562909D01*
X150117567Y-76592429D01*
X150135568Y-76626106D01*
X150146653Y-76662646D01*
X150151000Y-76706788D01*
X150151000Y-77655712D01*
X150146653Y-77699854D01*
X150135568Y-77736394D01*
X150117567Y-77770071D01*
X150093341Y-77799591D01*
X150063821Y-77823817D01*
X150030144Y-77841818D01*
X149993604Y-77852903D01*
X149949462Y-77857250D01*
X148500538Y-77857250D01*
X148456396Y-77852903D01*
X148419856Y-77841818D01*
X148386179Y-77823817D01*
X148356659Y-77799591D01*
X148332433Y-77770071D01*
X148314432Y-77736394D01*
X148303347Y-77699854D01*
X148299000Y-77655712D01*
X148299000Y-76706788D01*
X148303347Y-76662646D01*
X148314432Y-76626106D01*
X148332433Y-76592429D01*
X148356659Y-76562909D01*
X148386179Y-76538683D01*
X148419856Y-76520682D01*
X148456396Y-76509597D01*
X148500538Y-76505250D01*
X149949462Y-76505250D01*
X149993604Y-76509597D01*
X149993604Y-76509597D01*
G37*
G36*
X226869750Y-77557250D02*
G01*
X225567750Y-77557250D01*
X225567750Y-76555250D01*
X226869750Y-76555250D01*
X226869750Y-77557250D01*
X226869750Y-77557250D01*
G37*
G36*
X203978835Y-73662802D02*
G01*
X204128660Y-73692604D01*
X204410924Y-73809521D01*
X204664955Y-73979259D01*
X204880991Y-74195295D01*
X205050729Y-74449326D01*
X205167646Y-74731590D01*
X205227250Y-75031240D01*
X205227250Y-75336760D01*
X205167646Y-75636410D01*
X205050729Y-75918674D01*
X204880991Y-76172705D01*
X204664955Y-76388741D01*
X204410924Y-76558479D01*
X204128660Y-76675396D01*
X203978835Y-76705198D01*
X203829011Y-76735000D01*
X203523489Y-76735000D01*
X203373665Y-76705198D01*
X203223840Y-76675396D01*
X202941576Y-76558479D01*
X202687545Y-76388741D01*
X202471509Y-76172705D01*
X202301771Y-75918674D01*
X202184854Y-75636410D01*
X202125250Y-75336760D01*
X202125250Y-75031240D01*
X202184854Y-74731590D01*
X202301771Y-74449326D01*
X202471509Y-74195295D01*
X202687545Y-73979259D01*
X202941576Y-73809521D01*
X203223840Y-73692604D01*
X203373665Y-73662802D01*
X203523489Y-73633000D01*
X203829011Y-73633000D01*
X203978835Y-73662802D01*
X203978835Y-73662802D01*
G37*
G36*
X184928835Y-73662802D02*
G01*
X185078660Y-73692604D01*
X185360924Y-73809521D01*
X185614955Y-73979259D01*
X185830991Y-74195295D01*
X186000729Y-74449326D01*
X186117646Y-74731590D01*
X186177250Y-75031240D01*
X186177250Y-75336760D01*
X186117646Y-75636410D01*
X186000729Y-75918674D01*
X185830991Y-76172705D01*
X185614955Y-76388741D01*
X185360924Y-76558479D01*
X185078660Y-76675396D01*
X184928835Y-76705198D01*
X184779011Y-76735000D01*
X184473489Y-76735000D01*
X184323665Y-76705198D01*
X184173840Y-76675396D01*
X183891576Y-76558479D01*
X183637545Y-76388741D01*
X183421509Y-76172705D01*
X183251771Y-75918674D01*
X183134854Y-75636410D01*
X183075250Y-75336760D01*
X183075250Y-75031240D01*
X183134854Y-74731590D01*
X183251771Y-74449326D01*
X183421509Y-74195295D01*
X183637545Y-73979259D01*
X183891576Y-73809521D01*
X184173840Y-73692604D01*
X184323665Y-73662802D01*
X184473489Y-73633000D01*
X184779011Y-73633000D01*
X184928835Y-73662802D01*
X184928835Y-73662802D01*
G37*
G36*
X208304250Y-76485000D02*
G01*
X205652250Y-76485000D01*
X205652250Y-73883000D01*
X208304250Y-73883000D01*
X208304250Y-76485000D01*
X208304250Y-76485000D01*
G37*
G36*
X189254250Y-76485000D02*
G01*
X186602250Y-76485000D01*
X186602250Y-73883000D01*
X189254250Y-73883000D01*
X189254250Y-76485000D01*
X189254250Y-76485000D01*
G37*
G36*
X158373250Y-76199250D02*
G01*
X157571250Y-76199250D01*
X157571250Y-75497250D01*
X158373250Y-75497250D01*
X158373250Y-76199250D01*
X158373250Y-76199250D01*
G37*
G36*
X160373250Y-76199250D02*
G01*
X159571250Y-76199250D01*
X159571250Y-75497250D01*
X160373250Y-75497250D01*
X160373250Y-76199250D01*
X160373250Y-76199250D01*
G37*
G36*
X155016468Y-75109565D02*
G01*
X155055138Y-75121296D01*
X155090777Y-75140346D01*
X155122017Y-75165983D01*
X155147654Y-75197223D01*
X155166704Y-75232862D01*
X155178435Y-75271532D01*
X155183000Y-75317888D01*
X155183000Y-75969112D01*
X155178435Y-76015468D01*
X155166704Y-76054138D01*
X155147654Y-76089777D01*
X155122017Y-76121017D01*
X155090777Y-76146654D01*
X155055138Y-76165704D01*
X155016468Y-76177435D01*
X154970112Y-76182000D01*
X153893888Y-76182000D01*
X153847532Y-76177435D01*
X153808862Y-76165704D01*
X153773223Y-76146654D01*
X153741983Y-76121017D01*
X153716346Y-76089777D01*
X153697296Y-76054138D01*
X153685565Y-76015468D01*
X153681000Y-75969112D01*
X153681000Y-75317888D01*
X153685565Y-75271532D01*
X153697296Y-75232862D01*
X153716346Y-75197223D01*
X153741983Y-75165983D01*
X153773223Y-75140346D01*
X153808862Y-75121296D01*
X153847532Y-75109565D01*
X153893888Y-75105000D01*
X154970112Y-75105000D01*
X155016468Y-75109565D01*
X155016468Y-75109565D01*
G37*
G36*
X164033468Y-75109565D02*
G01*
X164072138Y-75121296D01*
X164107777Y-75140346D01*
X164139017Y-75165983D01*
X164164654Y-75197223D01*
X164183704Y-75232862D01*
X164195435Y-75271532D01*
X164200000Y-75317888D01*
X164200000Y-75969112D01*
X164195435Y-76015468D01*
X164183704Y-76054138D01*
X164164654Y-76089777D01*
X164139017Y-76121017D01*
X164107777Y-76146654D01*
X164072138Y-76165704D01*
X164033468Y-76177435D01*
X163987112Y-76182000D01*
X162910888Y-76182000D01*
X162864532Y-76177435D01*
X162825862Y-76165704D01*
X162790223Y-76146654D01*
X162758983Y-76121017D01*
X162733346Y-76089777D01*
X162714296Y-76054138D01*
X162702565Y-76015468D01*
X162698000Y-75969112D01*
X162698000Y-75317888D01*
X162702565Y-75271532D01*
X162714296Y-75232862D01*
X162733346Y-75197223D01*
X162758983Y-75165983D01*
X162790223Y-75140346D01*
X162825862Y-75121296D01*
X162864532Y-75109565D01*
X162910888Y-75105000D01*
X163987112Y-75105000D01*
X164033468Y-75109565D01*
X164033468Y-75109565D01*
G37*
G36*
X160373250Y-74699250D02*
G01*
X159571250Y-74699250D01*
X159571250Y-73597250D01*
X160373250Y-73597250D01*
X160373250Y-74699250D01*
X160373250Y-74699250D01*
G37*
G36*
X168613500Y-74694750D02*
G01*
X167411500Y-74694750D01*
X167411500Y-72792750D01*
X168613500Y-72792750D01*
X168613500Y-74694750D01*
X168613500Y-74694750D01*
G37*
G36*
X172313500Y-74694750D02*
G01*
X171111500Y-74694750D01*
X171111500Y-72792750D01*
X172313500Y-72792750D01*
X172313500Y-74694750D01*
X172313500Y-74694750D01*
G37*
G36*
X222984564Y-72246389D02*
G01*
X223175833Y-72325615D01*
X223175835Y-72325616D01*
X223347973Y-72440635D01*
X223494365Y-72587027D01*
X223609385Y-72759167D01*
X223688611Y-72950436D01*
X223729000Y-73153484D01*
X223729000Y-73360516D01*
X223688611Y-73563564D01*
X223635161Y-73692604D01*
X223609384Y-73754835D01*
X223494365Y-73926973D01*
X223347973Y-74073365D01*
X223175835Y-74188384D01*
X223175834Y-74188385D01*
X223175833Y-74188385D01*
X222984564Y-74267611D01*
X222781516Y-74308000D01*
X222574484Y-74308000D01*
X222371436Y-74267611D01*
X222180167Y-74188385D01*
X222180166Y-74188385D01*
X222180165Y-74188384D01*
X222008027Y-74073365D01*
X221861635Y-73926973D01*
X221746616Y-73754835D01*
X221720839Y-73692604D01*
X221667389Y-73563564D01*
X221627000Y-73360516D01*
X221627000Y-73153484D01*
X221667389Y-72950436D01*
X221746615Y-72759167D01*
X221861635Y-72587027D01*
X222008027Y-72440635D01*
X222180165Y-72325616D01*
X222180167Y-72325615D01*
X222371436Y-72246389D01*
X222574484Y-72206000D01*
X222781516Y-72206000D01*
X222984564Y-72246389D01*
X222984564Y-72246389D01*
G37*
G36*
X217984564Y-72246389D02*
G01*
X218175833Y-72325615D01*
X218175835Y-72325616D01*
X218347973Y-72440635D01*
X218494365Y-72587027D01*
X218609385Y-72759167D01*
X218688611Y-72950436D01*
X218729000Y-73153484D01*
X218729000Y-73360516D01*
X218688611Y-73563564D01*
X218635161Y-73692604D01*
X218609384Y-73754835D01*
X218494365Y-73926973D01*
X218347973Y-74073365D01*
X218175835Y-74188384D01*
X218175834Y-74188385D01*
X218175833Y-74188385D01*
X217984564Y-74267611D01*
X217781516Y-74308000D01*
X217574484Y-74308000D01*
X217371436Y-74267611D01*
X217180167Y-74188385D01*
X217180166Y-74188385D01*
X217180165Y-74188384D01*
X217008027Y-74073365D01*
X216861635Y-73926973D01*
X216746616Y-73754835D01*
X216720839Y-73692604D01*
X216667389Y-73563564D01*
X216627000Y-73360516D01*
X216627000Y-73153484D01*
X216667389Y-72950436D01*
X216746615Y-72759167D01*
X216861635Y-72587027D01*
X217008027Y-72440635D01*
X217180165Y-72325616D01*
X217180167Y-72325615D01*
X217371436Y-72246389D01*
X217574484Y-72206000D01*
X217781516Y-72206000D01*
X217984564Y-72246389D01*
X217984564Y-72246389D01*
G37*
G36*
X158373250Y-74299250D02*
G01*
X157571250Y-74299250D01*
X157571250Y-73597250D01*
X158373250Y-73597250D01*
X158373250Y-74299250D01*
X158373250Y-74299250D01*
G37*
G36*
X226869750Y-74257250D02*
G01*
X225567750Y-74257250D01*
X225567750Y-73255250D01*
X226869750Y-73255250D01*
X226869750Y-74257250D01*
X226869750Y-74257250D01*
G37*
G36*
X163463764Y-68932973D02*
G01*
X163567628Y-68964479D01*
X163611657Y-68988013D01*
X163663349Y-69015643D01*
X163663351Y-69015644D01*
X163663350Y-69015644D01*
X163747251Y-69084499D01*
X163816106Y-69168400D01*
X163867271Y-69264121D01*
X163898777Y-69367985D01*
X163906750Y-69448933D01*
X163906750Y-70603067D01*
X163898777Y-70684015D01*
X163867271Y-70787879D01*
X163852745Y-70815055D01*
X163816107Y-70883600D01*
X163747251Y-70967501D01*
X163663350Y-71036357D01*
X163594805Y-71072995D01*
X163567629Y-71087521D01*
X163463765Y-71119027D01*
X163355750Y-71129666D01*
X163247736Y-71119027D01*
X163143872Y-71087521D01*
X163116696Y-71072995D01*
X163048151Y-71036357D01*
X162964250Y-70967501D01*
X162895394Y-70883600D01*
X162859089Y-70815677D01*
X162846986Y-70793035D01*
X162833375Y-70772664D01*
X162816048Y-70755337D01*
X162795673Y-70741723D01*
X162773034Y-70732345D01*
X162749001Y-70727565D01*
X162724497Y-70727565D01*
X162700464Y-70732345D01*
X162677825Y-70741723D01*
X162657451Y-70755336D01*
X162640124Y-70772663D01*
X162626510Y-70793038D01*
X162617132Y-70815677D01*
X162612352Y-70839710D01*
X162611750Y-70851962D01*
X162611750Y-71717000D01*
X155459750Y-71717000D01*
X155459750Y-70851963D01*
X155457348Y-70827577D01*
X155450235Y-70804128D01*
X155438684Y-70782517D01*
X155423139Y-70763575D01*
X155404197Y-70748030D01*
X155382586Y-70736479D01*
X155359137Y-70729366D01*
X155334751Y-70726964D01*
X155310365Y-70729366D01*
X155286916Y-70736479D01*
X155265305Y-70748030D01*
X155246363Y-70763575D01*
X155230818Y-70782517D01*
X155224528Y-70793010D01*
X155176106Y-70883600D01*
X155176104Y-70883603D01*
X155107251Y-70967501D01*
X155023350Y-71036357D01*
X154954805Y-71072995D01*
X154927629Y-71087521D01*
X154823765Y-71119027D01*
X154715750Y-71129666D01*
X154607736Y-71119027D01*
X154503872Y-71087521D01*
X154476696Y-71072995D01*
X154408151Y-71036357D01*
X154324250Y-70967501D01*
X154255394Y-70883600D01*
X154218756Y-70815055D01*
X154204230Y-70787879D01*
X154172724Y-70684015D01*
X154164751Y-70603067D01*
X154164750Y-69448934D01*
X154172723Y-69367986D01*
X154204229Y-69264122D01*
X154255394Y-69168400D01*
X154324249Y-69084499D01*
X154408150Y-69015644D01*
X154408149Y-69015644D01*
X154408151Y-69015643D01*
X154459843Y-68988013D01*
X154503871Y-68964479D01*
X154607735Y-68932973D01*
X154715750Y-68922334D01*
X154823764Y-68932973D01*
X154927628Y-68964479D01*
X154971657Y-68988013D01*
X155023349Y-69015643D01*
X155023351Y-69015644D01*
X155023350Y-69015644D01*
X155107251Y-69084499D01*
X155176106Y-69168400D01*
X155227271Y-69264121D01*
X155258777Y-69367985D01*
X155266750Y-69448933D01*
X155266750Y-70040001D01*
X155269152Y-70064387D01*
X155276265Y-70087836D01*
X155287816Y-70109447D01*
X155303361Y-70128389D01*
X155322303Y-70143934D01*
X155343914Y-70155485D01*
X155367363Y-70162598D01*
X155391749Y-70165000D01*
X162679752Y-70165000D01*
X162704138Y-70162598D01*
X162727587Y-70155485D01*
X162749198Y-70143934D01*
X162768140Y-70128389D01*
X162783685Y-70109447D01*
X162795236Y-70087836D01*
X162802349Y-70064387D01*
X162804751Y-70040001D01*
X162804751Y-69872000D01*
X162804750Y-69448934D01*
X162812723Y-69367986D01*
X162844229Y-69264122D01*
X162895394Y-69168400D01*
X162964249Y-69084499D01*
X163048150Y-69015644D01*
X163048149Y-69015644D01*
X163048151Y-69015643D01*
X163099843Y-68988013D01*
X163143871Y-68964479D01*
X163247735Y-68932973D01*
X163355750Y-68922334D01*
X163463764Y-68932973D01*
X163463764Y-68932973D01*
G37*
G36*
X176796968Y-70253565D02*
G01*
X176835638Y-70265296D01*
X176871277Y-70284346D01*
X176902517Y-70309983D01*
X176928154Y-70341223D01*
X176947204Y-70376862D01*
X176958935Y-70415532D01*
X176963500Y-70461888D01*
X176963500Y-71113112D01*
X176958935Y-71159468D01*
X176947204Y-71198138D01*
X176928154Y-71233777D01*
X176902517Y-71265017D01*
X176871277Y-71290654D01*
X176835638Y-71309704D01*
X176796968Y-71321435D01*
X176750612Y-71326000D01*
X175674388Y-71326000D01*
X175628032Y-71321435D01*
X175589362Y-71309704D01*
X175553723Y-71290654D01*
X175522483Y-71265017D01*
X175496846Y-71233777D01*
X175477796Y-71198138D01*
X175466065Y-71159468D01*
X175461500Y-71113112D01*
X175461500Y-70461888D01*
X175466065Y-70415532D01*
X175477796Y-70376862D01*
X175496846Y-70341223D01*
X175522483Y-70309983D01*
X175553723Y-70284346D01*
X175589362Y-70265296D01*
X175628032Y-70253565D01*
X175674388Y-70249000D01*
X176750612Y-70249000D01*
X176796968Y-70253565D01*
X176796968Y-70253565D01*
G37*
G36*
X162035422Y-69134449D02*
G01*
X162035424Y-69134450D01*
X162035425Y-69134450D01*
X162103853Y-69162793D01*
X162165436Y-69203942D01*
X162217808Y-69256314D01*
X162258957Y-69317897D01*
X162281424Y-69372139D01*
X162287301Y-69386328D01*
X162300165Y-69451000D01*
X162301750Y-69458967D01*
X162301750Y-69533033D01*
X162287300Y-69605675D01*
X162258957Y-69674103D01*
X162217808Y-69735686D01*
X162165436Y-69788058D01*
X162103853Y-69829207D01*
X162035425Y-69857550D01*
X162035424Y-69857550D01*
X162035422Y-69857551D01*
X161962784Y-69872000D01*
X161888716Y-69872000D01*
X161816078Y-69857551D01*
X161816076Y-69857550D01*
X161816075Y-69857550D01*
X161747647Y-69829207D01*
X161686064Y-69788058D01*
X161633692Y-69735686D01*
X161592543Y-69674103D01*
X161564200Y-69605675D01*
X161549750Y-69533033D01*
X161549750Y-69458967D01*
X161551335Y-69451000D01*
X161564199Y-69386328D01*
X161570076Y-69372139D01*
X161592543Y-69317897D01*
X161633692Y-69256314D01*
X161686064Y-69203942D01*
X161747647Y-69162793D01*
X161816075Y-69134450D01*
X161816076Y-69134450D01*
X161816078Y-69134449D01*
X161888716Y-69120000D01*
X161962784Y-69120000D01*
X162035422Y-69134449D01*
X162035422Y-69134449D01*
G37*
G36*
X156255422Y-69134449D02*
G01*
X156255424Y-69134450D01*
X156255425Y-69134450D01*
X156323853Y-69162793D01*
X156385436Y-69203942D01*
X156437808Y-69256314D01*
X156478957Y-69317897D01*
X156501424Y-69372139D01*
X156507301Y-69386328D01*
X156520165Y-69451000D01*
X156521750Y-69458967D01*
X156521750Y-69533033D01*
X156507300Y-69605675D01*
X156478957Y-69674103D01*
X156437808Y-69735686D01*
X156385436Y-69788058D01*
X156323853Y-69829207D01*
X156255425Y-69857550D01*
X156255424Y-69857550D01*
X156255422Y-69857551D01*
X156182784Y-69872000D01*
X156108716Y-69872000D01*
X156036078Y-69857551D01*
X156036076Y-69857550D01*
X156036075Y-69857550D01*
X155967647Y-69829207D01*
X155906064Y-69788058D01*
X155853692Y-69735686D01*
X155812543Y-69674103D01*
X155784200Y-69605675D01*
X155769750Y-69533033D01*
X155769750Y-69458967D01*
X155771335Y-69451000D01*
X155784199Y-69386328D01*
X155790076Y-69372139D01*
X155812543Y-69317897D01*
X155853692Y-69256314D01*
X155906064Y-69203942D01*
X155967647Y-69162793D01*
X156036075Y-69134450D01*
X156036076Y-69134450D01*
X156036078Y-69134449D01*
X156108716Y-69120000D01*
X156182784Y-69120000D01*
X156255422Y-69134449D01*
X156255422Y-69134449D01*
G37*
G36*
X146325880Y-65228526D02*
G01*
X146706593Y-65304254D01*
X147116249Y-65473939D01*
X147484929Y-65720284D01*
X147798466Y-66033821D01*
X148044811Y-66402501D01*
X148214496Y-66812157D01*
X148301000Y-67247046D01*
X148301000Y-67690454D01*
X148214496Y-68125343D01*
X148044811Y-68534999D01*
X147798466Y-68903679D01*
X147484929Y-69217216D01*
X147116249Y-69463561D01*
X146706593Y-69633246D01*
X146325880Y-69708974D01*
X146271705Y-69719750D01*
X145828295Y-69719750D01*
X145774120Y-69708974D01*
X145393407Y-69633246D01*
X144983751Y-69463561D01*
X144615071Y-69217216D01*
X144301534Y-68903679D01*
X144055189Y-68534999D01*
X143885504Y-68125343D01*
X143799000Y-67690454D01*
X143799000Y-67247046D01*
X143885504Y-66812157D01*
X144055189Y-66402501D01*
X144301534Y-66033821D01*
X144615071Y-65720284D01*
X144983751Y-65473939D01*
X145393407Y-65304254D01*
X145774120Y-65228526D01*
X145828295Y-65217750D01*
X146271705Y-65217750D01*
X146325880Y-65228526D01*
X146325880Y-65228526D01*
G37*
G36*
X232844630Y-65228526D02*
G01*
X233225343Y-65304254D01*
X233634999Y-65473939D01*
X234003679Y-65720284D01*
X234317216Y-66033821D01*
X234563561Y-66402501D01*
X234733246Y-66812157D01*
X234819750Y-67247046D01*
X234819750Y-67690454D01*
X234733246Y-68125343D01*
X234563561Y-68534999D01*
X234317216Y-68903679D01*
X234003679Y-69217216D01*
X233634999Y-69463561D01*
X233225343Y-69633246D01*
X232844630Y-69708974D01*
X232790455Y-69719750D01*
X232347045Y-69719750D01*
X232292870Y-69708974D01*
X231912157Y-69633246D01*
X231502501Y-69463561D01*
X231133821Y-69217216D01*
X230820284Y-68903679D01*
X230573939Y-68534999D01*
X230404254Y-68125343D01*
X230317750Y-67690454D01*
X230317750Y-67247046D01*
X230404254Y-66812157D01*
X230573939Y-66402501D01*
X230820284Y-66033821D01*
X231133821Y-65720284D01*
X231502501Y-65473939D01*
X231912157Y-65304254D01*
X232292870Y-65228526D01*
X232347045Y-65217750D01*
X232790455Y-65217750D01*
X232844630Y-65228526D01*
X232844630Y-65228526D01*
G37*
G36*
X176796968Y-68378565D02*
G01*
X176835638Y-68390296D01*
X176871277Y-68409346D01*
X176902517Y-68434983D01*
X176928154Y-68466223D01*
X176947204Y-68501862D01*
X176958935Y-68540532D01*
X176963500Y-68586888D01*
X176963500Y-69238112D01*
X176958935Y-69284468D01*
X176947204Y-69323138D01*
X176928154Y-69358777D01*
X176902517Y-69390017D01*
X176871277Y-69415654D01*
X176835638Y-69434704D01*
X176796968Y-69446435D01*
X176750612Y-69451000D01*
X175674388Y-69451000D01*
X175628032Y-69446435D01*
X175589362Y-69434704D01*
X175553723Y-69415654D01*
X175522483Y-69390017D01*
X175496846Y-69358777D01*
X175477796Y-69323138D01*
X175466065Y-69284468D01*
X175461500Y-69238112D01*
X175461500Y-68586888D01*
X175466065Y-68540532D01*
X175477796Y-68501862D01*
X175496846Y-68466223D01*
X175522483Y-68434983D01*
X175553723Y-68409346D01*
X175589362Y-68390296D01*
X175628032Y-68378565D01*
X175674388Y-68374000D01*
X176750612Y-68374000D01*
X176796968Y-68378565D01*
X176796968Y-68378565D01*
G37*
G36*
X168613500Y-68494750D02*
G01*
X167411500Y-68494750D01*
X167411500Y-66592750D01*
X168613500Y-66592750D01*
X168613500Y-68494750D01*
X168613500Y-68494750D01*
G37*
G36*
X172313500Y-68494750D02*
G01*
X171111500Y-68494750D01*
X171111500Y-66592750D01*
X172313500Y-66592750D01*
X172313500Y-68494750D01*
X172313500Y-68494750D01*
G37*
G36*
X163463764Y-65002973D02*
G01*
X163567628Y-65034479D01*
X163611657Y-65058013D01*
X163663349Y-65085643D01*
X163663351Y-65085644D01*
X163663350Y-65085644D01*
X163747251Y-65154499D01*
X163816106Y-65238400D01*
X163867271Y-65334121D01*
X163898777Y-65437985D01*
X163906750Y-65518933D01*
X163906750Y-66173067D01*
X163898777Y-66254015D01*
X163867271Y-66357879D01*
X163867269Y-66357882D01*
X163816107Y-66453600D01*
X163747251Y-66537501D01*
X163663350Y-66606357D01*
X163594805Y-66642995D01*
X163567629Y-66657521D01*
X163463765Y-66689027D01*
X163355750Y-66699666D01*
X163247736Y-66689027D01*
X163143872Y-66657521D01*
X163116696Y-66642995D01*
X163048151Y-66606357D01*
X162964250Y-66537501D01*
X162895395Y-66453601D01*
X162844230Y-66357879D01*
X162812723Y-66254015D01*
X162804750Y-66173067D01*
X162804750Y-65518934D01*
X162812723Y-65437986D01*
X162844229Y-65334122D01*
X162895394Y-65238400D01*
X162964249Y-65154499D01*
X163048150Y-65085644D01*
X163048149Y-65085644D01*
X163048151Y-65085643D01*
X163099843Y-65058013D01*
X163143871Y-65034479D01*
X163247735Y-65002973D01*
X163355750Y-64992334D01*
X163463764Y-65002973D01*
X163463764Y-65002973D01*
G37*
G36*
X154823764Y-65002973D02*
G01*
X154927628Y-65034479D01*
X154971657Y-65058013D01*
X155023349Y-65085643D01*
X155023351Y-65085644D01*
X155023350Y-65085644D01*
X155107251Y-65154499D01*
X155176106Y-65238400D01*
X155227271Y-65334121D01*
X155258777Y-65437985D01*
X155266750Y-65518933D01*
X155266750Y-66173067D01*
X155258777Y-66254015D01*
X155227271Y-66357879D01*
X155227269Y-66357882D01*
X155176107Y-66453600D01*
X155107251Y-66537501D01*
X155023350Y-66606357D01*
X154954805Y-66642995D01*
X154927629Y-66657521D01*
X154823765Y-66689027D01*
X154715750Y-66699666D01*
X154607736Y-66689027D01*
X154503872Y-66657521D01*
X154476696Y-66642995D01*
X154408151Y-66606357D01*
X154324250Y-66537501D01*
X154255395Y-66453601D01*
X154204230Y-66357879D01*
X154172723Y-66254015D01*
X154164750Y-66173067D01*
X154164750Y-65518934D01*
X154172723Y-65437986D01*
X154204229Y-65334122D01*
X154255394Y-65238400D01*
X154324249Y-65154499D01*
X154408150Y-65085644D01*
X154408149Y-65085644D01*
X154408151Y-65085643D01*
X154459843Y-65058013D01*
X154503871Y-65034479D01*
X154607735Y-65002973D01*
X154715750Y-64992334D01*
X154823764Y-65002973D01*
X154823764Y-65002973D01*
G37*
M02*
