G04 #@! TF.GenerationSoftware,KiCad,Pcbnew,(5.1.4)-1*
G04 #@! TF.CreationDate,2020-07-31T11:22:47-07:00*
G04 #@! TF.ProjectId,basic_macropad,62617369-635f-46d6-9163-726f7061642e,rev?*
G04 #@! TF.SameCoordinates,Original*
G04 #@! TF.FileFunction,Legend,Bot*
G04 #@! TF.FilePolarity,Positive*
%FSLAX46Y46*%
G04 Gerber Fmt 4.6, Leading zero omitted, Abs format (unit mm)*
G04 Created by KiCad (PCBNEW (5.1.4)-1) date 2020-07-31 11:22:47*
%MOMM*%
%LPD*%
G04 APERTURE LIST*
%ADD10C,0.150000*%
%ADD11C,0.120000*%
%ADD12C,4.502000*%
%ADD13C,0.889400*%
%ADD14R,2.652000X2.602000*%
%ADD15C,1.852000*%
%ADD16C,3.102000*%
%ADD17C,4.089800*%
%ADD18R,2.102000X2.102000*%
%ADD19C,2.102000*%
%ADD20C,3.302000*%
%ADD21R,0.802000X1.102000*%
%ADD22R,0.802000X0.702000*%
%ADD23R,0.702000X1.552000*%
%ADD24R,0.402000X1.552000*%
%ADD25C,0.752000*%
%ADD26O,1.102000X2.202000*%
%ADD27O,1.102000X1.702000*%
%ADD28C,0.020000*%
%ADD29C,1.077000*%
%ADD30C,1.352000*%
%ADD31R,1.602000X1.102000*%
%ADD32R,1.302000X1.002000*%
%ADD33R,1.502000X1.302000*%
%ADD34R,0.652000X1.602000*%
%ADD35R,1.602000X0.652000*%
%ADD36R,1.202000X1.902000*%
G04 APERTURE END LIST*
D10*
X158322250Y-73448250D02*
X158322250Y-76348250D01*
X158322250Y-73448250D02*
X159622250Y-73448250D01*
X159622250Y-73448250D02*
X159622250Y-76348250D01*
X159622250Y-76348250D02*
X158322250Y-76348250D01*
D11*
X161269750Y-78640172D02*
X161269750Y-79157328D01*
X159849750Y-78640172D02*
X159849750Y-79157328D01*
X158094750Y-78615172D02*
X158094750Y-79132328D01*
X156674750Y-78615172D02*
X156674750Y-79132328D01*
X155142000Y-76322422D02*
X155142000Y-76839578D01*
X153722000Y-76322422D02*
X153722000Y-76839578D01*
X164159000Y-76322422D02*
X164159000Y-76839578D01*
X162739000Y-76322422D02*
X162739000Y-76839578D01*
X148315000Y-79183314D02*
X148315000Y-77979186D01*
X150135000Y-79183314D02*
X150135000Y-77979186D01*
X201137500Y-90856250D02*
X201137500Y-89706250D01*
X208437500Y-90856250D02*
X201137500Y-90856250D01*
X208437500Y-85356250D02*
X201137500Y-85356250D01*
X177481250Y-85388000D02*
X177481250Y-86538000D01*
X170181250Y-85388000D02*
X177481250Y-85388000D01*
X170181250Y-90888000D02*
X177481250Y-90888000D01*
X228806250Y-101468750D02*
X228806250Y-97568750D01*
X226806250Y-101468750D02*
X226806250Y-97568750D01*
X228806250Y-101468750D02*
X226806250Y-101468750D01*
X227218750Y-77656250D02*
X227218750Y-73756250D01*
X225218750Y-77656250D02*
X225218750Y-73756250D01*
X227218750Y-77656250D02*
X225218750Y-77656250D01*
X162083500Y-88772000D02*
X158083500Y-88772000D01*
X162083500Y-85472000D02*
X162083500Y-88772000D01*
D10*
X154305250Y-105469750D02*
X153030250Y-105469750D01*
X164655250Y-106044750D02*
X163980250Y-106044750D01*
X164655250Y-95694750D02*
X163980250Y-95694750D01*
X154305250Y-95694750D02*
X154980250Y-95694750D01*
X154305250Y-106044750D02*
X154980250Y-106044750D01*
X154305250Y-95694750D02*
X154305250Y-96369750D01*
X164655250Y-95694750D02*
X164655250Y-96369750D01*
X164655250Y-106044750D02*
X164655250Y-105369750D01*
X154305250Y-106044750D02*
X154305250Y-105469750D01*
X172462500Y-73243750D02*
X172462500Y-68043750D01*
X172462500Y-68043750D02*
X167262500Y-68043750D01*
X167262500Y-68043750D02*
X167262500Y-73243750D01*
X167262500Y-73243750D02*
X172462500Y-73243750D01*
X170862500Y-70643750D02*
G75*
G03X170862500Y-70643750I-1000000J0D01*
G01*
D11*
X175502500Y-70108578D02*
X175502500Y-69591422D01*
X176922500Y-70108578D02*
X176922500Y-69591422D01*
X168358750Y-108208578D02*
X168358750Y-107691422D01*
X169778750Y-108208578D02*
X169778750Y-107691422D01*
X209756250Y-101468750D02*
X209756250Y-97568750D01*
X207756250Y-101468750D02*
X207756250Y-97568750D01*
X209756250Y-101468750D02*
X207756250Y-101468750D01*
X190706250Y-101468750D02*
X190706250Y-97568750D01*
X188706250Y-101468750D02*
X188706250Y-97568750D01*
X190706250Y-101468750D02*
X188706250Y-101468750D01*
X209756250Y-82418750D02*
X209756250Y-78518750D01*
X207756250Y-82418750D02*
X207756250Y-78518750D01*
X209756250Y-82418750D02*
X207756250Y-82418750D01*
X190706250Y-82418750D02*
X190706250Y-78518750D01*
X188706250Y-82418750D02*
X188706250Y-78518750D01*
X190706250Y-82418750D02*
X188706250Y-82418750D01*
X146760000Y-95785172D02*
X146760000Y-96302328D01*
X145340000Y-95785172D02*
X145340000Y-96302328D01*
X156570750Y-86958672D02*
X156570750Y-87475828D01*
X155150750Y-86958672D02*
X155150750Y-87475828D01*
X163818500Y-87475828D02*
X163818500Y-86958672D01*
X165238500Y-87475828D02*
X165238500Y-86958672D01*
X149935000Y-105024422D02*
X149935000Y-105541578D01*
X148515000Y-105024422D02*
X148515000Y-105541578D01*
X163326578Y-111041250D02*
X162809422Y-111041250D01*
X163326578Y-109621250D02*
X162809422Y-109621250D01*
X168295250Y-96365828D02*
X168295250Y-95848672D01*
X169715250Y-96365828D02*
X169715250Y-95848672D01*
X150674000Y-92460578D02*
X150674000Y-91943422D01*
X152094000Y-92460578D02*
X152094000Y-91943422D01*
D10*
X221471964Y-102814380D02*
X221471964Y-101814380D01*
X221138630Y-102528666D01*
X220805297Y-101814380D01*
X220805297Y-102814380D01*
X220424345Y-101814380D02*
X219757678Y-102814380D01*
X219757678Y-101814380D02*
X220424345Y-102814380D01*
X218900535Y-101814380D02*
X219376726Y-101814380D01*
X219424345Y-102290571D01*
X219376726Y-102242952D01*
X219281488Y-102195333D01*
X219043392Y-102195333D01*
X218948154Y-102242952D01*
X218900535Y-102290571D01*
X218852916Y-102385809D01*
X218852916Y-102623904D01*
X218900535Y-102719142D01*
X218948154Y-102766761D01*
X219043392Y-102814380D01*
X219281488Y-102814380D01*
X219376726Y-102766761D01*
X219424345Y-102719142D01*
X202421964Y-102814380D02*
X202421964Y-101814380D01*
X202088630Y-102528666D01*
X201755297Y-101814380D01*
X201755297Y-102814380D01*
X201374345Y-101814380D02*
X200707678Y-102814380D01*
X200707678Y-101814380D02*
X201374345Y-102814380D01*
X199898154Y-102147714D02*
X199898154Y-102814380D01*
X200136250Y-101766761D02*
X200374345Y-102481047D01*
X199755297Y-102481047D01*
X183371964Y-102814380D02*
X183371964Y-101814380D01*
X183038630Y-102528666D01*
X182705297Y-101814380D01*
X182705297Y-102814380D01*
X182324345Y-101814380D02*
X181657678Y-102814380D01*
X181657678Y-101814380D02*
X182324345Y-102814380D01*
X181371964Y-101814380D02*
X180752916Y-101814380D01*
X181086250Y-102195333D01*
X180943392Y-102195333D01*
X180848154Y-102242952D01*
X180800535Y-102290571D01*
X180752916Y-102385809D01*
X180752916Y-102623904D01*
X180800535Y-102719142D01*
X180848154Y-102766761D01*
X180943392Y-102814380D01*
X181229107Y-102814380D01*
X181324345Y-102766761D01*
X181371964Y-102719142D01*
X202421964Y-83764380D02*
X202421964Y-82764380D01*
X202088630Y-83478666D01*
X201755297Y-82764380D01*
X201755297Y-83764380D01*
X201374345Y-82764380D02*
X200707678Y-83764380D01*
X200707678Y-82764380D02*
X201374345Y-83764380D01*
X200374345Y-82859619D02*
X200326726Y-82812000D01*
X200231488Y-82764380D01*
X199993392Y-82764380D01*
X199898154Y-82812000D01*
X199850535Y-82859619D01*
X199802916Y-82954857D01*
X199802916Y-83050095D01*
X199850535Y-83192952D01*
X200421964Y-83764380D01*
X199802916Y-83764380D01*
X183371964Y-83764380D02*
X183371964Y-82764380D01*
X183038630Y-83478666D01*
X182705297Y-82764380D01*
X182705297Y-83764380D01*
X182324345Y-82764380D02*
X181657678Y-83764380D01*
X181657678Y-82764380D02*
X182324345Y-83764380D01*
X180752916Y-83764380D02*
X181324345Y-83764380D01*
X181038630Y-83764380D02*
X181038630Y-82764380D01*
X181133869Y-82907238D01*
X181229107Y-83002476D01*
X181324345Y-83050095D01*
X159734154Y-76800630D02*
X159734154Y-77610154D01*
X159686535Y-77705392D01*
X159638916Y-77753011D01*
X159543678Y-77800630D01*
X159353202Y-77800630D01*
X159257964Y-77753011D01*
X159210345Y-77705392D01*
X159162726Y-77610154D01*
X159162726Y-76800630D01*
X158734154Y-76895869D02*
X158686535Y-76848250D01*
X158591297Y-76800630D01*
X158353202Y-76800630D01*
X158257964Y-76848250D01*
X158210345Y-76895869D01*
X158162726Y-76991107D01*
X158162726Y-77086345D01*
X158210345Y-77229202D01*
X158781773Y-77800630D01*
X158162726Y-77800630D01*
X160773845Y-71948380D02*
X160773845Y-72757904D01*
X160726226Y-72853142D01*
X160678607Y-72900761D01*
X160583369Y-72948380D01*
X160392892Y-72948380D01*
X160297654Y-72900761D01*
X160250035Y-72853142D01*
X160202416Y-72757904D01*
X160202416Y-71948380D01*
X159773845Y-72900761D02*
X159630988Y-72948380D01*
X159392892Y-72948380D01*
X159297654Y-72900761D01*
X159250035Y-72853142D01*
X159202416Y-72757904D01*
X159202416Y-72662666D01*
X159250035Y-72567428D01*
X159297654Y-72519809D01*
X159392892Y-72472190D01*
X159583369Y-72424571D01*
X159678607Y-72376952D01*
X159726226Y-72329333D01*
X159773845Y-72234095D01*
X159773845Y-72138857D01*
X159726226Y-72043619D01*
X159678607Y-71996000D01*
X159583369Y-71948380D01*
X159345273Y-71948380D01*
X159202416Y-71996000D01*
X158440511Y-72424571D02*
X158297654Y-72472190D01*
X158250035Y-72519809D01*
X158202416Y-72615047D01*
X158202416Y-72757904D01*
X158250035Y-72853142D01*
X158297654Y-72900761D01*
X158392892Y-72948380D01*
X158773845Y-72948380D01*
X158773845Y-71948380D01*
X158440511Y-71948380D01*
X158345273Y-71996000D01*
X158297654Y-72043619D01*
X158250035Y-72138857D01*
X158250035Y-72234095D01*
X158297654Y-72329333D01*
X158345273Y-72376952D01*
X158440511Y-72424571D01*
X158773845Y-72424571D01*
X157250035Y-72948380D02*
X157821464Y-72948380D01*
X157535750Y-72948380D02*
X157535750Y-71948380D01*
X157630988Y-72091238D01*
X157726226Y-72186476D01*
X157821464Y-72234095D01*
X159362130Y-78732083D02*
X158885940Y-78398750D01*
X159362130Y-78160654D02*
X158362130Y-78160654D01*
X158362130Y-78541607D01*
X158409750Y-78636845D01*
X158457369Y-78684464D01*
X158552607Y-78732083D01*
X158695464Y-78732083D01*
X158790702Y-78684464D01*
X158838321Y-78636845D01*
X158885940Y-78541607D01*
X158885940Y-78160654D01*
X158362130Y-79589226D02*
X158362130Y-79398750D01*
X158409750Y-79303511D01*
X158457369Y-79255892D01*
X158600226Y-79160654D01*
X158790702Y-79113035D01*
X159171654Y-79113035D01*
X159266892Y-79160654D01*
X159314511Y-79208273D01*
X159362130Y-79303511D01*
X159362130Y-79493988D01*
X159314511Y-79589226D01*
X159266892Y-79636845D01*
X159171654Y-79684464D01*
X158933559Y-79684464D01*
X158838321Y-79636845D01*
X158790702Y-79589226D01*
X158743083Y-79493988D01*
X158743083Y-79303511D01*
X158790702Y-79208273D01*
X158838321Y-79160654D01*
X158933559Y-79113035D01*
X156187130Y-78707083D02*
X155710940Y-78373750D01*
X156187130Y-78135654D02*
X155187130Y-78135654D01*
X155187130Y-78516607D01*
X155234750Y-78611845D01*
X155282369Y-78659464D01*
X155377607Y-78707083D01*
X155520464Y-78707083D01*
X155615702Y-78659464D01*
X155663321Y-78611845D01*
X155710940Y-78516607D01*
X155710940Y-78135654D01*
X155187130Y-79611845D02*
X155187130Y-79135654D01*
X155663321Y-79088035D01*
X155615702Y-79135654D01*
X155568083Y-79230892D01*
X155568083Y-79468988D01*
X155615702Y-79564226D01*
X155663321Y-79611845D01*
X155758559Y-79659464D01*
X155996654Y-79659464D01*
X156091892Y-79611845D01*
X156139511Y-79564226D01*
X156187130Y-79468988D01*
X156187130Y-79230892D01*
X156139511Y-79135654D01*
X156091892Y-79088035D01*
X153234380Y-76414333D02*
X152758190Y-76081000D01*
X153234380Y-75842904D02*
X152234380Y-75842904D01*
X152234380Y-76223857D01*
X152282000Y-76319095D01*
X152329619Y-76366714D01*
X152424857Y-76414333D01*
X152567714Y-76414333D01*
X152662952Y-76366714D01*
X152710571Y-76319095D01*
X152758190Y-76223857D01*
X152758190Y-75842904D01*
X152234380Y-76747666D02*
X152234380Y-77366714D01*
X152615333Y-77033380D01*
X152615333Y-77176238D01*
X152662952Y-77271476D01*
X152710571Y-77319095D01*
X152805809Y-77366714D01*
X153043904Y-77366714D01*
X153139142Y-77319095D01*
X153186761Y-77271476D01*
X153234380Y-77176238D01*
X153234380Y-76890523D01*
X153186761Y-76795285D01*
X153139142Y-76747666D01*
X162251380Y-76414333D02*
X161775190Y-76081000D01*
X162251380Y-75842904D02*
X161251380Y-75842904D01*
X161251380Y-76223857D01*
X161299000Y-76319095D01*
X161346619Y-76366714D01*
X161441857Y-76414333D01*
X161584714Y-76414333D01*
X161679952Y-76366714D01*
X161727571Y-76319095D01*
X161775190Y-76223857D01*
X161775190Y-75842904D01*
X161346619Y-76795285D02*
X161299000Y-76842904D01*
X161251380Y-76938142D01*
X161251380Y-77176238D01*
X161299000Y-77271476D01*
X161346619Y-77319095D01*
X161441857Y-77366714D01*
X161537095Y-77366714D01*
X161679952Y-77319095D01*
X162251380Y-76747666D01*
X162251380Y-77366714D01*
X150973571Y-78247916D02*
X150973571Y-77914583D01*
X151497380Y-77914583D02*
X150497380Y-77914583D01*
X150497380Y-78390773D01*
X151497380Y-79295535D02*
X151497380Y-78724107D01*
X151497380Y-79009821D02*
X150497380Y-79009821D01*
X150640238Y-78914583D01*
X150735476Y-78819345D01*
X150783095Y-78724107D01*
X205525595Y-85058630D02*
X205525595Y-84058630D01*
X205287500Y-84058630D01*
X205144642Y-84106250D01*
X205049404Y-84201488D01*
X205001785Y-84296726D01*
X204954166Y-84487202D01*
X204954166Y-84630059D01*
X205001785Y-84820535D01*
X205049404Y-84915773D01*
X205144642Y-85011011D01*
X205287500Y-85058630D01*
X205525595Y-85058630D01*
X204382738Y-84487202D02*
X204477976Y-84439583D01*
X204525595Y-84391964D01*
X204573214Y-84296726D01*
X204573214Y-84249107D01*
X204525595Y-84153869D01*
X204477976Y-84106250D01*
X204382738Y-84058630D01*
X204192261Y-84058630D01*
X204097023Y-84106250D01*
X204049404Y-84153869D01*
X204001785Y-84249107D01*
X204001785Y-84296726D01*
X204049404Y-84391964D01*
X204097023Y-84439583D01*
X204192261Y-84487202D01*
X204382738Y-84487202D01*
X204477976Y-84534821D01*
X204525595Y-84582440D01*
X204573214Y-84677678D01*
X204573214Y-84868154D01*
X204525595Y-84963392D01*
X204477976Y-85011011D01*
X204382738Y-85058630D01*
X204192261Y-85058630D01*
X204097023Y-85011011D01*
X204049404Y-84963392D01*
X204001785Y-84868154D01*
X204001785Y-84677678D01*
X204049404Y-84582440D01*
X204097023Y-84534821D01*
X204192261Y-84487202D01*
X208651785Y-86958630D02*
X209223214Y-86958630D01*
X208937500Y-86958630D02*
X208937500Y-85958630D01*
X209032738Y-86101488D01*
X209127976Y-86196726D01*
X209223214Y-86244345D01*
X174569345Y-92090380D02*
X174569345Y-91090380D01*
X174331250Y-91090380D01*
X174188392Y-91138000D01*
X174093154Y-91233238D01*
X174045535Y-91328476D01*
X173997916Y-91518952D01*
X173997916Y-91661809D01*
X174045535Y-91852285D01*
X174093154Y-91947523D01*
X174188392Y-92042761D01*
X174331250Y-92090380D01*
X174569345Y-92090380D01*
X173664583Y-91090380D02*
X172997916Y-91090380D01*
X173426488Y-92090380D01*
X169395535Y-90190380D02*
X169966964Y-90190380D01*
X169681250Y-90190380D02*
X169681250Y-89190380D01*
X169776488Y-89333238D01*
X169871726Y-89428476D01*
X169966964Y-89476095D01*
X230258630Y-98480654D02*
X229258630Y-98480654D01*
X229258630Y-98718750D01*
X229306250Y-98861607D01*
X229401488Y-98956845D01*
X229496726Y-99004464D01*
X229687202Y-99052083D01*
X229830059Y-99052083D01*
X230020535Y-99004464D01*
X230115773Y-98956845D01*
X230211011Y-98861607D01*
X230258630Y-98718750D01*
X230258630Y-98480654D01*
X229258630Y-99956845D02*
X229258630Y-99480654D01*
X229734821Y-99433035D01*
X229687202Y-99480654D01*
X229639583Y-99575892D01*
X229639583Y-99813988D01*
X229687202Y-99909226D01*
X229734821Y-99956845D01*
X229830059Y-100004464D01*
X230068154Y-100004464D01*
X230163392Y-99956845D01*
X230211011Y-99909226D01*
X230258630Y-99813988D01*
X230258630Y-99575892D01*
X230211011Y-99480654D01*
X230163392Y-99433035D01*
X228671130Y-74668154D02*
X227671130Y-74668154D01*
X227671130Y-74906250D01*
X227718750Y-75049107D01*
X227813988Y-75144345D01*
X227909226Y-75191964D01*
X228099702Y-75239583D01*
X228242559Y-75239583D01*
X228433035Y-75191964D01*
X228528273Y-75144345D01*
X228623511Y-75049107D01*
X228671130Y-74906250D01*
X228671130Y-74668154D01*
X227671130Y-76096726D02*
X227671130Y-75906250D01*
X227718750Y-75811011D01*
X227766369Y-75763392D01*
X227909226Y-75668154D01*
X228099702Y-75620535D01*
X228480654Y-75620535D01*
X228575892Y-75668154D01*
X228623511Y-75715773D01*
X228671130Y-75811011D01*
X228671130Y-76001488D01*
X228623511Y-76096726D01*
X228575892Y-76144345D01*
X228480654Y-76191964D01*
X228242559Y-76191964D01*
X228147321Y-76144345D01*
X228099702Y-76096726D01*
X228052083Y-76001488D01*
X228052083Y-75811011D01*
X228099702Y-75715773D01*
X228147321Y-75668154D01*
X228242559Y-75620535D01*
X160559690Y-84648190D02*
X160559690Y-85124380D01*
X160893023Y-84124380D02*
X160559690Y-84648190D01*
X160226357Y-84124380D01*
X159369214Y-85124380D02*
X159940642Y-85124380D01*
X159654928Y-85124380D02*
X159654928Y-84124380D01*
X159750166Y-84267238D01*
X159845404Y-84362476D01*
X159940642Y-84410095D01*
X160242154Y-107772130D02*
X160242154Y-108581654D01*
X160194535Y-108676892D01*
X160146916Y-108724511D01*
X160051678Y-108772130D01*
X159861202Y-108772130D01*
X159765964Y-108724511D01*
X159718345Y-108676892D01*
X159670726Y-108581654D01*
X159670726Y-107772130D01*
X158670726Y-108772130D02*
X159242154Y-108772130D01*
X158956440Y-108772130D02*
X158956440Y-107772130D01*
X159051678Y-107914988D01*
X159146916Y-108010226D01*
X159242154Y-108057845D01*
X166203261Y-69310416D02*
X166250880Y-69453273D01*
X166250880Y-69691369D01*
X166203261Y-69786607D01*
X166155642Y-69834226D01*
X166060404Y-69881845D01*
X165965166Y-69881845D01*
X165869928Y-69834226D01*
X165822309Y-69786607D01*
X165774690Y-69691369D01*
X165727071Y-69500892D01*
X165679452Y-69405654D01*
X165631833Y-69358035D01*
X165536595Y-69310416D01*
X165441357Y-69310416D01*
X165346119Y-69358035D01*
X165298500Y-69405654D01*
X165250880Y-69500892D01*
X165250880Y-69738988D01*
X165298500Y-69881845D01*
X165250880Y-70215178D02*
X166250880Y-70453273D01*
X165536595Y-70643750D01*
X166250880Y-70834226D01*
X165250880Y-71072321D01*
X166250880Y-71977083D02*
X166250880Y-71405654D01*
X166250880Y-71691369D02*
X165250880Y-71691369D01*
X165393738Y-71596130D01*
X165488976Y-71500892D01*
X165536595Y-71405654D01*
X178314880Y-69683333D02*
X177838690Y-69350000D01*
X178314880Y-69111904D02*
X177314880Y-69111904D01*
X177314880Y-69492857D01*
X177362500Y-69588095D01*
X177410119Y-69635714D01*
X177505357Y-69683333D01*
X177648214Y-69683333D01*
X177743452Y-69635714D01*
X177791071Y-69588095D01*
X177838690Y-69492857D01*
X177838690Y-69111904D01*
X177648214Y-70540476D02*
X178314880Y-70540476D01*
X177267261Y-70302380D02*
X177981547Y-70064285D01*
X177981547Y-70683333D01*
X171171130Y-107783333D02*
X170694940Y-107450000D01*
X171171130Y-107211904D02*
X170171130Y-107211904D01*
X170171130Y-107592857D01*
X170218750Y-107688095D01*
X170266369Y-107735714D01*
X170361607Y-107783333D01*
X170504464Y-107783333D01*
X170599702Y-107735714D01*
X170647321Y-107688095D01*
X170694940Y-107592857D01*
X170694940Y-107211904D01*
X171171130Y-108735714D02*
X171171130Y-108164285D01*
X171171130Y-108450000D02*
X170171130Y-108450000D01*
X170313988Y-108354761D01*
X170409226Y-108259523D01*
X170456845Y-108164285D01*
X211208630Y-98480654D02*
X210208630Y-98480654D01*
X210208630Y-98718750D01*
X210256250Y-98861607D01*
X210351488Y-98956845D01*
X210446726Y-99004464D01*
X210637202Y-99052083D01*
X210780059Y-99052083D01*
X210970535Y-99004464D01*
X211065773Y-98956845D01*
X211161011Y-98861607D01*
X211208630Y-98718750D01*
X211208630Y-98480654D01*
X210541964Y-99909226D02*
X211208630Y-99909226D01*
X210161011Y-99671130D02*
X210875297Y-99433035D01*
X210875297Y-100052083D01*
X192158630Y-98480654D02*
X191158630Y-98480654D01*
X191158630Y-98718750D01*
X191206250Y-98861607D01*
X191301488Y-98956845D01*
X191396726Y-99004464D01*
X191587202Y-99052083D01*
X191730059Y-99052083D01*
X191920535Y-99004464D01*
X192015773Y-98956845D01*
X192111011Y-98861607D01*
X192158630Y-98718750D01*
X192158630Y-98480654D01*
X191158630Y-99385416D02*
X191158630Y-100004464D01*
X191539583Y-99671130D01*
X191539583Y-99813988D01*
X191587202Y-99909226D01*
X191634821Y-99956845D01*
X191730059Y-100004464D01*
X191968154Y-100004464D01*
X192063392Y-99956845D01*
X192111011Y-99909226D01*
X192158630Y-99813988D01*
X192158630Y-99528273D01*
X192111011Y-99433035D01*
X192063392Y-99385416D01*
X211208630Y-79430654D02*
X210208630Y-79430654D01*
X210208630Y-79668750D01*
X210256250Y-79811607D01*
X210351488Y-79906845D01*
X210446726Y-79954464D01*
X210637202Y-80002083D01*
X210780059Y-80002083D01*
X210970535Y-79954464D01*
X211065773Y-79906845D01*
X211161011Y-79811607D01*
X211208630Y-79668750D01*
X211208630Y-79430654D01*
X210303869Y-80383035D02*
X210256250Y-80430654D01*
X210208630Y-80525892D01*
X210208630Y-80763988D01*
X210256250Y-80859226D01*
X210303869Y-80906845D01*
X210399107Y-80954464D01*
X210494345Y-80954464D01*
X210637202Y-80906845D01*
X211208630Y-80335416D01*
X211208630Y-80954464D01*
X192158630Y-79430654D02*
X191158630Y-79430654D01*
X191158630Y-79668750D01*
X191206250Y-79811607D01*
X191301488Y-79906845D01*
X191396726Y-79954464D01*
X191587202Y-80002083D01*
X191730059Y-80002083D01*
X191920535Y-79954464D01*
X192015773Y-79906845D01*
X192111011Y-79811607D01*
X192158630Y-79668750D01*
X192158630Y-79430654D01*
X192158630Y-80954464D02*
X192158630Y-80383035D01*
X192158630Y-80668750D02*
X191158630Y-80668750D01*
X191301488Y-80573511D01*
X191396726Y-80478273D01*
X191444345Y-80383035D01*
X144757142Y-95877083D02*
X144804761Y-95829464D01*
X144852380Y-95686607D01*
X144852380Y-95591369D01*
X144804761Y-95448511D01*
X144709523Y-95353273D01*
X144614285Y-95305654D01*
X144423809Y-95258035D01*
X144280952Y-95258035D01*
X144090476Y-95305654D01*
X143995238Y-95353273D01*
X143900000Y-95448511D01*
X143852380Y-95591369D01*
X143852380Y-95686607D01*
X143900000Y-95829464D01*
X143947619Y-95877083D01*
X143852380Y-96210416D02*
X143852380Y-96877083D01*
X144852380Y-96448511D01*
X154567892Y-87050583D02*
X154615511Y-87002964D01*
X154663130Y-86860107D01*
X154663130Y-86764869D01*
X154615511Y-86622011D01*
X154520273Y-86526773D01*
X154425035Y-86479154D01*
X154234559Y-86431535D01*
X154091702Y-86431535D01*
X153901226Y-86479154D01*
X153805988Y-86526773D01*
X153710750Y-86622011D01*
X153663130Y-86764869D01*
X153663130Y-86860107D01*
X153710750Y-87002964D01*
X153758369Y-87050583D01*
X153663130Y-87907726D02*
X153663130Y-87717250D01*
X153710750Y-87622011D01*
X153758369Y-87574392D01*
X153901226Y-87479154D01*
X154091702Y-87431535D01*
X154472654Y-87431535D01*
X154567892Y-87479154D01*
X154615511Y-87526773D01*
X154663130Y-87622011D01*
X154663130Y-87812488D01*
X154615511Y-87907726D01*
X154567892Y-87955345D01*
X154472654Y-88002964D01*
X154234559Y-88002964D01*
X154139321Y-87955345D01*
X154091702Y-87907726D01*
X154044083Y-87812488D01*
X154044083Y-87622011D01*
X154091702Y-87526773D01*
X154139321Y-87479154D01*
X154234559Y-87431535D01*
X166535642Y-87050583D02*
X166583261Y-87002964D01*
X166630880Y-86860107D01*
X166630880Y-86764869D01*
X166583261Y-86622011D01*
X166488023Y-86526773D01*
X166392785Y-86479154D01*
X166202309Y-86431535D01*
X166059452Y-86431535D01*
X165868976Y-86479154D01*
X165773738Y-86526773D01*
X165678500Y-86622011D01*
X165630880Y-86764869D01*
X165630880Y-86860107D01*
X165678500Y-87002964D01*
X165726119Y-87050583D01*
X165630880Y-87955345D02*
X165630880Y-87479154D01*
X166107071Y-87431535D01*
X166059452Y-87479154D01*
X166011833Y-87574392D01*
X166011833Y-87812488D01*
X166059452Y-87907726D01*
X166107071Y-87955345D01*
X166202309Y-88002964D01*
X166440404Y-88002964D01*
X166535642Y-87955345D01*
X166583261Y-87907726D01*
X166630880Y-87812488D01*
X166630880Y-87574392D01*
X166583261Y-87479154D01*
X166535642Y-87431535D01*
X147932142Y-105116333D02*
X147979761Y-105068714D01*
X148027380Y-104925857D01*
X148027380Y-104830619D01*
X147979761Y-104687761D01*
X147884523Y-104592523D01*
X147789285Y-104544904D01*
X147598809Y-104497285D01*
X147455952Y-104497285D01*
X147265476Y-104544904D01*
X147170238Y-104592523D01*
X147075000Y-104687761D01*
X147027380Y-104830619D01*
X147027380Y-104925857D01*
X147075000Y-105068714D01*
X147122619Y-105116333D01*
X147360714Y-105973476D02*
X148027380Y-105973476D01*
X146979761Y-105735380D02*
X147694047Y-105497285D01*
X147694047Y-106116333D01*
X163234666Y-109038392D02*
X163282285Y-109086011D01*
X163425142Y-109133630D01*
X163520380Y-109133630D01*
X163663238Y-109086011D01*
X163758476Y-108990773D01*
X163806095Y-108895535D01*
X163853714Y-108705059D01*
X163853714Y-108562202D01*
X163806095Y-108371726D01*
X163758476Y-108276488D01*
X163663238Y-108181250D01*
X163520380Y-108133630D01*
X163425142Y-108133630D01*
X163282285Y-108181250D01*
X163234666Y-108228869D01*
X162901333Y-108133630D02*
X162282285Y-108133630D01*
X162615619Y-108514583D01*
X162472761Y-108514583D01*
X162377523Y-108562202D01*
X162329904Y-108609821D01*
X162282285Y-108705059D01*
X162282285Y-108943154D01*
X162329904Y-109038392D01*
X162377523Y-109086011D01*
X162472761Y-109133630D01*
X162758476Y-109133630D01*
X162853714Y-109086011D01*
X162901333Y-109038392D01*
X171012392Y-95940583D02*
X171060011Y-95892964D01*
X171107630Y-95750107D01*
X171107630Y-95654869D01*
X171060011Y-95512011D01*
X170964773Y-95416773D01*
X170869535Y-95369154D01*
X170679059Y-95321535D01*
X170536202Y-95321535D01*
X170345726Y-95369154D01*
X170250488Y-95416773D01*
X170155250Y-95512011D01*
X170107630Y-95654869D01*
X170107630Y-95750107D01*
X170155250Y-95892964D01*
X170202869Y-95940583D01*
X170202869Y-96321535D02*
X170155250Y-96369154D01*
X170107630Y-96464392D01*
X170107630Y-96702488D01*
X170155250Y-96797726D01*
X170202869Y-96845345D01*
X170298107Y-96892964D01*
X170393345Y-96892964D01*
X170536202Y-96845345D01*
X171107630Y-96273916D01*
X171107630Y-96892964D01*
X153391142Y-92035333D02*
X153438761Y-91987714D01*
X153486380Y-91844857D01*
X153486380Y-91749619D01*
X153438761Y-91606761D01*
X153343523Y-91511523D01*
X153248285Y-91463904D01*
X153057809Y-91416285D01*
X152914952Y-91416285D01*
X152724476Y-91463904D01*
X152629238Y-91511523D01*
X152534000Y-91606761D01*
X152486380Y-91749619D01*
X152486380Y-91844857D01*
X152534000Y-91987714D01*
X152581619Y-92035333D01*
X153486380Y-92987714D02*
X153486380Y-92416285D01*
X153486380Y-92702000D02*
X152486380Y-92702000D01*
X152629238Y-92606761D01*
X152724476Y-92511523D01*
X152772095Y-92416285D01*
%LPC*%
D12*
X232568750Y-166687500D03*
X146050000Y-122237500D03*
X146050000Y-166687500D03*
X232568750Y-122237500D03*
D13*
X212718650Y-118713250D03*
X213988650Y-118713250D03*
X215258650Y-118713250D03*
X211448650Y-118713250D03*
X210178650Y-118713250D03*
X212725000Y-115443000D03*
X211455000Y-115443000D03*
X210185000Y-115443000D03*
X213995000Y-115443000D03*
X215265000Y-115443000D03*
X163347400Y-118713250D03*
X164617400Y-118713250D03*
X168427400Y-118713250D03*
X167157400Y-118713250D03*
X165887400Y-118713250D03*
X168433750Y-115443000D03*
X167163750Y-115443000D03*
X163353750Y-115443000D03*
X164623750Y-115443000D03*
X165893750Y-115443000D03*
D12*
X232568750Y-111918750D03*
X146050000Y-111918750D03*
X232568750Y-67468750D03*
X146050000Y-67468750D03*
D14*
X226028250Y-94234000D03*
X213101250Y-96774000D03*
D15*
X225266250Y-99314000D03*
X215106250Y-99314000D03*
D16*
X216376250Y-96774000D03*
D17*
X220186250Y-99314000D03*
D16*
X222726250Y-94234000D03*
D14*
X206978250Y-94234000D03*
X194051250Y-96774000D03*
D15*
X206216250Y-99314000D03*
X196056250Y-99314000D03*
D16*
X197326250Y-96774000D03*
D17*
X201136250Y-99314000D03*
D16*
X203676250Y-94234000D03*
D14*
X187928250Y-94234000D03*
X175001250Y-96774000D03*
D15*
X187166250Y-99314000D03*
X177006250Y-99314000D03*
D16*
X178276250Y-96774000D03*
D17*
X182086250Y-99314000D03*
D16*
X184626250Y-94234000D03*
D14*
X206978250Y-75184000D03*
X194051250Y-77724000D03*
D15*
X206216250Y-80264000D03*
X196056250Y-80264000D03*
D16*
X197326250Y-77724000D03*
D17*
X201136250Y-80264000D03*
D16*
X203676250Y-75184000D03*
D14*
X187928250Y-75184000D03*
X175001250Y-77724000D03*
D15*
X187166250Y-80264000D03*
X177006250Y-80264000D03*
D16*
X178276250Y-77724000D03*
D17*
X182086250Y-80264000D03*
D16*
X184626250Y-75184000D03*
D18*
X217678000Y-87757000D03*
D19*
X220178000Y-87757000D03*
X222678000Y-87757000D03*
D20*
X214578000Y-80257000D03*
X225778000Y-80257000D03*
D19*
X217678000Y-73257000D03*
X222678000Y-73257000D03*
D21*
X159972250Y-74148250D03*
D22*
X157972250Y-73948250D03*
X159972250Y-75848250D03*
X157972250Y-75848250D03*
D23*
X162260750Y-70941000D03*
X155810750Y-70941000D03*
X161485750Y-70941000D03*
X156585750Y-70941000D03*
D24*
X157285750Y-70941000D03*
X160785750Y-70941000D03*
X157785750Y-70941000D03*
X160285750Y-70941000D03*
X158285750Y-70941000D03*
X159785750Y-70941000D03*
X159285750Y-70941000D03*
X158785750Y-70941000D03*
D25*
X161925750Y-69496000D03*
X156145750Y-69496000D03*
D26*
X154715750Y-70026000D03*
X163355750Y-70026000D03*
D27*
X154715750Y-65846000D03*
X163355750Y-65846000D03*
D28*
G36*
X161067891Y-79299047D02*
G01*
X161094028Y-79302924D01*
X161119659Y-79309344D01*
X161144538Y-79318245D01*
X161168424Y-79329543D01*
X161191087Y-79343127D01*
X161212310Y-79358867D01*
X161231889Y-79376611D01*
X161249633Y-79396190D01*
X161265373Y-79417413D01*
X161278957Y-79440076D01*
X161290255Y-79463962D01*
X161299156Y-79488841D01*
X161305576Y-79514472D01*
X161309453Y-79540609D01*
X161310750Y-79567000D01*
X161310750Y-80105500D01*
X161309453Y-80131891D01*
X161305576Y-80158028D01*
X161299156Y-80183659D01*
X161290255Y-80208538D01*
X161278957Y-80232424D01*
X161265373Y-80255087D01*
X161249633Y-80276310D01*
X161231889Y-80295889D01*
X161212310Y-80313633D01*
X161191087Y-80329373D01*
X161168424Y-80342957D01*
X161144538Y-80354255D01*
X161119659Y-80363156D01*
X161094028Y-80369576D01*
X161067891Y-80373453D01*
X161041500Y-80374750D01*
X160078000Y-80374750D01*
X160051609Y-80373453D01*
X160025472Y-80369576D01*
X159999841Y-80363156D01*
X159974962Y-80354255D01*
X159951076Y-80342957D01*
X159928413Y-80329373D01*
X159907190Y-80313633D01*
X159887611Y-80295889D01*
X159869867Y-80276310D01*
X159854127Y-80255087D01*
X159840543Y-80232424D01*
X159829245Y-80208538D01*
X159820344Y-80183659D01*
X159813924Y-80158028D01*
X159810047Y-80131891D01*
X159808750Y-80105500D01*
X159808750Y-79567000D01*
X159810047Y-79540609D01*
X159813924Y-79514472D01*
X159820344Y-79488841D01*
X159829245Y-79463962D01*
X159840543Y-79440076D01*
X159854127Y-79417413D01*
X159869867Y-79396190D01*
X159887611Y-79376611D01*
X159907190Y-79358867D01*
X159928413Y-79343127D01*
X159951076Y-79329543D01*
X159974962Y-79318245D01*
X159999841Y-79309344D01*
X160025472Y-79302924D01*
X160051609Y-79299047D01*
X160078000Y-79297750D01*
X161041500Y-79297750D01*
X161067891Y-79299047D01*
X161067891Y-79299047D01*
G37*
D29*
X160559750Y-79836250D03*
D28*
G36*
X161067891Y-77424047D02*
G01*
X161094028Y-77427924D01*
X161119659Y-77434344D01*
X161144538Y-77443245D01*
X161168424Y-77454543D01*
X161191087Y-77468127D01*
X161212310Y-77483867D01*
X161231889Y-77501611D01*
X161249633Y-77521190D01*
X161265373Y-77542413D01*
X161278957Y-77565076D01*
X161290255Y-77588962D01*
X161299156Y-77613841D01*
X161305576Y-77639472D01*
X161309453Y-77665609D01*
X161310750Y-77692000D01*
X161310750Y-78230500D01*
X161309453Y-78256891D01*
X161305576Y-78283028D01*
X161299156Y-78308659D01*
X161290255Y-78333538D01*
X161278957Y-78357424D01*
X161265373Y-78380087D01*
X161249633Y-78401310D01*
X161231889Y-78420889D01*
X161212310Y-78438633D01*
X161191087Y-78454373D01*
X161168424Y-78467957D01*
X161144538Y-78479255D01*
X161119659Y-78488156D01*
X161094028Y-78494576D01*
X161067891Y-78498453D01*
X161041500Y-78499750D01*
X160078000Y-78499750D01*
X160051609Y-78498453D01*
X160025472Y-78494576D01*
X159999841Y-78488156D01*
X159974962Y-78479255D01*
X159951076Y-78467957D01*
X159928413Y-78454373D01*
X159907190Y-78438633D01*
X159887611Y-78420889D01*
X159869867Y-78401310D01*
X159854127Y-78380087D01*
X159840543Y-78357424D01*
X159829245Y-78333538D01*
X159820344Y-78308659D01*
X159813924Y-78283028D01*
X159810047Y-78256891D01*
X159808750Y-78230500D01*
X159808750Y-77692000D01*
X159810047Y-77665609D01*
X159813924Y-77639472D01*
X159820344Y-77613841D01*
X159829245Y-77588962D01*
X159840543Y-77565076D01*
X159854127Y-77542413D01*
X159869867Y-77521190D01*
X159887611Y-77501611D01*
X159907190Y-77483867D01*
X159928413Y-77468127D01*
X159951076Y-77454543D01*
X159974962Y-77443245D01*
X159999841Y-77434344D01*
X160025472Y-77427924D01*
X160051609Y-77424047D01*
X160078000Y-77422750D01*
X161041500Y-77422750D01*
X161067891Y-77424047D01*
X161067891Y-77424047D01*
G37*
D29*
X160559750Y-77961250D03*
D28*
G36*
X157892891Y-79274047D02*
G01*
X157919028Y-79277924D01*
X157944659Y-79284344D01*
X157969538Y-79293245D01*
X157993424Y-79304543D01*
X158016087Y-79318127D01*
X158037310Y-79333867D01*
X158056889Y-79351611D01*
X158074633Y-79371190D01*
X158090373Y-79392413D01*
X158103957Y-79415076D01*
X158115255Y-79438962D01*
X158124156Y-79463841D01*
X158130576Y-79489472D01*
X158134453Y-79515609D01*
X158135750Y-79542000D01*
X158135750Y-80080500D01*
X158134453Y-80106891D01*
X158130576Y-80133028D01*
X158124156Y-80158659D01*
X158115255Y-80183538D01*
X158103957Y-80207424D01*
X158090373Y-80230087D01*
X158074633Y-80251310D01*
X158056889Y-80270889D01*
X158037310Y-80288633D01*
X158016087Y-80304373D01*
X157993424Y-80317957D01*
X157969538Y-80329255D01*
X157944659Y-80338156D01*
X157919028Y-80344576D01*
X157892891Y-80348453D01*
X157866500Y-80349750D01*
X156903000Y-80349750D01*
X156876609Y-80348453D01*
X156850472Y-80344576D01*
X156824841Y-80338156D01*
X156799962Y-80329255D01*
X156776076Y-80317957D01*
X156753413Y-80304373D01*
X156732190Y-80288633D01*
X156712611Y-80270889D01*
X156694867Y-80251310D01*
X156679127Y-80230087D01*
X156665543Y-80207424D01*
X156654245Y-80183538D01*
X156645344Y-80158659D01*
X156638924Y-80133028D01*
X156635047Y-80106891D01*
X156633750Y-80080500D01*
X156633750Y-79542000D01*
X156635047Y-79515609D01*
X156638924Y-79489472D01*
X156645344Y-79463841D01*
X156654245Y-79438962D01*
X156665543Y-79415076D01*
X156679127Y-79392413D01*
X156694867Y-79371190D01*
X156712611Y-79351611D01*
X156732190Y-79333867D01*
X156753413Y-79318127D01*
X156776076Y-79304543D01*
X156799962Y-79293245D01*
X156824841Y-79284344D01*
X156850472Y-79277924D01*
X156876609Y-79274047D01*
X156903000Y-79272750D01*
X157866500Y-79272750D01*
X157892891Y-79274047D01*
X157892891Y-79274047D01*
G37*
D29*
X157384750Y-79811250D03*
D28*
G36*
X157892891Y-77399047D02*
G01*
X157919028Y-77402924D01*
X157944659Y-77409344D01*
X157969538Y-77418245D01*
X157993424Y-77429543D01*
X158016087Y-77443127D01*
X158037310Y-77458867D01*
X158056889Y-77476611D01*
X158074633Y-77496190D01*
X158090373Y-77517413D01*
X158103957Y-77540076D01*
X158115255Y-77563962D01*
X158124156Y-77588841D01*
X158130576Y-77614472D01*
X158134453Y-77640609D01*
X158135750Y-77667000D01*
X158135750Y-78205500D01*
X158134453Y-78231891D01*
X158130576Y-78258028D01*
X158124156Y-78283659D01*
X158115255Y-78308538D01*
X158103957Y-78332424D01*
X158090373Y-78355087D01*
X158074633Y-78376310D01*
X158056889Y-78395889D01*
X158037310Y-78413633D01*
X158016087Y-78429373D01*
X157993424Y-78442957D01*
X157969538Y-78454255D01*
X157944659Y-78463156D01*
X157919028Y-78469576D01*
X157892891Y-78473453D01*
X157866500Y-78474750D01*
X156903000Y-78474750D01*
X156876609Y-78473453D01*
X156850472Y-78469576D01*
X156824841Y-78463156D01*
X156799962Y-78454255D01*
X156776076Y-78442957D01*
X156753413Y-78429373D01*
X156732190Y-78413633D01*
X156712611Y-78395889D01*
X156694867Y-78376310D01*
X156679127Y-78355087D01*
X156665543Y-78332424D01*
X156654245Y-78308538D01*
X156645344Y-78283659D01*
X156638924Y-78258028D01*
X156635047Y-78231891D01*
X156633750Y-78205500D01*
X156633750Y-77667000D01*
X156635047Y-77640609D01*
X156638924Y-77614472D01*
X156645344Y-77588841D01*
X156654245Y-77563962D01*
X156665543Y-77540076D01*
X156679127Y-77517413D01*
X156694867Y-77496190D01*
X156712611Y-77476611D01*
X156732190Y-77458867D01*
X156753413Y-77443127D01*
X156776076Y-77429543D01*
X156799962Y-77418245D01*
X156824841Y-77409344D01*
X156850472Y-77402924D01*
X156876609Y-77399047D01*
X156903000Y-77397750D01*
X157866500Y-77397750D01*
X157892891Y-77399047D01*
X157892891Y-77399047D01*
G37*
D29*
X157384750Y-77936250D03*
D28*
G36*
X154940141Y-76981297D02*
G01*
X154966278Y-76985174D01*
X154991909Y-76991594D01*
X155016788Y-77000495D01*
X155040674Y-77011793D01*
X155063337Y-77025377D01*
X155084560Y-77041117D01*
X155104139Y-77058861D01*
X155121883Y-77078440D01*
X155137623Y-77099663D01*
X155151207Y-77122326D01*
X155162505Y-77146212D01*
X155171406Y-77171091D01*
X155177826Y-77196722D01*
X155181703Y-77222859D01*
X155183000Y-77249250D01*
X155183000Y-77787750D01*
X155181703Y-77814141D01*
X155177826Y-77840278D01*
X155171406Y-77865909D01*
X155162505Y-77890788D01*
X155151207Y-77914674D01*
X155137623Y-77937337D01*
X155121883Y-77958560D01*
X155104139Y-77978139D01*
X155084560Y-77995883D01*
X155063337Y-78011623D01*
X155040674Y-78025207D01*
X155016788Y-78036505D01*
X154991909Y-78045406D01*
X154966278Y-78051826D01*
X154940141Y-78055703D01*
X154913750Y-78057000D01*
X153950250Y-78057000D01*
X153923859Y-78055703D01*
X153897722Y-78051826D01*
X153872091Y-78045406D01*
X153847212Y-78036505D01*
X153823326Y-78025207D01*
X153800663Y-78011623D01*
X153779440Y-77995883D01*
X153759861Y-77978139D01*
X153742117Y-77958560D01*
X153726377Y-77937337D01*
X153712793Y-77914674D01*
X153701495Y-77890788D01*
X153692594Y-77865909D01*
X153686174Y-77840278D01*
X153682297Y-77814141D01*
X153681000Y-77787750D01*
X153681000Y-77249250D01*
X153682297Y-77222859D01*
X153686174Y-77196722D01*
X153692594Y-77171091D01*
X153701495Y-77146212D01*
X153712793Y-77122326D01*
X153726377Y-77099663D01*
X153742117Y-77078440D01*
X153759861Y-77058861D01*
X153779440Y-77041117D01*
X153800663Y-77025377D01*
X153823326Y-77011793D01*
X153847212Y-77000495D01*
X153872091Y-76991594D01*
X153897722Y-76985174D01*
X153923859Y-76981297D01*
X153950250Y-76980000D01*
X154913750Y-76980000D01*
X154940141Y-76981297D01*
X154940141Y-76981297D01*
G37*
D29*
X154432000Y-77518500D03*
D28*
G36*
X154940141Y-75106297D02*
G01*
X154966278Y-75110174D01*
X154991909Y-75116594D01*
X155016788Y-75125495D01*
X155040674Y-75136793D01*
X155063337Y-75150377D01*
X155084560Y-75166117D01*
X155104139Y-75183861D01*
X155121883Y-75203440D01*
X155137623Y-75224663D01*
X155151207Y-75247326D01*
X155162505Y-75271212D01*
X155171406Y-75296091D01*
X155177826Y-75321722D01*
X155181703Y-75347859D01*
X155183000Y-75374250D01*
X155183000Y-75912750D01*
X155181703Y-75939141D01*
X155177826Y-75965278D01*
X155171406Y-75990909D01*
X155162505Y-76015788D01*
X155151207Y-76039674D01*
X155137623Y-76062337D01*
X155121883Y-76083560D01*
X155104139Y-76103139D01*
X155084560Y-76120883D01*
X155063337Y-76136623D01*
X155040674Y-76150207D01*
X155016788Y-76161505D01*
X154991909Y-76170406D01*
X154966278Y-76176826D01*
X154940141Y-76180703D01*
X154913750Y-76182000D01*
X153950250Y-76182000D01*
X153923859Y-76180703D01*
X153897722Y-76176826D01*
X153872091Y-76170406D01*
X153847212Y-76161505D01*
X153823326Y-76150207D01*
X153800663Y-76136623D01*
X153779440Y-76120883D01*
X153759861Y-76103139D01*
X153742117Y-76083560D01*
X153726377Y-76062337D01*
X153712793Y-76039674D01*
X153701495Y-76015788D01*
X153692594Y-75990909D01*
X153686174Y-75965278D01*
X153682297Y-75939141D01*
X153681000Y-75912750D01*
X153681000Y-75374250D01*
X153682297Y-75347859D01*
X153686174Y-75321722D01*
X153692594Y-75296091D01*
X153701495Y-75271212D01*
X153712793Y-75247326D01*
X153726377Y-75224663D01*
X153742117Y-75203440D01*
X153759861Y-75183861D01*
X153779440Y-75166117D01*
X153800663Y-75150377D01*
X153823326Y-75136793D01*
X153847212Y-75125495D01*
X153872091Y-75116594D01*
X153897722Y-75110174D01*
X153923859Y-75106297D01*
X153950250Y-75105000D01*
X154913750Y-75105000D01*
X154940141Y-75106297D01*
X154940141Y-75106297D01*
G37*
D29*
X154432000Y-75643500D03*
D28*
G36*
X163957141Y-76981297D02*
G01*
X163983278Y-76985174D01*
X164008909Y-76991594D01*
X164033788Y-77000495D01*
X164057674Y-77011793D01*
X164080337Y-77025377D01*
X164101560Y-77041117D01*
X164121139Y-77058861D01*
X164138883Y-77078440D01*
X164154623Y-77099663D01*
X164168207Y-77122326D01*
X164179505Y-77146212D01*
X164188406Y-77171091D01*
X164194826Y-77196722D01*
X164198703Y-77222859D01*
X164200000Y-77249250D01*
X164200000Y-77787750D01*
X164198703Y-77814141D01*
X164194826Y-77840278D01*
X164188406Y-77865909D01*
X164179505Y-77890788D01*
X164168207Y-77914674D01*
X164154623Y-77937337D01*
X164138883Y-77958560D01*
X164121139Y-77978139D01*
X164101560Y-77995883D01*
X164080337Y-78011623D01*
X164057674Y-78025207D01*
X164033788Y-78036505D01*
X164008909Y-78045406D01*
X163983278Y-78051826D01*
X163957141Y-78055703D01*
X163930750Y-78057000D01*
X162967250Y-78057000D01*
X162940859Y-78055703D01*
X162914722Y-78051826D01*
X162889091Y-78045406D01*
X162864212Y-78036505D01*
X162840326Y-78025207D01*
X162817663Y-78011623D01*
X162796440Y-77995883D01*
X162776861Y-77978139D01*
X162759117Y-77958560D01*
X162743377Y-77937337D01*
X162729793Y-77914674D01*
X162718495Y-77890788D01*
X162709594Y-77865909D01*
X162703174Y-77840278D01*
X162699297Y-77814141D01*
X162698000Y-77787750D01*
X162698000Y-77249250D01*
X162699297Y-77222859D01*
X162703174Y-77196722D01*
X162709594Y-77171091D01*
X162718495Y-77146212D01*
X162729793Y-77122326D01*
X162743377Y-77099663D01*
X162759117Y-77078440D01*
X162776861Y-77058861D01*
X162796440Y-77041117D01*
X162817663Y-77025377D01*
X162840326Y-77011793D01*
X162864212Y-77000495D01*
X162889091Y-76991594D01*
X162914722Y-76985174D01*
X162940859Y-76981297D01*
X162967250Y-76980000D01*
X163930750Y-76980000D01*
X163957141Y-76981297D01*
X163957141Y-76981297D01*
G37*
D29*
X163449000Y-77518500D03*
D28*
G36*
X163957141Y-75106297D02*
G01*
X163983278Y-75110174D01*
X164008909Y-75116594D01*
X164033788Y-75125495D01*
X164057674Y-75136793D01*
X164080337Y-75150377D01*
X164101560Y-75166117D01*
X164121139Y-75183861D01*
X164138883Y-75203440D01*
X164154623Y-75224663D01*
X164168207Y-75247326D01*
X164179505Y-75271212D01*
X164188406Y-75296091D01*
X164194826Y-75321722D01*
X164198703Y-75347859D01*
X164200000Y-75374250D01*
X164200000Y-75912750D01*
X164198703Y-75939141D01*
X164194826Y-75965278D01*
X164188406Y-75990909D01*
X164179505Y-76015788D01*
X164168207Y-76039674D01*
X164154623Y-76062337D01*
X164138883Y-76083560D01*
X164121139Y-76103139D01*
X164101560Y-76120883D01*
X164080337Y-76136623D01*
X164057674Y-76150207D01*
X164033788Y-76161505D01*
X164008909Y-76170406D01*
X163983278Y-76176826D01*
X163957141Y-76180703D01*
X163930750Y-76182000D01*
X162967250Y-76182000D01*
X162940859Y-76180703D01*
X162914722Y-76176826D01*
X162889091Y-76170406D01*
X162864212Y-76161505D01*
X162840326Y-76150207D01*
X162817663Y-76136623D01*
X162796440Y-76120883D01*
X162776861Y-76103139D01*
X162759117Y-76083560D01*
X162743377Y-76062337D01*
X162729793Y-76039674D01*
X162718495Y-76015788D01*
X162709594Y-75990909D01*
X162703174Y-75965278D01*
X162699297Y-75939141D01*
X162698000Y-75912750D01*
X162698000Y-75374250D01*
X162699297Y-75347859D01*
X162703174Y-75321722D01*
X162709594Y-75296091D01*
X162718495Y-75271212D01*
X162729793Y-75247326D01*
X162743377Y-75224663D01*
X162759117Y-75203440D01*
X162776861Y-75183861D01*
X162796440Y-75166117D01*
X162817663Y-75150377D01*
X162840326Y-75136793D01*
X162864212Y-75125495D01*
X162889091Y-75116594D01*
X162914722Y-75110174D01*
X162940859Y-75106297D01*
X162967250Y-75105000D01*
X163930750Y-75105000D01*
X163957141Y-75106297D01*
X163957141Y-75106297D01*
G37*
D29*
X163449000Y-75643500D03*
D28*
G36*
X149907104Y-76506552D02*
G01*
X149933352Y-76510446D01*
X149959093Y-76516893D01*
X149984078Y-76525833D01*
X150008066Y-76537178D01*
X150030826Y-76550821D01*
X150052140Y-76566628D01*
X150071802Y-76584448D01*
X150089622Y-76604110D01*
X150105429Y-76625424D01*
X150119072Y-76648184D01*
X150130417Y-76672172D01*
X150139357Y-76697157D01*
X150145804Y-76722898D01*
X150149698Y-76749146D01*
X150151000Y-76775650D01*
X150151000Y-77586850D01*
X150149698Y-77613354D01*
X150145804Y-77639602D01*
X150139357Y-77665343D01*
X150130417Y-77690328D01*
X150119072Y-77714316D01*
X150105429Y-77737076D01*
X150089622Y-77758390D01*
X150071802Y-77778052D01*
X150052140Y-77795872D01*
X150030826Y-77811679D01*
X150008066Y-77825322D01*
X149984078Y-77836667D01*
X149959093Y-77845607D01*
X149933352Y-77852054D01*
X149907104Y-77855948D01*
X149880600Y-77857250D01*
X148569400Y-77857250D01*
X148542896Y-77855948D01*
X148516648Y-77852054D01*
X148490907Y-77845607D01*
X148465922Y-77836667D01*
X148441934Y-77825322D01*
X148419174Y-77811679D01*
X148397860Y-77795872D01*
X148378198Y-77778052D01*
X148360378Y-77758390D01*
X148344571Y-77737076D01*
X148330928Y-77714316D01*
X148319583Y-77690328D01*
X148310643Y-77665343D01*
X148304196Y-77639602D01*
X148300302Y-77613354D01*
X148299000Y-77586850D01*
X148299000Y-76775650D01*
X148300302Y-76749146D01*
X148304196Y-76722898D01*
X148310643Y-76697157D01*
X148319583Y-76672172D01*
X148330928Y-76648184D01*
X148344571Y-76625424D01*
X148360378Y-76604110D01*
X148378198Y-76584448D01*
X148397860Y-76566628D01*
X148419174Y-76550821D01*
X148441934Y-76537178D01*
X148465922Y-76525833D01*
X148490907Y-76516893D01*
X148516648Y-76510446D01*
X148542896Y-76506552D01*
X148569400Y-76505250D01*
X149880600Y-76505250D01*
X149907104Y-76506552D01*
X149907104Y-76506552D01*
G37*
D30*
X149225000Y-77181250D03*
D28*
G36*
X149907104Y-79306552D02*
G01*
X149933352Y-79310446D01*
X149959093Y-79316893D01*
X149984078Y-79325833D01*
X150008066Y-79337178D01*
X150030826Y-79350821D01*
X150052140Y-79366628D01*
X150071802Y-79384448D01*
X150089622Y-79404110D01*
X150105429Y-79425424D01*
X150119072Y-79448184D01*
X150130417Y-79472172D01*
X150139357Y-79497157D01*
X150145804Y-79522898D01*
X150149698Y-79549146D01*
X150151000Y-79575650D01*
X150151000Y-80386850D01*
X150149698Y-80413354D01*
X150145804Y-80439602D01*
X150139357Y-80465343D01*
X150130417Y-80490328D01*
X150119072Y-80514316D01*
X150105429Y-80537076D01*
X150089622Y-80558390D01*
X150071802Y-80578052D01*
X150052140Y-80595872D01*
X150030826Y-80611679D01*
X150008066Y-80625322D01*
X149984078Y-80636667D01*
X149959093Y-80645607D01*
X149933352Y-80652054D01*
X149907104Y-80655948D01*
X149880600Y-80657250D01*
X148569400Y-80657250D01*
X148542896Y-80655948D01*
X148516648Y-80652054D01*
X148490907Y-80645607D01*
X148465922Y-80636667D01*
X148441934Y-80625322D01*
X148419174Y-80611679D01*
X148397860Y-80595872D01*
X148378198Y-80578052D01*
X148360378Y-80558390D01*
X148344571Y-80537076D01*
X148330928Y-80514316D01*
X148319583Y-80490328D01*
X148310643Y-80465343D01*
X148304196Y-80439602D01*
X148300302Y-80413354D01*
X148299000Y-80386850D01*
X148299000Y-79575650D01*
X148300302Y-79549146D01*
X148304196Y-79522898D01*
X148310643Y-79497157D01*
X148319583Y-79472172D01*
X148330928Y-79448184D01*
X148344571Y-79425424D01*
X148360378Y-79404110D01*
X148378198Y-79384448D01*
X148397860Y-79366628D01*
X148419174Y-79350821D01*
X148441934Y-79337178D01*
X148465922Y-79325833D01*
X148490907Y-79316893D01*
X148516648Y-79310446D01*
X148542896Y-79306552D01*
X148569400Y-79305250D01*
X149880600Y-79305250D01*
X149907104Y-79306552D01*
X149907104Y-79306552D01*
G37*
D30*
X149225000Y-79981250D03*
D31*
X207237500Y-86506250D03*
X207237500Y-89706250D03*
X202337500Y-86506250D03*
X202337500Y-89706250D03*
X171381250Y-89738000D03*
X171381250Y-86538000D03*
X176281250Y-89738000D03*
X176281250Y-86538000D03*
D32*
X227806250Y-97568750D03*
X227806250Y-100868750D03*
X226218750Y-73756250D03*
X226218750Y-77056250D03*
D33*
X161183500Y-86272000D03*
X158983500Y-86272000D03*
X158983500Y-87972000D03*
X161183500Y-87972000D03*
D34*
X155480250Y-106569750D03*
X156280250Y-106569750D03*
X157080250Y-106569750D03*
X157880250Y-106569750D03*
X158680250Y-106569750D03*
X159480250Y-106569750D03*
X160280250Y-106569750D03*
X161080250Y-106569750D03*
X161880250Y-106569750D03*
X162680250Y-106569750D03*
X163480250Y-106569750D03*
D35*
X165180250Y-104869750D03*
X165180250Y-104069750D03*
X165180250Y-103269750D03*
X165180250Y-102469750D03*
X165180250Y-101669750D03*
X165180250Y-100869750D03*
X165180250Y-100069750D03*
X165180250Y-99269750D03*
X165180250Y-98469750D03*
X165180250Y-97669750D03*
X165180250Y-96869750D03*
D34*
X163480250Y-95169750D03*
X162680250Y-95169750D03*
X161880250Y-95169750D03*
X161080250Y-95169750D03*
X160280250Y-95169750D03*
X159480250Y-95169750D03*
X158680250Y-95169750D03*
X157880250Y-95169750D03*
X157080250Y-95169750D03*
X156280250Y-95169750D03*
X155480250Y-95169750D03*
D35*
X153780250Y-96869750D03*
X153780250Y-97669750D03*
X153780250Y-98469750D03*
X153780250Y-99269750D03*
X153780250Y-100069750D03*
X153780250Y-100869750D03*
X153780250Y-101669750D03*
X153780250Y-102469750D03*
X153780250Y-103269750D03*
X153780250Y-104069750D03*
X153780250Y-104869750D03*
D36*
X168012500Y-73743750D03*
X171712500Y-67543750D03*
X171712500Y-73743750D03*
X168012500Y-67543750D03*
D28*
G36*
X176720641Y-68375297D02*
G01*
X176746778Y-68379174D01*
X176772409Y-68385594D01*
X176797288Y-68394495D01*
X176821174Y-68405793D01*
X176843837Y-68419377D01*
X176865060Y-68435117D01*
X176884639Y-68452861D01*
X176902383Y-68472440D01*
X176918123Y-68493663D01*
X176931707Y-68516326D01*
X176943005Y-68540212D01*
X176951906Y-68565091D01*
X176958326Y-68590722D01*
X176962203Y-68616859D01*
X176963500Y-68643250D01*
X176963500Y-69181750D01*
X176962203Y-69208141D01*
X176958326Y-69234278D01*
X176951906Y-69259909D01*
X176943005Y-69284788D01*
X176931707Y-69308674D01*
X176918123Y-69331337D01*
X176902383Y-69352560D01*
X176884639Y-69372139D01*
X176865060Y-69389883D01*
X176843837Y-69405623D01*
X176821174Y-69419207D01*
X176797288Y-69430505D01*
X176772409Y-69439406D01*
X176746778Y-69445826D01*
X176720641Y-69449703D01*
X176694250Y-69451000D01*
X175730750Y-69451000D01*
X175704359Y-69449703D01*
X175678222Y-69445826D01*
X175652591Y-69439406D01*
X175627712Y-69430505D01*
X175603826Y-69419207D01*
X175581163Y-69405623D01*
X175559940Y-69389883D01*
X175540361Y-69372139D01*
X175522617Y-69352560D01*
X175506877Y-69331337D01*
X175493293Y-69308674D01*
X175481995Y-69284788D01*
X175473094Y-69259909D01*
X175466674Y-69234278D01*
X175462797Y-69208141D01*
X175461500Y-69181750D01*
X175461500Y-68643250D01*
X175462797Y-68616859D01*
X175466674Y-68590722D01*
X175473094Y-68565091D01*
X175481995Y-68540212D01*
X175493293Y-68516326D01*
X175506877Y-68493663D01*
X175522617Y-68472440D01*
X175540361Y-68452861D01*
X175559940Y-68435117D01*
X175581163Y-68419377D01*
X175603826Y-68405793D01*
X175627712Y-68394495D01*
X175652591Y-68385594D01*
X175678222Y-68379174D01*
X175704359Y-68375297D01*
X175730750Y-68374000D01*
X176694250Y-68374000D01*
X176720641Y-68375297D01*
X176720641Y-68375297D01*
G37*
D29*
X176212500Y-68912500D03*
D28*
G36*
X176720641Y-70250297D02*
G01*
X176746778Y-70254174D01*
X176772409Y-70260594D01*
X176797288Y-70269495D01*
X176821174Y-70280793D01*
X176843837Y-70294377D01*
X176865060Y-70310117D01*
X176884639Y-70327861D01*
X176902383Y-70347440D01*
X176918123Y-70368663D01*
X176931707Y-70391326D01*
X176943005Y-70415212D01*
X176951906Y-70440091D01*
X176958326Y-70465722D01*
X176962203Y-70491859D01*
X176963500Y-70518250D01*
X176963500Y-71056750D01*
X176962203Y-71083141D01*
X176958326Y-71109278D01*
X176951906Y-71134909D01*
X176943005Y-71159788D01*
X176931707Y-71183674D01*
X176918123Y-71206337D01*
X176902383Y-71227560D01*
X176884639Y-71247139D01*
X176865060Y-71264883D01*
X176843837Y-71280623D01*
X176821174Y-71294207D01*
X176797288Y-71305505D01*
X176772409Y-71314406D01*
X176746778Y-71320826D01*
X176720641Y-71324703D01*
X176694250Y-71326000D01*
X175730750Y-71326000D01*
X175704359Y-71324703D01*
X175678222Y-71320826D01*
X175652591Y-71314406D01*
X175627712Y-71305505D01*
X175603826Y-71294207D01*
X175581163Y-71280623D01*
X175559940Y-71264883D01*
X175540361Y-71247139D01*
X175522617Y-71227560D01*
X175506877Y-71206337D01*
X175493293Y-71183674D01*
X175481995Y-71159788D01*
X175473094Y-71134909D01*
X175466674Y-71109278D01*
X175462797Y-71083141D01*
X175461500Y-71056750D01*
X175461500Y-70518250D01*
X175462797Y-70491859D01*
X175466674Y-70465722D01*
X175473094Y-70440091D01*
X175481995Y-70415212D01*
X175493293Y-70391326D01*
X175506877Y-70368663D01*
X175522617Y-70347440D01*
X175540361Y-70327861D01*
X175559940Y-70310117D01*
X175581163Y-70294377D01*
X175603826Y-70280793D01*
X175627712Y-70269495D01*
X175652591Y-70260594D01*
X175678222Y-70254174D01*
X175704359Y-70250297D01*
X175730750Y-70249000D01*
X176694250Y-70249000D01*
X176720641Y-70250297D01*
X176720641Y-70250297D01*
G37*
D29*
X176212500Y-70787500D03*
D28*
G36*
X169576891Y-106475297D02*
G01*
X169603028Y-106479174D01*
X169628659Y-106485594D01*
X169653538Y-106494495D01*
X169677424Y-106505793D01*
X169700087Y-106519377D01*
X169721310Y-106535117D01*
X169740889Y-106552861D01*
X169758633Y-106572440D01*
X169774373Y-106593663D01*
X169787957Y-106616326D01*
X169799255Y-106640212D01*
X169808156Y-106665091D01*
X169814576Y-106690722D01*
X169818453Y-106716859D01*
X169819750Y-106743250D01*
X169819750Y-107281750D01*
X169818453Y-107308141D01*
X169814576Y-107334278D01*
X169808156Y-107359909D01*
X169799255Y-107384788D01*
X169787957Y-107408674D01*
X169774373Y-107431337D01*
X169758633Y-107452560D01*
X169740889Y-107472139D01*
X169721310Y-107489883D01*
X169700087Y-107505623D01*
X169677424Y-107519207D01*
X169653538Y-107530505D01*
X169628659Y-107539406D01*
X169603028Y-107545826D01*
X169576891Y-107549703D01*
X169550500Y-107551000D01*
X168587000Y-107551000D01*
X168560609Y-107549703D01*
X168534472Y-107545826D01*
X168508841Y-107539406D01*
X168483962Y-107530505D01*
X168460076Y-107519207D01*
X168437413Y-107505623D01*
X168416190Y-107489883D01*
X168396611Y-107472139D01*
X168378867Y-107452560D01*
X168363127Y-107431337D01*
X168349543Y-107408674D01*
X168338245Y-107384788D01*
X168329344Y-107359909D01*
X168322924Y-107334278D01*
X168319047Y-107308141D01*
X168317750Y-107281750D01*
X168317750Y-106743250D01*
X168319047Y-106716859D01*
X168322924Y-106690722D01*
X168329344Y-106665091D01*
X168338245Y-106640212D01*
X168349543Y-106616326D01*
X168363127Y-106593663D01*
X168378867Y-106572440D01*
X168396611Y-106552861D01*
X168416190Y-106535117D01*
X168437413Y-106519377D01*
X168460076Y-106505793D01*
X168483962Y-106494495D01*
X168508841Y-106485594D01*
X168534472Y-106479174D01*
X168560609Y-106475297D01*
X168587000Y-106474000D01*
X169550500Y-106474000D01*
X169576891Y-106475297D01*
X169576891Y-106475297D01*
G37*
D29*
X169068750Y-107012500D03*
D28*
G36*
X169576891Y-108350297D02*
G01*
X169603028Y-108354174D01*
X169628659Y-108360594D01*
X169653538Y-108369495D01*
X169677424Y-108380793D01*
X169700087Y-108394377D01*
X169721310Y-108410117D01*
X169740889Y-108427861D01*
X169758633Y-108447440D01*
X169774373Y-108468663D01*
X169787957Y-108491326D01*
X169799255Y-108515212D01*
X169808156Y-108540091D01*
X169814576Y-108565722D01*
X169818453Y-108591859D01*
X169819750Y-108618250D01*
X169819750Y-109156750D01*
X169818453Y-109183141D01*
X169814576Y-109209278D01*
X169808156Y-109234909D01*
X169799255Y-109259788D01*
X169787957Y-109283674D01*
X169774373Y-109306337D01*
X169758633Y-109327560D01*
X169740889Y-109347139D01*
X169721310Y-109364883D01*
X169700087Y-109380623D01*
X169677424Y-109394207D01*
X169653538Y-109405505D01*
X169628659Y-109414406D01*
X169603028Y-109420826D01*
X169576891Y-109424703D01*
X169550500Y-109426000D01*
X168587000Y-109426000D01*
X168560609Y-109424703D01*
X168534472Y-109420826D01*
X168508841Y-109414406D01*
X168483962Y-109405505D01*
X168460076Y-109394207D01*
X168437413Y-109380623D01*
X168416190Y-109364883D01*
X168396611Y-109347139D01*
X168378867Y-109327560D01*
X168363127Y-109306337D01*
X168349543Y-109283674D01*
X168338245Y-109259788D01*
X168329344Y-109234909D01*
X168322924Y-109209278D01*
X168319047Y-109183141D01*
X168317750Y-109156750D01*
X168317750Y-108618250D01*
X168319047Y-108591859D01*
X168322924Y-108565722D01*
X168329344Y-108540091D01*
X168338245Y-108515212D01*
X168349543Y-108491326D01*
X168363127Y-108468663D01*
X168378867Y-108447440D01*
X168396611Y-108427861D01*
X168416190Y-108410117D01*
X168437413Y-108394377D01*
X168460076Y-108380793D01*
X168483962Y-108369495D01*
X168508841Y-108360594D01*
X168534472Y-108354174D01*
X168560609Y-108350297D01*
X168587000Y-108349000D01*
X169550500Y-108349000D01*
X169576891Y-108350297D01*
X169576891Y-108350297D01*
G37*
D29*
X169068750Y-108887500D03*
D32*
X208756250Y-97568750D03*
X208756250Y-100868750D03*
X189706250Y-97568750D03*
X189706250Y-100868750D03*
X208756250Y-78518750D03*
X208756250Y-81818750D03*
X189706250Y-78518750D03*
X189706250Y-81818750D03*
D28*
G36*
X146558141Y-96444047D02*
G01*
X146584278Y-96447924D01*
X146609909Y-96454344D01*
X146634788Y-96463245D01*
X146658674Y-96474543D01*
X146681337Y-96488127D01*
X146702560Y-96503867D01*
X146722139Y-96521611D01*
X146739883Y-96541190D01*
X146755623Y-96562413D01*
X146769207Y-96585076D01*
X146780505Y-96608962D01*
X146789406Y-96633841D01*
X146795826Y-96659472D01*
X146799703Y-96685609D01*
X146801000Y-96712000D01*
X146801000Y-97250500D01*
X146799703Y-97276891D01*
X146795826Y-97303028D01*
X146789406Y-97328659D01*
X146780505Y-97353538D01*
X146769207Y-97377424D01*
X146755623Y-97400087D01*
X146739883Y-97421310D01*
X146722139Y-97440889D01*
X146702560Y-97458633D01*
X146681337Y-97474373D01*
X146658674Y-97487957D01*
X146634788Y-97499255D01*
X146609909Y-97508156D01*
X146584278Y-97514576D01*
X146558141Y-97518453D01*
X146531750Y-97519750D01*
X145568250Y-97519750D01*
X145541859Y-97518453D01*
X145515722Y-97514576D01*
X145490091Y-97508156D01*
X145465212Y-97499255D01*
X145441326Y-97487957D01*
X145418663Y-97474373D01*
X145397440Y-97458633D01*
X145377861Y-97440889D01*
X145360117Y-97421310D01*
X145344377Y-97400087D01*
X145330793Y-97377424D01*
X145319495Y-97353538D01*
X145310594Y-97328659D01*
X145304174Y-97303028D01*
X145300297Y-97276891D01*
X145299000Y-97250500D01*
X145299000Y-96712000D01*
X145300297Y-96685609D01*
X145304174Y-96659472D01*
X145310594Y-96633841D01*
X145319495Y-96608962D01*
X145330793Y-96585076D01*
X145344377Y-96562413D01*
X145360117Y-96541190D01*
X145377861Y-96521611D01*
X145397440Y-96503867D01*
X145418663Y-96488127D01*
X145441326Y-96474543D01*
X145465212Y-96463245D01*
X145490091Y-96454344D01*
X145515722Y-96447924D01*
X145541859Y-96444047D01*
X145568250Y-96442750D01*
X146531750Y-96442750D01*
X146558141Y-96444047D01*
X146558141Y-96444047D01*
G37*
D29*
X146050000Y-96981250D03*
D28*
G36*
X146558141Y-94569047D02*
G01*
X146584278Y-94572924D01*
X146609909Y-94579344D01*
X146634788Y-94588245D01*
X146658674Y-94599543D01*
X146681337Y-94613127D01*
X146702560Y-94628867D01*
X146722139Y-94646611D01*
X146739883Y-94666190D01*
X146755623Y-94687413D01*
X146769207Y-94710076D01*
X146780505Y-94733962D01*
X146789406Y-94758841D01*
X146795826Y-94784472D01*
X146799703Y-94810609D01*
X146801000Y-94837000D01*
X146801000Y-95375500D01*
X146799703Y-95401891D01*
X146795826Y-95428028D01*
X146789406Y-95453659D01*
X146780505Y-95478538D01*
X146769207Y-95502424D01*
X146755623Y-95525087D01*
X146739883Y-95546310D01*
X146722139Y-95565889D01*
X146702560Y-95583633D01*
X146681337Y-95599373D01*
X146658674Y-95612957D01*
X146634788Y-95624255D01*
X146609909Y-95633156D01*
X146584278Y-95639576D01*
X146558141Y-95643453D01*
X146531750Y-95644750D01*
X145568250Y-95644750D01*
X145541859Y-95643453D01*
X145515722Y-95639576D01*
X145490091Y-95633156D01*
X145465212Y-95624255D01*
X145441326Y-95612957D01*
X145418663Y-95599373D01*
X145397440Y-95583633D01*
X145377861Y-95565889D01*
X145360117Y-95546310D01*
X145344377Y-95525087D01*
X145330793Y-95502424D01*
X145319495Y-95478538D01*
X145310594Y-95453659D01*
X145304174Y-95428028D01*
X145300297Y-95401891D01*
X145299000Y-95375500D01*
X145299000Y-94837000D01*
X145300297Y-94810609D01*
X145304174Y-94784472D01*
X145310594Y-94758841D01*
X145319495Y-94733962D01*
X145330793Y-94710076D01*
X145344377Y-94687413D01*
X145360117Y-94666190D01*
X145377861Y-94646611D01*
X145397440Y-94628867D01*
X145418663Y-94613127D01*
X145441326Y-94599543D01*
X145465212Y-94588245D01*
X145490091Y-94579344D01*
X145515722Y-94572924D01*
X145541859Y-94569047D01*
X145568250Y-94567750D01*
X146531750Y-94567750D01*
X146558141Y-94569047D01*
X146558141Y-94569047D01*
G37*
D29*
X146050000Y-95106250D03*
D28*
G36*
X156368891Y-87617547D02*
G01*
X156395028Y-87621424D01*
X156420659Y-87627844D01*
X156445538Y-87636745D01*
X156469424Y-87648043D01*
X156492087Y-87661627D01*
X156513310Y-87677367D01*
X156532889Y-87695111D01*
X156550633Y-87714690D01*
X156566373Y-87735913D01*
X156579957Y-87758576D01*
X156591255Y-87782462D01*
X156600156Y-87807341D01*
X156606576Y-87832972D01*
X156610453Y-87859109D01*
X156611750Y-87885500D01*
X156611750Y-88424000D01*
X156610453Y-88450391D01*
X156606576Y-88476528D01*
X156600156Y-88502159D01*
X156591255Y-88527038D01*
X156579957Y-88550924D01*
X156566373Y-88573587D01*
X156550633Y-88594810D01*
X156532889Y-88614389D01*
X156513310Y-88632133D01*
X156492087Y-88647873D01*
X156469424Y-88661457D01*
X156445538Y-88672755D01*
X156420659Y-88681656D01*
X156395028Y-88688076D01*
X156368891Y-88691953D01*
X156342500Y-88693250D01*
X155379000Y-88693250D01*
X155352609Y-88691953D01*
X155326472Y-88688076D01*
X155300841Y-88681656D01*
X155275962Y-88672755D01*
X155252076Y-88661457D01*
X155229413Y-88647873D01*
X155208190Y-88632133D01*
X155188611Y-88614389D01*
X155170867Y-88594810D01*
X155155127Y-88573587D01*
X155141543Y-88550924D01*
X155130245Y-88527038D01*
X155121344Y-88502159D01*
X155114924Y-88476528D01*
X155111047Y-88450391D01*
X155109750Y-88424000D01*
X155109750Y-87885500D01*
X155111047Y-87859109D01*
X155114924Y-87832972D01*
X155121344Y-87807341D01*
X155130245Y-87782462D01*
X155141543Y-87758576D01*
X155155127Y-87735913D01*
X155170867Y-87714690D01*
X155188611Y-87695111D01*
X155208190Y-87677367D01*
X155229413Y-87661627D01*
X155252076Y-87648043D01*
X155275962Y-87636745D01*
X155300841Y-87627844D01*
X155326472Y-87621424D01*
X155352609Y-87617547D01*
X155379000Y-87616250D01*
X156342500Y-87616250D01*
X156368891Y-87617547D01*
X156368891Y-87617547D01*
G37*
D29*
X155860750Y-88154750D03*
D28*
G36*
X156368891Y-85742547D02*
G01*
X156395028Y-85746424D01*
X156420659Y-85752844D01*
X156445538Y-85761745D01*
X156469424Y-85773043D01*
X156492087Y-85786627D01*
X156513310Y-85802367D01*
X156532889Y-85820111D01*
X156550633Y-85839690D01*
X156566373Y-85860913D01*
X156579957Y-85883576D01*
X156591255Y-85907462D01*
X156600156Y-85932341D01*
X156606576Y-85957972D01*
X156610453Y-85984109D01*
X156611750Y-86010500D01*
X156611750Y-86549000D01*
X156610453Y-86575391D01*
X156606576Y-86601528D01*
X156600156Y-86627159D01*
X156591255Y-86652038D01*
X156579957Y-86675924D01*
X156566373Y-86698587D01*
X156550633Y-86719810D01*
X156532889Y-86739389D01*
X156513310Y-86757133D01*
X156492087Y-86772873D01*
X156469424Y-86786457D01*
X156445538Y-86797755D01*
X156420659Y-86806656D01*
X156395028Y-86813076D01*
X156368891Y-86816953D01*
X156342500Y-86818250D01*
X155379000Y-86818250D01*
X155352609Y-86816953D01*
X155326472Y-86813076D01*
X155300841Y-86806656D01*
X155275962Y-86797755D01*
X155252076Y-86786457D01*
X155229413Y-86772873D01*
X155208190Y-86757133D01*
X155188611Y-86739389D01*
X155170867Y-86719810D01*
X155155127Y-86698587D01*
X155141543Y-86675924D01*
X155130245Y-86652038D01*
X155121344Y-86627159D01*
X155114924Y-86601528D01*
X155111047Y-86575391D01*
X155109750Y-86549000D01*
X155109750Y-86010500D01*
X155111047Y-85984109D01*
X155114924Y-85957972D01*
X155121344Y-85932341D01*
X155130245Y-85907462D01*
X155141543Y-85883576D01*
X155155127Y-85860913D01*
X155170867Y-85839690D01*
X155188611Y-85820111D01*
X155208190Y-85802367D01*
X155229413Y-85786627D01*
X155252076Y-85773043D01*
X155275962Y-85761745D01*
X155300841Y-85752844D01*
X155326472Y-85746424D01*
X155352609Y-85742547D01*
X155379000Y-85741250D01*
X156342500Y-85741250D01*
X156368891Y-85742547D01*
X156368891Y-85742547D01*
G37*
D29*
X155860750Y-86279750D03*
D28*
G36*
X165036641Y-85742547D02*
G01*
X165062778Y-85746424D01*
X165088409Y-85752844D01*
X165113288Y-85761745D01*
X165137174Y-85773043D01*
X165159837Y-85786627D01*
X165181060Y-85802367D01*
X165200639Y-85820111D01*
X165218383Y-85839690D01*
X165234123Y-85860913D01*
X165247707Y-85883576D01*
X165259005Y-85907462D01*
X165267906Y-85932341D01*
X165274326Y-85957972D01*
X165278203Y-85984109D01*
X165279500Y-86010500D01*
X165279500Y-86549000D01*
X165278203Y-86575391D01*
X165274326Y-86601528D01*
X165267906Y-86627159D01*
X165259005Y-86652038D01*
X165247707Y-86675924D01*
X165234123Y-86698587D01*
X165218383Y-86719810D01*
X165200639Y-86739389D01*
X165181060Y-86757133D01*
X165159837Y-86772873D01*
X165137174Y-86786457D01*
X165113288Y-86797755D01*
X165088409Y-86806656D01*
X165062778Y-86813076D01*
X165036641Y-86816953D01*
X165010250Y-86818250D01*
X164046750Y-86818250D01*
X164020359Y-86816953D01*
X163994222Y-86813076D01*
X163968591Y-86806656D01*
X163943712Y-86797755D01*
X163919826Y-86786457D01*
X163897163Y-86772873D01*
X163875940Y-86757133D01*
X163856361Y-86739389D01*
X163838617Y-86719810D01*
X163822877Y-86698587D01*
X163809293Y-86675924D01*
X163797995Y-86652038D01*
X163789094Y-86627159D01*
X163782674Y-86601528D01*
X163778797Y-86575391D01*
X163777500Y-86549000D01*
X163777500Y-86010500D01*
X163778797Y-85984109D01*
X163782674Y-85957972D01*
X163789094Y-85932341D01*
X163797995Y-85907462D01*
X163809293Y-85883576D01*
X163822877Y-85860913D01*
X163838617Y-85839690D01*
X163856361Y-85820111D01*
X163875940Y-85802367D01*
X163897163Y-85786627D01*
X163919826Y-85773043D01*
X163943712Y-85761745D01*
X163968591Y-85752844D01*
X163994222Y-85746424D01*
X164020359Y-85742547D01*
X164046750Y-85741250D01*
X165010250Y-85741250D01*
X165036641Y-85742547D01*
X165036641Y-85742547D01*
G37*
D29*
X164528500Y-86279750D03*
D28*
G36*
X165036641Y-87617547D02*
G01*
X165062778Y-87621424D01*
X165088409Y-87627844D01*
X165113288Y-87636745D01*
X165137174Y-87648043D01*
X165159837Y-87661627D01*
X165181060Y-87677367D01*
X165200639Y-87695111D01*
X165218383Y-87714690D01*
X165234123Y-87735913D01*
X165247707Y-87758576D01*
X165259005Y-87782462D01*
X165267906Y-87807341D01*
X165274326Y-87832972D01*
X165278203Y-87859109D01*
X165279500Y-87885500D01*
X165279500Y-88424000D01*
X165278203Y-88450391D01*
X165274326Y-88476528D01*
X165267906Y-88502159D01*
X165259005Y-88527038D01*
X165247707Y-88550924D01*
X165234123Y-88573587D01*
X165218383Y-88594810D01*
X165200639Y-88614389D01*
X165181060Y-88632133D01*
X165159837Y-88647873D01*
X165137174Y-88661457D01*
X165113288Y-88672755D01*
X165088409Y-88681656D01*
X165062778Y-88688076D01*
X165036641Y-88691953D01*
X165010250Y-88693250D01*
X164046750Y-88693250D01*
X164020359Y-88691953D01*
X163994222Y-88688076D01*
X163968591Y-88681656D01*
X163943712Y-88672755D01*
X163919826Y-88661457D01*
X163897163Y-88647873D01*
X163875940Y-88632133D01*
X163856361Y-88614389D01*
X163838617Y-88594810D01*
X163822877Y-88573587D01*
X163809293Y-88550924D01*
X163797995Y-88527038D01*
X163789094Y-88502159D01*
X163782674Y-88476528D01*
X163778797Y-88450391D01*
X163777500Y-88424000D01*
X163777500Y-87885500D01*
X163778797Y-87859109D01*
X163782674Y-87832972D01*
X163789094Y-87807341D01*
X163797995Y-87782462D01*
X163809293Y-87758576D01*
X163822877Y-87735913D01*
X163838617Y-87714690D01*
X163856361Y-87695111D01*
X163875940Y-87677367D01*
X163897163Y-87661627D01*
X163919826Y-87648043D01*
X163943712Y-87636745D01*
X163968591Y-87627844D01*
X163994222Y-87621424D01*
X164020359Y-87617547D01*
X164046750Y-87616250D01*
X165010250Y-87616250D01*
X165036641Y-87617547D01*
X165036641Y-87617547D01*
G37*
D29*
X164528500Y-88154750D03*
D28*
G36*
X149733141Y-105683297D02*
G01*
X149759278Y-105687174D01*
X149784909Y-105693594D01*
X149809788Y-105702495D01*
X149833674Y-105713793D01*
X149856337Y-105727377D01*
X149877560Y-105743117D01*
X149897139Y-105760861D01*
X149914883Y-105780440D01*
X149930623Y-105801663D01*
X149944207Y-105824326D01*
X149955505Y-105848212D01*
X149964406Y-105873091D01*
X149970826Y-105898722D01*
X149974703Y-105924859D01*
X149976000Y-105951250D01*
X149976000Y-106489750D01*
X149974703Y-106516141D01*
X149970826Y-106542278D01*
X149964406Y-106567909D01*
X149955505Y-106592788D01*
X149944207Y-106616674D01*
X149930623Y-106639337D01*
X149914883Y-106660560D01*
X149897139Y-106680139D01*
X149877560Y-106697883D01*
X149856337Y-106713623D01*
X149833674Y-106727207D01*
X149809788Y-106738505D01*
X149784909Y-106747406D01*
X149759278Y-106753826D01*
X149733141Y-106757703D01*
X149706750Y-106759000D01*
X148743250Y-106759000D01*
X148716859Y-106757703D01*
X148690722Y-106753826D01*
X148665091Y-106747406D01*
X148640212Y-106738505D01*
X148616326Y-106727207D01*
X148593663Y-106713623D01*
X148572440Y-106697883D01*
X148552861Y-106680139D01*
X148535117Y-106660560D01*
X148519377Y-106639337D01*
X148505793Y-106616674D01*
X148494495Y-106592788D01*
X148485594Y-106567909D01*
X148479174Y-106542278D01*
X148475297Y-106516141D01*
X148474000Y-106489750D01*
X148474000Y-105951250D01*
X148475297Y-105924859D01*
X148479174Y-105898722D01*
X148485594Y-105873091D01*
X148494495Y-105848212D01*
X148505793Y-105824326D01*
X148519377Y-105801663D01*
X148535117Y-105780440D01*
X148552861Y-105760861D01*
X148572440Y-105743117D01*
X148593663Y-105727377D01*
X148616326Y-105713793D01*
X148640212Y-105702495D01*
X148665091Y-105693594D01*
X148690722Y-105687174D01*
X148716859Y-105683297D01*
X148743250Y-105682000D01*
X149706750Y-105682000D01*
X149733141Y-105683297D01*
X149733141Y-105683297D01*
G37*
D29*
X149225000Y-106220500D03*
D28*
G36*
X149733141Y-103808297D02*
G01*
X149759278Y-103812174D01*
X149784909Y-103818594D01*
X149809788Y-103827495D01*
X149833674Y-103838793D01*
X149856337Y-103852377D01*
X149877560Y-103868117D01*
X149897139Y-103885861D01*
X149914883Y-103905440D01*
X149930623Y-103926663D01*
X149944207Y-103949326D01*
X149955505Y-103973212D01*
X149964406Y-103998091D01*
X149970826Y-104023722D01*
X149974703Y-104049859D01*
X149976000Y-104076250D01*
X149976000Y-104614750D01*
X149974703Y-104641141D01*
X149970826Y-104667278D01*
X149964406Y-104692909D01*
X149955505Y-104717788D01*
X149944207Y-104741674D01*
X149930623Y-104764337D01*
X149914883Y-104785560D01*
X149897139Y-104805139D01*
X149877560Y-104822883D01*
X149856337Y-104838623D01*
X149833674Y-104852207D01*
X149809788Y-104863505D01*
X149784909Y-104872406D01*
X149759278Y-104878826D01*
X149733141Y-104882703D01*
X149706750Y-104884000D01*
X148743250Y-104884000D01*
X148716859Y-104882703D01*
X148690722Y-104878826D01*
X148665091Y-104872406D01*
X148640212Y-104863505D01*
X148616326Y-104852207D01*
X148593663Y-104838623D01*
X148572440Y-104822883D01*
X148552861Y-104805139D01*
X148535117Y-104785560D01*
X148519377Y-104764337D01*
X148505793Y-104741674D01*
X148494495Y-104717788D01*
X148485594Y-104692909D01*
X148479174Y-104667278D01*
X148475297Y-104641141D01*
X148474000Y-104614750D01*
X148474000Y-104076250D01*
X148475297Y-104049859D01*
X148479174Y-104023722D01*
X148485594Y-103998091D01*
X148494495Y-103973212D01*
X148505793Y-103949326D01*
X148519377Y-103926663D01*
X148535117Y-103905440D01*
X148552861Y-103885861D01*
X148572440Y-103868117D01*
X148593663Y-103852377D01*
X148616326Y-103838793D01*
X148640212Y-103827495D01*
X148665091Y-103818594D01*
X148690722Y-103812174D01*
X148716859Y-103808297D01*
X148743250Y-103807000D01*
X149706750Y-103807000D01*
X149733141Y-103808297D01*
X149733141Y-103808297D01*
G37*
D29*
X149225000Y-104345500D03*
D28*
G36*
X162426141Y-109581547D02*
G01*
X162452278Y-109585424D01*
X162477909Y-109591844D01*
X162502788Y-109600745D01*
X162526674Y-109612043D01*
X162549337Y-109625627D01*
X162570560Y-109641367D01*
X162590139Y-109659111D01*
X162607883Y-109678690D01*
X162623623Y-109699913D01*
X162637207Y-109722576D01*
X162648505Y-109746462D01*
X162657406Y-109771341D01*
X162663826Y-109796972D01*
X162667703Y-109823109D01*
X162669000Y-109849500D01*
X162669000Y-110813000D01*
X162667703Y-110839391D01*
X162663826Y-110865528D01*
X162657406Y-110891159D01*
X162648505Y-110916038D01*
X162637207Y-110939924D01*
X162623623Y-110962587D01*
X162607883Y-110983810D01*
X162590139Y-111003389D01*
X162570560Y-111021133D01*
X162549337Y-111036873D01*
X162526674Y-111050457D01*
X162502788Y-111061755D01*
X162477909Y-111070656D01*
X162452278Y-111077076D01*
X162426141Y-111080953D01*
X162399750Y-111082250D01*
X161861250Y-111082250D01*
X161834859Y-111080953D01*
X161808722Y-111077076D01*
X161783091Y-111070656D01*
X161758212Y-111061755D01*
X161734326Y-111050457D01*
X161711663Y-111036873D01*
X161690440Y-111021133D01*
X161670861Y-111003389D01*
X161653117Y-110983810D01*
X161637377Y-110962587D01*
X161623793Y-110939924D01*
X161612495Y-110916038D01*
X161603594Y-110891159D01*
X161597174Y-110865528D01*
X161593297Y-110839391D01*
X161592000Y-110813000D01*
X161592000Y-109849500D01*
X161593297Y-109823109D01*
X161597174Y-109796972D01*
X161603594Y-109771341D01*
X161612495Y-109746462D01*
X161623793Y-109722576D01*
X161637377Y-109699913D01*
X161653117Y-109678690D01*
X161670861Y-109659111D01*
X161690440Y-109641367D01*
X161711663Y-109625627D01*
X161734326Y-109612043D01*
X161758212Y-109600745D01*
X161783091Y-109591844D01*
X161808722Y-109585424D01*
X161834859Y-109581547D01*
X161861250Y-109580250D01*
X162399750Y-109580250D01*
X162426141Y-109581547D01*
X162426141Y-109581547D01*
G37*
D29*
X162130500Y-110331250D03*
D28*
G36*
X164301141Y-109581547D02*
G01*
X164327278Y-109585424D01*
X164352909Y-109591844D01*
X164377788Y-109600745D01*
X164401674Y-109612043D01*
X164424337Y-109625627D01*
X164445560Y-109641367D01*
X164465139Y-109659111D01*
X164482883Y-109678690D01*
X164498623Y-109699913D01*
X164512207Y-109722576D01*
X164523505Y-109746462D01*
X164532406Y-109771341D01*
X164538826Y-109796972D01*
X164542703Y-109823109D01*
X164544000Y-109849500D01*
X164544000Y-110813000D01*
X164542703Y-110839391D01*
X164538826Y-110865528D01*
X164532406Y-110891159D01*
X164523505Y-110916038D01*
X164512207Y-110939924D01*
X164498623Y-110962587D01*
X164482883Y-110983810D01*
X164465139Y-111003389D01*
X164445560Y-111021133D01*
X164424337Y-111036873D01*
X164401674Y-111050457D01*
X164377788Y-111061755D01*
X164352909Y-111070656D01*
X164327278Y-111077076D01*
X164301141Y-111080953D01*
X164274750Y-111082250D01*
X163736250Y-111082250D01*
X163709859Y-111080953D01*
X163683722Y-111077076D01*
X163658091Y-111070656D01*
X163633212Y-111061755D01*
X163609326Y-111050457D01*
X163586663Y-111036873D01*
X163565440Y-111021133D01*
X163545861Y-111003389D01*
X163528117Y-110983810D01*
X163512377Y-110962587D01*
X163498793Y-110939924D01*
X163487495Y-110916038D01*
X163478594Y-110891159D01*
X163472174Y-110865528D01*
X163468297Y-110839391D01*
X163467000Y-110813000D01*
X163467000Y-109849500D01*
X163468297Y-109823109D01*
X163472174Y-109796972D01*
X163478594Y-109771341D01*
X163487495Y-109746462D01*
X163498793Y-109722576D01*
X163512377Y-109699913D01*
X163528117Y-109678690D01*
X163545861Y-109659111D01*
X163565440Y-109641367D01*
X163586663Y-109625627D01*
X163609326Y-109612043D01*
X163633212Y-109600745D01*
X163658091Y-109591844D01*
X163683722Y-109585424D01*
X163709859Y-109581547D01*
X163736250Y-109580250D01*
X164274750Y-109580250D01*
X164301141Y-109581547D01*
X164301141Y-109581547D01*
G37*
D29*
X164005500Y-110331250D03*
D28*
G36*
X169513391Y-94632547D02*
G01*
X169539528Y-94636424D01*
X169565159Y-94642844D01*
X169590038Y-94651745D01*
X169613924Y-94663043D01*
X169636587Y-94676627D01*
X169657810Y-94692367D01*
X169677389Y-94710111D01*
X169695133Y-94729690D01*
X169710873Y-94750913D01*
X169724457Y-94773576D01*
X169735755Y-94797462D01*
X169744656Y-94822341D01*
X169751076Y-94847972D01*
X169754953Y-94874109D01*
X169756250Y-94900500D01*
X169756250Y-95439000D01*
X169754953Y-95465391D01*
X169751076Y-95491528D01*
X169744656Y-95517159D01*
X169735755Y-95542038D01*
X169724457Y-95565924D01*
X169710873Y-95588587D01*
X169695133Y-95609810D01*
X169677389Y-95629389D01*
X169657810Y-95647133D01*
X169636587Y-95662873D01*
X169613924Y-95676457D01*
X169590038Y-95687755D01*
X169565159Y-95696656D01*
X169539528Y-95703076D01*
X169513391Y-95706953D01*
X169487000Y-95708250D01*
X168523500Y-95708250D01*
X168497109Y-95706953D01*
X168470972Y-95703076D01*
X168445341Y-95696656D01*
X168420462Y-95687755D01*
X168396576Y-95676457D01*
X168373913Y-95662873D01*
X168352690Y-95647133D01*
X168333111Y-95629389D01*
X168315367Y-95609810D01*
X168299627Y-95588587D01*
X168286043Y-95565924D01*
X168274745Y-95542038D01*
X168265844Y-95517159D01*
X168259424Y-95491528D01*
X168255547Y-95465391D01*
X168254250Y-95439000D01*
X168254250Y-94900500D01*
X168255547Y-94874109D01*
X168259424Y-94847972D01*
X168265844Y-94822341D01*
X168274745Y-94797462D01*
X168286043Y-94773576D01*
X168299627Y-94750913D01*
X168315367Y-94729690D01*
X168333111Y-94710111D01*
X168352690Y-94692367D01*
X168373913Y-94676627D01*
X168396576Y-94663043D01*
X168420462Y-94651745D01*
X168445341Y-94642844D01*
X168470972Y-94636424D01*
X168497109Y-94632547D01*
X168523500Y-94631250D01*
X169487000Y-94631250D01*
X169513391Y-94632547D01*
X169513391Y-94632547D01*
G37*
D29*
X169005250Y-95169750D03*
D28*
G36*
X169513391Y-96507547D02*
G01*
X169539528Y-96511424D01*
X169565159Y-96517844D01*
X169590038Y-96526745D01*
X169613924Y-96538043D01*
X169636587Y-96551627D01*
X169657810Y-96567367D01*
X169677389Y-96585111D01*
X169695133Y-96604690D01*
X169710873Y-96625913D01*
X169724457Y-96648576D01*
X169735755Y-96672462D01*
X169744656Y-96697341D01*
X169751076Y-96722972D01*
X169754953Y-96749109D01*
X169756250Y-96775500D01*
X169756250Y-97314000D01*
X169754953Y-97340391D01*
X169751076Y-97366528D01*
X169744656Y-97392159D01*
X169735755Y-97417038D01*
X169724457Y-97440924D01*
X169710873Y-97463587D01*
X169695133Y-97484810D01*
X169677389Y-97504389D01*
X169657810Y-97522133D01*
X169636587Y-97537873D01*
X169613924Y-97551457D01*
X169590038Y-97562755D01*
X169565159Y-97571656D01*
X169539528Y-97578076D01*
X169513391Y-97581953D01*
X169487000Y-97583250D01*
X168523500Y-97583250D01*
X168497109Y-97581953D01*
X168470972Y-97578076D01*
X168445341Y-97571656D01*
X168420462Y-97562755D01*
X168396576Y-97551457D01*
X168373913Y-97537873D01*
X168352690Y-97522133D01*
X168333111Y-97504389D01*
X168315367Y-97484810D01*
X168299627Y-97463587D01*
X168286043Y-97440924D01*
X168274745Y-97417038D01*
X168265844Y-97392159D01*
X168259424Y-97366528D01*
X168255547Y-97340391D01*
X168254250Y-97314000D01*
X168254250Y-96775500D01*
X168255547Y-96749109D01*
X168259424Y-96722972D01*
X168265844Y-96697341D01*
X168274745Y-96672462D01*
X168286043Y-96648576D01*
X168299627Y-96625913D01*
X168315367Y-96604690D01*
X168333111Y-96585111D01*
X168352690Y-96567367D01*
X168373913Y-96551627D01*
X168396576Y-96538043D01*
X168420462Y-96526745D01*
X168445341Y-96517844D01*
X168470972Y-96511424D01*
X168497109Y-96507547D01*
X168523500Y-96506250D01*
X169487000Y-96506250D01*
X169513391Y-96507547D01*
X169513391Y-96507547D01*
G37*
D29*
X169005250Y-97044750D03*
D28*
G36*
X151892141Y-90727297D02*
G01*
X151918278Y-90731174D01*
X151943909Y-90737594D01*
X151968788Y-90746495D01*
X151992674Y-90757793D01*
X152015337Y-90771377D01*
X152036560Y-90787117D01*
X152056139Y-90804861D01*
X152073883Y-90824440D01*
X152089623Y-90845663D01*
X152103207Y-90868326D01*
X152114505Y-90892212D01*
X152123406Y-90917091D01*
X152129826Y-90942722D01*
X152133703Y-90968859D01*
X152135000Y-90995250D01*
X152135000Y-91533750D01*
X152133703Y-91560141D01*
X152129826Y-91586278D01*
X152123406Y-91611909D01*
X152114505Y-91636788D01*
X152103207Y-91660674D01*
X152089623Y-91683337D01*
X152073883Y-91704560D01*
X152056139Y-91724139D01*
X152036560Y-91741883D01*
X152015337Y-91757623D01*
X151992674Y-91771207D01*
X151968788Y-91782505D01*
X151943909Y-91791406D01*
X151918278Y-91797826D01*
X151892141Y-91801703D01*
X151865750Y-91803000D01*
X150902250Y-91803000D01*
X150875859Y-91801703D01*
X150849722Y-91797826D01*
X150824091Y-91791406D01*
X150799212Y-91782505D01*
X150775326Y-91771207D01*
X150752663Y-91757623D01*
X150731440Y-91741883D01*
X150711861Y-91724139D01*
X150694117Y-91704560D01*
X150678377Y-91683337D01*
X150664793Y-91660674D01*
X150653495Y-91636788D01*
X150644594Y-91611909D01*
X150638174Y-91586278D01*
X150634297Y-91560141D01*
X150633000Y-91533750D01*
X150633000Y-90995250D01*
X150634297Y-90968859D01*
X150638174Y-90942722D01*
X150644594Y-90917091D01*
X150653495Y-90892212D01*
X150664793Y-90868326D01*
X150678377Y-90845663D01*
X150694117Y-90824440D01*
X150711861Y-90804861D01*
X150731440Y-90787117D01*
X150752663Y-90771377D01*
X150775326Y-90757793D01*
X150799212Y-90746495D01*
X150824091Y-90737594D01*
X150849722Y-90731174D01*
X150875859Y-90727297D01*
X150902250Y-90726000D01*
X151865750Y-90726000D01*
X151892141Y-90727297D01*
X151892141Y-90727297D01*
G37*
D29*
X151384000Y-91264500D03*
D28*
G36*
X151892141Y-92602297D02*
G01*
X151918278Y-92606174D01*
X151943909Y-92612594D01*
X151968788Y-92621495D01*
X151992674Y-92632793D01*
X152015337Y-92646377D01*
X152036560Y-92662117D01*
X152056139Y-92679861D01*
X152073883Y-92699440D01*
X152089623Y-92720663D01*
X152103207Y-92743326D01*
X152114505Y-92767212D01*
X152123406Y-92792091D01*
X152129826Y-92817722D01*
X152133703Y-92843859D01*
X152135000Y-92870250D01*
X152135000Y-93408750D01*
X152133703Y-93435141D01*
X152129826Y-93461278D01*
X152123406Y-93486909D01*
X152114505Y-93511788D01*
X152103207Y-93535674D01*
X152089623Y-93558337D01*
X152073883Y-93579560D01*
X152056139Y-93599139D01*
X152036560Y-93616883D01*
X152015337Y-93632623D01*
X151992674Y-93646207D01*
X151968788Y-93657505D01*
X151943909Y-93666406D01*
X151918278Y-93672826D01*
X151892141Y-93676703D01*
X151865750Y-93678000D01*
X150902250Y-93678000D01*
X150875859Y-93676703D01*
X150849722Y-93672826D01*
X150824091Y-93666406D01*
X150799212Y-93657505D01*
X150775326Y-93646207D01*
X150752663Y-93632623D01*
X150731440Y-93616883D01*
X150711861Y-93599139D01*
X150694117Y-93579560D01*
X150678377Y-93558337D01*
X150664793Y-93535674D01*
X150653495Y-93511788D01*
X150644594Y-93486909D01*
X150638174Y-93461278D01*
X150634297Y-93435141D01*
X150633000Y-93408750D01*
X150633000Y-92870250D01*
X150634297Y-92843859D01*
X150638174Y-92817722D01*
X150644594Y-92792091D01*
X150653495Y-92767212D01*
X150664793Y-92743326D01*
X150678377Y-92720663D01*
X150694117Y-92699440D01*
X150711861Y-92679861D01*
X150731440Y-92662117D01*
X150752663Y-92646377D01*
X150775326Y-92632793D01*
X150799212Y-92621495D01*
X150824091Y-92612594D01*
X150849722Y-92606174D01*
X150875859Y-92602297D01*
X150902250Y-92601000D01*
X151865750Y-92601000D01*
X151892141Y-92602297D01*
X151892141Y-92602297D01*
G37*
D29*
X151384000Y-93139500D03*
M02*
