M48
; DRILL file {KiCad (5.1.4)-1} date 7/31/2020 11:24:15 AM
; FORMAT={-:-/ absolute / inch / decimal}
; #@! TF.CreationDate,2020-07-31T11:24:15-07:00
; #@! TF.GenerationSoftware,Kicad,Pcbnew,(5.1.4)-1
FMAT,2
INCH
T1C0.0157
T2C0.0236
T3C0.0394
T4C0.0866
T5C0.1024
T6C0.0256
T7C0.0310
T8C0.0689
T9C0.1181
T10C0.1570
%
G90
G05
T1
X5.75Y-3.885
X5.8049Y-3.855
X5.8049Y-3.855
X5.875Y-2.915
X5.925Y-3.865
X5.925Y-3.9
X5.9375Y-3.5
X5.9588Y-3.7662
X5.9588Y-4.1037
X6.0625Y-3.6875
X6.08Y-2.845
X6.1213Y-4.3437
X6.175Y-2.875
X6.2084Y-2.8423
X6.32Y-2.845
X6.335Y-2.875
X6.435Y-2.845
X6.5312Y-4.3438
X6.5938Y-3.6875
X6.5938Y-3.875
X6.635Y-3.085
X6.6562Y-3.4912
X6.6562Y-3.8737
X6.83Y-3.28
X6.8898Y-3.7102
X6.89Y-3.16
X7.165Y-3.445
X7.405Y-3.445
X7.6398Y-3.7102
X7.64Y-3.16
X7.64Y-3.95
X7.64Y-4.295
X8.3898Y-3.7102
X8.39Y-3.955
X8.39Y-4.27
X8.3909Y-2.8841
T3
X8.57Y-2.8841
X8.57Y-3.455
X8.6684Y-3.455
X8.7669Y-2.8841
X8.7669Y-3.455
T4
X5.75Y-6.5625
X9.1562Y-2.6562
X5.75Y-2.6562
X5.75Y-4.8125
X9.1562Y-4.8125
X9.1562Y-4.4062
X9.1562Y-6.5625
X5.75Y-4.4062
T5
X8.448Y-3.1597
X8.8889Y-3.1597
T6
X6.1475Y-2.7361
X6.375Y-2.7361
T7
X6.4312Y-4.545
X6.4813Y-4.545
X6.5312Y-4.545
X6.5812Y-4.545
X6.6312Y-4.545
X6.431Y-4.6738
X6.481Y-4.6738
X6.531Y-4.6738
X6.581Y-4.6738
X6.631Y-4.6738
X8.2747Y-4.6738
X8.3247Y-4.6738
X8.3748Y-4.6738
X8.4247Y-4.6738
X8.4748Y-4.6738
X8.275Y-4.545
X8.325Y-4.545
X8.375Y-4.545
X8.425Y-4.545
X8.475Y-4.545
T8
X7.7188Y-3.16
X8.1188Y-3.16
X8.4688Y-3.91
X8.8688Y-3.91
X7.7188Y-3.91
X8.1188Y-3.91
X6.9688Y-3.91
X7.3687Y-3.91
X6.9688Y-3.16
X7.3687Y-3.16
T9
X7.7687Y-3.06
X8.0187Y-2.96
X8.5187Y-3.81
X8.7687Y-3.71
X7.7687Y-3.81
X8.0187Y-3.71
X7.0187Y-3.81
X7.2687Y-3.71
X7.0187Y-3.06
X7.2687Y-2.96
T10
X8.6687Y-3.91
X7.1688Y-3.91
X7.1688Y-3.16
X7.9188Y-3.16
X7.9188Y-3.91
T2
G00X6.0912Y-2.5806
M15
G01X6.0912Y-2.6042
M16
G05
G00X6.0912Y-2.7353
M15
G01X6.0912Y-2.7786
M16
G05
G00X6.4313Y-2.5806
M15
G01X6.4313Y-2.6042
M16
G05
G00X6.4313Y-2.7353
M15
G01X6.4313Y-2.7786
M16
G05
T0
M30
